<svg version="1.1" viewBox="0 0 49 49" xmlns="http://www.w3.org/2000/svg"><a href="https://github.com/Transport-for-the-North/Land-Use" target="_blank"><path d="M4,4H5V5H4zM5,4H6V5H5zM6,4H7V5H6zM7,4H8V5H7zM8,4H9V5H8zM9,4H10V5H9zM10,4H11V5H10zM12.125,4.50A0.25,0.25 0 0 0 12.875,4.50A0.25,0.25 0 0 0 12.125,4.50zM13.125,4.50A0.25,0.25 0 0 0 13.875,4.50A0.25,0.25 0 0 0 13.125,4.50zM14.125,4.50A0.25,0.25 0 0 0 14.875,4.50A0.25,0.25 0 0 0 14.125,4.50zM15.125,4.50A0.25,0.25 0 0 0 15.875,4.50A0.25,0.25 0 0 0 15.125,4.50zM16.125,4.50A0.25,0.25 0 0 0 16.875,4.50A0.25,0.25 0 0 0 16.125,4.50zM17.125,4.50A0.25,0.25 0 0 0 17.875,4.50A0.25,0.25 0 0 0 17.125,4.50zM18.125,4.50A0.25,0.25 0 0 0 18.875,4.50A0.25,0.25 0 0 0 18.125,4.50zM20.125,4.50A0.25,0.25 0 0 0 20.875,4.50A0.25,0.25 0 0 0 20.125,4.50zM21.125,4.50A0.25,0.25 0 0 0 21.875,4.50A0.25,0.25 0 0 0 21.125,4.50zM22.125,4.50A0.25,0.25 0 0 0 22.875,4.50A0.25,0.25 0 0 0 22.125,4.50zM23.125,4.50A0.25,0.25 0 0 0 23.875,4.50A0.25,0.25 0 0 0 23.125,4.50zM25.125,4.50A0.25,0.25 0 0 0 25.875,4.50A0.25,0.25 0 0 0 25.125,4.50zM26.125,4.50A0.25,0.25 0 0 0 26.875,4.50A0.25,0.25 0 0 0 26.125,4.50zM27.125,4.50A0.25,0.25 0 0 0 27.875,4.50A0.25,0.25 0 0 0 27.125,4.50zM30.125,4.50A0.25,0.25 0 0 0 30.875,4.50A0.25,0.25 0 0 0 30.125,4.50zM31.125,4.50A0.25,0.25 0 0 0 31.875,4.50A0.25,0.25 0 0 0 31.125,4.50zM33.125,4.50A0.25,0.25 0 0 0 33.875,4.50A0.25,0.25 0 0 0 33.125,4.50zM34.125,4.50A0.25,0.25 0 0 0 34.875,4.50A0.25,0.25 0 0 0 34.125,4.50zM38,4H39V5H38zM39,4H40V5H39zM40,4H41V5H40zM41,4H42V5H41zM42,4H43V5H42zM43,4H44V5H43zM44,4H45V5H44zM4,5H5V6H4zM10,5H11V6H10zM13.125,5.50A0.25,0.25 0 0 0 13.875,5.50A0.25,0.25 0 0 0 13.125,5.50zM15.125,5.50A0.25,0.25 0 0 0 15.875,5.50A0.25,0.25 0 0 0 15.125,5.50zM16.125,5.50A0.25,0.25 0 0 0 16.875,5.50A0.25,0.25 0 0 0 16.125,5.50zM18.125,5.50A0.25,0.25 0 0 0 18.875,5.50A0.25,0.25 0 0 0 18.125,5.50zM20.125,5.50A0.25,0.25 0 0 0 20.875,5.50A0.25,0.25 0 0 0 20.125,5.50zM22.125,5.50A0.25,0.25 0 0 0 22.875,5.50A0.25,0.25 0 0 0 22.125,5.50zM24.125,5.50A0.25,0.25 0 0 0 24.875,5.50A0.25,0.25 0 0 0 24.125,5.50zM26.125,5.50A0.25,0.25 0 0 0 26.875,5.50A0.25,0.25 0 0 0 26.125,5.50zM28.125,5.50A0.25,0.25 0 0 0 28.875,5.50A0.25,0.25 0 0 0 28.125,5.50zM29.125,5.50A0.25,0.25 0 0 0 29.875,5.50A0.25,0.25 0 0 0 29.125,5.50zM30.125,5.50A0.25,0.25 0 0 0 30.875,5.50A0.25,0.25 0 0 0 30.125,5.50zM32.125,5.50A0.25,0.25 0 0 0 32.875,5.50A0.25,0.25 0 0 0 32.125,5.50zM34.125,5.50A0.25,0.25 0 0 0 34.875,5.50A0.25,0.25 0 0 0 34.125,5.50zM38,5H39V6H38zM44,5H45V6H44zM4,6H5V7H4zM6,6H7V7H6zM7,6H8V7H7zM8,6H9V7H8zM10,6H11V7H10zM12.125,6.50A0.25,0.25 0 0 0 12.875,6.50A0.25,0.25 0 0 0 12.125,6.50zM14.125,6.50A0.25,0.25 0 0 0 14.875,6.50A0.25,0.25 0 0 0 14.125,6.50zM16.125,6.50A0.25,0.25 0 0 0 16.875,6.50A0.25,0.25 0 0 0 16.125,6.50zM19.125,6.50A0.25,0.25 0 0 0 19.875,6.50A0.25,0.25 0 0 0 19.125,6.50zM21.125,6.50A0.25,0.25 0 0 0 21.875,6.50A0.25,0.25 0 0 0 21.125,6.50zM23.125,6.50A0.25,0.25 0 0 0 23.875,6.50A0.25,0.25 0 0 0 23.125,6.50zM26.125,6.50A0.25,0.25 0 0 0 26.875,6.50A0.25,0.25 0 0 0 26.125,6.50zM29.125,6.50A0.25,0.25 0 0 0 29.875,6.50A0.25,0.25 0 0 0 29.125,6.50zM32.125,6.50A0.25,0.25 0 0 0 32.875,6.50A0.25,0.25 0 0 0 32.125,6.50zM35.125,6.50A0.25,0.25 0 0 0 35.875,6.50A0.25,0.25 0 0 0 35.125,6.50zM36.125,6.50A0.25,0.25 0 0 0 36.875,6.50A0.25,0.25 0 0 0 36.125,6.50zM38,6H39V7H38zM40,6H41V7H40zM41,6H42V7H41zM42,6H43V7H42zM44,6H45V7H44zM4,7H5V8H4zM6,7H7V8H6zM7,7H8V8H7zM8,7H9V8H8zM10,7H11V8H10zM13.125,7.50A0.25,0.25 0 0 0 13.875,7.50A0.25,0.25 0 0 0 13.125,7.50zM14.125,7.50A0.25,0.25 0 0 0 14.875,7.50A0.25,0.25 0 0 0 14.125,7.50zM15.125,7.50A0.25,0.25 0 0 0 15.875,7.50A0.25,0.25 0 0 0 15.125,7.50zM17.125,7.50A0.25,0.25 0 0 0 17.875,7.50A0.25,0.25 0 0 0 17.125,7.50zM19.125,7.50A0.25,0.25 0 0 0 19.875,7.50A0.25,0.25 0 0 0 19.125,7.50zM21.125,7.50A0.25,0.25 0 0 0 21.875,7.50A0.25,0.25 0 0 0 21.125,7.50zM22.125,7.50A0.25,0.25 0 0 0 22.875,7.50A0.25,0.25 0 0 0 22.125,7.50zM26.125,7.50A0.25,0.25 0 0 0 26.875,7.50A0.25,0.25 0 0 0 26.125,7.50zM27.125,7.50A0.25,0.25 0 0 0 27.875,7.50A0.25,0.25 0 0 0 27.125,7.50zM31.125,7.50A0.25,0.25 0 0 0 31.875,7.50A0.25,0.25 0 0 0 31.125,7.50zM32.125,7.50A0.25,0.25 0 0 0 32.875,7.50A0.25,0.25 0 0 0 32.125,7.50zM34.125,7.50A0.25,0.25 0 0 0 34.875,7.50A0.25,0.25 0 0 0 34.125,7.50zM35.125,7.50A0.25,0.25 0 0 0 35.875,7.50A0.25,0.25 0 0 0 35.125,7.50zM38,7H39V8H38zM40,7H41V8H40zM41,7H42V8H41zM42,7H43V8H42zM44,7H45V8H44zM4,8H5V9H4zM6,8H7V9H6zM7,8H8V9H7zM8,8H9V9H8zM10,8H11V9H10zM12.125,8.50A0.25,0.25 0 0 0 12.875,8.50A0.25,0.25 0 0 0 12.125,8.50zM13.125,8.50A0.25,0.25 0 0 0 13.875,8.50A0.25,0.25 0 0 0 13.125,8.50zM15.125,8.50A0.25,0.25 0 0 0 15.875,8.50A0.25,0.25 0 0 0 15.125,8.50zM16.125,8.50A0.25,0.25 0 0 0 16.875,8.50A0.25,0.25 0 0 0 16.125,8.50zM18.125,8.50A0.25,0.25 0 0 0 18.875,8.50A0.25,0.25 0 0 0 18.125,8.50zM20.125,8.50A0.25,0.25 0 0 0 20.875,8.50A0.25,0.25 0 0 0 20.125,8.50zM21.125,8.50A0.25,0.25 0 0 0 21.875,8.50A0.25,0.25 0 0 0 21.125,8.50zM22.125,8.50A0.25,0.25 0 0 0 22.875,8.50A0.25,0.25 0 0 0 22.125,8.50zM26.125,8.50A0.25,0.25 0 0 0 26.875,8.50A0.25,0.25 0 0 0 26.125,8.50zM27.125,8.50A0.25,0.25 0 0 0 27.875,8.50A0.25,0.25 0 0 0 27.125,8.50zM29.125,8.50A0.25,0.25 0 0 0 29.875,8.50A0.25,0.25 0 0 0 29.125,8.50zM35.125,8.50A0.25,0.25 0 0 0 35.875,8.50A0.25,0.25 0 0 0 35.125,8.50zM36.125,8.50A0.25,0.25 0 0 0 36.875,8.50A0.25,0.25 0 0 0 36.125,8.50zM38,8H39V9H38zM40,8H41V9H40zM41,8H42V9H41zM42,8H43V9H42zM44,8H45V9H44zM4,9H5V10H4zM10,9H11V10H10zM14.125,9.50A0.25,0.25 0 0 0 14.875,9.50A0.25,0.25 0 0 0 14.125,9.50zM15.125,9.50A0.25,0.25 0 0 0 15.875,9.50A0.25,0.25 0 0 0 15.125,9.50zM19.125,9.50A0.25,0.25 0 0 0 19.875,9.50A0.25,0.25 0 0 0 19.125,9.50zM22.125,9.50A0.25,0.25 0 0 0 22.875,9.50A0.25,0.25 0 0 0 22.125,9.50zM24.125,9.50A0.25,0.25 0 0 0 24.875,9.50A0.25,0.25 0 0 0 24.125,9.50zM26.125,9.50A0.25,0.25 0 0 0 26.875,9.50A0.25,0.25 0 0 0 26.125,9.50zM28.125,9.50A0.25,0.25 0 0 0 28.875,9.50A0.25,0.25 0 0 0 28.125,9.50zM30.125,9.50A0.25,0.25 0 0 0 30.875,9.50A0.25,0.25 0 0 0 30.125,9.50zM33.125,9.50A0.25,0.25 0 0 0 33.875,9.50A0.25,0.25 0 0 0 33.125,9.50zM38,9H39V10H38zM44,9H45V10H44zM4,10H5V11H4zM5,10H6V11H5zM6,10H7V11H6zM7,10H8V11H7zM8,10H9V11H8zM9,10H10V11H9zM10,10H11V11H10zM12.125,10.50A0.25,0.25 0 0 0 12.875,10.50A0.25,0.25 0 0 0 12.125,10.50zM14.125,10.50A0.25,0.25 0 0 0 14.875,10.50A0.25,0.25 0 0 0 14.125,10.50zM16.125,10.50A0.25,0.25 0 0 0 16.875,10.50A0.25,0.25 0 0 0 16.125,10.50zM18.125,10.50A0.25,0.25 0 0 0 18.875,10.50A0.25,0.25 0 0 0 18.125,10.50zM20.125,10.50A0.25,0.25 0 0 0 20.875,10.50A0.25,0.25 0 0 0 20.125,10.50zM22.125,10.50A0.25,0.25 0 0 0 22.875,10.50A0.25,0.25 0 0 0 22.125,10.50zM24.125,10.50A0.25,0.25 0 0 0 24.875,10.50A0.25,0.25 0 0 0 24.125,10.50zM26.125,10.50A0.25,0.25 0 0 0 26.875,10.50A0.25,0.25 0 0 0 26.125,10.50zM28.125,10.50A0.25,0.25 0 0 0 28.875,10.50A0.25,0.25 0 0 0 28.125,10.50zM30.125,10.50A0.25,0.25 0 0 0 30.875,10.50A0.25,0.25 0 0 0 30.125,10.50zM32.125,10.50A0.25,0.25 0 0 0 32.875,10.50A0.25,0.25 0 0 0 32.125,10.50zM34.125,10.50A0.25,0.25 0 0 0 34.875,10.50A0.25,0.25 0 0 0 34.125,10.50zM36.125,10.50A0.25,0.25 0 0 0 36.875,10.50A0.25,0.25 0 0 0 36.125,10.50zM38,10H39V11H38zM39,10H40V11H39zM40,10H41V11H40zM41,10H42V11H41zM42,10H43V11H42zM43,10H44V11H43zM44,10H45V11H44zM12.125,11.50A0.25,0.25 0 0 0 12.875,11.50A0.25,0.25 0 0 0 12.125,11.50zM15.125,11.50A0.25,0.25 0 0 0 15.875,11.50A0.25,0.25 0 0 0 15.125,11.50zM18.125,11.50A0.25,0.25 0 0 0 18.875,11.50A0.25,0.25 0 0 0 18.125,11.50zM19.125,11.50A0.25,0.25 0 0 0 19.875,11.50A0.25,0.25 0 0 0 19.125,11.50zM20.125,11.50A0.25,0.25 0 0 0 20.875,11.50A0.25,0.25 0 0 0 20.125,11.50zM26.125,11.50A0.25,0.25 0 0 0 26.875,11.50A0.25,0.25 0 0 0 26.125,11.50zM29.125,11.50A0.25,0.25 0 0 0 29.875,11.50A0.25,0.25 0 0 0 29.125,11.50zM32.125,11.50A0.25,0.25 0 0 0 32.875,11.50A0.25,0.25 0 0 0 32.125,11.50zM35.125,11.50A0.25,0.25 0 0 0 35.875,11.50A0.25,0.25 0 0 0 35.125,11.50zM36.125,11.50A0.25,0.25 0 0 0 36.875,11.50A0.25,0.25 0 0 0 36.125,11.50zM9.125,12.50A0.25,0.25 0 0 0 9.875,12.50A0.25,0.25 0 0 0 9.125,12.50zM10.125,12.50A0.25,0.25 0 0 0 10.875,12.50A0.25,0.25 0 0 0 10.125,12.50zM15.125,12.50A0.25,0.25 0 0 0 15.875,12.50A0.25,0.25 0 0 0 15.125,12.50zM20.125,12.50A0.25,0.25 0 0 0 20.875,12.50A0.25,0.25 0 0 0 20.125,12.50zM22.125,12.50A0.25,0.25 0 0 0 22.875,12.50A0.25,0.25 0 0 0 22.125,12.50zM23.125,12.50A0.25,0.25 0 0 0 23.875,12.50A0.25,0.25 0 0 0 23.125,12.50zM24.125,12.50A0.25,0.25 0 0 0 24.875,12.50A0.25,0.25 0 0 0 24.125,12.50zM25.125,12.50A0.25,0.25 0 0 0 25.875,12.50A0.25,0.25 0 0 0 25.125,12.50zM27.125,12.50A0.25,0.25 0 0 0 27.875,12.50A0.25,0.25 0 0 0 27.125,12.50zM29.125,12.50A0.25,0.25 0 0 0 29.875,12.50A0.25,0.25 0 0 0 29.125,12.50zM31.125,12.50A0.25,0.25 0 0 0 31.875,12.50A0.25,0.25 0 0 0 31.125,12.50zM33.125,12.50A0.25,0.25 0 0 0 33.875,12.50A0.25,0.25 0 0 0 33.125,12.50zM35.125,12.50A0.25,0.25 0 0 0 35.875,12.50A0.25,0.25 0 0 0 35.125,12.50zM38.125,12.50A0.25,0.25 0 0 0 38.875,12.50A0.25,0.25 0 0 0 38.125,12.50zM40.125,12.50A0.25,0.25 0 0 0 40.875,12.50A0.25,0.25 0 0 0 40.125,12.50zM42.125,12.50A0.25,0.25 0 0 0 42.875,12.50A0.25,0.25 0 0 0 42.125,12.50zM44.125,12.50A0.25,0.25 0 0 0 44.875,12.50A0.25,0.25 0 0 0 44.125,12.50zM5.125,13.50A0.25,0.25 0 0 0 5.875,13.50A0.25,0.25 0 0 0 5.125,13.50zM7.125,13.50A0.25,0.25 0 0 0 7.875,13.50A0.25,0.25 0 0 0 7.125,13.50zM8.125,13.50A0.25,0.25 0 0 0 8.875,13.50A0.25,0.25 0 0 0 8.125,13.50zM9.125,13.50A0.25,0.25 0 0 0 9.875,13.50A0.25,0.25 0 0 0 9.125,13.50zM11.125,13.50A0.25,0.25 0 0 0 11.875,13.50A0.25,0.25 0 0 0 11.125,13.50zM12.125,13.50A0.25,0.25 0 0 0 12.875,13.50A0.25,0.25 0 0 0 12.125,13.50zM14.125,13.50A0.25,0.25 0 0 0 14.875,13.50A0.25,0.25 0 0 0 14.125,13.50zM16.125,13.50A0.25,0.25 0 0 0 16.875,13.50A0.25,0.25 0 0 0 16.125,13.50zM20.125,13.50A0.25,0.25 0 0 0 20.875,13.50A0.25,0.25 0 0 0 20.125,13.50zM22.125,13.50A0.25,0.25 0 0 0 22.875,13.50A0.25,0.25 0 0 0 22.125,13.50zM25.125,13.50A0.25,0.25 0 0 0 25.875,13.50A0.25,0.25 0 0 0 25.125,13.50zM27.125,13.50A0.25,0.25 0 0 0 27.875,13.50A0.25,0.25 0 0 0 27.125,13.50zM28.125,13.50A0.25,0.25 0 0 0 28.875,13.50A0.25,0.25 0 0 0 28.125,13.50zM29.125,13.50A0.25,0.25 0 0 0 29.875,13.50A0.25,0.25 0 0 0 29.125,13.50zM30.125,13.50A0.25,0.25 0 0 0 30.875,13.50A0.25,0.25 0 0 0 30.125,13.50zM31.125,13.50A0.25,0.25 0 0 0 31.875,13.50A0.25,0.25 0 0 0 31.125,13.50zM34.125,13.50A0.25,0.25 0 0 0 34.875,13.50A0.25,0.25 0 0 0 34.125,13.50zM35.125,13.50A0.25,0.25 0 0 0 35.875,13.50A0.25,0.25 0 0 0 35.125,13.50zM39.125,13.50A0.25,0.25 0 0 0 39.875,13.50A0.25,0.25 0 0 0 39.125,13.50zM40.125,13.50A0.25,0.25 0 0 0 40.875,13.50A0.25,0.25 0 0 0 40.125,13.50zM4.125,14.50A0.25,0.25 0 0 0 4.875,14.50A0.25,0.25 0 0 0 4.125,14.50zM6.125,14.50A0.25,0.25 0 0 0 6.875,14.50A0.25,0.25 0 0 0 6.125,14.50zM7.125,14.50A0.25,0.25 0 0 0 7.875,14.50A0.25,0.25 0 0 0 7.125,14.50zM9.125,14.50A0.25,0.25 0 0 0 9.875,14.50A0.25,0.25 0 0 0 9.125,14.50zM10.125,14.50A0.25,0.25 0 0 0 10.875,14.50A0.25,0.25 0 0 0 10.125,14.50zM14.125,14.50A0.25,0.25 0 0 0 14.875,14.50A0.25,0.25 0 0 0 14.125,14.50zM15.125,14.50A0.25,0.25 0 0 0 15.875,14.50A0.25,0.25 0 0 0 15.125,14.50zM16.125,14.50A0.25,0.25 0 0 0 16.875,14.50A0.25,0.25 0 0 0 16.125,14.50zM17.125,14.50A0.25,0.25 0 0 0 17.875,14.50A0.25,0.25 0 0 0 17.125,14.50zM20.125,14.50A0.25,0.25 0 0 0 20.875,14.50A0.25,0.25 0 0 0 20.125,14.50zM23.125,14.50A0.25,0.25 0 0 0 23.875,14.50A0.25,0.25 0 0 0 23.125,14.50zM31.125,14.50A0.25,0.25 0 0 0 31.875,14.50A0.25,0.25 0 0 0 31.125,14.50zM32.125,14.50A0.25,0.25 0 0 0 32.875,14.50A0.25,0.25 0 0 0 32.125,14.50zM33.125,14.50A0.25,0.25 0 0 0 33.875,14.50A0.25,0.25 0 0 0 33.125,14.50zM34.125,14.50A0.25,0.25 0 0 0 34.875,14.50A0.25,0.25 0 0 0 34.125,14.50zM36.125,14.50A0.25,0.25 0 0 0 36.875,14.50A0.25,0.25 0 0 0 36.125,14.50zM40.125,14.50A0.25,0.25 0 0 0 40.875,14.50A0.25,0.25 0 0 0 40.125,14.50zM4.125,15.50A0.25,0.25 0 0 0 4.875,15.50A0.25,0.25 0 0 0 4.125,15.50zM5.125,15.50A0.25,0.25 0 0 0 5.875,15.50A0.25,0.25 0 0 0 5.125,15.50zM6.125,15.50A0.25,0.25 0 0 0 6.875,15.50A0.25,0.25 0 0 0 6.125,15.50zM7.125,15.50A0.25,0.25 0 0 0 7.875,15.50A0.25,0.25 0 0 0 7.125,15.50zM9.125,15.50A0.25,0.25 0 0 0 9.875,15.50A0.25,0.25 0 0 0 9.125,15.50zM11.125,15.50A0.25,0.25 0 0 0 11.875,15.50A0.25,0.25 0 0 0 11.125,15.50zM13.125,15.50A0.25,0.25 0 0 0 13.875,15.50A0.25,0.25 0 0 0 13.125,15.50zM15.125,15.50A0.25,0.25 0 0 0 15.875,15.50A0.25,0.25 0 0 0 15.125,15.50zM16.125,15.50A0.25,0.25 0 0 0 16.875,15.50A0.25,0.25 0 0 0 16.125,15.50zM17.125,15.50A0.25,0.25 0 0 0 17.875,15.50A0.25,0.25 0 0 0 17.125,15.50zM19.125,15.50A0.25,0.25 0 0 0 19.875,15.50A0.25,0.25 0 0 0 19.125,15.50zM21.125,15.50A0.25,0.25 0 0 0 21.875,15.50A0.25,0.25 0 0 0 21.125,15.50zM22.125,15.50A0.25,0.25 0 0 0 22.875,15.50A0.25,0.25 0 0 0 22.125,15.50zM24.125,15.50A0.25,0.25 0 0 0 24.875,15.50A0.25,0.25 0 0 0 24.125,15.50zM25.125,15.50A0.25,0.25 0 0 0 25.875,15.50A0.25,0.25 0 0 0 25.125,15.50zM26.125,15.50A0.25,0.25 0 0 0 26.875,15.50A0.25,0.25 0 0 0 26.125,15.50zM27.125,15.50A0.25,0.25 0 0 0 27.875,15.50A0.25,0.25 0 0 0 27.125,15.50zM29.125,15.50A0.25,0.25 0 0 0 29.875,15.50A0.25,0.25 0 0 0 29.125,15.50zM32.125,15.50A0.25,0.25 0 0 0 32.875,15.50A0.25,0.25 0 0 0 32.125,15.50zM35.125,15.50A0.25,0.25 0 0 0 35.875,15.50A0.25,0.25 0 0 0 35.125,15.50zM36.125,15.50A0.25,0.25 0 0 0 36.875,15.50A0.25,0.25 0 0 0 36.125,15.50zM37.125,15.50A0.25,0.25 0 0 0 37.875,15.50A0.25,0.25 0 0 0 37.125,15.50zM39.125,15.50A0.25,0.25 0 0 0 39.875,15.50A0.25,0.25 0 0 0 39.125,15.50zM40.125,15.50A0.25,0.25 0 0 0 40.875,15.50A0.25,0.25 0 0 0 40.125,15.50zM41.125,15.50A0.25,0.25 0 0 0 41.875,15.50A0.25,0.25 0 0 0 41.125,15.50zM43.125,15.50A0.25,0.25 0 0 0 43.875,15.50A0.25,0.25 0 0 0 43.125,15.50zM4.125,16.50A0.25,0.25 0 0 0 4.875,16.50A0.25,0.25 0 0 0 4.125,16.50zM6.125,16.50A0.25,0.25 0 0 0 6.875,16.50A0.25,0.25 0 0 0 6.125,16.50zM7.125,16.50A0.25,0.25 0 0 0 7.875,16.50A0.25,0.25 0 0 0 7.125,16.50zM10.125,16.50A0.25,0.25 0 0 0 10.875,16.50A0.25,0.25 0 0 0 10.125,16.50zM11.125,16.50A0.25,0.25 0 0 0 11.875,16.50A0.25,0.25 0 0 0 11.125,16.50zM13.125,16.50A0.25,0.25 0 0 0 13.875,16.50A0.25,0.25 0 0 0 13.125,16.50zM19.125,16.50A0.25,0.25 0 0 0 19.875,16.50A0.25,0.25 0 0 0 19.125,16.50zM20.125,16.50A0.25,0.25 0 0 0 20.875,16.50A0.25,0.25 0 0 0 20.125,16.50zM22.125,16.50A0.25,0.25 0 0 0 22.875,16.50A0.25,0.25 0 0 0 22.125,16.50zM23.125,16.50A0.25,0.25 0 0 0 23.875,16.50A0.25,0.25 0 0 0 23.125,16.50zM24.125,16.50A0.25,0.25 0 0 0 24.875,16.50A0.25,0.25 0 0 0 24.125,16.50zM26.125,16.50A0.25,0.25 0 0 0 26.875,16.50A0.25,0.25 0 0 0 26.125,16.50zM28.125,16.50A0.25,0.25 0 0 0 28.875,16.50A0.25,0.25 0 0 0 28.125,16.50zM30.125,16.50A0.25,0.25 0 0 0 30.875,16.50A0.25,0.25 0 0 0 30.125,16.50zM31.125,16.50A0.25,0.25 0 0 0 31.875,16.50A0.25,0.25 0 0 0 31.125,16.50zM36.125,16.50A0.25,0.25 0 0 0 36.875,16.50A0.25,0.25 0 0 0 36.125,16.50zM38.125,16.50A0.25,0.25 0 0 0 38.875,16.50A0.25,0.25 0 0 0 38.125,16.50zM40.125,16.50A0.25,0.25 0 0 0 40.875,16.50A0.25,0.25 0 0 0 40.125,16.50zM43.125,16.50A0.25,0.25 0 0 0 43.875,16.50A0.25,0.25 0 0 0 43.125,16.50zM44.125,16.50A0.25,0.25 0 0 0 44.875,16.50A0.25,0.25 0 0 0 44.125,16.50zM4.125,17.50A0.25,0.25 0 0 0 4.875,17.50A0.25,0.25 0 0 0 4.125,17.50zM6.125,17.50A0.25,0.25 0 0 0 6.875,17.50A0.25,0.25 0 0 0 6.125,17.50zM7.125,17.50A0.25,0.25 0 0 0 7.875,17.50A0.25,0.25 0 0 0 7.125,17.50zM8.125,17.50A0.25,0.25 0 0 0 8.875,17.50A0.25,0.25 0 0 0 8.125,17.50zM11.125,17.50A0.25,0.25 0 0 0 11.875,17.50A0.25,0.25 0 0 0 11.125,17.50zM12.125,17.50A0.25,0.25 0 0 0 12.875,17.50A0.25,0.25 0 0 0 12.125,17.50zM13.125,17.50A0.25,0.25 0 0 0 13.875,17.50A0.25,0.25 0 0 0 13.125,17.50zM15.125,17.50A0.25,0.25 0 0 0 15.875,17.50A0.25,0.25 0 0 0 15.125,17.50zM16.125,17.50A0.25,0.25 0 0 0 16.875,17.50A0.25,0.25 0 0 0 16.125,17.50zM17.125,17.50A0.25,0.25 0 0 0 17.875,17.50A0.25,0.25 0 0 0 17.125,17.50zM19.125,17.50A0.25,0.25 0 0 0 19.875,17.50A0.25,0.25 0 0 0 19.125,17.50zM20.125,17.50A0.25,0.25 0 0 0 20.875,17.50A0.25,0.25 0 0 0 20.125,17.50zM22.125,17.50A0.25,0.25 0 0 0 22.875,17.50A0.25,0.25 0 0 0 22.125,17.50zM23.125,17.50A0.25,0.25 0 0 0 23.875,17.50A0.25,0.25 0 0 0 23.125,17.50zM24.125,17.50A0.25,0.25 0 0 0 24.875,17.50A0.25,0.25 0 0 0 24.125,17.50zM25.125,17.50A0.25,0.25 0 0 0 25.875,17.50A0.25,0.25 0 0 0 25.125,17.50zM26.125,17.50A0.25,0.25 0 0 0 26.875,17.50A0.25,0.25 0 0 0 26.125,17.50zM28.125,17.50A0.25,0.25 0 0 0 28.875,17.50A0.25,0.25 0 0 0 28.125,17.50zM30.125,17.50A0.25,0.25 0 0 0 30.875,17.50A0.25,0.25 0 0 0 30.125,17.50zM33.125,17.50A0.25,0.25 0 0 0 33.875,17.50A0.25,0.25 0 0 0 33.125,17.50zM36.125,17.50A0.25,0.25 0 0 0 36.875,17.50A0.25,0.25 0 0 0 36.125,17.50zM37.125,17.50A0.25,0.25 0 0 0 37.875,17.50A0.25,0.25 0 0 0 37.125,17.50zM38.125,17.50A0.25,0.25 0 0 0 38.875,17.50A0.25,0.25 0 0 0 38.125,17.50zM39.125,17.50A0.25,0.25 0 0 0 39.875,17.50A0.25,0.25 0 0 0 39.125,17.50zM40.125,17.50A0.25,0.25 0 0 0 40.875,17.50A0.25,0.25 0 0 0 40.125,17.50zM44.125,17.50A0.25,0.25 0 0 0 44.875,17.50A0.25,0.25 0 0 0 44.125,17.50zM4.125,18.50A0.25,0.25 0 0 0 4.875,18.50A0.25,0.25 0 0 0 4.125,18.50zM5.125,18.50A0.25,0.25 0 0 0 5.875,18.50A0.25,0.25 0 0 0 5.125,18.50zM8.125,18.50A0.25,0.25 0 0 0 8.875,18.50A0.25,0.25 0 0 0 8.125,18.50zM10.125,18.50A0.25,0.25 0 0 0 10.875,18.50A0.25,0.25 0 0 0 10.125,18.50zM13.125,18.50A0.25,0.25 0 0 0 13.875,18.50A0.25,0.25 0 0 0 13.125,18.50zM14.125,18.50A0.25,0.25 0 0 0 14.875,18.50A0.25,0.25 0 0 0 14.125,18.50zM15.125,18.50A0.25,0.25 0 0 0 15.875,18.50A0.25,0.25 0 0 0 15.125,18.50zM16.125,18.50A0.25,0.25 0 0 0 16.875,18.50A0.25,0.25 0 0 0 16.125,18.50zM18.125,18.50A0.25,0.25 0 0 0 18.875,18.50A0.25,0.25 0 0 0 18.125,18.50zM20.125,18.50A0.25,0.25 0 0 0 20.875,18.50A0.25,0.25 0 0 0 20.125,18.50zM21.125,18.50A0.25,0.25 0 0 0 21.875,18.50A0.25,0.25 0 0 0 21.125,18.50zM23.125,18.50A0.25,0.25 0 0 0 23.875,18.50A0.25,0.25 0 0 0 23.125,18.50zM24.125,18.50A0.25,0.25 0 0 0 24.875,18.50A0.25,0.25 0 0 0 24.125,18.50zM31.125,18.50A0.25,0.25 0 0 0 31.875,18.50A0.25,0.25 0 0 0 31.125,18.50zM32.125,18.50A0.25,0.25 0 0 0 32.875,18.50A0.25,0.25 0 0 0 32.125,18.50zM33.125,18.50A0.25,0.25 0 0 0 33.875,18.50A0.25,0.25 0 0 0 33.125,18.50zM35.125,18.50A0.25,0.25 0 0 0 35.875,18.50A0.25,0.25 0 0 0 35.125,18.50zM37.125,18.50A0.25,0.25 0 0 0 37.875,18.50A0.25,0.25 0 0 0 37.125,18.50zM39.125,18.50A0.25,0.25 0 0 0 39.875,18.50A0.25,0.25 0 0 0 39.125,18.50zM41.125,18.50A0.25,0.25 0 0 0 41.875,18.50A0.25,0.25 0 0 0 41.125,18.50zM42.125,18.50A0.25,0.25 0 0 0 42.875,18.50A0.25,0.25 0 0 0 42.125,18.50zM6.125,19.50A0.25,0.25 0 0 0 6.875,19.50A0.25,0.25 0 0 0 6.125,19.50zM7.125,19.50A0.25,0.25 0 0 0 7.875,19.50A0.25,0.25 0 0 0 7.125,19.50zM8.125,19.50A0.25,0.25 0 0 0 8.875,19.50A0.25,0.25 0 0 0 8.125,19.50zM12.125,19.50A0.25,0.25 0 0 0 12.875,19.50A0.25,0.25 0 0 0 12.125,19.50zM15.125,19.50A0.25,0.25 0 0 0 15.875,19.50A0.25,0.25 0 0 0 15.125,19.50zM16.125,19.50A0.25,0.25 0 0 0 16.875,19.50A0.25,0.25 0 0 0 16.125,19.50zM17.125,19.50A0.25,0.25 0 0 0 17.875,19.50A0.25,0.25 0 0 0 17.125,19.50zM19.125,19.50A0.25,0.25 0 0 0 19.875,19.50A0.25,0.25 0 0 0 19.125,19.50zM21.125,19.50A0.25,0.25 0 0 0 21.875,19.50A0.25,0.25 0 0 0 21.125,19.50zM22.125,19.50A0.25,0.25 0 0 0 22.875,19.50A0.25,0.25 0 0 0 22.125,19.50zM23.125,19.50A0.25,0.25 0 0 0 23.875,19.50A0.25,0.25 0 0 0 23.125,19.50zM24.125,19.50A0.25,0.25 0 0 0 24.875,19.50A0.25,0.25 0 0 0 24.125,19.50zM26.125,19.50A0.25,0.25 0 0 0 26.875,19.50A0.25,0.25 0 0 0 26.125,19.50zM27.125,19.50A0.25,0.25 0 0 0 27.875,19.50A0.25,0.25 0 0 0 27.125,19.50zM30.125,19.50A0.25,0.25 0 0 0 30.875,19.50A0.25,0.25 0 0 0 30.125,19.50zM32.125,19.50A0.25,0.25 0 0 0 32.875,19.50A0.25,0.25 0 0 0 32.125,19.50zM35.125,19.50A0.25,0.25 0 0 0 35.875,19.50A0.25,0.25 0 0 0 35.125,19.50zM37.125,19.50A0.25,0.25 0 0 0 37.875,19.50A0.25,0.25 0 0 0 37.125,19.50zM39.125,19.50A0.25,0.25 0 0 0 39.875,19.50A0.25,0.25 0 0 0 39.125,19.50zM41.125,19.50A0.25,0.25 0 0 0 41.875,19.50A0.25,0.25 0 0 0 41.125,19.50zM42.125,19.50A0.25,0.25 0 0 0 42.875,19.50A0.25,0.25 0 0 0 42.125,19.50zM5.125,20.50A0.25,0.25 0 0 0 5.875,20.50A0.25,0.25 0 0 0 5.125,20.50zM8.125,20.50A0.25,0.25 0 0 0 8.875,20.50A0.25,0.25 0 0 0 8.125,20.50zM10.125,20.50A0.25,0.25 0 0 0 10.875,20.50A0.25,0.25 0 0 0 10.125,20.50zM11.125,20.50A0.25,0.25 0 0 0 11.875,20.50A0.25,0.25 0 0 0 11.125,20.50zM14.125,20.50A0.25,0.25 0 0 0 14.875,20.50A0.25,0.25 0 0 0 14.125,20.50zM15.125,20.50A0.25,0.25 0 0 0 15.875,20.50A0.25,0.25 0 0 0 15.125,20.50zM20.125,20.50A0.25,0.25 0 0 0 20.875,20.50A0.25,0.25 0 0 0 20.125,20.50zM21.125,20.50A0.25,0.25 0 0 0 21.875,20.50A0.25,0.25 0 0 0 21.125,20.50zM22.125,20.50A0.25,0.25 0 0 0 22.875,20.50A0.25,0.25 0 0 0 22.125,20.50zM24.125,20.50A0.25,0.25 0 0 0 24.875,20.50A0.25,0.25 0 0 0 24.125,20.50zM26.125,20.50A0.25,0.25 0 0 0 26.875,20.50A0.25,0.25 0 0 0 26.125,20.50zM29.125,20.50A0.25,0.25 0 0 0 29.875,20.50A0.25,0.25 0 0 0 29.125,20.50zM31.125,20.50A0.25,0.25 0 0 0 31.875,20.50A0.25,0.25 0 0 0 31.125,20.50zM33.125,20.50A0.25,0.25 0 0 0 33.875,20.50A0.25,0.25 0 0 0 33.125,20.50zM35.125,20.50A0.25,0.25 0 0 0 35.875,20.50A0.25,0.25 0 0 0 35.125,20.50zM37.125,20.50A0.25,0.25 0 0 0 37.875,20.50A0.25,0.25 0 0 0 37.125,20.50zM39.125,20.50A0.25,0.25 0 0 0 39.875,20.50A0.25,0.25 0 0 0 39.125,20.50zM42.125,20.50A0.25,0.25 0 0 0 42.875,20.50A0.25,0.25 0 0 0 42.125,20.50zM4.125,21.50A0.25,0.25 0 0 0 4.875,21.50A0.25,0.25 0 0 0 4.125,21.50zM5.125,21.50A0.25,0.25 0 0 0 5.875,21.50A0.25,0.25 0 0 0 5.125,21.50zM6.125,21.50A0.25,0.25 0 0 0 6.875,21.50A0.25,0.25 0 0 0 6.125,21.50zM7.125,21.50A0.25,0.25 0 0 0 7.875,21.50A0.25,0.25 0 0 0 7.125,21.50zM9.125,21.50A0.25,0.25 0 0 0 9.875,21.50A0.25,0.25 0 0 0 9.125,21.50zM12.125,21.50A0.25,0.25 0 0 0 12.875,21.50A0.25,0.25 0 0 0 12.125,21.50zM13.125,21.50A0.25,0.25 0 0 0 13.875,21.50A0.25,0.25 0 0 0 13.125,21.50zM14.125,21.50A0.25,0.25 0 0 0 14.875,21.50A0.25,0.25 0 0 0 14.125,21.50zM15.125,21.50A0.25,0.25 0 0 0 15.875,21.50A0.25,0.25 0 0 0 15.125,21.50zM16.125,21.50A0.25,0.25 0 0 0 16.875,21.50A0.25,0.25 0 0 0 16.125,21.50zM19.125,21.50A0.25,0.25 0 0 0 19.875,21.50A0.25,0.25 0 0 0 19.125,21.50zM21.125,21.50A0.25,0.25 0 0 0 21.875,21.50A0.25,0.25 0 0 0 21.125,21.50zM24.125,21.50A0.25,0.25 0 0 0 24.875,21.50A0.25,0.25 0 0 0 24.125,21.50zM31.125,21.50A0.25,0.25 0 0 0 31.875,21.50A0.25,0.25 0 0 0 31.125,21.50zM33.125,21.50A0.25,0.25 0 0 0 33.875,21.50A0.25,0.25 0 0 0 33.125,21.50zM36.125,21.50A0.25,0.25 0 0 0 36.875,21.50A0.25,0.25 0 0 0 36.125,21.50zM37.125,21.50A0.25,0.25 0 0 0 37.875,21.50A0.25,0.25 0 0 0 37.125,21.50zM38.125,21.50A0.25,0.25 0 0 0 38.875,21.50A0.25,0.25 0 0 0 38.125,21.50zM39.125,21.50A0.25,0.25 0 0 0 39.875,21.50A0.25,0.25 0 0 0 39.125,21.50zM40.125,21.50A0.25,0.25 0 0 0 40.875,21.50A0.25,0.25 0 0 0 40.125,21.50zM41.125,21.50A0.25,0.25 0 0 0 41.875,21.50A0.25,0.25 0 0 0 41.125,21.50zM42.125,21.50A0.25,0.25 0 0 0 42.875,21.50A0.25,0.25 0 0 0 42.125,21.50zM44.125,21.50A0.25,0.25 0 0 0 44.875,21.50A0.25,0.25 0 0 0 44.125,21.50zM6.125,22.50A0.25,0.25 0 0 0 6.875,22.50A0.25,0.25 0 0 0 6.125,22.50zM7.125,22.50A0.25,0.25 0 0 0 7.875,22.50A0.25,0.25 0 0 0 7.125,22.50zM8.125,22.50A0.25,0.25 0 0 0 8.875,22.50A0.25,0.25 0 0 0 8.125,22.50zM9.125,22.50A0.25,0.25 0 0 0 9.875,22.50A0.25,0.25 0 0 0 9.125,22.50zM10.125,22.50A0.25,0.25 0 0 0 10.875,22.50A0.25,0.25 0 0 0 10.125,22.50zM13.125,22.50A0.25,0.25 0 0 0 13.875,22.50A0.25,0.25 0 0 0 13.125,22.50zM17.125,22.50A0.25,0.25 0 0 0 17.875,22.50A0.25,0.25 0 0 0 17.125,22.50zM19.125,22.50A0.25,0.25 0 0 0 19.875,22.50A0.25,0.25 0 0 0 19.125,22.50zM20.125,22.50A0.25,0.25 0 0 0 20.875,22.50A0.25,0.25 0 0 0 20.125,22.50zM22.125,22.50A0.25,0.25 0 0 0 22.875,22.50A0.25,0.25 0 0 0 22.125,22.50zM23.125,22.50A0.25,0.25 0 0 0 23.875,22.50A0.25,0.25 0 0 0 23.125,22.50zM24.125,22.50A0.25,0.25 0 0 0 24.875,22.50A0.25,0.25 0 0 0 24.125,22.50zM25.125,22.50A0.25,0.25 0 0 0 25.875,22.50A0.25,0.25 0 0 0 25.125,22.50zM26.125,22.50A0.25,0.25 0 0 0 26.875,22.50A0.25,0.25 0 0 0 26.125,22.50zM28.125,22.50A0.25,0.25 0 0 0 28.875,22.50A0.25,0.25 0 0 0 28.125,22.50zM29.125,22.50A0.25,0.25 0 0 0 29.875,22.50A0.25,0.25 0 0 0 29.125,22.50zM30.125,22.50A0.25,0.25 0 0 0 30.875,22.50A0.25,0.25 0 0 0 30.125,22.50zM31.125,22.50A0.25,0.25 0 0 0 31.875,22.50A0.25,0.25 0 0 0 31.125,22.50zM32.125,22.50A0.25,0.25 0 0 0 32.875,22.50A0.25,0.25 0 0 0 32.125,22.50zM35.125,22.50A0.25,0.25 0 0 0 35.875,22.50A0.25,0.25 0 0 0 35.125,22.50zM38.125,22.50A0.25,0.25 0 0 0 38.875,22.50A0.25,0.25 0 0 0 38.125,22.50zM39.125,22.50A0.25,0.25 0 0 0 39.875,22.50A0.25,0.25 0 0 0 39.125,22.50zM40.125,22.50A0.25,0.25 0 0 0 40.875,22.50A0.25,0.25 0 0 0 40.125,22.50zM44.125,22.50A0.25,0.25 0 0 0 44.875,22.50A0.25,0.25 0 0 0 44.125,22.50zM7.125,23.50A0.25,0.25 0 0 0 7.875,23.50A0.25,0.25 0 0 0 7.125,23.50zM15.125,23.50A0.25,0.25 0 0 0 15.875,23.50A0.25,0.25 0 0 0 15.125,23.50zM17.125,23.50A0.25,0.25 0 0 0 17.875,23.50A0.25,0.25 0 0 0 17.125,23.50zM18.125,23.50A0.25,0.25 0 0 0 18.875,23.50A0.25,0.25 0 0 0 18.125,23.50zM23.125,23.50A0.25,0.25 0 0 0 23.875,23.50A0.25,0.25 0 0 0 23.125,23.50zM24.125,23.50A0.25,0.25 0 0 0 24.875,23.50A0.25,0.25 0 0 0 24.125,23.50zM25.125,23.50A0.25,0.25 0 0 0 25.875,23.50A0.25,0.25 0 0 0 25.125,23.50zM26.125,23.50A0.25,0.25 0 0 0 26.875,23.50A0.25,0.25 0 0 0 26.125,23.50zM27.125,23.50A0.25,0.25 0 0 0 27.875,23.50A0.25,0.25 0 0 0 27.125,23.50zM29.125,23.50A0.25,0.25 0 0 0 29.875,23.50A0.25,0.25 0 0 0 29.125,23.50zM30.125,23.50A0.25,0.25 0 0 0 30.875,23.50A0.25,0.25 0 0 0 30.125,23.50zM33.125,23.50A0.25,0.25 0 0 0 33.875,23.50A0.25,0.25 0 0 0 33.125,23.50zM34.125,23.50A0.25,0.25 0 0 0 34.875,23.50A0.25,0.25 0 0 0 34.125,23.50zM36.125,23.50A0.25,0.25 0 0 0 36.875,23.50A0.25,0.25 0 0 0 36.125,23.50zM40.125,23.50A0.25,0.25 0 0 0 40.875,23.50A0.25,0.25 0 0 0 40.125,23.50zM41.125,23.50A0.25,0.25 0 0 0 41.875,23.50A0.25,0.25 0 0 0 41.125,23.50zM44.125,23.50A0.25,0.25 0 0 0 44.875,23.50A0.25,0.25 0 0 0 44.125,23.50zM4.125,24.50A0.25,0.25 0 0 0 4.875,24.50A0.25,0.25 0 0 0 4.125,24.50zM9.125,24.50A0.25,0.25 0 0 0 9.875,24.50A0.25,0.25 0 0 0 9.125,24.50zM10.125,24.50A0.25,0.25 0 0 0 10.875,24.50A0.25,0.25 0 0 0 10.125,24.50zM12.125,24.50A0.25,0.25 0 0 0 12.875,24.50A0.25,0.25 0 0 0 12.125,24.50zM17.125,24.50A0.25,0.25 0 0 0 17.875,24.50A0.25,0.25 0 0 0 17.125,24.50zM19.125,24.50A0.25,0.25 0 0 0 19.875,24.50A0.25,0.25 0 0 0 19.125,24.50zM20.125,24.50A0.25,0.25 0 0 0 20.875,24.50A0.25,0.25 0 0 0 20.125,24.50zM22.125,24.50A0.25,0.25 0 0 0 22.875,24.50A0.25,0.25 0 0 0 22.125,24.50zM23.125,24.50A0.25,0.25 0 0 0 23.875,24.50A0.25,0.25 0 0 0 23.125,24.50zM25.125,24.50A0.25,0.25 0 0 0 25.875,24.50A0.25,0.25 0 0 0 25.125,24.50zM28.125,24.50A0.25,0.25 0 0 0 28.875,24.50A0.25,0.25 0 0 0 28.125,24.50zM32.125,24.50A0.25,0.25 0 0 0 32.875,24.50A0.25,0.25 0 0 0 32.125,24.50zM35.125,24.50A0.25,0.25 0 0 0 35.875,24.50A0.25,0.25 0 0 0 35.125,24.50zM39.125,24.50A0.25,0.25 0 0 0 39.875,24.50A0.25,0.25 0 0 0 39.125,24.50zM40.125,24.50A0.25,0.25 0 0 0 40.875,24.50A0.25,0.25 0 0 0 40.125,24.50zM41.125,24.50A0.25,0.25 0 0 0 41.875,24.50A0.25,0.25 0 0 0 41.125,24.50zM42.125,24.50A0.25,0.25 0 0 0 42.875,24.50A0.25,0.25 0 0 0 42.125,24.50zM44.125,24.50A0.25,0.25 0 0 0 44.875,24.50A0.25,0.25 0 0 0 44.125,24.50zM4.125,25.50A0.25,0.25 0 0 0 4.875,25.50A0.25,0.25 0 0 0 4.125,25.50zM5.125,25.50A0.25,0.25 0 0 0 5.875,25.50A0.25,0.25 0 0 0 5.125,25.50zM7.125,25.50A0.25,0.25 0 0 0 7.875,25.50A0.25,0.25 0 0 0 7.125,25.50zM9.125,25.50A0.25,0.25 0 0 0 9.875,25.50A0.25,0.25 0 0 0 9.125,25.50zM12.125,25.50A0.25,0.25 0 0 0 12.875,25.50A0.25,0.25 0 0 0 12.125,25.50zM15.125,25.50A0.25,0.25 0 0 0 15.875,25.50A0.25,0.25 0 0 0 15.125,25.50zM17.125,25.50A0.25,0.25 0 0 0 17.875,25.50A0.25,0.25 0 0 0 17.125,25.50zM18.125,25.50A0.25,0.25 0 0 0 18.875,25.50A0.25,0.25 0 0 0 18.125,25.50zM19.125,25.50A0.25,0.25 0 0 0 19.875,25.50A0.25,0.25 0 0 0 19.125,25.50zM20.125,25.50A0.25,0.25 0 0 0 20.875,25.50A0.25,0.25 0 0 0 20.125,25.50zM21.125,25.50A0.25,0.25 0 0 0 21.875,25.50A0.25,0.25 0 0 0 21.125,25.50zM23.125,25.50A0.25,0.25 0 0 0 23.875,25.50A0.25,0.25 0 0 0 23.125,25.50zM25.125,25.50A0.25,0.25 0 0 0 25.875,25.50A0.25,0.25 0 0 0 25.125,25.50zM28.125,25.50A0.25,0.25 0 0 0 28.875,25.50A0.25,0.25 0 0 0 28.125,25.50zM29.125,25.50A0.25,0.25 0 0 0 29.875,25.50A0.25,0.25 0 0 0 29.125,25.50zM30.125,25.50A0.25,0.25 0 0 0 30.875,25.50A0.25,0.25 0 0 0 30.125,25.50zM31.125,25.50A0.25,0.25 0 0 0 31.875,25.50A0.25,0.25 0 0 0 31.125,25.50zM33.125,25.50A0.25,0.25 0 0 0 33.875,25.50A0.25,0.25 0 0 0 33.125,25.50zM34.125,25.50A0.25,0.25 0 0 0 34.875,25.50A0.25,0.25 0 0 0 34.125,25.50zM35.125,25.50A0.25,0.25 0 0 0 35.875,25.50A0.25,0.25 0 0 0 35.125,25.50zM37.125,25.50A0.25,0.25 0 0 0 37.875,25.50A0.25,0.25 0 0 0 37.125,25.50zM39.125,25.50A0.25,0.25 0 0 0 39.875,25.50A0.25,0.25 0 0 0 39.125,25.50zM40.125,25.50A0.25,0.25 0 0 0 40.875,25.50A0.25,0.25 0 0 0 40.125,25.50zM41.125,25.50A0.25,0.25 0 0 0 41.875,25.50A0.25,0.25 0 0 0 41.125,25.50zM4.125,26.50A0.25,0.25 0 0 0 4.875,26.50A0.25,0.25 0 0 0 4.125,26.50zM5.125,26.50A0.25,0.25 0 0 0 5.875,26.50A0.25,0.25 0 0 0 5.125,26.50zM6.125,26.50A0.25,0.25 0 0 0 6.875,26.50A0.25,0.25 0 0 0 6.125,26.50zM8.125,26.50A0.25,0.25 0 0 0 8.875,26.50A0.25,0.25 0 0 0 8.125,26.50zM10.125,26.50A0.25,0.25 0 0 0 10.875,26.50A0.25,0.25 0 0 0 10.125,26.50zM13.125,26.50A0.25,0.25 0 0 0 13.875,26.50A0.25,0.25 0 0 0 13.125,26.50zM14.125,26.50A0.25,0.25 0 0 0 14.875,26.50A0.25,0.25 0 0 0 14.125,26.50zM16.125,26.50A0.25,0.25 0 0 0 16.875,26.50A0.25,0.25 0 0 0 16.125,26.50zM19.125,26.50A0.25,0.25 0 0 0 19.875,26.50A0.25,0.25 0 0 0 19.125,26.50zM23.125,26.50A0.25,0.25 0 0 0 23.875,26.50A0.25,0.25 0 0 0 23.125,26.50zM25.125,26.50A0.25,0.25 0 0 0 25.875,26.50A0.25,0.25 0 0 0 25.125,26.50zM29.125,26.50A0.25,0.25 0 0 0 29.875,26.50A0.25,0.25 0 0 0 29.125,26.50zM31.125,26.50A0.25,0.25 0 0 0 31.875,26.50A0.25,0.25 0 0 0 31.125,26.50zM34.125,26.50A0.25,0.25 0 0 0 34.875,26.50A0.25,0.25 0 0 0 34.125,26.50zM36.125,26.50A0.25,0.25 0 0 0 36.875,26.50A0.25,0.25 0 0 0 36.125,26.50zM37.125,26.50A0.25,0.25 0 0 0 37.875,26.50A0.25,0.25 0 0 0 37.125,26.50zM38.125,26.50A0.25,0.25 0 0 0 38.875,26.50A0.25,0.25 0 0 0 38.125,26.50zM39.125,26.50A0.25,0.25 0 0 0 39.875,26.50A0.25,0.25 0 0 0 39.125,26.50zM40.125,26.50A0.25,0.25 0 0 0 40.875,26.50A0.25,0.25 0 0 0 40.125,26.50zM42.125,26.50A0.25,0.25 0 0 0 42.875,26.50A0.25,0.25 0 0 0 42.125,26.50zM9.125,27.50A0.25,0.25 0 0 0 9.875,27.50A0.25,0.25 0 0 0 9.125,27.50zM15.125,27.50A0.25,0.25 0 0 0 15.875,27.50A0.25,0.25 0 0 0 15.125,27.50zM17.125,27.50A0.25,0.25 0 0 0 17.875,27.50A0.25,0.25 0 0 0 17.125,27.50zM24.125,27.50A0.25,0.25 0 0 0 24.875,27.50A0.25,0.25 0 0 0 24.125,27.50zM27.125,27.50A0.25,0.25 0 0 0 27.875,27.50A0.25,0.25 0 0 0 27.125,27.50zM29.125,27.50A0.25,0.25 0 0 0 29.875,27.50A0.25,0.25 0 0 0 29.125,27.50zM30.125,27.50A0.25,0.25 0 0 0 30.875,27.50A0.25,0.25 0 0 0 30.125,27.50zM31.125,27.50A0.25,0.25 0 0 0 31.875,27.50A0.25,0.25 0 0 0 31.125,27.50zM39.125,27.50A0.25,0.25 0 0 0 39.875,27.50A0.25,0.25 0 0 0 39.125,27.50zM41.125,27.50A0.25,0.25 0 0 0 41.875,27.50A0.25,0.25 0 0 0 41.125,27.50zM43.125,27.50A0.25,0.25 0 0 0 43.875,27.50A0.25,0.25 0 0 0 43.125,27.50zM44.125,27.50A0.25,0.25 0 0 0 44.875,27.50A0.25,0.25 0 0 0 44.125,27.50zM4.125,28.50A0.25,0.25 0 0 0 4.875,28.50A0.25,0.25 0 0 0 4.125,28.50zM5.125,28.50A0.25,0.25 0 0 0 5.875,28.50A0.25,0.25 0 0 0 5.125,28.50zM7.125,28.50A0.25,0.25 0 0 0 7.875,28.50A0.25,0.25 0 0 0 7.125,28.50zM9.125,28.50A0.25,0.25 0 0 0 9.875,28.50A0.25,0.25 0 0 0 9.125,28.50zM10.125,28.50A0.25,0.25 0 0 0 10.875,28.50A0.25,0.25 0 0 0 10.125,28.50zM11.125,28.50A0.25,0.25 0 0 0 11.875,28.50A0.25,0.25 0 0 0 11.125,28.50zM13.125,28.50A0.25,0.25 0 0 0 13.875,28.50A0.25,0.25 0 0 0 13.125,28.50zM14.125,28.50A0.25,0.25 0 0 0 14.875,28.50A0.25,0.25 0 0 0 14.125,28.50zM17.125,28.50A0.25,0.25 0 0 0 17.875,28.50A0.25,0.25 0 0 0 17.125,28.50zM18.125,28.50A0.25,0.25 0 0 0 18.875,28.50A0.25,0.25 0 0 0 18.125,28.50zM20.125,28.50A0.25,0.25 0 0 0 20.875,28.50A0.25,0.25 0 0 0 20.125,28.50zM23.125,28.50A0.25,0.25 0 0 0 23.875,28.50A0.25,0.25 0 0 0 23.125,28.50zM25.125,28.50A0.25,0.25 0 0 0 25.875,28.50A0.25,0.25 0 0 0 25.125,28.50zM26.125,28.50A0.25,0.25 0 0 0 26.875,28.50A0.25,0.25 0 0 0 26.125,28.50zM29.125,28.50A0.25,0.25 0 0 0 29.875,28.50A0.25,0.25 0 0 0 29.125,28.50zM31.125,28.50A0.25,0.25 0 0 0 31.875,28.50A0.25,0.25 0 0 0 31.125,28.50zM35.125,28.50A0.25,0.25 0 0 0 35.875,28.50A0.25,0.25 0 0 0 35.125,28.50zM36.125,28.50A0.25,0.25 0 0 0 36.875,28.50A0.25,0.25 0 0 0 36.125,28.50zM38.125,28.50A0.25,0.25 0 0 0 38.875,28.50A0.25,0.25 0 0 0 38.125,28.50zM41.125,28.50A0.25,0.25 0 0 0 41.875,28.50A0.25,0.25 0 0 0 41.125,28.50zM43.125,28.50A0.25,0.25 0 0 0 43.875,28.50A0.25,0.25 0 0 0 43.125,28.50zM44.125,28.50A0.25,0.25 0 0 0 44.875,28.50A0.25,0.25 0 0 0 44.125,28.50zM5.125,29.50A0.25,0.25 0 0 0 5.875,29.50A0.25,0.25 0 0 0 5.125,29.50zM6.125,29.50A0.25,0.25 0 0 0 6.875,29.50A0.25,0.25 0 0 0 6.125,29.50zM8.125,29.50A0.25,0.25 0 0 0 8.875,29.50A0.25,0.25 0 0 0 8.125,29.50zM9.125,29.50A0.25,0.25 0 0 0 9.875,29.50A0.25,0.25 0 0 0 9.125,29.50zM12.125,29.50A0.25,0.25 0 0 0 12.875,29.50A0.25,0.25 0 0 0 12.125,29.50zM16.125,29.50A0.25,0.25 0 0 0 16.875,29.50A0.25,0.25 0 0 0 16.125,29.50zM17.125,29.50A0.25,0.25 0 0 0 17.875,29.50A0.25,0.25 0 0 0 17.125,29.50zM19.125,29.50A0.25,0.25 0 0 0 19.875,29.50A0.25,0.25 0 0 0 19.125,29.50zM21.125,29.50A0.25,0.25 0 0 0 21.875,29.50A0.25,0.25 0 0 0 21.125,29.50zM22.125,29.50A0.25,0.25 0 0 0 22.875,29.50A0.25,0.25 0 0 0 22.125,29.50zM23.125,29.50A0.25,0.25 0 0 0 23.875,29.50A0.25,0.25 0 0 0 23.125,29.50zM24.125,29.50A0.25,0.25 0 0 0 24.875,29.50A0.25,0.25 0 0 0 24.125,29.50zM25.125,29.50A0.25,0.25 0 0 0 25.875,29.50A0.25,0.25 0 0 0 25.125,29.50zM29.125,29.50A0.25,0.25 0 0 0 29.875,29.50A0.25,0.25 0 0 0 29.125,29.50zM30.125,29.50A0.25,0.25 0 0 0 30.875,29.50A0.25,0.25 0 0 0 30.125,29.50zM31.125,29.50A0.25,0.25 0 0 0 31.875,29.50A0.25,0.25 0 0 0 31.125,29.50zM32.125,29.50A0.25,0.25 0 0 0 32.875,29.50A0.25,0.25 0 0 0 32.125,29.50zM35.125,29.50A0.25,0.25 0 0 0 35.875,29.50A0.25,0.25 0 0 0 35.125,29.50zM38.125,29.50A0.25,0.25 0 0 0 38.875,29.50A0.25,0.25 0 0 0 38.125,29.50zM39.125,29.50A0.25,0.25 0 0 0 39.875,29.50A0.25,0.25 0 0 0 39.125,29.50zM40.125,29.50A0.25,0.25 0 0 0 40.875,29.50A0.25,0.25 0 0 0 40.125,29.50zM41.125,29.50A0.25,0.25 0 0 0 41.875,29.50A0.25,0.25 0 0 0 41.125,29.50zM44.125,29.50A0.25,0.25 0 0 0 44.875,29.50A0.25,0.25 0 0 0 44.125,29.50zM5.125,30.50A0.25,0.25 0 0 0 5.875,30.50A0.25,0.25 0 0 0 5.125,30.50zM9.125,30.50A0.25,0.25 0 0 0 9.875,30.50A0.25,0.25 0 0 0 9.125,30.50zM10.125,30.50A0.25,0.25 0 0 0 10.875,30.50A0.25,0.25 0 0 0 10.125,30.50zM12.125,30.50A0.25,0.25 0 0 0 12.875,30.50A0.25,0.25 0 0 0 12.125,30.50zM14.125,30.50A0.25,0.25 0 0 0 14.875,30.50A0.25,0.25 0 0 0 14.125,30.50zM16.125,30.50A0.25,0.25 0 0 0 16.875,30.50A0.25,0.25 0 0 0 16.125,30.50zM17.125,30.50A0.25,0.25 0 0 0 17.875,30.50A0.25,0.25 0 0 0 17.125,30.50zM20.125,30.50A0.25,0.25 0 0 0 20.875,30.50A0.25,0.25 0 0 0 20.125,30.50zM22.125,30.50A0.25,0.25 0 0 0 22.875,30.50A0.25,0.25 0 0 0 22.125,30.50zM23.125,30.50A0.25,0.25 0 0 0 23.875,30.50A0.25,0.25 0 0 0 23.125,30.50zM29.125,30.50A0.25,0.25 0 0 0 29.875,30.50A0.25,0.25 0 0 0 29.125,30.50zM30.125,30.50A0.25,0.25 0 0 0 30.875,30.50A0.25,0.25 0 0 0 30.125,30.50zM31.125,30.50A0.25,0.25 0 0 0 31.875,30.50A0.25,0.25 0 0 0 31.125,30.50zM34.125,30.50A0.25,0.25 0 0 0 34.875,30.50A0.25,0.25 0 0 0 34.125,30.50zM36.125,30.50A0.25,0.25 0 0 0 36.875,30.50A0.25,0.25 0 0 0 36.125,30.50zM37.125,30.50A0.25,0.25 0 0 0 37.875,30.50A0.25,0.25 0 0 0 37.125,30.50zM39.125,30.50A0.25,0.25 0 0 0 39.875,30.50A0.25,0.25 0 0 0 39.125,30.50zM40.125,30.50A0.25,0.25 0 0 0 40.875,30.50A0.25,0.25 0 0 0 40.125,30.50zM4.125,31.50A0.25,0.25 0 0 0 4.875,31.50A0.25,0.25 0 0 0 4.125,31.50zM12.125,31.50A0.25,0.25 0 0 0 12.875,31.50A0.25,0.25 0 0 0 12.125,31.50zM13.125,31.50A0.25,0.25 0 0 0 13.875,31.50A0.25,0.25 0 0 0 13.125,31.50zM18.125,31.50A0.25,0.25 0 0 0 18.875,31.50A0.25,0.25 0 0 0 18.125,31.50zM19.125,31.50A0.25,0.25 0 0 0 19.875,31.50A0.25,0.25 0 0 0 19.125,31.50zM20.125,31.50A0.25,0.25 0 0 0 20.875,31.50A0.25,0.25 0 0 0 20.125,31.50zM21.125,31.50A0.25,0.25 0 0 0 21.875,31.50A0.25,0.25 0 0 0 21.125,31.50zM25.125,31.50A0.25,0.25 0 0 0 25.875,31.50A0.25,0.25 0 0 0 25.125,31.50zM26.125,31.50A0.25,0.25 0 0 0 26.875,31.50A0.25,0.25 0 0 0 26.125,31.50zM28.125,31.50A0.25,0.25 0 0 0 28.875,31.50A0.25,0.25 0 0 0 28.125,31.50zM29.125,31.50A0.25,0.25 0 0 0 29.875,31.50A0.25,0.25 0 0 0 29.125,31.50zM30.125,31.50A0.25,0.25 0 0 0 30.875,31.50A0.25,0.25 0 0 0 30.125,31.50zM32.125,31.50A0.25,0.25 0 0 0 32.875,31.50A0.25,0.25 0 0 0 32.125,31.50zM34.125,31.50A0.25,0.25 0 0 0 34.875,31.50A0.25,0.25 0 0 0 34.125,31.50zM35.125,31.50A0.25,0.25 0 0 0 35.875,31.50A0.25,0.25 0 0 0 35.125,31.50zM37.125,31.50A0.25,0.25 0 0 0 37.875,31.50A0.25,0.25 0 0 0 37.125,31.50zM39.125,31.50A0.25,0.25 0 0 0 39.875,31.50A0.25,0.25 0 0 0 39.125,31.50zM41.125,31.50A0.25,0.25 0 0 0 41.875,31.50A0.25,0.25 0 0 0 41.125,31.50zM42.125,31.50A0.25,0.25 0 0 0 42.875,31.50A0.25,0.25 0 0 0 42.125,31.50zM44.125,31.50A0.25,0.25 0 0 0 44.875,31.50A0.25,0.25 0 0 0 44.125,31.50zM4.125,32.50A0.25,0.25 0 0 0 4.875,32.50A0.25,0.25 0 0 0 4.125,32.50zM5.125,32.50A0.25,0.25 0 0 0 5.875,32.50A0.25,0.25 0 0 0 5.125,32.50zM8.125,32.50A0.25,0.25 0 0 0 8.875,32.50A0.25,0.25 0 0 0 8.125,32.50zM9.125,32.50A0.25,0.25 0 0 0 9.875,32.50A0.25,0.25 0 0 0 9.125,32.50zM10.125,32.50A0.25,0.25 0 0 0 10.875,32.50A0.25,0.25 0 0 0 10.125,32.50zM11.125,32.50A0.25,0.25 0 0 0 11.875,32.50A0.25,0.25 0 0 0 11.125,32.50zM13.125,32.50A0.25,0.25 0 0 0 13.875,32.50A0.25,0.25 0 0 0 13.125,32.50zM16.125,32.50A0.25,0.25 0 0 0 16.875,32.50A0.25,0.25 0 0 0 16.125,32.50zM17.125,32.50A0.25,0.25 0 0 0 17.875,32.50A0.25,0.25 0 0 0 17.125,32.50zM18.125,32.50A0.25,0.25 0 0 0 18.875,32.50A0.25,0.25 0 0 0 18.125,32.50zM19.125,32.50A0.25,0.25 0 0 0 19.875,32.50A0.25,0.25 0 0 0 19.125,32.50zM22.125,32.50A0.25,0.25 0 0 0 22.875,32.50A0.25,0.25 0 0 0 22.125,32.50zM26.125,32.50A0.25,0.25 0 0 0 26.875,32.50A0.25,0.25 0 0 0 26.125,32.50zM27.125,32.50A0.25,0.25 0 0 0 27.875,32.50A0.25,0.25 0 0 0 27.125,32.50zM28.125,32.50A0.25,0.25 0 0 0 28.875,32.50A0.25,0.25 0 0 0 28.125,32.50zM30.125,32.50A0.25,0.25 0 0 0 30.875,32.50A0.25,0.25 0 0 0 30.125,32.50zM33.125,32.50A0.25,0.25 0 0 0 33.875,32.50A0.25,0.25 0 0 0 33.125,32.50zM35.125,32.50A0.25,0.25 0 0 0 35.875,32.50A0.25,0.25 0 0 0 35.125,32.50zM41.125,32.50A0.25,0.25 0 0 0 41.875,32.50A0.25,0.25 0 0 0 41.125,32.50zM42.125,32.50A0.25,0.25 0 0 0 42.875,32.50A0.25,0.25 0 0 0 42.125,32.50zM44.125,32.50A0.25,0.25 0 0 0 44.875,32.50A0.25,0.25 0 0 0 44.125,32.50zM4.125,33.50A0.25,0.25 0 0 0 4.875,33.50A0.25,0.25 0 0 0 4.125,33.50zM6.125,33.50A0.25,0.25 0 0 0 6.875,33.50A0.25,0.25 0 0 0 6.125,33.50zM9.125,33.50A0.25,0.25 0 0 0 9.875,33.50A0.25,0.25 0 0 0 9.125,33.50zM12.125,33.50A0.25,0.25 0 0 0 12.875,33.50A0.25,0.25 0 0 0 12.125,33.50zM15.125,33.50A0.25,0.25 0 0 0 15.875,33.50A0.25,0.25 0 0 0 15.125,33.50zM18.125,33.50A0.25,0.25 0 0 0 18.875,33.50A0.25,0.25 0 0 0 18.125,33.50zM25.125,33.50A0.25,0.25 0 0 0 25.875,33.50A0.25,0.25 0 0 0 25.125,33.50zM26.125,33.50A0.25,0.25 0 0 0 26.875,33.50A0.25,0.25 0 0 0 26.125,33.50zM27.125,33.50A0.25,0.25 0 0 0 27.875,33.50A0.25,0.25 0 0 0 27.125,33.50zM28.125,33.50A0.25,0.25 0 0 0 28.875,33.50A0.25,0.25 0 0 0 28.125,33.50zM29.125,33.50A0.25,0.25 0 0 0 29.875,33.50A0.25,0.25 0 0 0 29.125,33.50zM30.125,33.50A0.25,0.25 0 0 0 30.875,33.50A0.25,0.25 0 0 0 30.125,33.50zM32.125,33.50A0.25,0.25 0 0 0 32.875,33.50A0.25,0.25 0 0 0 32.125,33.50zM34.125,33.50A0.25,0.25 0 0 0 34.875,33.50A0.25,0.25 0 0 0 34.125,33.50zM38.125,33.50A0.25,0.25 0 0 0 38.875,33.50A0.25,0.25 0 0 0 38.125,33.50zM40.125,33.50A0.25,0.25 0 0 0 40.875,33.50A0.25,0.25 0 0 0 40.125,33.50zM41.125,33.50A0.25,0.25 0 0 0 41.875,33.50A0.25,0.25 0 0 0 41.125,33.50zM42.125,33.50A0.25,0.25 0 0 0 42.875,33.50A0.25,0.25 0 0 0 42.125,33.50zM44.125,33.50A0.25,0.25 0 0 0 44.875,33.50A0.25,0.25 0 0 0 44.125,33.50zM4.125,34.50A0.25,0.25 0 0 0 4.875,34.50A0.25,0.25 0 0 0 4.125,34.50zM5.125,34.50A0.25,0.25 0 0 0 5.875,34.50A0.25,0.25 0 0 0 5.125,34.50zM6.125,34.50A0.25,0.25 0 0 0 6.875,34.50A0.25,0.25 0 0 0 6.125,34.50zM7.125,34.50A0.25,0.25 0 0 0 7.875,34.50A0.25,0.25 0 0 0 7.125,34.50zM9.125,34.50A0.25,0.25 0 0 0 9.875,34.50A0.25,0.25 0 0 0 9.125,34.50zM10.125,34.50A0.25,0.25 0 0 0 10.875,34.50A0.25,0.25 0 0 0 10.125,34.50zM11.125,34.50A0.25,0.25 0 0 0 11.875,34.50A0.25,0.25 0 0 0 11.125,34.50zM12.125,34.50A0.25,0.25 0 0 0 12.875,34.50A0.25,0.25 0 0 0 12.125,34.50zM13.125,34.50A0.25,0.25 0 0 0 13.875,34.50A0.25,0.25 0 0 0 13.125,34.50zM16.125,34.50A0.25,0.25 0 0 0 16.875,34.50A0.25,0.25 0 0 0 16.125,34.50zM17.125,34.50A0.25,0.25 0 0 0 17.875,34.50A0.25,0.25 0 0 0 17.125,34.50zM18.125,34.50A0.25,0.25 0 0 0 18.875,34.50A0.25,0.25 0 0 0 18.125,34.50zM20.125,34.50A0.25,0.25 0 0 0 20.875,34.50A0.25,0.25 0 0 0 20.125,34.50zM21.125,34.50A0.25,0.25 0 0 0 21.875,34.50A0.25,0.25 0 0 0 21.125,34.50zM22.125,34.50A0.25,0.25 0 0 0 22.875,34.50A0.25,0.25 0 0 0 22.125,34.50zM23.125,34.50A0.25,0.25 0 0 0 23.875,34.50A0.25,0.25 0 0 0 23.125,34.50zM25.125,34.50A0.25,0.25 0 0 0 25.875,34.50A0.25,0.25 0 0 0 25.125,34.50zM27.125,34.50A0.25,0.25 0 0 0 27.875,34.50A0.25,0.25 0 0 0 27.125,34.50zM28.125,34.50A0.25,0.25 0 0 0 28.875,34.50A0.25,0.25 0 0 0 28.125,34.50zM32.125,34.50A0.25,0.25 0 0 0 32.875,34.50A0.25,0.25 0 0 0 32.125,34.50zM34.125,34.50A0.25,0.25 0 0 0 34.875,34.50A0.25,0.25 0 0 0 34.125,34.50zM35.125,34.50A0.25,0.25 0 0 0 35.875,34.50A0.25,0.25 0 0 0 35.125,34.50zM37.125,34.50A0.25,0.25 0 0 0 37.875,34.50A0.25,0.25 0 0 0 37.125,34.50zM40.125,34.50A0.25,0.25 0 0 0 40.875,34.50A0.25,0.25 0 0 0 40.125,34.50zM44.125,34.50A0.25,0.25 0 0 0 44.875,34.50A0.25,0.25 0 0 0 44.125,34.50zM4.125,35.50A0.25,0.25 0 0 0 4.875,35.50A0.25,0.25 0 0 0 4.125,35.50zM7.125,35.50A0.25,0.25 0 0 0 7.875,35.50A0.25,0.25 0 0 0 7.125,35.50zM11.125,35.50A0.25,0.25 0 0 0 11.875,35.50A0.25,0.25 0 0 0 11.125,35.50zM12.125,35.50A0.25,0.25 0 0 0 12.875,35.50A0.25,0.25 0 0 0 12.125,35.50zM14.125,35.50A0.25,0.25 0 0 0 14.875,35.50A0.25,0.25 0 0 0 14.125,35.50zM16.125,35.50A0.25,0.25 0 0 0 16.875,35.50A0.25,0.25 0 0 0 16.125,35.50zM18.125,35.50A0.25,0.25 0 0 0 18.875,35.50A0.25,0.25 0 0 0 18.125,35.50zM21.125,35.50A0.25,0.25 0 0 0 21.875,35.50A0.25,0.25 0 0 0 21.125,35.50zM23.125,35.50A0.25,0.25 0 0 0 23.875,35.50A0.25,0.25 0 0 0 23.125,35.50zM24.125,35.50A0.25,0.25 0 0 0 24.875,35.50A0.25,0.25 0 0 0 24.125,35.50zM27.125,35.50A0.25,0.25 0 0 0 27.875,35.50A0.25,0.25 0 0 0 27.125,35.50zM28.125,35.50A0.25,0.25 0 0 0 28.875,35.50A0.25,0.25 0 0 0 28.125,35.50zM29.125,35.50A0.25,0.25 0 0 0 29.875,35.50A0.25,0.25 0 0 0 29.125,35.50zM30.125,35.50A0.25,0.25 0 0 0 30.875,35.50A0.25,0.25 0 0 0 30.125,35.50zM31.125,35.50A0.25,0.25 0 0 0 31.875,35.50A0.25,0.25 0 0 0 31.125,35.50zM32.125,35.50A0.25,0.25 0 0 0 32.875,35.50A0.25,0.25 0 0 0 32.125,35.50zM34.125,35.50A0.25,0.25 0 0 0 34.875,35.50A0.25,0.25 0 0 0 34.125,35.50zM36.125,35.50A0.25,0.25 0 0 0 36.875,35.50A0.25,0.25 0 0 0 36.125,35.50zM38.125,35.50A0.25,0.25 0 0 0 38.875,35.50A0.25,0.25 0 0 0 38.125,35.50zM39.125,35.50A0.25,0.25 0 0 0 39.875,35.50A0.25,0.25 0 0 0 39.125,35.50zM41.125,35.50A0.25,0.25 0 0 0 41.875,35.50A0.25,0.25 0 0 0 41.125,35.50zM43.125,35.50A0.25,0.25 0 0 0 43.875,35.50A0.25,0.25 0 0 0 43.125,35.50zM4.125,36.50A0.25,0.25 0 0 0 4.875,36.50A0.25,0.25 0 0 0 4.125,36.50zM7.125,36.50A0.25,0.25 0 0 0 7.875,36.50A0.25,0.25 0 0 0 7.125,36.50zM8.125,36.50A0.25,0.25 0 0 0 8.875,36.50A0.25,0.25 0 0 0 8.125,36.50zM10.125,36.50A0.25,0.25 0 0 0 10.875,36.50A0.25,0.25 0 0 0 10.125,36.50zM12.125,36.50A0.25,0.25 0 0 0 12.875,36.50A0.25,0.25 0 0 0 12.125,36.50zM13.125,36.50A0.25,0.25 0 0 0 13.875,36.50A0.25,0.25 0 0 0 13.125,36.50zM14.125,36.50A0.25,0.25 0 0 0 14.875,36.50A0.25,0.25 0 0 0 14.125,36.50zM15.125,36.50A0.25,0.25 0 0 0 15.875,36.50A0.25,0.25 0 0 0 15.125,36.50zM16.125,36.50A0.25,0.25 0 0 0 16.875,36.50A0.25,0.25 0 0 0 16.125,36.50zM19.125,36.50A0.25,0.25 0 0 0 19.875,36.50A0.25,0.25 0 0 0 19.125,36.50zM23.125,36.50A0.25,0.25 0 0 0 23.875,36.50A0.25,0.25 0 0 0 23.125,36.50zM25.125,36.50A0.25,0.25 0 0 0 25.875,36.50A0.25,0.25 0 0 0 25.125,36.50zM26.125,36.50A0.25,0.25 0 0 0 26.875,36.50A0.25,0.25 0 0 0 26.125,36.50zM27.125,36.50A0.25,0.25 0 0 0 27.875,36.50A0.25,0.25 0 0 0 27.125,36.50zM28.125,36.50A0.25,0.25 0 0 0 28.875,36.50A0.25,0.25 0 0 0 28.125,36.50zM33.125,36.50A0.25,0.25 0 0 0 33.875,36.50A0.25,0.25 0 0 0 33.125,36.50zM36.125,36.50A0.25,0.25 0 0 0 36.875,36.50A0.25,0.25 0 0 0 36.125,36.50zM37.125,36.50A0.25,0.25 0 0 0 37.875,36.50A0.25,0.25 0 0 0 37.125,36.50zM38.125,36.50A0.25,0.25 0 0 0 38.875,36.50A0.25,0.25 0 0 0 38.125,36.50zM39.125,36.50A0.25,0.25 0 0 0 39.875,36.50A0.25,0.25 0 0 0 39.125,36.50zM40.125,36.50A0.25,0.25 0 0 0 40.875,36.50A0.25,0.25 0 0 0 40.125,36.50zM42.125,36.50A0.25,0.25 0 0 0 42.875,36.50A0.25,0.25 0 0 0 42.125,36.50zM44.125,36.50A0.25,0.25 0 0 0 44.875,36.50A0.25,0.25 0 0 0 44.125,36.50zM12.125,37.50A0.25,0.25 0 0 0 12.875,37.50A0.25,0.25 0 0 0 12.125,37.50zM14.125,37.50A0.25,0.25 0 0 0 14.875,37.50A0.25,0.25 0 0 0 14.125,37.50zM16.125,37.50A0.25,0.25 0 0 0 16.875,37.50A0.25,0.25 0 0 0 16.125,37.50zM17.125,37.50A0.25,0.25 0 0 0 17.875,37.50A0.25,0.25 0 0 0 17.125,37.50zM19.125,37.50A0.25,0.25 0 0 0 19.875,37.50A0.25,0.25 0 0 0 19.125,37.50zM21.125,37.50A0.25,0.25 0 0 0 21.875,37.50A0.25,0.25 0 0 0 21.125,37.50zM22.125,37.50A0.25,0.25 0 0 0 22.875,37.50A0.25,0.25 0 0 0 22.125,37.50zM23.125,37.50A0.25,0.25 0 0 0 23.875,37.50A0.25,0.25 0 0 0 23.125,37.50zM24.125,37.50A0.25,0.25 0 0 0 24.875,37.50A0.25,0.25 0 0 0 24.125,37.50zM25.125,37.50A0.25,0.25 0 0 0 25.875,37.50A0.25,0.25 0 0 0 25.125,37.50zM28.125,37.50A0.25,0.25 0 0 0 28.875,37.50A0.25,0.25 0 0 0 28.125,37.50zM29.125,37.50A0.25,0.25 0 0 0 29.875,37.50A0.25,0.25 0 0 0 29.125,37.50zM31.125,37.50A0.25,0.25 0 0 0 31.875,37.50A0.25,0.25 0 0 0 31.125,37.50zM36.125,37.50A0.25,0.25 0 0 0 36.875,37.50A0.25,0.25 0 0 0 36.125,37.50zM40.125,37.50A0.25,0.25 0 0 0 40.875,37.50A0.25,0.25 0 0 0 40.125,37.50zM42.125,37.50A0.25,0.25 0 0 0 42.875,37.50A0.25,0.25 0 0 0 42.125,37.50zM4,38H5V39H4zM5,38H6V39H5zM6,38H7V39H6zM7,38H8V39H7zM8,38H9V39H8zM9,38H10V39H9zM10,38H11V39H10zM13.125,38.50A0.25,0.25 0 0 0 13.875,38.50A0.25,0.25 0 0 0 13.125,38.50zM14.125,38.50A0.25,0.25 0 0 0 14.875,38.50A0.25,0.25 0 0 0 14.125,38.50zM21.125,38.50A0.25,0.25 0 0 0 21.875,38.50A0.25,0.25 0 0 0 21.125,38.50zM23.125,38.50A0.25,0.25 0 0 0 23.875,38.50A0.25,0.25 0 0 0 23.125,38.50zM25.125,38.50A0.25,0.25 0 0 0 25.875,38.50A0.25,0.25 0 0 0 25.125,38.50zM27.125,38.50A0.25,0.25 0 0 0 27.875,38.50A0.25,0.25 0 0 0 27.125,38.50zM28.125,38.50A0.25,0.25 0 0 0 28.875,38.50A0.25,0.25 0 0 0 28.125,38.50zM31.125,38.50A0.25,0.25 0 0 0 31.875,38.50A0.25,0.25 0 0 0 31.125,38.50zM34.125,38.50A0.25,0.25 0 0 0 34.875,38.50A0.25,0.25 0 0 0 34.125,38.50zM35.125,38.50A0.25,0.25 0 0 0 35.875,38.50A0.25,0.25 0 0 0 35.125,38.50zM36.125,38.50A0.25,0.25 0 0 0 36.875,38.50A0.25,0.25 0 0 0 36.125,38.50zM38.125,38.50A0.25,0.25 0 0 0 38.875,38.50A0.25,0.25 0 0 0 38.125,38.50zM40.125,38.50A0.25,0.25 0 0 0 40.875,38.50A0.25,0.25 0 0 0 40.125,38.50zM42.125,38.50A0.25,0.25 0 0 0 42.875,38.50A0.25,0.25 0 0 0 42.125,38.50zM43.125,38.50A0.25,0.25 0 0 0 43.875,38.50A0.25,0.25 0 0 0 43.125,38.50zM4,39H5V40H4zM10,39H11V40H10zM12.125,39.50A0.25,0.25 0 0 0 12.875,39.50A0.25,0.25 0 0 0 12.125,39.50zM14.125,39.50A0.25,0.25 0 0 0 14.875,39.50A0.25,0.25 0 0 0 14.125,39.50zM16.125,39.50A0.25,0.25 0 0 0 16.875,39.50A0.25,0.25 0 0 0 16.125,39.50zM18.125,39.50A0.25,0.25 0 0 0 18.875,39.50A0.25,0.25 0 0 0 18.125,39.50zM20.125,39.50A0.25,0.25 0 0 0 20.875,39.50A0.25,0.25 0 0 0 20.125,39.50zM21.125,39.50A0.25,0.25 0 0 0 21.875,39.50A0.25,0.25 0 0 0 21.125,39.50zM24.125,39.50A0.25,0.25 0 0 0 24.875,39.50A0.25,0.25 0 0 0 24.125,39.50zM26.125,39.50A0.25,0.25 0 0 0 26.875,39.50A0.25,0.25 0 0 0 26.125,39.50zM32.125,39.50A0.25,0.25 0 0 0 32.875,39.50A0.25,0.25 0 0 0 32.125,39.50zM36.125,39.50A0.25,0.25 0 0 0 36.875,39.50A0.25,0.25 0 0 0 36.125,39.50zM40.125,39.50A0.25,0.25 0 0 0 40.875,39.50A0.25,0.25 0 0 0 40.125,39.50zM44.125,39.50A0.25,0.25 0 0 0 44.875,39.50A0.25,0.25 0 0 0 44.125,39.50zM4,40H5V41H4zM6,40H7V41H6zM7,40H8V41H7zM8,40H9V41H8zM10,40H11V41H10zM13.125,40.50A0.25,0.25 0 0 0 13.875,40.50A0.25,0.25 0 0 0 13.125,40.50zM15.125,40.50A0.25,0.25 0 0 0 15.875,40.50A0.25,0.25 0 0 0 15.125,40.50zM17.125,40.50A0.25,0.25 0 0 0 17.875,40.50A0.25,0.25 0 0 0 17.125,40.50zM20.125,40.50A0.25,0.25 0 0 0 20.875,40.50A0.25,0.25 0 0 0 20.125,40.50zM21.125,40.50A0.25,0.25 0 0 0 21.875,40.50A0.25,0.25 0 0 0 21.125,40.50zM22.125,40.50A0.25,0.25 0 0 0 22.875,40.50A0.25,0.25 0 0 0 22.125,40.50zM24.125,40.50A0.25,0.25 0 0 0 24.875,40.50A0.25,0.25 0 0 0 24.125,40.50zM27.125,40.50A0.25,0.25 0 0 0 27.875,40.50A0.25,0.25 0 0 0 27.125,40.50zM29.125,40.50A0.25,0.25 0 0 0 29.875,40.50A0.25,0.25 0 0 0 29.125,40.50zM30.125,40.50A0.25,0.25 0 0 0 30.875,40.50A0.25,0.25 0 0 0 30.125,40.50zM31.125,40.50A0.25,0.25 0 0 0 31.875,40.50A0.25,0.25 0 0 0 31.125,40.50zM33.125,40.50A0.25,0.25 0 0 0 33.875,40.50A0.25,0.25 0 0 0 33.125,40.50zM34.125,40.50A0.25,0.25 0 0 0 34.875,40.50A0.25,0.25 0 0 0 34.125,40.50zM35.125,40.50A0.25,0.25 0 0 0 35.875,40.50A0.25,0.25 0 0 0 35.125,40.50zM36.125,40.50A0.25,0.25 0 0 0 36.875,40.50A0.25,0.25 0 0 0 36.125,40.50zM37.125,40.50A0.25,0.25 0 0 0 37.875,40.50A0.25,0.25 0 0 0 37.125,40.50zM38.125,40.50A0.25,0.25 0 0 0 38.875,40.50A0.25,0.25 0 0 0 38.125,40.50zM39.125,40.50A0.25,0.25 0 0 0 39.875,40.50A0.25,0.25 0 0 0 39.125,40.50zM40.125,40.50A0.25,0.25 0 0 0 40.875,40.50A0.25,0.25 0 0 0 40.125,40.50zM41.125,40.50A0.25,0.25 0 0 0 41.875,40.50A0.25,0.25 0 0 0 41.125,40.50zM43.125,40.50A0.25,0.25 0 0 0 43.875,40.50A0.25,0.25 0 0 0 43.125,40.50zM44.125,40.50A0.25,0.25 0 0 0 44.875,40.50A0.25,0.25 0 0 0 44.125,40.50zM4,41H5V42H4zM6,41H7V42H6zM7,41H8V42H7zM8,41H9V42H8zM10,41H11V42H10zM13.125,41.50A0.25,0.25 0 0 0 13.875,41.50A0.25,0.25 0 0 0 13.125,41.50zM14.125,41.50A0.25,0.25 0 0 0 14.875,41.50A0.25,0.25 0 0 0 14.125,41.50zM15.125,41.50A0.25,0.25 0 0 0 15.875,41.50A0.25,0.25 0 0 0 15.125,41.50zM17.125,41.50A0.25,0.25 0 0 0 17.875,41.50A0.25,0.25 0 0 0 17.125,41.50zM19.125,41.50A0.25,0.25 0 0 0 19.875,41.50A0.25,0.25 0 0 0 19.125,41.50zM21.125,41.50A0.25,0.25 0 0 0 21.875,41.50A0.25,0.25 0 0 0 21.125,41.50zM22.125,41.50A0.25,0.25 0 0 0 22.875,41.50A0.25,0.25 0 0 0 22.125,41.50zM23.125,41.50A0.25,0.25 0 0 0 23.875,41.50A0.25,0.25 0 0 0 23.125,41.50zM24.125,41.50A0.25,0.25 0 0 0 24.875,41.50A0.25,0.25 0 0 0 24.125,41.50zM26.125,41.50A0.25,0.25 0 0 0 26.875,41.50A0.25,0.25 0 0 0 26.125,41.50zM31.125,41.50A0.25,0.25 0 0 0 31.875,41.50A0.25,0.25 0 0 0 31.125,41.50zM32.125,41.50A0.25,0.25 0 0 0 32.875,41.50A0.25,0.25 0 0 0 32.125,41.50zM35.125,41.50A0.25,0.25 0 0 0 35.875,41.50A0.25,0.25 0 0 0 35.125,41.50zM39.125,41.50A0.25,0.25 0 0 0 39.875,41.50A0.25,0.25 0 0 0 39.125,41.50zM41.125,41.50A0.25,0.25 0 0 0 41.875,41.50A0.25,0.25 0 0 0 41.125,41.50zM43.125,41.50A0.25,0.25 0 0 0 43.875,41.50A0.25,0.25 0 0 0 43.125,41.50zM44.125,41.50A0.25,0.25 0 0 0 44.875,41.50A0.25,0.25 0 0 0 44.125,41.50zM4,42H5V43H4zM6,42H7V43H6zM7,42H8V43H7zM8,42H9V43H8zM10,42H11V43H10zM13.125,42.50A0.25,0.25 0 0 0 13.875,42.50A0.25,0.25 0 0 0 13.125,42.50zM14.125,42.50A0.25,0.25 0 0 0 14.875,42.50A0.25,0.25 0 0 0 14.125,42.50zM17.125,42.50A0.25,0.25 0 0 0 17.875,42.50A0.25,0.25 0 0 0 17.125,42.50zM18.125,42.50A0.25,0.25 0 0 0 18.875,42.50A0.25,0.25 0 0 0 18.125,42.50zM19.125,42.50A0.25,0.25 0 0 0 19.875,42.50A0.25,0.25 0 0 0 19.125,42.50zM21.125,42.50A0.25,0.25 0 0 0 21.875,42.50A0.25,0.25 0 0 0 21.125,42.50zM22.125,42.50A0.25,0.25 0 0 0 22.875,42.50A0.25,0.25 0 0 0 22.125,42.50zM23.125,42.50A0.25,0.25 0 0 0 23.875,42.50A0.25,0.25 0 0 0 23.125,42.50zM25.125,42.50A0.25,0.25 0 0 0 25.875,42.50A0.25,0.25 0 0 0 25.125,42.50zM29.125,42.50A0.25,0.25 0 0 0 29.875,42.50A0.25,0.25 0 0 0 29.125,42.50zM30.125,42.50A0.25,0.25 0 0 0 30.875,42.50A0.25,0.25 0 0 0 30.125,42.50zM31.125,42.50A0.25,0.25 0 0 0 31.875,42.50A0.25,0.25 0 0 0 31.125,42.50zM32.125,42.50A0.25,0.25 0 0 0 32.875,42.50A0.25,0.25 0 0 0 32.125,42.50zM35.125,42.50A0.25,0.25 0 0 0 35.875,42.50A0.25,0.25 0 0 0 35.125,42.50zM37.125,42.50A0.25,0.25 0 0 0 37.875,42.50A0.25,0.25 0 0 0 37.125,42.50zM38.125,42.50A0.25,0.25 0 0 0 38.875,42.50A0.25,0.25 0 0 0 38.125,42.50zM39.125,42.50A0.25,0.25 0 0 0 39.875,42.50A0.25,0.25 0 0 0 39.125,42.50zM40.125,42.50A0.25,0.25 0 0 0 40.875,42.50A0.25,0.25 0 0 0 40.125,42.50zM43.125,42.50A0.25,0.25 0 0 0 43.875,42.50A0.25,0.25 0 0 0 43.125,42.50zM4,43H5V44H4zM10,43H11V44H10zM15.125,43.50A0.25,0.25 0 0 0 15.875,43.50A0.25,0.25 0 0 0 15.125,43.50zM20.125,43.50A0.25,0.25 0 0 0 20.875,43.50A0.25,0.25 0 0 0 20.125,43.50zM22.125,43.50A0.25,0.25 0 0 0 22.875,43.50A0.25,0.25 0 0 0 22.125,43.50zM23.125,43.50A0.25,0.25 0 0 0 23.875,43.50A0.25,0.25 0 0 0 23.125,43.50zM24.125,43.50A0.25,0.25 0 0 0 24.875,43.50A0.25,0.25 0 0 0 24.125,43.50zM26.125,43.50A0.25,0.25 0 0 0 26.875,43.50A0.25,0.25 0 0 0 26.125,43.50zM27.125,43.50A0.25,0.25 0 0 0 27.875,43.50A0.25,0.25 0 0 0 27.125,43.50zM31.125,43.50A0.25,0.25 0 0 0 31.875,43.50A0.25,0.25 0 0 0 31.125,43.50zM34.125,43.50A0.25,0.25 0 0 0 34.875,43.50A0.25,0.25 0 0 0 34.125,43.50zM38.125,43.50A0.25,0.25 0 0 0 38.875,43.50A0.25,0.25 0 0 0 38.125,43.50zM40.125,43.50A0.25,0.25 0 0 0 40.875,43.50A0.25,0.25 0 0 0 40.125,43.50zM42.125,43.50A0.25,0.25 0 0 0 42.875,43.50A0.25,0.25 0 0 0 42.125,43.50zM44.125,43.50A0.25,0.25 0 0 0 44.875,43.50A0.25,0.25 0 0 0 44.125,43.50zM4,44H5V45H4zM5,44H6V45H5zM6,44H7V45H6zM7,44H8V45H7zM8,44H9V45H8zM9,44H10V45H9zM10,44H11V45H10zM14.125,44.50A0.25,0.25 0 0 0 14.875,44.50A0.25,0.25 0 0 0 14.125,44.50zM19.125,44.50A0.25,0.25 0 0 0 19.875,44.50A0.25,0.25 0 0 0 19.125,44.50zM21.125,44.50A0.25,0.25 0 0 0 21.875,44.50A0.25,0.25 0 0 0 21.125,44.50zM22.125,44.50A0.25,0.25 0 0 0 22.875,44.50A0.25,0.25 0 0 0 22.125,44.50zM23.125,44.50A0.25,0.25 0 0 0 23.875,44.50A0.25,0.25 0 0 0 23.125,44.50zM25.125,44.50A0.25,0.25 0 0 0 25.875,44.50A0.25,0.25 0 0 0 25.125,44.50zM27.125,44.50A0.25,0.25 0 0 0 27.875,44.50A0.25,0.25 0 0 0 27.125,44.50zM29.125,44.50A0.25,0.25 0 0 0 29.875,44.50A0.25,0.25 0 0 0 29.125,44.50zM33.125,44.50A0.25,0.25 0 0 0 33.875,44.50A0.25,0.25 0 0 0 33.125,44.50zM35.125,44.50A0.25,0.25 0 0 0 35.875,44.50A0.25,0.25 0 0 0 35.125,44.50zM37.125,44.50A0.25,0.25 0 0 0 37.875,44.50A0.25,0.25 0 0 0 37.125,44.50zM38.125,44.50A0.25,0.25 0 0 0 38.875,44.50A0.25,0.25 0 0 0 38.125,44.50zM39.125,44.50A0.25,0.25 0 0 0 39.875,44.50A0.25,0.25 0 0 0 39.125,44.50zM40.125,44.50A0.25,0.25 0 0 0 40.875,44.50A0.25,0.25 0 0 0 40.125,44.50zM42.125,44.50A0.25,0.25 0 0 0 42.875,44.50A0.25,0.25 0 0 0 42.125,44.50z" id="qr-path" fill="#ffffff" fill-opacity="1" fill-rule="nonzero" stroke="none" /></a></svg>