<svg version="1.1" viewBox="0 0 41 41" xmlns="http://www.w3.org/2000/svg"><a href="https://tfn-land-use-test.readthedocs.io" target="_blank"><rect fill="rgba(255, 255, 255, 0)" x="0" y="0" width="100%" height="100%" /><path d="M2,2H3V3H2zM3,2H4V3H3zM4,2H5V3H4zM5,2H6V3H5zM6,2H7V3H6zM7,2H8V3H7zM8,2H9V3H8zM16.125,2.50A0.25,0.25 0 0 0 16.875,2.50A0.25,0.25 0 0 0 16.125,2.50zM18.125,2.50A0.25,0.25 0 0 0 18.875,2.50A0.25,0.25 0 0 0 18.125,2.50zM21.125,2.50A0.25,0.25 0 0 0 21.875,2.50A0.25,0.25 0 0 0 21.125,2.50zM22.125,2.50A0.25,0.25 0 0 0 22.875,2.50A0.25,0.25 0 0 0 22.125,2.50zM23.125,2.50A0.25,0.25 0 0 0 23.875,2.50A0.25,0.25 0 0 0 23.125,2.50zM25.125,2.50A0.25,0.25 0 0 0 25.875,2.50A0.25,0.25 0 0 0 25.125,2.50zM26.125,2.50A0.25,0.25 0 0 0 26.875,2.50A0.25,0.25 0 0 0 26.125,2.50zM27.125,2.50A0.25,0.25 0 0 0 27.875,2.50A0.25,0.25 0 0 0 27.125,2.50zM32,2H33V3H32zM33,2H34V3H33zM34,2H35V3H34zM35,2H36V3H35zM36,2H37V3H36zM37,2H38V3H37zM38,2H39V3H38zM2,3H3V4H2zM8,3H9V4H8zM11.125,3.50A0.25,0.25 0 0 0 11.875,3.50A0.25,0.25 0 0 0 11.125,3.50zM13.125,3.50A0.25,0.25 0 0 0 13.875,3.50A0.25,0.25 0 0 0 13.125,3.50zM14.125,3.50A0.25,0.25 0 0 0 14.875,3.50A0.25,0.25 0 0 0 14.125,3.50zM18.125,3.50A0.25,0.25 0 0 0 18.875,3.50A0.25,0.25 0 0 0 18.125,3.50zM19.125,3.50A0.25,0.25 0 0 0 19.875,3.50A0.25,0.25 0 0 0 19.125,3.50zM20.125,3.50A0.25,0.25 0 0 0 20.875,3.50A0.25,0.25 0 0 0 20.125,3.50zM21.125,3.50A0.25,0.25 0 0 0 21.875,3.50A0.25,0.25 0 0 0 21.125,3.50zM22.125,3.50A0.25,0.25 0 0 0 22.875,3.50A0.25,0.25 0 0 0 22.125,3.50zM24.125,3.50A0.25,0.25 0 0 0 24.875,3.50A0.25,0.25 0 0 0 24.125,3.50zM26.125,3.50A0.25,0.25 0 0 0 26.875,3.50A0.25,0.25 0 0 0 26.125,3.50zM27.125,3.50A0.25,0.25 0 0 0 27.875,3.50A0.25,0.25 0 0 0 27.125,3.50zM28.125,3.50A0.25,0.25 0 0 0 28.875,3.50A0.25,0.25 0 0 0 28.125,3.50zM30.125,3.50A0.25,0.25 0 0 0 30.875,3.50A0.25,0.25 0 0 0 30.125,3.50zM32,3H33V4H32zM38,3H39V4H38zM2,4H3V5H2zM4,4H5V5H4zM5,4H6V5H5zM6,4H7V5H6zM8,4H9V5H8zM10.125,4.50A0.25,0.25 0 0 0 10.875,4.50A0.25,0.25 0 0 0 10.125,4.50zM13.125,4.50A0.25,0.25 0 0 0 13.875,4.50A0.25,0.25 0 0 0 13.125,4.50zM15.125,4.50A0.25,0.25 0 0 0 15.875,4.50A0.25,0.25 0 0 0 15.125,4.50zM16.125,4.50A0.25,0.25 0 0 0 16.875,4.50A0.25,0.25 0 0 0 16.125,4.50zM20.125,4.50A0.25,0.25 0 0 0 20.875,4.50A0.25,0.25 0 0 0 20.125,4.50zM21.125,4.50A0.25,0.25 0 0 0 21.875,4.50A0.25,0.25 0 0 0 21.125,4.50zM23.125,4.50A0.25,0.25 0 0 0 23.875,4.50A0.25,0.25 0 0 0 23.125,4.50zM24.125,4.50A0.25,0.25 0 0 0 24.875,4.50A0.25,0.25 0 0 0 24.125,4.50zM27.125,4.50A0.25,0.25 0 0 0 27.875,4.50A0.25,0.25 0 0 0 27.125,4.50zM28.125,4.50A0.25,0.25 0 0 0 28.875,4.50A0.25,0.25 0 0 0 28.125,4.50zM29.125,4.50A0.25,0.25 0 0 0 29.875,4.50A0.25,0.25 0 0 0 29.125,4.50zM32,4H33V5H32zM34,4H35V5H34zM35,4H36V5H35zM36,4H37V5H36zM38,4H39V5H38zM2,5H3V6H2zM4,5H5V6H4zM5,5H6V6H5zM6,5H7V6H6zM8,5H9V6H8zM10.125,5.50A0.25,0.25 0 0 0 10.875,5.50A0.25,0.25 0 0 0 10.125,5.50zM14.125,5.50A0.25,0.25 0 0 0 14.875,5.50A0.25,0.25 0 0 0 14.125,5.50zM15.125,5.50A0.25,0.25 0 0 0 15.875,5.50A0.25,0.25 0 0 0 15.125,5.50zM16.125,5.50A0.25,0.25 0 0 0 16.875,5.50A0.25,0.25 0 0 0 16.125,5.50zM19.125,5.50A0.25,0.25 0 0 0 19.875,5.50A0.25,0.25 0 0 0 19.125,5.50zM20.125,5.50A0.25,0.25 0 0 0 20.875,5.50A0.25,0.25 0 0 0 20.125,5.50zM24.125,5.50A0.25,0.25 0 0 0 24.875,5.50A0.25,0.25 0 0 0 24.125,5.50zM25.125,5.50A0.25,0.25 0 0 0 25.875,5.50A0.25,0.25 0 0 0 25.125,5.50zM26.125,5.50A0.25,0.25 0 0 0 26.875,5.50A0.25,0.25 0 0 0 26.125,5.50zM27.125,5.50A0.25,0.25 0 0 0 27.875,5.50A0.25,0.25 0 0 0 27.125,5.50zM30.125,5.50A0.25,0.25 0 0 0 30.875,5.50A0.25,0.25 0 0 0 30.125,5.50zM32,5H33V6H32zM34,5H35V6H34zM35,5H36V6H35zM36,5H37V6H36zM38,5H39V6H38zM2,6H3V7H2zM4,6H5V7H4zM5,6H6V7H5zM6,6H7V7H6zM8,6H9V7H8zM11.125,6.50A0.25,0.25 0 0 0 11.875,6.50A0.25,0.25 0 0 0 11.125,6.50zM12.125,6.50A0.25,0.25 0 0 0 12.875,6.50A0.25,0.25 0 0 0 12.125,6.50zM13.125,6.50A0.25,0.25 0 0 0 13.875,6.50A0.25,0.25 0 0 0 13.125,6.50zM15.125,6.50A0.25,0.25 0 0 0 15.875,6.50A0.25,0.25 0 0 0 15.125,6.50zM16.125,6.50A0.25,0.25 0 0 0 16.875,6.50A0.25,0.25 0 0 0 16.125,6.50zM17.125,6.50A0.25,0.25 0 0 0 17.875,6.50A0.25,0.25 0 0 0 17.125,6.50zM18.125,6.50A0.25,0.25 0 0 0 18.875,6.50A0.25,0.25 0 0 0 18.125,6.50zM20.125,6.50A0.25,0.25 0 0 0 20.875,6.50A0.25,0.25 0 0 0 20.125,6.50zM22.125,6.50A0.25,0.25 0 0 0 22.875,6.50A0.25,0.25 0 0 0 22.125,6.50zM23.125,6.50A0.25,0.25 0 0 0 23.875,6.50A0.25,0.25 0 0 0 23.125,6.50zM26.125,6.50A0.25,0.25 0 0 0 26.875,6.50A0.25,0.25 0 0 0 26.125,6.50zM27.125,6.50A0.25,0.25 0 0 0 27.875,6.50A0.25,0.25 0 0 0 27.125,6.50zM28.125,6.50A0.25,0.25 0 0 0 28.875,6.50A0.25,0.25 0 0 0 28.125,6.50zM32,6H33V7H32zM34,6H35V7H34zM35,6H36V7H35zM36,6H37V7H36zM38,6H39V7H38zM2,7H3V8H2zM8,7H9V8H8zM12.125,7.50A0.25,0.25 0 0 0 12.875,7.50A0.25,0.25 0 0 0 12.125,7.50zM13.125,7.50A0.25,0.25 0 0 0 13.875,7.50A0.25,0.25 0 0 0 13.125,7.50zM16.125,7.50A0.25,0.25 0 0 0 16.875,7.50A0.25,0.25 0 0 0 16.125,7.50zM20.125,7.50A0.25,0.25 0 0 0 20.875,7.50A0.25,0.25 0 0 0 20.125,7.50zM23.125,7.50A0.25,0.25 0 0 0 23.875,7.50A0.25,0.25 0 0 0 23.125,7.50zM24.125,7.50A0.25,0.25 0 0 0 24.875,7.50A0.25,0.25 0 0 0 24.125,7.50zM25.125,7.50A0.25,0.25 0 0 0 25.875,7.50A0.25,0.25 0 0 0 25.125,7.50zM26.125,7.50A0.25,0.25 0 0 0 26.875,7.50A0.25,0.25 0 0 0 26.125,7.50zM27.125,7.50A0.25,0.25 0 0 0 27.875,7.50A0.25,0.25 0 0 0 27.125,7.50zM28.125,7.50A0.25,0.25 0 0 0 28.875,7.50A0.25,0.25 0 0 0 28.125,7.50zM32,7H33V8H32zM38,7H39V8H38zM2,8H3V9H2zM3,8H4V9H3zM4,8H5V9H4zM5,8H6V9H5zM6,8H7V9H6zM7,8H8V9H7zM8,8H9V9H8zM10.125,8.50A0.25,0.25 0 0 0 10.875,8.50A0.25,0.25 0 0 0 10.125,8.50zM12.125,8.50A0.25,0.25 0 0 0 12.875,8.50A0.25,0.25 0 0 0 12.125,8.50zM14.125,8.50A0.25,0.25 0 0 0 14.875,8.50A0.25,0.25 0 0 0 14.125,8.50zM16.125,8.50A0.25,0.25 0 0 0 16.875,8.50A0.25,0.25 0 0 0 16.125,8.50zM18.125,8.50A0.25,0.25 0 0 0 18.875,8.50A0.25,0.25 0 0 0 18.125,8.50zM20.125,8.50A0.25,0.25 0 0 0 20.875,8.50A0.25,0.25 0 0 0 20.125,8.50zM22.125,8.50A0.25,0.25 0 0 0 22.875,8.50A0.25,0.25 0 0 0 22.125,8.50zM24.125,8.50A0.25,0.25 0 0 0 24.875,8.50A0.25,0.25 0 0 0 24.125,8.50zM26.125,8.50A0.25,0.25 0 0 0 26.875,8.50A0.25,0.25 0 0 0 26.125,8.50zM28.125,8.50A0.25,0.25 0 0 0 28.875,8.50A0.25,0.25 0 0 0 28.125,8.50zM30.125,8.50A0.25,0.25 0 0 0 30.875,8.50A0.25,0.25 0 0 0 30.125,8.50zM32,8H33V9H32zM33,8H34V9H33zM34,8H35V9H34zM35,8H36V9H35zM36,8H37V9H36zM37,8H38V9H37zM38,8H39V9H38zM12.125,9.50A0.25,0.25 0 0 0 12.875,9.50A0.25,0.25 0 0 0 12.125,9.50zM18.125,9.50A0.25,0.25 0 0 0 18.875,9.50A0.25,0.25 0 0 0 18.125,9.50zM19.125,9.50A0.25,0.25 0 0 0 19.875,9.50A0.25,0.25 0 0 0 19.125,9.50zM21.125,9.50A0.25,0.25 0 0 0 21.875,9.50A0.25,0.25 0 0 0 21.125,9.50zM22.125,9.50A0.25,0.25 0 0 0 22.875,9.50A0.25,0.25 0 0 0 22.125,9.50zM23.125,9.50A0.25,0.25 0 0 0 23.875,9.50A0.25,0.25 0 0 0 23.125,9.50zM25.125,9.50A0.25,0.25 0 0 0 25.875,9.50A0.25,0.25 0 0 0 25.125,9.50zM28.125,9.50A0.25,0.25 0 0 0 28.875,9.50A0.25,0.25 0 0 0 28.125,9.50zM29.125,9.50A0.25,0.25 0 0 0 29.875,9.50A0.25,0.25 0 0 0 29.125,9.50zM30.125,9.50A0.25,0.25 0 0 0 30.875,9.50A0.25,0.25 0 0 0 30.125,9.50zM5.125,10.50A0.25,0.25 0 0 0 5.875,10.50A0.25,0.25 0 0 0 5.125,10.50zM6.125,10.50A0.25,0.25 0 0 0 6.875,10.50A0.25,0.25 0 0 0 6.125,10.50zM8.125,10.50A0.25,0.25 0 0 0 8.875,10.50A0.25,0.25 0 0 0 8.125,10.50zM9.125,10.50A0.25,0.25 0 0 0 9.875,10.50A0.25,0.25 0 0 0 9.125,10.50zM12.125,10.50A0.25,0.25 0 0 0 12.875,10.50A0.25,0.25 0 0 0 12.125,10.50zM15.125,10.50A0.25,0.25 0 0 0 15.875,10.50A0.25,0.25 0 0 0 15.125,10.50zM16.125,10.50A0.25,0.25 0 0 0 16.875,10.50A0.25,0.25 0 0 0 16.125,10.50zM17.125,10.50A0.25,0.25 0 0 0 17.875,10.50A0.25,0.25 0 0 0 17.125,10.50zM18.125,10.50A0.25,0.25 0 0 0 18.875,10.50A0.25,0.25 0 0 0 18.125,10.50zM19.125,10.50A0.25,0.25 0 0 0 19.875,10.50A0.25,0.25 0 0 0 19.125,10.50zM26.125,10.50A0.25,0.25 0 0 0 26.875,10.50A0.25,0.25 0 0 0 26.125,10.50zM27.125,10.50A0.25,0.25 0 0 0 27.875,10.50A0.25,0.25 0 0 0 27.125,10.50zM28.125,10.50A0.25,0.25 0 0 0 28.875,10.50A0.25,0.25 0 0 0 28.125,10.50zM30.125,10.50A0.25,0.25 0 0 0 30.875,10.50A0.25,0.25 0 0 0 30.125,10.50zM35.125,10.50A0.25,0.25 0 0 0 35.875,10.50A0.25,0.25 0 0 0 35.125,10.50zM36.125,10.50A0.25,0.25 0 0 0 36.875,10.50A0.25,0.25 0 0 0 36.125,10.50zM4.125,11.50A0.25,0.25 0 0 0 4.875,11.50A0.25,0.25 0 0 0 4.125,11.50zM6.125,11.50A0.25,0.25 0 0 0 6.875,11.50A0.25,0.25 0 0 0 6.125,11.50zM9.125,11.50A0.25,0.25 0 0 0 9.875,11.50A0.25,0.25 0 0 0 9.125,11.50zM10.125,11.50A0.25,0.25 0 0 0 10.875,11.50A0.25,0.25 0 0 0 10.125,11.50zM14.125,11.50A0.25,0.25 0 0 0 14.875,11.50A0.25,0.25 0 0 0 14.125,11.50zM19.125,11.50A0.25,0.25 0 0 0 19.875,11.50A0.25,0.25 0 0 0 19.125,11.50zM21.125,11.50A0.25,0.25 0 0 0 21.875,11.50A0.25,0.25 0 0 0 21.125,11.50zM23.125,11.50A0.25,0.25 0 0 0 23.875,11.50A0.25,0.25 0 0 0 23.125,11.50zM24.125,11.50A0.25,0.25 0 0 0 24.875,11.50A0.25,0.25 0 0 0 24.125,11.50zM27.125,11.50A0.25,0.25 0 0 0 27.875,11.50A0.25,0.25 0 0 0 27.125,11.50zM28.125,11.50A0.25,0.25 0 0 0 28.875,11.50A0.25,0.25 0 0 0 28.125,11.50zM30.125,11.50A0.25,0.25 0 0 0 30.875,11.50A0.25,0.25 0 0 0 30.125,11.50zM34.125,11.50A0.25,0.25 0 0 0 34.875,11.50A0.25,0.25 0 0 0 34.125,11.50zM35.125,11.50A0.25,0.25 0 0 0 35.875,11.50A0.25,0.25 0 0 0 35.125,11.50zM36.125,11.50A0.25,0.25 0 0 0 36.875,11.50A0.25,0.25 0 0 0 36.125,11.50zM3.125,12.50A0.25,0.25 0 0 0 3.875,12.50A0.25,0.25 0 0 0 3.125,12.50zM5.125,12.50A0.25,0.25 0 0 0 5.875,12.50A0.25,0.25 0 0 0 5.125,12.50zM8.125,12.50A0.25,0.25 0 0 0 8.875,12.50A0.25,0.25 0 0 0 8.125,12.50zM9.125,12.50A0.25,0.25 0 0 0 9.875,12.50A0.25,0.25 0 0 0 9.125,12.50zM10.125,12.50A0.25,0.25 0 0 0 10.875,12.50A0.25,0.25 0 0 0 10.125,12.50zM11.125,12.50A0.25,0.25 0 0 0 11.875,12.50A0.25,0.25 0 0 0 11.125,12.50zM13.125,12.50A0.25,0.25 0 0 0 13.875,12.50A0.25,0.25 0 0 0 13.125,12.50zM14.125,12.50A0.25,0.25 0 0 0 14.875,12.50A0.25,0.25 0 0 0 14.125,12.50zM15.125,12.50A0.25,0.25 0 0 0 15.875,12.50A0.25,0.25 0 0 0 15.125,12.50zM17.125,12.50A0.25,0.25 0 0 0 17.875,12.50A0.25,0.25 0 0 0 17.125,12.50zM20.125,12.50A0.25,0.25 0 0 0 20.875,12.50A0.25,0.25 0 0 0 20.125,12.50zM21.125,12.50A0.25,0.25 0 0 0 21.875,12.50A0.25,0.25 0 0 0 21.125,12.50zM22.125,12.50A0.25,0.25 0 0 0 22.875,12.50A0.25,0.25 0 0 0 22.125,12.50zM24.125,12.50A0.25,0.25 0 0 0 24.875,12.50A0.25,0.25 0 0 0 24.125,12.50zM25.125,12.50A0.25,0.25 0 0 0 25.875,12.50A0.25,0.25 0 0 0 25.125,12.50zM27.125,12.50A0.25,0.25 0 0 0 27.875,12.50A0.25,0.25 0 0 0 27.125,12.50zM29.125,12.50A0.25,0.25 0 0 0 29.875,12.50A0.25,0.25 0 0 0 29.125,12.50zM30.125,12.50A0.25,0.25 0 0 0 30.875,12.50A0.25,0.25 0 0 0 30.125,12.50zM31.125,12.50A0.25,0.25 0 0 0 31.875,12.50A0.25,0.25 0 0 0 31.125,12.50zM32.125,12.50A0.25,0.25 0 0 0 32.875,12.50A0.25,0.25 0 0 0 32.125,12.50zM33.125,12.50A0.25,0.25 0 0 0 33.875,12.50A0.25,0.25 0 0 0 33.125,12.50zM35.125,12.50A0.25,0.25 0 0 0 35.875,12.50A0.25,0.25 0 0 0 35.125,12.50zM38.125,12.50A0.25,0.25 0 0 0 38.875,12.50A0.25,0.25 0 0 0 38.125,12.50zM2.125,13.50A0.25,0.25 0 0 0 2.875,13.50A0.25,0.25 0 0 0 2.125,13.50zM3.125,13.50A0.25,0.25 0 0 0 3.875,13.50A0.25,0.25 0 0 0 3.125,13.50zM4.125,13.50A0.25,0.25 0 0 0 4.875,13.50A0.25,0.25 0 0 0 4.125,13.50zM9.125,13.50A0.25,0.25 0 0 0 9.875,13.50A0.25,0.25 0 0 0 9.125,13.50zM10.125,13.50A0.25,0.25 0 0 0 10.875,13.50A0.25,0.25 0 0 0 10.125,13.50zM11.125,13.50A0.25,0.25 0 0 0 11.875,13.50A0.25,0.25 0 0 0 11.125,13.50zM12.125,13.50A0.25,0.25 0 0 0 12.875,13.50A0.25,0.25 0 0 0 12.125,13.50zM14.125,13.50A0.25,0.25 0 0 0 14.875,13.50A0.25,0.25 0 0 0 14.125,13.50zM16.125,13.50A0.25,0.25 0 0 0 16.875,13.50A0.25,0.25 0 0 0 16.125,13.50zM18.125,13.50A0.25,0.25 0 0 0 18.875,13.50A0.25,0.25 0 0 0 18.125,13.50zM19.125,13.50A0.25,0.25 0 0 0 19.875,13.50A0.25,0.25 0 0 0 19.125,13.50zM20.125,13.50A0.25,0.25 0 0 0 20.875,13.50A0.25,0.25 0 0 0 20.125,13.50zM21.125,13.50A0.25,0.25 0 0 0 21.875,13.50A0.25,0.25 0 0 0 21.125,13.50zM22.125,13.50A0.25,0.25 0 0 0 22.875,13.50A0.25,0.25 0 0 0 22.125,13.50zM23.125,13.50A0.25,0.25 0 0 0 23.875,13.50A0.25,0.25 0 0 0 23.125,13.50zM24.125,13.50A0.25,0.25 0 0 0 24.875,13.50A0.25,0.25 0 0 0 24.125,13.50zM28.125,13.50A0.25,0.25 0 0 0 28.875,13.50A0.25,0.25 0 0 0 28.125,13.50zM29.125,13.50A0.25,0.25 0 0 0 29.875,13.50A0.25,0.25 0 0 0 29.125,13.50zM31.125,13.50A0.25,0.25 0 0 0 31.875,13.50A0.25,0.25 0 0 0 31.125,13.50zM32.125,13.50A0.25,0.25 0 0 0 32.875,13.50A0.25,0.25 0 0 0 32.125,13.50zM35.125,13.50A0.25,0.25 0 0 0 35.875,13.50A0.25,0.25 0 0 0 35.125,13.50zM36.125,13.50A0.25,0.25 0 0 0 36.875,13.50A0.25,0.25 0 0 0 36.125,13.50zM37.125,13.50A0.25,0.25 0 0 0 37.875,13.50A0.25,0.25 0 0 0 37.125,13.50zM38.125,13.50A0.25,0.25 0 0 0 38.875,13.50A0.25,0.25 0 0 0 38.125,13.50zM2.125,14.50A0.25,0.25 0 0 0 2.875,14.50A0.25,0.25 0 0 0 2.125,14.50zM5.125,14.50A0.25,0.25 0 0 0 5.875,14.50A0.25,0.25 0 0 0 5.125,14.50zM7.125,14.50A0.25,0.25 0 0 0 7.875,14.50A0.25,0.25 0 0 0 7.125,14.50zM8.125,14.50A0.25,0.25 0 0 0 8.875,14.50A0.25,0.25 0 0 0 8.125,14.50zM9.125,14.50A0.25,0.25 0 0 0 9.875,14.50A0.25,0.25 0 0 0 9.125,14.50zM10.125,14.50A0.25,0.25 0 0 0 10.875,14.50A0.25,0.25 0 0 0 10.125,14.50zM13.125,14.50A0.25,0.25 0 0 0 13.875,14.50A0.25,0.25 0 0 0 13.125,14.50zM15.125,14.50A0.25,0.25 0 0 0 15.875,14.50A0.25,0.25 0 0 0 15.125,14.50zM16.125,14.50A0.25,0.25 0 0 0 16.875,14.50A0.25,0.25 0 0 0 16.125,14.50zM22.125,14.50A0.25,0.25 0 0 0 22.875,14.50A0.25,0.25 0 0 0 22.125,14.50zM24.125,14.50A0.25,0.25 0 0 0 24.875,14.50A0.25,0.25 0 0 0 24.125,14.50zM25.125,14.50A0.25,0.25 0 0 0 25.875,14.50A0.25,0.25 0 0 0 25.125,14.50zM26.125,14.50A0.25,0.25 0 0 0 26.875,14.50A0.25,0.25 0 0 0 26.125,14.50zM30.125,14.50A0.25,0.25 0 0 0 30.875,14.50A0.25,0.25 0 0 0 30.125,14.50zM32.125,14.50A0.25,0.25 0 0 0 32.875,14.50A0.25,0.25 0 0 0 32.125,14.50zM33.125,14.50A0.25,0.25 0 0 0 33.875,14.50A0.25,0.25 0 0 0 33.125,14.50zM35.125,14.50A0.25,0.25 0 0 0 35.875,14.50A0.25,0.25 0 0 0 35.125,14.50zM38.125,14.50A0.25,0.25 0 0 0 38.875,14.50A0.25,0.25 0 0 0 38.125,14.50zM3.125,15.50A0.25,0.25 0 0 0 3.875,15.50A0.25,0.25 0 0 0 3.125,15.50zM4.125,15.50A0.25,0.25 0 0 0 4.875,15.50A0.25,0.25 0 0 0 4.125,15.50zM7.125,15.50A0.25,0.25 0 0 0 7.875,15.50A0.25,0.25 0 0 0 7.125,15.50zM9.125,15.50A0.25,0.25 0 0 0 9.875,15.50A0.25,0.25 0 0 0 9.125,15.50zM12.125,15.50A0.25,0.25 0 0 0 12.875,15.50A0.25,0.25 0 0 0 12.125,15.50zM13.125,15.50A0.25,0.25 0 0 0 13.875,15.50A0.25,0.25 0 0 0 13.125,15.50zM21.125,15.50A0.25,0.25 0 0 0 21.875,15.50A0.25,0.25 0 0 0 21.125,15.50zM23.125,15.50A0.25,0.25 0 0 0 23.875,15.50A0.25,0.25 0 0 0 23.125,15.50zM26.125,15.50A0.25,0.25 0 0 0 26.875,15.50A0.25,0.25 0 0 0 26.125,15.50zM27.125,15.50A0.25,0.25 0 0 0 27.875,15.50A0.25,0.25 0 0 0 27.125,15.50zM29.125,15.50A0.25,0.25 0 0 0 29.875,15.50A0.25,0.25 0 0 0 29.125,15.50zM30.125,15.50A0.25,0.25 0 0 0 30.875,15.50A0.25,0.25 0 0 0 30.125,15.50zM31.125,15.50A0.25,0.25 0 0 0 31.875,15.50A0.25,0.25 0 0 0 31.125,15.50zM33.125,15.50A0.25,0.25 0 0 0 33.875,15.50A0.25,0.25 0 0 0 33.125,15.50zM34.125,15.50A0.25,0.25 0 0 0 34.875,15.50A0.25,0.25 0 0 0 34.125,15.50zM36.125,15.50A0.25,0.25 0 0 0 36.875,15.50A0.25,0.25 0 0 0 36.125,15.50zM2.125,16.50A0.25,0.25 0 0 0 2.875,16.50A0.25,0.25 0 0 0 2.125,16.50zM3.125,16.50A0.25,0.25 0 0 0 3.875,16.50A0.25,0.25 0 0 0 3.125,16.50zM4.125,16.50A0.25,0.25 0 0 0 4.875,16.50A0.25,0.25 0 0 0 4.125,16.50zM7.125,16.50A0.25,0.25 0 0 0 7.875,16.50A0.25,0.25 0 0 0 7.125,16.50zM8.125,16.50A0.25,0.25 0 0 0 8.875,16.50A0.25,0.25 0 0 0 8.125,16.50zM11.125,16.50A0.25,0.25 0 0 0 11.875,16.50A0.25,0.25 0 0 0 11.125,16.50zM15.125,16.50A0.25,0.25 0 0 0 15.875,16.50A0.25,0.25 0 0 0 15.125,16.50zM16.125,16.50A0.25,0.25 0 0 0 16.875,16.50A0.25,0.25 0 0 0 16.125,16.50zM17.125,16.50A0.25,0.25 0 0 0 17.875,16.50A0.25,0.25 0 0 0 17.125,16.50zM19.125,16.50A0.25,0.25 0 0 0 19.875,16.50A0.25,0.25 0 0 0 19.125,16.50zM20.125,16.50A0.25,0.25 0 0 0 20.875,16.50A0.25,0.25 0 0 0 20.125,16.50zM26.125,16.50A0.25,0.25 0 0 0 26.875,16.50A0.25,0.25 0 0 0 26.125,16.50zM29.125,16.50A0.25,0.25 0 0 0 29.875,16.50A0.25,0.25 0 0 0 29.125,16.50zM31.125,16.50A0.25,0.25 0 0 0 31.875,16.50A0.25,0.25 0 0 0 31.125,16.50zM33.125,16.50A0.25,0.25 0 0 0 33.875,16.50A0.25,0.25 0 0 0 33.125,16.50zM35.125,16.50A0.25,0.25 0 0 0 35.875,16.50A0.25,0.25 0 0 0 35.125,16.50zM36.125,16.50A0.25,0.25 0 0 0 36.875,16.50A0.25,0.25 0 0 0 36.125,16.50zM38.125,16.50A0.25,0.25 0 0 0 38.875,16.50A0.25,0.25 0 0 0 38.125,16.50zM3.125,17.50A0.25,0.25 0 0 0 3.875,17.50A0.25,0.25 0 0 0 3.125,17.50zM4.125,17.50A0.25,0.25 0 0 0 4.875,17.50A0.25,0.25 0 0 0 4.125,17.50zM6.125,17.50A0.25,0.25 0 0 0 6.875,17.50A0.25,0.25 0 0 0 6.125,17.50zM11.125,17.50A0.25,0.25 0 0 0 11.875,17.50A0.25,0.25 0 0 0 11.125,17.50zM12.125,17.50A0.25,0.25 0 0 0 12.875,17.50A0.25,0.25 0 0 0 12.125,17.50zM14.125,17.50A0.25,0.25 0 0 0 14.875,17.50A0.25,0.25 0 0 0 14.125,17.50zM16.125,17.50A0.25,0.25 0 0 0 16.875,17.50A0.25,0.25 0 0 0 16.125,17.50zM17.125,17.50A0.25,0.25 0 0 0 17.875,17.50A0.25,0.25 0 0 0 17.125,17.50zM18.125,17.50A0.25,0.25 0 0 0 18.875,17.50A0.25,0.25 0 0 0 18.125,17.50zM20.125,17.50A0.25,0.25 0 0 0 20.875,17.50A0.25,0.25 0 0 0 20.125,17.50zM21.125,17.50A0.25,0.25 0 0 0 21.875,17.50A0.25,0.25 0 0 0 21.125,17.50zM22.125,17.50A0.25,0.25 0 0 0 22.875,17.50A0.25,0.25 0 0 0 22.125,17.50zM26.125,17.50A0.25,0.25 0 0 0 26.875,17.50A0.25,0.25 0 0 0 26.125,17.50zM33.125,17.50A0.25,0.25 0 0 0 33.875,17.50A0.25,0.25 0 0 0 33.125,17.50zM34.125,17.50A0.25,0.25 0 0 0 34.875,17.50A0.25,0.25 0 0 0 34.125,17.50zM35.125,17.50A0.25,0.25 0 0 0 35.875,17.50A0.25,0.25 0 0 0 35.125,17.50zM36.125,17.50A0.25,0.25 0 0 0 36.875,17.50A0.25,0.25 0 0 0 36.125,17.50zM2.125,18.50A0.25,0.25 0 0 0 2.875,18.50A0.25,0.25 0 0 0 2.125,18.50zM4.125,18.50A0.25,0.25 0 0 0 4.875,18.50A0.25,0.25 0 0 0 4.125,18.50zM6.125,18.50A0.25,0.25 0 0 0 6.875,18.50A0.25,0.25 0 0 0 6.125,18.50zM8.125,18.50A0.25,0.25 0 0 0 8.875,18.50A0.25,0.25 0 0 0 8.125,18.50zM9.125,18.50A0.25,0.25 0 0 0 9.875,18.50A0.25,0.25 0 0 0 9.125,18.50zM10.125,18.50A0.25,0.25 0 0 0 10.875,18.50A0.25,0.25 0 0 0 10.125,18.50zM12.125,18.50A0.25,0.25 0 0 0 12.875,18.50A0.25,0.25 0 0 0 12.125,18.50zM14.125,18.50A0.25,0.25 0 0 0 14.875,18.50A0.25,0.25 0 0 0 14.125,18.50zM22.125,18.50A0.25,0.25 0 0 0 22.875,18.50A0.25,0.25 0 0 0 22.125,18.50zM25.125,18.50A0.25,0.25 0 0 0 25.875,18.50A0.25,0.25 0 0 0 25.125,18.50zM27.125,18.50A0.25,0.25 0 0 0 27.875,18.50A0.25,0.25 0 0 0 27.125,18.50zM29.125,18.50A0.25,0.25 0 0 0 29.875,18.50A0.25,0.25 0 0 0 29.125,18.50zM30.125,18.50A0.25,0.25 0 0 0 30.875,18.50A0.25,0.25 0 0 0 30.125,18.50zM32.125,18.50A0.25,0.25 0 0 0 32.875,18.50A0.25,0.25 0 0 0 32.125,18.50zM36.125,18.50A0.25,0.25 0 0 0 36.875,18.50A0.25,0.25 0 0 0 36.125,18.50zM4.125,19.50A0.25,0.25 0 0 0 4.875,19.50A0.25,0.25 0 0 0 4.125,19.50zM6.125,19.50A0.25,0.25 0 0 0 6.875,19.50A0.25,0.25 0 0 0 6.125,19.50zM7.125,19.50A0.25,0.25 0 0 0 7.875,19.50A0.25,0.25 0 0 0 7.125,19.50zM9.125,19.50A0.25,0.25 0 0 0 9.875,19.50A0.25,0.25 0 0 0 9.125,19.50zM10.125,19.50A0.25,0.25 0 0 0 10.875,19.50A0.25,0.25 0 0 0 10.125,19.50zM12.125,19.50A0.25,0.25 0 0 0 12.875,19.50A0.25,0.25 0 0 0 12.125,19.50zM13.125,19.50A0.25,0.25 0 0 0 13.875,19.50A0.25,0.25 0 0 0 13.125,19.50zM17.125,19.50A0.25,0.25 0 0 0 17.875,19.50A0.25,0.25 0 0 0 17.125,19.50zM18.125,19.50A0.25,0.25 0 0 0 18.875,19.50A0.25,0.25 0 0 0 18.125,19.50zM19.125,19.50A0.25,0.25 0 0 0 19.875,19.50A0.25,0.25 0 0 0 19.125,19.50zM20.125,19.50A0.25,0.25 0 0 0 20.875,19.50A0.25,0.25 0 0 0 20.125,19.50zM22.125,19.50A0.25,0.25 0 0 0 22.875,19.50A0.25,0.25 0 0 0 22.125,19.50zM24.125,19.50A0.25,0.25 0 0 0 24.875,19.50A0.25,0.25 0 0 0 24.125,19.50zM25.125,19.50A0.25,0.25 0 0 0 25.875,19.50A0.25,0.25 0 0 0 25.125,19.50zM26.125,19.50A0.25,0.25 0 0 0 26.875,19.50A0.25,0.25 0 0 0 26.125,19.50zM29.125,19.50A0.25,0.25 0 0 0 29.875,19.50A0.25,0.25 0 0 0 29.125,19.50zM31.125,19.50A0.25,0.25 0 0 0 31.875,19.50A0.25,0.25 0 0 0 31.125,19.50zM33.125,19.50A0.25,0.25 0 0 0 33.875,19.50A0.25,0.25 0 0 0 33.125,19.50zM35.125,19.50A0.25,0.25 0 0 0 35.875,19.50A0.25,0.25 0 0 0 35.125,19.50zM37.125,19.50A0.25,0.25 0 0 0 37.875,19.50A0.25,0.25 0 0 0 37.125,19.50zM3.125,20.50A0.25,0.25 0 0 0 3.875,20.50A0.25,0.25 0 0 0 3.125,20.50zM4.125,20.50A0.25,0.25 0 0 0 4.875,20.50A0.25,0.25 0 0 0 4.125,20.50zM8.125,20.50A0.25,0.25 0 0 0 8.875,20.50A0.25,0.25 0 0 0 8.125,20.50zM11.125,20.50A0.25,0.25 0 0 0 11.875,20.50A0.25,0.25 0 0 0 11.125,20.50zM13.125,20.50A0.25,0.25 0 0 0 13.875,20.50A0.25,0.25 0 0 0 13.125,20.50zM15.125,20.50A0.25,0.25 0 0 0 15.875,20.50A0.25,0.25 0 0 0 15.125,20.50zM20.125,20.50A0.25,0.25 0 0 0 20.875,20.50A0.25,0.25 0 0 0 20.125,20.50zM25.125,20.50A0.25,0.25 0 0 0 25.875,20.50A0.25,0.25 0 0 0 25.125,20.50zM26.125,20.50A0.25,0.25 0 0 0 26.875,20.50A0.25,0.25 0 0 0 26.125,20.50zM27.125,20.50A0.25,0.25 0 0 0 27.875,20.50A0.25,0.25 0 0 0 27.125,20.50zM29.125,20.50A0.25,0.25 0 0 0 29.875,20.50A0.25,0.25 0 0 0 29.125,20.50zM34.125,20.50A0.25,0.25 0 0 0 34.875,20.50A0.25,0.25 0 0 0 34.125,20.50zM36.125,20.50A0.25,0.25 0 0 0 36.875,20.50A0.25,0.25 0 0 0 36.125,20.50zM38.125,20.50A0.25,0.25 0 0 0 38.875,20.50A0.25,0.25 0 0 0 38.125,20.50zM2.125,21.50A0.25,0.25 0 0 0 2.875,21.50A0.25,0.25 0 0 0 2.125,21.50zM5.125,21.50A0.25,0.25 0 0 0 5.875,21.50A0.25,0.25 0 0 0 5.125,21.50zM6.125,21.50A0.25,0.25 0 0 0 6.875,21.50A0.25,0.25 0 0 0 6.125,21.50zM9.125,21.50A0.25,0.25 0 0 0 9.875,21.50A0.25,0.25 0 0 0 9.125,21.50zM10.125,21.50A0.25,0.25 0 0 0 10.875,21.50A0.25,0.25 0 0 0 10.125,21.50zM11.125,21.50A0.25,0.25 0 0 0 11.875,21.50A0.25,0.25 0 0 0 11.125,21.50zM12.125,21.50A0.25,0.25 0 0 0 12.875,21.50A0.25,0.25 0 0 0 12.125,21.50zM13.125,21.50A0.25,0.25 0 0 0 13.875,21.50A0.25,0.25 0 0 0 13.125,21.50zM14.125,21.50A0.25,0.25 0 0 0 14.875,21.50A0.25,0.25 0 0 0 14.125,21.50zM15.125,21.50A0.25,0.25 0 0 0 15.875,21.50A0.25,0.25 0 0 0 15.125,21.50zM16.125,21.50A0.25,0.25 0 0 0 16.875,21.50A0.25,0.25 0 0 0 16.125,21.50zM24.125,21.50A0.25,0.25 0 0 0 24.875,21.50A0.25,0.25 0 0 0 24.125,21.50zM25.125,21.50A0.25,0.25 0 0 0 25.875,21.50A0.25,0.25 0 0 0 25.125,21.50zM26.125,21.50A0.25,0.25 0 0 0 26.875,21.50A0.25,0.25 0 0 0 26.125,21.50zM27.125,21.50A0.25,0.25 0 0 0 27.875,21.50A0.25,0.25 0 0 0 27.125,21.50zM28.125,21.50A0.25,0.25 0 0 0 28.875,21.50A0.25,0.25 0 0 0 28.125,21.50zM30.125,21.50A0.25,0.25 0 0 0 30.875,21.50A0.25,0.25 0 0 0 30.125,21.50zM33.125,21.50A0.25,0.25 0 0 0 33.875,21.50A0.25,0.25 0 0 0 33.125,21.50zM34.125,21.50A0.25,0.25 0 0 0 34.875,21.50A0.25,0.25 0 0 0 34.125,21.50zM35.125,21.50A0.25,0.25 0 0 0 35.875,21.50A0.25,0.25 0 0 0 35.125,21.50zM38.125,21.50A0.25,0.25 0 0 0 38.875,21.50A0.25,0.25 0 0 0 38.125,21.50zM3.125,22.50A0.25,0.25 0 0 0 3.875,22.50A0.25,0.25 0 0 0 3.125,22.50zM4.125,22.50A0.25,0.25 0 0 0 4.875,22.50A0.25,0.25 0 0 0 4.125,22.50zM5.125,22.50A0.25,0.25 0 0 0 5.875,22.50A0.25,0.25 0 0 0 5.125,22.50zM8.125,22.50A0.25,0.25 0 0 0 8.875,22.50A0.25,0.25 0 0 0 8.125,22.50zM9.125,22.50A0.25,0.25 0 0 0 9.875,22.50A0.25,0.25 0 0 0 9.125,22.50zM11.125,22.50A0.25,0.25 0 0 0 11.875,22.50A0.25,0.25 0 0 0 11.125,22.50zM13.125,22.50A0.25,0.25 0 0 0 13.875,22.50A0.25,0.25 0 0 0 13.125,22.50zM15.125,22.50A0.25,0.25 0 0 0 15.875,22.50A0.25,0.25 0 0 0 15.125,22.50zM20.125,22.50A0.25,0.25 0 0 0 20.875,22.50A0.25,0.25 0 0 0 20.125,22.50zM22.125,22.50A0.25,0.25 0 0 0 22.875,22.50A0.25,0.25 0 0 0 22.125,22.50zM26.125,22.50A0.25,0.25 0 0 0 26.875,22.50A0.25,0.25 0 0 0 26.125,22.50zM28.125,22.50A0.25,0.25 0 0 0 28.875,22.50A0.25,0.25 0 0 0 28.125,22.50zM30.125,22.50A0.25,0.25 0 0 0 30.875,22.50A0.25,0.25 0 0 0 30.125,22.50zM31.125,22.50A0.25,0.25 0 0 0 31.875,22.50A0.25,0.25 0 0 0 31.125,22.50zM32.125,22.50A0.25,0.25 0 0 0 32.875,22.50A0.25,0.25 0 0 0 32.125,22.50zM34.125,22.50A0.25,0.25 0 0 0 34.875,22.50A0.25,0.25 0 0 0 34.125,22.50zM35.125,22.50A0.25,0.25 0 0 0 35.875,22.50A0.25,0.25 0 0 0 35.125,22.50zM5.125,23.50A0.25,0.25 0 0 0 5.875,23.50A0.25,0.25 0 0 0 5.125,23.50zM13.125,23.50A0.25,0.25 0 0 0 13.875,23.50A0.25,0.25 0 0 0 13.125,23.50zM14.125,23.50A0.25,0.25 0 0 0 14.875,23.50A0.25,0.25 0 0 0 14.125,23.50zM17.125,23.50A0.25,0.25 0 0 0 17.875,23.50A0.25,0.25 0 0 0 17.125,23.50zM18.125,23.50A0.25,0.25 0 0 0 18.875,23.50A0.25,0.25 0 0 0 18.125,23.50zM21.125,23.50A0.25,0.25 0 0 0 21.875,23.50A0.25,0.25 0 0 0 21.125,23.50zM23.125,23.50A0.25,0.25 0 0 0 23.875,23.50A0.25,0.25 0 0 0 23.125,23.50zM25.125,23.50A0.25,0.25 0 0 0 25.875,23.50A0.25,0.25 0 0 0 25.125,23.50zM29.125,23.50A0.25,0.25 0 0 0 29.875,23.50A0.25,0.25 0 0 0 29.125,23.50zM30.125,23.50A0.25,0.25 0 0 0 30.875,23.50A0.25,0.25 0 0 0 30.125,23.50zM31.125,23.50A0.25,0.25 0 0 0 31.875,23.50A0.25,0.25 0 0 0 31.125,23.50zM33.125,23.50A0.25,0.25 0 0 0 33.875,23.50A0.25,0.25 0 0 0 33.125,23.50zM34.125,23.50A0.25,0.25 0 0 0 34.875,23.50A0.25,0.25 0 0 0 34.125,23.50zM35.125,23.50A0.25,0.25 0 0 0 35.875,23.50A0.25,0.25 0 0 0 35.125,23.50zM36.125,23.50A0.25,0.25 0 0 0 36.875,23.50A0.25,0.25 0 0 0 36.125,23.50zM3.125,24.50A0.25,0.25 0 0 0 3.875,24.50A0.25,0.25 0 0 0 3.125,24.50zM8.125,24.50A0.25,0.25 0 0 0 8.875,24.50A0.25,0.25 0 0 0 8.125,24.50zM9.125,24.50A0.25,0.25 0 0 0 9.875,24.50A0.25,0.25 0 0 0 9.125,24.50zM11.125,24.50A0.25,0.25 0 0 0 11.875,24.50A0.25,0.25 0 0 0 11.125,24.50zM12.125,24.50A0.25,0.25 0 0 0 12.875,24.50A0.25,0.25 0 0 0 12.125,24.50zM14.125,24.50A0.25,0.25 0 0 0 14.875,24.50A0.25,0.25 0 0 0 14.125,24.50zM18.125,24.50A0.25,0.25 0 0 0 18.875,24.50A0.25,0.25 0 0 0 18.125,24.50zM20.125,24.50A0.25,0.25 0 0 0 20.875,24.50A0.25,0.25 0 0 0 20.125,24.50zM21.125,24.50A0.25,0.25 0 0 0 21.875,24.50A0.25,0.25 0 0 0 21.125,24.50zM23.125,24.50A0.25,0.25 0 0 0 23.875,24.50A0.25,0.25 0 0 0 23.125,24.50zM24.125,24.50A0.25,0.25 0 0 0 24.875,24.50A0.25,0.25 0 0 0 24.125,24.50zM25.125,24.50A0.25,0.25 0 0 0 25.875,24.50A0.25,0.25 0 0 0 25.125,24.50zM26.125,24.50A0.25,0.25 0 0 0 26.875,24.50A0.25,0.25 0 0 0 26.125,24.50zM28.125,24.50A0.25,0.25 0 0 0 28.875,24.50A0.25,0.25 0 0 0 28.125,24.50zM29.125,24.50A0.25,0.25 0 0 0 29.875,24.50A0.25,0.25 0 0 0 29.125,24.50zM34.125,24.50A0.25,0.25 0 0 0 34.875,24.50A0.25,0.25 0 0 0 34.125,24.50zM38.125,24.50A0.25,0.25 0 0 0 38.875,24.50A0.25,0.25 0 0 0 38.125,24.50zM2.125,25.50A0.25,0.25 0 0 0 2.875,25.50A0.25,0.25 0 0 0 2.125,25.50zM3.125,25.50A0.25,0.25 0 0 0 3.875,25.50A0.25,0.25 0 0 0 3.125,25.50zM5.125,25.50A0.25,0.25 0 0 0 5.875,25.50A0.25,0.25 0 0 0 5.125,25.50zM10.125,25.50A0.25,0.25 0 0 0 10.875,25.50A0.25,0.25 0 0 0 10.125,25.50zM14.125,25.50A0.25,0.25 0 0 0 14.875,25.50A0.25,0.25 0 0 0 14.125,25.50zM15.125,25.50A0.25,0.25 0 0 0 15.875,25.50A0.25,0.25 0 0 0 15.125,25.50zM17.125,25.50A0.25,0.25 0 0 0 17.875,25.50A0.25,0.25 0 0 0 17.125,25.50zM21.125,25.50A0.25,0.25 0 0 0 21.875,25.50A0.25,0.25 0 0 0 21.125,25.50zM23.125,25.50A0.25,0.25 0 0 0 23.875,25.50A0.25,0.25 0 0 0 23.125,25.50zM24.125,25.50A0.25,0.25 0 0 0 24.875,25.50A0.25,0.25 0 0 0 24.125,25.50zM25.125,25.50A0.25,0.25 0 0 0 25.875,25.50A0.25,0.25 0 0 0 25.125,25.50zM28.125,25.50A0.25,0.25 0 0 0 28.875,25.50A0.25,0.25 0 0 0 28.125,25.50zM29.125,25.50A0.25,0.25 0 0 0 29.875,25.50A0.25,0.25 0 0 0 29.125,25.50zM30.125,25.50A0.25,0.25 0 0 0 30.875,25.50A0.25,0.25 0 0 0 30.125,25.50zM31.125,25.50A0.25,0.25 0 0 0 31.875,25.50A0.25,0.25 0 0 0 31.125,25.50zM33.125,25.50A0.25,0.25 0 0 0 33.875,25.50A0.25,0.25 0 0 0 33.125,25.50zM35.125,25.50A0.25,0.25 0 0 0 35.875,25.50A0.25,0.25 0 0 0 35.125,25.50zM36.125,25.50A0.25,0.25 0 0 0 36.875,25.50A0.25,0.25 0 0 0 36.125,25.50zM38.125,25.50A0.25,0.25 0 0 0 38.875,25.50A0.25,0.25 0 0 0 38.125,25.50zM2.125,26.50A0.25,0.25 0 0 0 2.875,26.50A0.25,0.25 0 0 0 2.125,26.50zM3.125,26.50A0.25,0.25 0 0 0 3.875,26.50A0.25,0.25 0 0 0 3.125,26.50zM5.125,26.50A0.25,0.25 0 0 0 5.875,26.50A0.25,0.25 0 0 0 5.125,26.50zM6.125,26.50A0.25,0.25 0 0 0 6.875,26.50A0.25,0.25 0 0 0 6.125,26.50zM8.125,26.50A0.25,0.25 0 0 0 8.875,26.50A0.25,0.25 0 0 0 8.125,26.50zM10.125,26.50A0.25,0.25 0 0 0 10.875,26.50A0.25,0.25 0 0 0 10.125,26.50zM11.125,26.50A0.25,0.25 0 0 0 11.875,26.50A0.25,0.25 0 0 0 11.125,26.50zM12.125,26.50A0.25,0.25 0 0 0 12.875,26.50A0.25,0.25 0 0 0 12.125,26.50zM14.125,26.50A0.25,0.25 0 0 0 14.875,26.50A0.25,0.25 0 0 0 14.125,26.50zM16.125,26.50A0.25,0.25 0 0 0 16.875,26.50A0.25,0.25 0 0 0 16.125,26.50zM17.125,26.50A0.25,0.25 0 0 0 17.875,26.50A0.25,0.25 0 0 0 17.125,26.50zM18.125,26.50A0.25,0.25 0 0 0 18.875,26.50A0.25,0.25 0 0 0 18.125,26.50zM19.125,26.50A0.25,0.25 0 0 0 19.875,26.50A0.25,0.25 0 0 0 19.125,26.50zM20.125,26.50A0.25,0.25 0 0 0 20.875,26.50A0.25,0.25 0 0 0 20.125,26.50zM22.125,26.50A0.25,0.25 0 0 0 22.875,26.50A0.25,0.25 0 0 0 22.125,26.50zM23.125,26.50A0.25,0.25 0 0 0 23.875,26.50A0.25,0.25 0 0 0 23.125,26.50zM25.125,26.50A0.25,0.25 0 0 0 25.875,26.50A0.25,0.25 0 0 0 25.125,26.50zM27.125,26.50A0.25,0.25 0 0 0 27.875,26.50A0.25,0.25 0 0 0 27.125,26.50zM28.125,26.50A0.25,0.25 0 0 0 28.875,26.50A0.25,0.25 0 0 0 28.125,26.50zM30.125,26.50A0.25,0.25 0 0 0 30.875,26.50A0.25,0.25 0 0 0 30.125,26.50zM32.125,26.50A0.25,0.25 0 0 0 32.875,26.50A0.25,0.25 0 0 0 32.125,26.50zM38.125,26.50A0.25,0.25 0 0 0 38.875,26.50A0.25,0.25 0 0 0 38.125,26.50zM2.125,27.50A0.25,0.25 0 0 0 2.875,27.50A0.25,0.25 0 0 0 2.125,27.50zM6.125,27.50A0.25,0.25 0 0 0 6.875,27.50A0.25,0.25 0 0 0 6.125,27.50zM7.125,27.50A0.25,0.25 0 0 0 7.875,27.50A0.25,0.25 0 0 0 7.125,27.50zM13.125,27.50A0.25,0.25 0 0 0 13.875,27.50A0.25,0.25 0 0 0 13.125,27.50zM15.125,27.50A0.25,0.25 0 0 0 15.875,27.50A0.25,0.25 0 0 0 15.125,27.50zM18.125,27.50A0.25,0.25 0 0 0 18.875,27.50A0.25,0.25 0 0 0 18.125,27.50zM20.125,27.50A0.25,0.25 0 0 0 20.875,27.50A0.25,0.25 0 0 0 20.125,27.50zM22.125,27.50A0.25,0.25 0 0 0 22.875,27.50A0.25,0.25 0 0 0 22.125,27.50zM23.125,27.50A0.25,0.25 0 0 0 23.875,27.50A0.25,0.25 0 0 0 23.125,27.50zM24.125,27.50A0.25,0.25 0 0 0 24.875,27.50A0.25,0.25 0 0 0 24.125,27.50zM26.125,27.50A0.25,0.25 0 0 0 26.875,27.50A0.25,0.25 0 0 0 26.125,27.50zM27.125,27.50A0.25,0.25 0 0 0 27.875,27.50A0.25,0.25 0 0 0 27.125,27.50zM29.125,27.50A0.25,0.25 0 0 0 29.875,27.50A0.25,0.25 0 0 0 29.125,27.50zM30.125,27.50A0.25,0.25 0 0 0 30.875,27.50A0.25,0.25 0 0 0 30.125,27.50zM34.125,27.50A0.25,0.25 0 0 0 34.875,27.50A0.25,0.25 0 0 0 34.125,27.50zM35.125,27.50A0.25,0.25 0 0 0 35.875,27.50A0.25,0.25 0 0 0 35.125,27.50zM36.125,27.50A0.25,0.25 0 0 0 36.875,27.50A0.25,0.25 0 0 0 36.125,27.50zM37.125,27.50A0.25,0.25 0 0 0 37.875,27.50A0.25,0.25 0 0 0 37.125,27.50zM2.125,28.50A0.25,0.25 0 0 0 2.875,28.50A0.25,0.25 0 0 0 2.125,28.50zM3.125,28.50A0.25,0.25 0 0 0 3.875,28.50A0.25,0.25 0 0 0 3.125,28.50zM4.125,28.50A0.25,0.25 0 0 0 4.875,28.50A0.25,0.25 0 0 0 4.125,28.50zM5.125,28.50A0.25,0.25 0 0 0 5.875,28.50A0.25,0.25 0 0 0 5.125,28.50zM7.125,28.50A0.25,0.25 0 0 0 7.875,28.50A0.25,0.25 0 0 0 7.125,28.50zM8.125,28.50A0.25,0.25 0 0 0 8.875,28.50A0.25,0.25 0 0 0 8.125,28.50zM15.125,28.50A0.25,0.25 0 0 0 15.875,28.50A0.25,0.25 0 0 0 15.125,28.50zM16.125,28.50A0.25,0.25 0 0 0 16.875,28.50A0.25,0.25 0 0 0 16.125,28.50zM19.125,28.50A0.25,0.25 0 0 0 19.875,28.50A0.25,0.25 0 0 0 19.125,28.50zM20.125,28.50A0.25,0.25 0 0 0 20.875,28.50A0.25,0.25 0 0 0 20.125,28.50zM21.125,28.50A0.25,0.25 0 0 0 21.875,28.50A0.25,0.25 0 0 0 21.125,28.50zM23.125,28.50A0.25,0.25 0 0 0 23.875,28.50A0.25,0.25 0 0 0 23.125,28.50zM27.125,28.50A0.25,0.25 0 0 0 27.875,28.50A0.25,0.25 0 0 0 27.125,28.50zM28.125,28.50A0.25,0.25 0 0 0 28.875,28.50A0.25,0.25 0 0 0 28.125,28.50zM29.125,28.50A0.25,0.25 0 0 0 29.875,28.50A0.25,0.25 0 0 0 29.125,28.50zM32.125,28.50A0.25,0.25 0 0 0 32.875,28.50A0.25,0.25 0 0 0 32.125,28.50zM34.125,28.50A0.25,0.25 0 0 0 34.875,28.50A0.25,0.25 0 0 0 34.125,28.50zM37.125,28.50A0.25,0.25 0 0 0 37.875,28.50A0.25,0.25 0 0 0 37.125,28.50zM38.125,28.50A0.25,0.25 0 0 0 38.875,28.50A0.25,0.25 0 0 0 38.125,28.50zM2.125,29.50A0.25,0.25 0 0 0 2.875,29.50A0.25,0.25 0 0 0 2.125,29.50zM4.125,29.50A0.25,0.25 0 0 0 4.875,29.50A0.25,0.25 0 0 0 4.125,29.50zM5.125,29.50A0.25,0.25 0 0 0 5.875,29.50A0.25,0.25 0 0 0 5.125,29.50zM6.125,29.50A0.25,0.25 0 0 0 6.875,29.50A0.25,0.25 0 0 0 6.125,29.50zM12.125,29.50A0.25,0.25 0 0 0 12.875,29.50A0.25,0.25 0 0 0 12.125,29.50zM14.125,29.50A0.25,0.25 0 0 0 14.875,29.50A0.25,0.25 0 0 0 14.125,29.50zM24.125,29.50A0.25,0.25 0 0 0 24.875,29.50A0.25,0.25 0 0 0 24.125,29.50zM26.125,29.50A0.25,0.25 0 0 0 26.875,29.50A0.25,0.25 0 0 0 26.125,29.50zM28.125,29.50A0.25,0.25 0 0 0 28.875,29.50A0.25,0.25 0 0 0 28.125,29.50zM30.125,29.50A0.25,0.25 0 0 0 30.875,29.50A0.25,0.25 0 0 0 30.125,29.50zM31.125,29.50A0.25,0.25 0 0 0 31.875,29.50A0.25,0.25 0 0 0 31.125,29.50zM34.125,29.50A0.25,0.25 0 0 0 34.875,29.50A0.25,0.25 0 0 0 34.125,29.50zM35.125,29.50A0.25,0.25 0 0 0 35.875,29.50A0.25,0.25 0 0 0 35.125,29.50zM36.125,29.50A0.25,0.25 0 0 0 36.875,29.50A0.25,0.25 0 0 0 36.125,29.50zM37.125,29.50A0.25,0.25 0 0 0 37.875,29.50A0.25,0.25 0 0 0 37.125,29.50zM38.125,29.50A0.25,0.25 0 0 0 38.875,29.50A0.25,0.25 0 0 0 38.125,29.50zM2.125,30.50A0.25,0.25 0 0 0 2.875,30.50A0.25,0.25 0 0 0 2.125,30.50zM7.125,30.50A0.25,0.25 0 0 0 7.875,30.50A0.25,0.25 0 0 0 7.125,30.50zM8.125,30.50A0.25,0.25 0 0 0 8.875,30.50A0.25,0.25 0 0 0 8.125,30.50zM10.125,30.50A0.25,0.25 0 0 0 10.875,30.50A0.25,0.25 0 0 0 10.125,30.50zM11.125,30.50A0.25,0.25 0 0 0 11.875,30.50A0.25,0.25 0 0 0 11.125,30.50zM12.125,30.50A0.25,0.25 0 0 0 12.875,30.50A0.25,0.25 0 0 0 12.125,30.50zM13.125,30.50A0.25,0.25 0 0 0 13.875,30.50A0.25,0.25 0 0 0 13.125,30.50zM17.125,30.50A0.25,0.25 0 0 0 17.875,30.50A0.25,0.25 0 0 0 17.125,30.50zM19.125,30.50A0.25,0.25 0 0 0 19.875,30.50A0.25,0.25 0 0 0 19.125,30.50zM20.125,30.50A0.25,0.25 0 0 0 20.875,30.50A0.25,0.25 0 0 0 20.125,30.50zM21.125,30.50A0.25,0.25 0 0 0 21.875,30.50A0.25,0.25 0 0 0 21.125,30.50zM22.125,30.50A0.25,0.25 0 0 0 22.875,30.50A0.25,0.25 0 0 0 22.125,30.50zM24.125,30.50A0.25,0.25 0 0 0 24.875,30.50A0.25,0.25 0 0 0 24.125,30.50zM25.125,30.50A0.25,0.25 0 0 0 25.875,30.50A0.25,0.25 0 0 0 25.125,30.50zM26.125,30.50A0.25,0.25 0 0 0 26.875,30.50A0.25,0.25 0 0 0 26.125,30.50zM27.125,30.50A0.25,0.25 0 0 0 27.875,30.50A0.25,0.25 0 0 0 27.125,30.50zM30.125,30.50A0.25,0.25 0 0 0 30.875,30.50A0.25,0.25 0 0 0 30.125,30.50zM31.125,30.50A0.25,0.25 0 0 0 31.875,30.50A0.25,0.25 0 0 0 31.125,30.50zM32.125,30.50A0.25,0.25 0 0 0 32.875,30.50A0.25,0.25 0 0 0 32.125,30.50zM33.125,30.50A0.25,0.25 0 0 0 33.875,30.50A0.25,0.25 0 0 0 33.125,30.50zM34.125,30.50A0.25,0.25 0 0 0 34.875,30.50A0.25,0.25 0 0 0 34.125,30.50zM35.125,30.50A0.25,0.25 0 0 0 35.875,30.50A0.25,0.25 0 0 0 35.125,30.50zM36.125,30.50A0.25,0.25 0 0 0 36.875,30.50A0.25,0.25 0 0 0 36.125,30.50zM10.125,31.50A0.25,0.25 0 0 0 10.875,31.50A0.25,0.25 0 0 0 10.125,31.50zM12.125,31.50A0.25,0.25 0 0 0 12.875,31.50A0.25,0.25 0 0 0 12.125,31.50zM13.125,31.50A0.25,0.25 0 0 0 13.875,31.50A0.25,0.25 0 0 0 13.125,31.50zM15.125,31.50A0.25,0.25 0 0 0 15.875,31.50A0.25,0.25 0 0 0 15.125,31.50zM20.125,31.50A0.25,0.25 0 0 0 20.875,31.50A0.25,0.25 0 0 0 20.125,31.50zM30.125,31.50A0.25,0.25 0 0 0 30.875,31.50A0.25,0.25 0 0 0 30.125,31.50zM34.125,31.50A0.25,0.25 0 0 0 34.875,31.50A0.25,0.25 0 0 0 34.125,31.50zM35.125,31.50A0.25,0.25 0 0 0 35.875,31.50A0.25,0.25 0 0 0 35.125,31.50zM36.125,31.50A0.25,0.25 0 0 0 36.875,31.50A0.25,0.25 0 0 0 36.125,31.50zM37.125,31.50A0.25,0.25 0 0 0 37.875,31.50A0.25,0.25 0 0 0 37.125,31.50zM2,32H3V33H2zM3,32H4V33H3zM4,32H5V33H4zM5,32H6V33H5zM6,32H7V33H6zM7,32H8V33H7zM8,32H9V33H8zM10.125,32.50A0.25,0.25 0 0 0 10.875,32.50A0.25,0.25 0 0 0 10.125,32.50zM11.125,32.50A0.25,0.25 0 0 0 11.875,32.50A0.25,0.25 0 0 0 11.125,32.50zM13.125,32.50A0.25,0.25 0 0 0 13.875,32.50A0.25,0.25 0 0 0 13.125,32.50zM16.125,32.50A0.25,0.25 0 0 0 16.875,32.50A0.25,0.25 0 0 0 16.125,32.50zM20.125,32.50A0.25,0.25 0 0 0 20.875,32.50A0.25,0.25 0 0 0 20.125,32.50zM23.125,32.50A0.25,0.25 0 0 0 23.875,32.50A0.25,0.25 0 0 0 23.125,32.50zM24.125,32.50A0.25,0.25 0 0 0 24.875,32.50A0.25,0.25 0 0 0 24.125,32.50zM25.125,32.50A0.25,0.25 0 0 0 25.875,32.50A0.25,0.25 0 0 0 25.125,32.50zM26.125,32.50A0.25,0.25 0 0 0 26.875,32.50A0.25,0.25 0 0 0 26.125,32.50zM27.125,32.50A0.25,0.25 0 0 0 27.875,32.50A0.25,0.25 0 0 0 27.125,32.50zM30.125,32.50A0.25,0.25 0 0 0 30.875,32.50A0.25,0.25 0 0 0 30.125,32.50zM32.125,32.50A0.25,0.25 0 0 0 32.875,32.50A0.25,0.25 0 0 0 32.125,32.50zM34.125,32.50A0.25,0.25 0 0 0 34.875,32.50A0.25,0.25 0 0 0 34.125,32.50zM35.125,32.50A0.25,0.25 0 0 0 35.875,32.50A0.25,0.25 0 0 0 35.125,32.50zM36.125,32.50A0.25,0.25 0 0 0 36.875,32.50A0.25,0.25 0 0 0 36.125,32.50zM38.125,32.50A0.25,0.25 0 0 0 38.875,32.50A0.25,0.25 0 0 0 38.125,32.50zM2,33H3V34H2zM8,33H9V34H8zM11.125,33.50A0.25,0.25 0 0 0 11.875,33.50A0.25,0.25 0 0 0 11.125,33.50zM13.125,33.50A0.25,0.25 0 0 0 13.875,33.50A0.25,0.25 0 0 0 13.125,33.50zM14.125,33.50A0.25,0.25 0 0 0 14.875,33.50A0.25,0.25 0 0 0 14.125,33.50zM15.125,33.50A0.25,0.25 0 0 0 15.875,33.50A0.25,0.25 0 0 0 15.125,33.50zM19.125,33.50A0.25,0.25 0 0 0 19.875,33.50A0.25,0.25 0 0 0 19.125,33.50zM20.125,33.50A0.25,0.25 0 0 0 20.875,33.50A0.25,0.25 0 0 0 20.125,33.50zM23.125,33.50A0.25,0.25 0 0 0 23.875,33.50A0.25,0.25 0 0 0 23.125,33.50zM26.125,33.50A0.25,0.25 0 0 0 26.875,33.50A0.25,0.25 0 0 0 26.125,33.50zM27.125,33.50A0.25,0.25 0 0 0 27.875,33.50A0.25,0.25 0 0 0 27.125,33.50zM29.125,33.50A0.25,0.25 0 0 0 29.875,33.50A0.25,0.25 0 0 0 29.125,33.50zM30.125,33.50A0.25,0.25 0 0 0 30.875,33.50A0.25,0.25 0 0 0 30.125,33.50zM34.125,33.50A0.25,0.25 0 0 0 34.875,33.50A0.25,0.25 0 0 0 34.125,33.50zM35.125,33.50A0.25,0.25 0 0 0 35.875,33.50A0.25,0.25 0 0 0 35.125,33.50zM2,34H3V35H2zM4,34H5V35H4zM5,34H6V35H5zM6,34H7V35H6zM8,34H9V35H8zM10.125,34.50A0.25,0.25 0 0 0 10.875,34.50A0.25,0.25 0 0 0 10.125,34.50zM11.125,34.50A0.25,0.25 0 0 0 11.875,34.50A0.25,0.25 0 0 0 11.125,34.50zM12.125,34.50A0.25,0.25 0 0 0 12.875,34.50A0.25,0.25 0 0 0 12.125,34.50zM13.125,34.50A0.25,0.25 0 0 0 13.875,34.50A0.25,0.25 0 0 0 13.125,34.50zM15.125,34.50A0.25,0.25 0 0 0 15.875,34.50A0.25,0.25 0 0 0 15.125,34.50zM17.125,34.50A0.25,0.25 0 0 0 17.875,34.50A0.25,0.25 0 0 0 17.125,34.50zM18.125,34.50A0.25,0.25 0 0 0 18.875,34.50A0.25,0.25 0 0 0 18.125,34.50zM19.125,34.50A0.25,0.25 0 0 0 19.875,34.50A0.25,0.25 0 0 0 19.125,34.50zM20.125,34.50A0.25,0.25 0 0 0 20.875,34.50A0.25,0.25 0 0 0 20.125,34.50zM22.125,34.50A0.25,0.25 0 0 0 22.875,34.50A0.25,0.25 0 0 0 22.125,34.50zM23.125,34.50A0.25,0.25 0 0 0 23.875,34.50A0.25,0.25 0 0 0 23.125,34.50zM24.125,34.50A0.25,0.25 0 0 0 24.875,34.50A0.25,0.25 0 0 0 24.125,34.50zM25.125,34.50A0.25,0.25 0 0 0 25.875,34.50A0.25,0.25 0 0 0 25.125,34.50zM26.125,34.50A0.25,0.25 0 0 0 26.875,34.50A0.25,0.25 0 0 0 26.125,34.50zM29.125,34.50A0.25,0.25 0 0 0 29.875,34.50A0.25,0.25 0 0 0 29.125,34.50zM30.125,34.50A0.25,0.25 0 0 0 30.875,34.50A0.25,0.25 0 0 0 30.125,34.50zM31.125,34.50A0.25,0.25 0 0 0 31.875,34.50A0.25,0.25 0 0 0 31.125,34.50zM32.125,34.50A0.25,0.25 0 0 0 32.875,34.50A0.25,0.25 0 0 0 32.125,34.50zM33.125,34.50A0.25,0.25 0 0 0 33.875,34.50A0.25,0.25 0 0 0 33.125,34.50zM34.125,34.50A0.25,0.25 0 0 0 34.875,34.50A0.25,0.25 0 0 0 34.125,34.50zM37.125,34.50A0.25,0.25 0 0 0 37.875,34.50A0.25,0.25 0 0 0 37.125,34.50zM38.125,34.50A0.25,0.25 0 0 0 38.875,34.50A0.25,0.25 0 0 0 38.125,34.50zM2,35H3V36H2zM4,35H5V36H4zM5,35H6V36H5zM6,35H7V36H6zM8,35H9V36H8zM10.125,35.50A0.25,0.25 0 0 0 10.875,35.50A0.25,0.25 0 0 0 10.125,35.50zM11.125,35.50A0.25,0.25 0 0 0 11.875,35.50A0.25,0.25 0 0 0 11.125,35.50zM12.125,35.50A0.25,0.25 0 0 0 12.875,35.50A0.25,0.25 0 0 0 12.125,35.50zM15.125,35.50A0.25,0.25 0 0 0 15.875,35.50A0.25,0.25 0 0 0 15.125,35.50zM18.125,35.50A0.25,0.25 0 0 0 18.875,35.50A0.25,0.25 0 0 0 18.125,35.50zM22.125,35.50A0.25,0.25 0 0 0 22.875,35.50A0.25,0.25 0 0 0 22.125,35.50zM23.125,35.50A0.25,0.25 0 0 0 23.875,35.50A0.25,0.25 0 0 0 23.125,35.50zM24.125,35.50A0.25,0.25 0 0 0 24.875,35.50A0.25,0.25 0 0 0 24.125,35.50zM28.125,35.50A0.25,0.25 0 0 0 28.875,35.50A0.25,0.25 0 0 0 28.125,35.50zM32.125,35.50A0.25,0.25 0 0 0 32.875,35.50A0.25,0.25 0 0 0 32.125,35.50zM33.125,35.50A0.25,0.25 0 0 0 33.875,35.50A0.25,0.25 0 0 0 33.125,35.50zM35.125,35.50A0.25,0.25 0 0 0 35.875,35.50A0.25,0.25 0 0 0 35.125,35.50zM2,36H3V37H2zM4,36H5V37H4zM5,36H6V37H5zM6,36H7V37H6zM8,36H9V37H8zM11.125,36.50A0.25,0.25 0 0 0 11.875,36.50A0.25,0.25 0 0 0 11.125,36.50zM15.125,36.50A0.25,0.25 0 0 0 15.875,36.50A0.25,0.25 0 0 0 15.125,36.50zM16.125,36.50A0.25,0.25 0 0 0 16.875,36.50A0.25,0.25 0 0 0 16.125,36.50zM19.125,36.50A0.25,0.25 0 0 0 19.875,36.50A0.25,0.25 0 0 0 19.125,36.50zM20.125,36.50A0.25,0.25 0 0 0 20.875,36.50A0.25,0.25 0 0 0 20.125,36.50zM22.125,36.50A0.25,0.25 0 0 0 22.875,36.50A0.25,0.25 0 0 0 22.125,36.50zM23.125,36.50A0.25,0.25 0 0 0 23.875,36.50A0.25,0.25 0 0 0 23.125,36.50zM24.125,36.50A0.25,0.25 0 0 0 24.875,36.50A0.25,0.25 0 0 0 24.125,36.50zM26.125,36.50A0.25,0.25 0 0 0 26.875,36.50A0.25,0.25 0 0 0 26.125,36.50zM29.125,36.50A0.25,0.25 0 0 0 29.875,36.50A0.25,0.25 0 0 0 29.125,36.50zM33.125,36.50A0.25,0.25 0 0 0 33.875,36.50A0.25,0.25 0 0 0 33.125,36.50zM34.125,36.50A0.25,0.25 0 0 0 34.875,36.50A0.25,0.25 0 0 0 34.125,36.50zM35.125,36.50A0.25,0.25 0 0 0 35.875,36.50A0.25,0.25 0 0 0 35.125,36.50zM37.125,36.50A0.25,0.25 0 0 0 37.875,36.50A0.25,0.25 0 0 0 37.125,36.50zM38.125,36.50A0.25,0.25 0 0 0 38.875,36.50A0.25,0.25 0 0 0 38.125,36.50zM2,37H3V38H2zM8,37H9V38H8zM13.125,37.50A0.25,0.25 0 0 0 13.875,37.50A0.25,0.25 0 0 0 13.125,37.50zM14.125,37.50A0.25,0.25 0 0 0 14.875,37.50A0.25,0.25 0 0 0 14.125,37.50zM18.125,37.50A0.25,0.25 0 0 0 18.875,37.50A0.25,0.25 0 0 0 18.125,37.50zM20.125,37.50A0.25,0.25 0 0 0 20.875,37.50A0.25,0.25 0 0 0 20.125,37.50zM21.125,37.50A0.25,0.25 0 0 0 21.875,37.50A0.25,0.25 0 0 0 21.125,37.50zM22.125,37.50A0.25,0.25 0 0 0 22.875,37.50A0.25,0.25 0 0 0 22.125,37.50zM23.125,37.50A0.25,0.25 0 0 0 23.875,37.50A0.25,0.25 0 0 0 23.125,37.50zM24.125,37.50A0.25,0.25 0 0 0 24.875,37.50A0.25,0.25 0 0 0 24.125,37.50zM32.125,37.50A0.25,0.25 0 0 0 32.875,37.50A0.25,0.25 0 0 0 32.125,37.50zM33.125,37.50A0.25,0.25 0 0 0 33.875,37.50A0.25,0.25 0 0 0 33.125,37.50zM34.125,37.50A0.25,0.25 0 0 0 34.875,37.50A0.25,0.25 0 0 0 34.125,37.50zM35.125,37.50A0.25,0.25 0 0 0 35.875,37.50A0.25,0.25 0 0 0 35.125,37.50zM36.125,37.50A0.25,0.25 0 0 0 36.875,37.50A0.25,0.25 0 0 0 36.125,37.50zM37.125,37.50A0.25,0.25 0 0 0 37.875,37.50A0.25,0.25 0 0 0 37.125,37.50zM38.125,37.50A0.25,0.25 0 0 0 38.875,37.50A0.25,0.25 0 0 0 38.125,37.50zM2,38H3V39H2zM3,38H4V39H3zM4,38H5V39H4zM5,38H6V39H5zM6,38H7V39H6zM7,38H8V39H7zM8,38H9V39H8zM11.125,38.50A0.25,0.25 0 0 0 11.875,38.50A0.25,0.25 0 0 0 11.125,38.50zM12.125,38.50A0.25,0.25 0 0 0 12.875,38.50A0.25,0.25 0 0 0 12.125,38.50zM14.125,38.50A0.25,0.25 0 0 0 14.875,38.50A0.25,0.25 0 0 0 14.125,38.50zM17.125,38.50A0.25,0.25 0 0 0 17.875,38.50A0.25,0.25 0 0 0 17.125,38.50zM19.125,38.50A0.25,0.25 0 0 0 19.875,38.50A0.25,0.25 0 0 0 19.125,38.50zM21.125,38.50A0.25,0.25 0 0 0 21.875,38.50A0.25,0.25 0 0 0 21.125,38.50zM24.125,38.50A0.25,0.25 0 0 0 24.875,38.50A0.25,0.25 0 0 0 24.125,38.50zM26.125,38.50A0.25,0.25 0 0 0 26.875,38.50A0.25,0.25 0 0 0 26.125,38.50zM29.125,38.50A0.25,0.25 0 0 0 29.875,38.50A0.25,0.25 0 0 0 29.125,38.50zM30.125,38.50A0.25,0.25 0 0 0 30.875,38.50A0.25,0.25 0 0 0 30.125,38.50zM31.125,38.50A0.25,0.25 0 0 0 31.875,38.50A0.25,0.25 0 0 0 31.125,38.50zM32.125,38.50A0.25,0.25 0 0 0 32.875,38.50A0.25,0.25 0 0 0 32.125,38.50zM33.125,38.50A0.25,0.25 0 0 0 33.875,38.50A0.25,0.25 0 0 0 33.125,38.50zM34.125,38.50A0.25,0.25 0 0 0 34.875,38.50A0.25,0.25 0 0 0 34.125,38.50zM35.125,38.50A0.25,0.25 0 0 0 35.875,38.50A0.25,0.25 0 0 0 35.125,38.50zM38.125,38.50A0.25,0.25 0 0 0 38.875,38.50A0.25,0.25 0 0 0 38.125,38.50z" id="qr-path" fill="black" fill-opacity="1" fill-rule="nonzero" stroke="none" /></a></svg>