<svg version="1.1" viewBox="0 0 45 45" xmlns="http://www.w3.org/2000/svg"><a href="https://github.com/Transport-for-the-North/Land-Use" target="_blank"><rect fill="rgba(255, 255, 255, 0)" x="0" y="0" width="100%" height="100%" /><path d="M2,2H3V3H2zM3,2H4V3H3zM4,2H5V3H4zM5,2H6V3H5zM6,2H7V3H6zM7,2H8V3H7zM8,2H9V3H8zM10.125,2.50A0.25,0.25 0 0 0 10.875,2.50A0.25,0.25 0 0 0 10.125,2.50zM11.125,2.50A0.25,0.25 0 0 0 11.875,2.50A0.25,0.25 0 0 0 11.125,2.50zM12.125,2.50A0.25,0.25 0 0 0 12.875,2.50A0.25,0.25 0 0 0 12.125,2.50zM13.125,2.50A0.25,0.25 0 0 0 13.875,2.50A0.25,0.25 0 0 0 13.125,2.50zM14.125,2.50A0.25,0.25 0 0 0 14.875,2.50A0.25,0.25 0 0 0 14.125,2.50zM15.125,2.50A0.25,0.25 0 0 0 15.875,2.50A0.25,0.25 0 0 0 15.125,2.50zM16.125,2.50A0.25,0.25 0 0 0 16.875,2.50A0.25,0.25 0 0 0 16.125,2.50zM18.125,2.50A0.25,0.25 0 0 0 18.875,2.50A0.25,0.25 0 0 0 18.125,2.50zM19.125,2.50A0.25,0.25 0 0 0 19.875,2.50A0.25,0.25 0 0 0 19.125,2.50zM20.125,2.50A0.25,0.25 0 0 0 20.875,2.50A0.25,0.25 0 0 0 20.125,2.50zM21.125,2.50A0.25,0.25 0 0 0 21.875,2.50A0.25,0.25 0 0 0 21.125,2.50zM23.125,2.50A0.25,0.25 0 0 0 23.875,2.50A0.25,0.25 0 0 0 23.125,2.50zM24.125,2.50A0.25,0.25 0 0 0 24.875,2.50A0.25,0.25 0 0 0 24.125,2.50zM25.125,2.50A0.25,0.25 0 0 0 25.875,2.50A0.25,0.25 0 0 0 25.125,2.50zM28.125,2.50A0.25,0.25 0 0 0 28.875,2.50A0.25,0.25 0 0 0 28.125,2.50zM29.125,2.50A0.25,0.25 0 0 0 29.875,2.50A0.25,0.25 0 0 0 29.125,2.50zM31.125,2.50A0.25,0.25 0 0 0 31.875,2.50A0.25,0.25 0 0 0 31.125,2.50zM32.125,2.50A0.25,0.25 0 0 0 32.875,2.50A0.25,0.25 0 0 0 32.125,2.50zM36,2H37V3H36zM37,2H38V3H37zM38,2H39V3H38zM39,2H40V3H39zM40,2H41V3H40zM41,2H42V3H41zM42,2H43V3H42zM2,3H3V4H2zM8,3H9V4H8zM11.125,3.50A0.25,0.25 0 0 0 11.875,3.50A0.25,0.25 0 0 0 11.125,3.50zM13.125,3.50A0.25,0.25 0 0 0 13.875,3.50A0.25,0.25 0 0 0 13.125,3.50zM14.125,3.50A0.25,0.25 0 0 0 14.875,3.50A0.25,0.25 0 0 0 14.125,3.50zM16.125,3.50A0.25,0.25 0 0 0 16.875,3.50A0.25,0.25 0 0 0 16.125,3.50zM18.125,3.50A0.25,0.25 0 0 0 18.875,3.50A0.25,0.25 0 0 0 18.125,3.50zM20.125,3.50A0.25,0.25 0 0 0 20.875,3.50A0.25,0.25 0 0 0 20.125,3.50zM22.125,3.50A0.25,0.25 0 0 0 22.875,3.50A0.25,0.25 0 0 0 22.125,3.50zM24.125,3.50A0.25,0.25 0 0 0 24.875,3.50A0.25,0.25 0 0 0 24.125,3.50zM26.125,3.50A0.25,0.25 0 0 0 26.875,3.50A0.25,0.25 0 0 0 26.125,3.50zM27.125,3.50A0.25,0.25 0 0 0 27.875,3.50A0.25,0.25 0 0 0 27.125,3.50zM28.125,3.50A0.25,0.25 0 0 0 28.875,3.50A0.25,0.25 0 0 0 28.125,3.50zM30.125,3.50A0.25,0.25 0 0 0 30.875,3.50A0.25,0.25 0 0 0 30.125,3.50zM32.125,3.50A0.25,0.25 0 0 0 32.875,3.50A0.25,0.25 0 0 0 32.125,3.50zM36,3H37V4H36zM42,3H43V4H42zM2,4H3V5H2zM4,4H5V5H4zM5,4H6V5H5zM6,4H7V5H6zM8,4H9V5H8zM10.125,4.50A0.25,0.25 0 0 0 10.875,4.50A0.25,0.25 0 0 0 10.125,4.50zM12.125,4.50A0.25,0.25 0 0 0 12.875,4.50A0.25,0.25 0 0 0 12.125,4.50zM14.125,4.50A0.25,0.25 0 0 0 14.875,4.50A0.25,0.25 0 0 0 14.125,4.50zM17.125,4.50A0.25,0.25 0 0 0 17.875,4.50A0.25,0.25 0 0 0 17.125,4.50zM19.125,4.50A0.25,0.25 0 0 0 19.875,4.50A0.25,0.25 0 0 0 19.125,4.50zM21.125,4.50A0.25,0.25 0 0 0 21.875,4.50A0.25,0.25 0 0 0 21.125,4.50zM24.125,4.50A0.25,0.25 0 0 0 24.875,4.50A0.25,0.25 0 0 0 24.125,4.50zM27.125,4.50A0.25,0.25 0 0 0 27.875,4.50A0.25,0.25 0 0 0 27.125,4.50zM30.125,4.50A0.25,0.25 0 0 0 30.875,4.50A0.25,0.25 0 0 0 30.125,4.50zM33.125,4.50A0.25,0.25 0 0 0 33.875,4.50A0.25,0.25 0 0 0 33.125,4.50zM34.125,4.50A0.25,0.25 0 0 0 34.875,4.50A0.25,0.25 0 0 0 34.125,4.50zM36,4H37V5H36zM38,4H39V5H38zM39,4H40V5H39zM40,4H41V5H40zM42,4H43V5H42zM2,5H3V6H2zM4,5H5V6H4zM5,5H6V6H5zM6,5H7V6H6zM8,5H9V6H8zM11.125,5.50A0.25,0.25 0 0 0 11.875,5.50A0.25,0.25 0 0 0 11.125,5.50zM12.125,5.50A0.25,0.25 0 0 0 12.875,5.50A0.25,0.25 0 0 0 12.125,5.50zM13.125,5.50A0.25,0.25 0 0 0 13.875,5.50A0.25,0.25 0 0 0 13.125,5.50zM15.125,5.50A0.25,0.25 0 0 0 15.875,5.50A0.25,0.25 0 0 0 15.125,5.50zM17.125,5.50A0.25,0.25 0 0 0 17.875,5.50A0.25,0.25 0 0 0 17.125,5.50zM19.125,5.50A0.25,0.25 0 0 0 19.875,5.50A0.25,0.25 0 0 0 19.125,5.50zM20.125,5.50A0.25,0.25 0 0 0 20.875,5.50A0.25,0.25 0 0 0 20.125,5.50zM24.125,5.50A0.25,0.25 0 0 0 24.875,5.50A0.25,0.25 0 0 0 24.125,5.50zM25.125,5.50A0.25,0.25 0 0 0 25.875,5.50A0.25,0.25 0 0 0 25.125,5.50zM29.125,5.50A0.25,0.25 0 0 0 29.875,5.50A0.25,0.25 0 0 0 29.125,5.50zM30.125,5.50A0.25,0.25 0 0 0 30.875,5.50A0.25,0.25 0 0 0 30.125,5.50zM32.125,5.50A0.25,0.25 0 0 0 32.875,5.50A0.25,0.25 0 0 0 32.125,5.50zM33.125,5.50A0.25,0.25 0 0 0 33.875,5.50A0.25,0.25 0 0 0 33.125,5.50zM36,5H37V6H36zM38,5H39V6H38zM39,5H40V6H39zM40,5H41V6H40zM42,5H43V6H42zM2,6H3V7H2zM4,6H5V7H4zM5,6H6V7H5zM6,6H7V7H6zM8,6H9V7H8zM10.125,6.50A0.25,0.25 0 0 0 10.875,6.50A0.25,0.25 0 0 0 10.125,6.50zM11.125,6.50A0.25,0.25 0 0 0 11.875,6.50A0.25,0.25 0 0 0 11.125,6.50zM13.125,6.50A0.25,0.25 0 0 0 13.875,6.50A0.25,0.25 0 0 0 13.125,6.50zM14.125,6.50A0.25,0.25 0 0 0 14.875,6.50A0.25,0.25 0 0 0 14.125,6.50zM16.125,6.50A0.25,0.25 0 0 0 16.875,6.50A0.25,0.25 0 0 0 16.125,6.50zM18.125,6.50A0.25,0.25 0 0 0 18.875,6.50A0.25,0.25 0 0 0 18.125,6.50zM19.125,6.50A0.25,0.25 0 0 0 19.875,6.50A0.25,0.25 0 0 0 19.125,6.50zM20.125,6.50A0.25,0.25 0 0 0 20.875,6.50A0.25,0.25 0 0 0 20.125,6.50zM24.125,6.50A0.25,0.25 0 0 0 24.875,6.50A0.25,0.25 0 0 0 24.125,6.50zM25.125,6.50A0.25,0.25 0 0 0 25.875,6.50A0.25,0.25 0 0 0 25.125,6.50zM27.125,6.50A0.25,0.25 0 0 0 27.875,6.50A0.25,0.25 0 0 0 27.125,6.50zM33.125,6.50A0.25,0.25 0 0 0 33.875,6.50A0.25,0.25 0 0 0 33.125,6.50zM34.125,6.50A0.25,0.25 0 0 0 34.875,6.50A0.25,0.25 0 0 0 34.125,6.50zM36,6H37V7H36zM38,6H39V7H38zM39,6H40V7H39zM40,6H41V7H40zM42,6H43V7H42zM2,7H3V8H2zM8,7H9V8H8zM12.125,7.50A0.25,0.25 0 0 0 12.875,7.50A0.25,0.25 0 0 0 12.125,7.50zM13.125,7.50A0.25,0.25 0 0 0 13.875,7.50A0.25,0.25 0 0 0 13.125,7.50zM17.125,7.50A0.25,0.25 0 0 0 17.875,7.50A0.25,0.25 0 0 0 17.125,7.50zM20.125,7.50A0.25,0.25 0 0 0 20.875,7.50A0.25,0.25 0 0 0 20.125,7.50zM22.125,7.50A0.25,0.25 0 0 0 22.875,7.50A0.25,0.25 0 0 0 22.125,7.50zM24.125,7.50A0.25,0.25 0 0 0 24.875,7.50A0.25,0.25 0 0 0 24.125,7.50zM26.125,7.50A0.25,0.25 0 0 0 26.875,7.50A0.25,0.25 0 0 0 26.125,7.50zM28.125,7.50A0.25,0.25 0 0 0 28.875,7.50A0.25,0.25 0 0 0 28.125,7.50zM31.125,7.50A0.25,0.25 0 0 0 31.875,7.50A0.25,0.25 0 0 0 31.125,7.50zM36,7H37V8H36zM42,7H43V8H42zM2,8H3V9H2zM3,8H4V9H3zM4,8H5V9H4zM5,8H6V9H5zM6,8H7V9H6zM7,8H8V9H7zM8,8H9V9H8zM10.125,8.50A0.25,0.25 0 0 0 10.875,8.50A0.25,0.25 0 0 0 10.125,8.50zM12.125,8.50A0.25,0.25 0 0 0 12.875,8.50A0.25,0.25 0 0 0 12.125,8.50zM14.125,8.50A0.25,0.25 0 0 0 14.875,8.50A0.25,0.25 0 0 0 14.125,8.50zM16.125,8.50A0.25,0.25 0 0 0 16.875,8.50A0.25,0.25 0 0 0 16.125,8.50zM18.125,8.50A0.25,0.25 0 0 0 18.875,8.50A0.25,0.25 0 0 0 18.125,8.50zM20.125,8.50A0.25,0.25 0 0 0 20.875,8.50A0.25,0.25 0 0 0 20.125,8.50zM22.125,8.50A0.25,0.25 0 0 0 22.875,8.50A0.25,0.25 0 0 0 22.125,8.50zM24.125,8.50A0.25,0.25 0 0 0 24.875,8.50A0.25,0.25 0 0 0 24.125,8.50zM26.125,8.50A0.25,0.25 0 0 0 26.875,8.50A0.25,0.25 0 0 0 26.125,8.50zM28.125,8.50A0.25,0.25 0 0 0 28.875,8.50A0.25,0.25 0 0 0 28.125,8.50zM30.125,8.50A0.25,0.25 0 0 0 30.875,8.50A0.25,0.25 0 0 0 30.125,8.50zM32.125,8.50A0.25,0.25 0 0 0 32.875,8.50A0.25,0.25 0 0 0 32.125,8.50zM34.125,8.50A0.25,0.25 0 0 0 34.875,8.50A0.25,0.25 0 0 0 34.125,8.50zM36,8H37V9H36zM37,8H38V9H37zM38,8H39V9H38zM39,8H40V9H39zM40,8H41V9H40zM41,8H42V9H41zM42,8H43V9H42zM10.125,9.50A0.25,0.25 0 0 0 10.875,9.50A0.25,0.25 0 0 0 10.125,9.50zM13.125,9.50A0.25,0.25 0 0 0 13.875,9.50A0.25,0.25 0 0 0 13.125,9.50zM16.125,9.50A0.25,0.25 0 0 0 16.875,9.50A0.25,0.25 0 0 0 16.125,9.50zM17.125,9.50A0.25,0.25 0 0 0 17.875,9.50A0.25,0.25 0 0 0 17.125,9.50zM18.125,9.50A0.25,0.25 0 0 0 18.875,9.50A0.25,0.25 0 0 0 18.125,9.50zM24.125,9.50A0.25,0.25 0 0 0 24.875,9.50A0.25,0.25 0 0 0 24.125,9.50zM27.125,9.50A0.25,0.25 0 0 0 27.875,9.50A0.25,0.25 0 0 0 27.125,9.50zM30.125,9.50A0.25,0.25 0 0 0 30.875,9.50A0.25,0.25 0 0 0 30.125,9.50zM33.125,9.50A0.25,0.25 0 0 0 33.875,9.50A0.25,0.25 0 0 0 33.125,9.50zM34.125,9.50A0.25,0.25 0 0 0 34.875,9.50A0.25,0.25 0 0 0 34.125,9.50zM7.125,10.50A0.25,0.25 0 0 0 7.875,10.50A0.25,0.25 0 0 0 7.125,10.50zM8.125,10.50A0.25,0.25 0 0 0 8.875,10.50A0.25,0.25 0 0 0 8.125,10.50zM13.125,10.50A0.25,0.25 0 0 0 13.875,10.50A0.25,0.25 0 0 0 13.125,10.50zM18.125,10.50A0.25,0.25 0 0 0 18.875,10.50A0.25,0.25 0 0 0 18.125,10.50zM20.125,10.50A0.25,0.25 0 0 0 20.875,10.50A0.25,0.25 0 0 0 20.125,10.50zM21.125,10.50A0.25,0.25 0 0 0 21.875,10.50A0.25,0.25 0 0 0 21.125,10.50zM22.125,10.50A0.25,0.25 0 0 0 22.875,10.50A0.25,0.25 0 0 0 22.125,10.50zM23.125,10.50A0.25,0.25 0 0 0 23.875,10.50A0.25,0.25 0 0 0 23.125,10.50zM25.125,10.50A0.25,0.25 0 0 0 25.875,10.50A0.25,0.25 0 0 0 25.125,10.50zM27.125,10.50A0.25,0.25 0 0 0 27.875,10.50A0.25,0.25 0 0 0 27.125,10.50zM29.125,10.50A0.25,0.25 0 0 0 29.875,10.50A0.25,0.25 0 0 0 29.125,10.50zM31.125,10.50A0.25,0.25 0 0 0 31.875,10.50A0.25,0.25 0 0 0 31.125,10.50zM33.125,10.50A0.25,0.25 0 0 0 33.875,10.50A0.25,0.25 0 0 0 33.125,10.50zM36.125,10.50A0.25,0.25 0 0 0 36.875,10.50A0.25,0.25 0 0 0 36.125,10.50zM38.125,10.50A0.25,0.25 0 0 0 38.875,10.50A0.25,0.25 0 0 0 38.125,10.50zM40.125,10.50A0.25,0.25 0 0 0 40.875,10.50A0.25,0.25 0 0 0 40.125,10.50zM42.125,10.50A0.25,0.25 0 0 0 42.875,10.50A0.25,0.25 0 0 0 42.125,10.50zM3.125,11.50A0.25,0.25 0 0 0 3.875,11.50A0.25,0.25 0 0 0 3.125,11.50zM5.125,11.50A0.25,0.25 0 0 0 5.875,11.50A0.25,0.25 0 0 0 5.125,11.50zM6.125,11.50A0.25,0.25 0 0 0 6.875,11.50A0.25,0.25 0 0 0 6.125,11.50zM7.125,11.50A0.25,0.25 0 0 0 7.875,11.50A0.25,0.25 0 0 0 7.125,11.50zM9.125,11.50A0.25,0.25 0 0 0 9.875,11.50A0.25,0.25 0 0 0 9.125,11.50zM10.125,11.50A0.25,0.25 0 0 0 10.875,11.50A0.25,0.25 0 0 0 10.125,11.50zM12.125,11.50A0.25,0.25 0 0 0 12.875,11.50A0.25,0.25 0 0 0 12.125,11.50zM14.125,11.50A0.25,0.25 0 0 0 14.875,11.50A0.25,0.25 0 0 0 14.125,11.50zM18.125,11.50A0.25,0.25 0 0 0 18.875,11.50A0.25,0.25 0 0 0 18.125,11.50zM20.125,11.50A0.25,0.25 0 0 0 20.875,11.50A0.25,0.25 0 0 0 20.125,11.50zM23.125,11.50A0.25,0.25 0 0 0 23.875,11.50A0.25,0.25 0 0 0 23.125,11.50zM25.125,11.50A0.25,0.25 0 0 0 25.875,11.50A0.25,0.25 0 0 0 25.125,11.50zM26.125,11.50A0.25,0.25 0 0 0 26.875,11.50A0.25,0.25 0 0 0 26.125,11.50zM27.125,11.50A0.25,0.25 0 0 0 27.875,11.50A0.25,0.25 0 0 0 27.125,11.50zM28.125,11.50A0.25,0.25 0 0 0 28.875,11.50A0.25,0.25 0 0 0 28.125,11.50zM29.125,11.50A0.25,0.25 0 0 0 29.875,11.50A0.25,0.25 0 0 0 29.125,11.50zM32.125,11.50A0.25,0.25 0 0 0 32.875,11.50A0.25,0.25 0 0 0 32.125,11.50zM33.125,11.50A0.25,0.25 0 0 0 33.875,11.50A0.25,0.25 0 0 0 33.125,11.50zM37.125,11.50A0.25,0.25 0 0 0 37.875,11.50A0.25,0.25 0 0 0 37.125,11.50zM38.125,11.50A0.25,0.25 0 0 0 38.875,11.50A0.25,0.25 0 0 0 38.125,11.50zM2.125,12.50A0.25,0.25 0 0 0 2.875,12.50A0.25,0.25 0 0 0 2.125,12.50zM4.125,12.50A0.25,0.25 0 0 0 4.875,12.50A0.25,0.25 0 0 0 4.125,12.50zM5.125,12.50A0.25,0.25 0 0 0 5.875,12.50A0.25,0.25 0 0 0 5.125,12.50zM7.125,12.50A0.25,0.25 0 0 0 7.875,12.50A0.25,0.25 0 0 0 7.125,12.50zM8.125,12.50A0.25,0.25 0 0 0 8.875,12.50A0.25,0.25 0 0 0 8.125,12.50zM12.125,12.50A0.25,0.25 0 0 0 12.875,12.50A0.25,0.25 0 0 0 12.125,12.50zM13.125,12.50A0.25,0.25 0 0 0 13.875,12.50A0.25,0.25 0 0 0 13.125,12.50zM14.125,12.50A0.25,0.25 0 0 0 14.875,12.50A0.25,0.25 0 0 0 14.125,12.50zM15.125,12.50A0.25,0.25 0 0 0 15.875,12.50A0.25,0.25 0 0 0 15.125,12.50zM18.125,12.50A0.25,0.25 0 0 0 18.875,12.50A0.25,0.25 0 0 0 18.125,12.50zM21.125,12.50A0.25,0.25 0 0 0 21.875,12.50A0.25,0.25 0 0 0 21.125,12.50zM29.125,12.50A0.25,0.25 0 0 0 29.875,12.50A0.25,0.25 0 0 0 29.125,12.50zM30.125,12.50A0.25,0.25 0 0 0 30.875,12.50A0.25,0.25 0 0 0 30.125,12.50zM31.125,12.50A0.25,0.25 0 0 0 31.875,12.50A0.25,0.25 0 0 0 31.125,12.50zM32.125,12.50A0.25,0.25 0 0 0 32.875,12.50A0.25,0.25 0 0 0 32.125,12.50zM34.125,12.50A0.25,0.25 0 0 0 34.875,12.50A0.25,0.25 0 0 0 34.125,12.50zM38.125,12.50A0.25,0.25 0 0 0 38.875,12.50A0.25,0.25 0 0 0 38.125,12.50zM2.125,13.50A0.25,0.25 0 0 0 2.875,13.50A0.25,0.25 0 0 0 2.125,13.50zM3.125,13.50A0.25,0.25 0 0 0 3.875,13.50A0.25,0.25 0 0 0 3.125,13.50zM4.125,13.50A0.25,0.25 0 0 0 4.875,13.50A0.25,0.25 0 0 0 4.125,13.50zM5.125,13.50A0.25,0.25 0 0 0 5.875,13.50A0.25,0.25 0 0 0 5.125,13.50zM7.125,13.50A0.25,0.25 0 0 0 7.875,13.50A0.25,0.25 0 0 0 7.125,13.50zM9.125,13.50A0.25,0.25 0 0 0 9.875,13.50A0.25,0.25 0 0 0 9.125,13.50zM11.125,13.50A0.25,0.25 0 0 0 11.875,13.50A0.25,0.25 0 0 0 11.125,13.50zM13.125,13.50A0.25,0.25 0 0 0 13.875,13.50A0.25,0.25 0 0 0 13.125,13.50zM14.125,13.50A0.25,0.25 0 0 0 14.875,13.50A0.25,0.25 0 0 0 14.125,13.50zM15.125,13.50A0.25,0.25 0 0 0 15.875,13.50A0.25,0.25 0 0 0 15.125,13.50zM17.125,13.50A0.25,0.25 0 0 0 17.875,13.50A0.25,0.25 0 0 0 17.125,13.50zM19.125,13.50A0.25,0.25 0 0 0 19.875,13.50A0.25,0.25 0 0 0 19.125,13.50zM20.125,13.50A0.25,0.25 0 0 0 20.875,13.50A0.25,0.25 0 0 0 20.125,13.50zM22.125,13.50A0.25,0.25 0 0 0 22.875,13.50A0.25,0.25 0 0 0 22.125,13.50zM23.125,13.50A0.25,0.25 0 0 0 23.875,13.50A0.25,0.25 0 0 0 23.125,13.50zM24.125,13.50A0.25,0.25 0 0 0 24.875,13.50A0.25,0.25 0 0 0 24.125,13.50zM25.125,13.50A0.25,0.25 0 0 0 25.875,13.50A0.25,0.25 0 0 0 25.125,13.50zM27.125,13.50A0.25,0.25 0 0 0 27.875,13.50A0.25,0.25 0 0 0 27.125,13.50zM30.125,13.50A0.25,0.25 0 0 0 30.875,13.50A0.25,0.25 0 0 0 30.125,13.50zM33.125,13.50A0.25,0.25 0 0 0 33.875,13.50A0.25,0.25 0 0 0 33.125,13.50zM34.125,13.50A0.25,0.25 0 0 0 34.875,13.50A0.25,0.25 0 0 0 34.125,13.50zM35.125,13.50A0.25,0.25 0 0 0 35.875,13.50A0.25,0.25 0 0 0 35.125,13.50zM37.125,13.50A0.25,0.25 0 0 0 37.875,13.50A0.25,0.25 0 0 0 37.125,13.50zM38.125,13.50A0.25,0.25 0 0 0 38.875,13.50A0.25,0.25 0 0 0 38.125,13.50zM39.125,13.50A0.25,0.25 0 0 0 39.875,13.50A0.25,0.25 0 0 0 39.125,13.50zM41.125,13.50A0.25,0.25 0 0 0 41.875,13.50A0.25,0.25 0 0 0 41.125,13.50zM2.125,14.50A0.25,0.25 0 0 0 2.875,14.50A0.25,0.25 0 0 0 2.125,14.50zM4.125,14.50A0.25,0.25 0 0 0 4.875,14.50A0.25,0.25 0 0 0 4.125,14.50zM5.125,14.50A0.25,0.25 0 0 0 5.875,14.50A0.25,0.25 0 0 0 5.125,14.50zM8.125,14.50A0.25,0.25 0 0 0 8.875,14.50A0.25,0.25 0 0 0 8.125,14.50zM9.125,14.50A0.25,0.25 0 0 0 9.875,14.50A0.25,0.25 0 0 0 9.125,14.50zM11.125,14.50A0.25,0.25 0 0 0 11.875,14.50A0.25,0.25 0 0 0 11.125,14.50zM17.125,14.50A0.25,0.25 0 0 0 17.875,14.50A0.25,0.25 0 0 0 17.125,14.50zM18.125,14.50A0.25,0.25 0 0 0 18.875,14.50A0.25,0.25 0 0 0 18.125,14.50zM20.125,14.50A0.25,0.25 0 0 0 20.875,14.50A0.25,0.25 0 0 0 20.125,14.50zM21.125,14.50A0.25,0.25 0 0 0 21.875,14.50A0.25,0.25 0 0 0 21.125,14.50zM22.125,14.50A0.25,0.25 0 0 0 22.875,14.50A0.25,0.25 0 0 0 22.125,14.50zM24.125,14.50A0.25,0.25 0 0 0 24.875,14.50A0.25,0.25 0 0 0 24.125,14.50zM26.125,14.50A0.25,0.25 0 0 0 26.875,14.50A0.25,0.25 0 0 0 26.125,14.50zM28.125,14.50A0.25,0.25 0 0 0 28.875,14.50A0.25,0.25 0 0 0 28.125,14.50zM29.125,14.50A0.25,0.25 0 0 0 29.875,14.50A0.25,0.25 0 0 0 29.125,14.50zM34.125,14.50A0.25,0.25 0 0 0 34.875,14.50A0.25,0.25 0 0 0 34.125,14.50zM36.125,14.50A0.25,0.25 0 0 0 36.875,14.50A0.25,0.25 0 0 0 36.125,14.50zM38.125,14.50A0.25,0.25 0 0 0 38.875,14.50A0.25,0.25 0 0 0 38.125,14.50zM41.125,14.50A0.25,0.25 0 0 0 41.875,14.50A0.25,0.25 0 0 0 41.125,14.50zM42.125,14.50A0.25,0.25 0 0 0 42.875,14.50A0.25,0.25 0 0 0 42.125,14.50zM2.125,15.50A0.25,0.25 0 0 0 2.875,15.50A0.25,0.25 0 0 0 2.125,15.50zM4.125,15.50A0.25,0.25 0 0 0 4.875,15.50A0.25,0.25 0 0 0 4.125,15.50zM5.125,15.50A0.25,0.25 0 0 0 5.875,15.50A0.25,0.25 0 0 0 5.125,15.50zM6.125,15.50A0.25,0.25 0 0 0 6.875,15.50A0.25,0.25 0 0 0 6.125,15.50zM9.125,15.50A0.25,0.25 0 0 0 9.875,15.50A0.25,0.25 0 0 0 9.125,15.50zM10.125,15.50A0.25,0.25 0 0 0 10.875,15.50A0.25,0.25 0 0 0 10.125,15.50zM11.125,15.50A0.25,0.25 0 0 0 11.875,15.50A0.25,0.25 0 0 0 11.125,15.50zM13.125,15.50A0.25,0.25 0 0 0 13.875,15.50A0.25,0.25 0 0 0 13.125,15.50zM14.125,15.50A0.25,0.25 0 0 0 14.875,15.50A0.25,0.25 0 0 0 14.125,15.50zM15.125,15.50A0.25,0.25 0 0 0 15.875,15.50A0.25,0.25 0 0 0 15.125,15.50zM17.125,15.50A0.25,0.25 0 0 0 17.875,15.50A0.25,0.25 0 0 0 17.125,15.50zM18.125,15.50A0.25,0.25 0 0 0 18.875,15.50A0.25,0.25 0 0 0 18.125,15.50zM20.125,15.50A0.25,0.25 0 0 0 20.875,15.50A0.25,0.25 0 0 0 20.125,15.50zM21.125,15.50A0.25,0.25 0 0 0 21.875,15.50A0.25,0.25 0 0 0 21.125,15.50zM22.125,15.50A0.25,0.25 0 0 0 22.875,15.50A0.25,0.25 0 0 0 22.125,15.50zM23.125,15.50A0.25,0.25 0 0 0 23.875,15.50A0.25,0.25 0 0 0 23.125,15.50zM24.125,15.50A0.25,0.25 0 0 0 24.875,15.50A0.25,0.25 0 0 0 24.125,15.50zM26.125,15.50A0.25,0.25 0 0 0 26.875,15.50A0.25,0.25 0 0 0 26.125,15.50zM28.125,15.50A0.25,0.25 0 0 0 28.875,15.50A0.25,0.25 0 0 0 28.125,15.50zM31.125,15.50A0.25,0.25 0 0 0 31.875,15.50A0.25,0.25 0 0 0 31.125,15.50zM34.125,15.50A0.25,0.25 0 0 0 34.875,15.50A0.25,0.25 0 0 0 34.125,15.50zM35.125,15.50A0.25,0.25 0 0 0 35.875,15.50A0.25,0.25 0 0 0 35.125,15.50zM36.125,15.50A0.25,0.25 0 0 0 36.875,15.50A0.25,0.25 0 0 0 36.125,15.50zM37.125,15.50A0.25,0.25 0 0 0 37.875,15.50A0.25,0.25 0 0 0 37.125,15.50zM38.125,15.50A0.25,0.25 0 0 0 38.875,15.50A0.25,0.25 0 0 0 38.125,15.50zM42.125,15.50A0.25,0.25 0 0 0 42.875,15.50A0.25,0.25 0 0 0 42.125,15.50zM2.125,16.50A0.25,0.25 0 0 0 2.875,16.50A0.25,0.25 0 0 0 2.125,16.50zM3.125,16.50A0.25,0.25 0 0 0 3.875,16.50A0.25,0.25 0 0 0 3.125,16.50zM6.125,16.50A0.25,0.25 0 0 0 6.875,16.50A0.25,0.25 0 0 0 6.125,16.50zM8.125,16.50A0.25,0.25 0 0 0 8.875,16.50A0.25,0.25 0 0 0 8.125,16.50zM11.125,16.50A0.25,0.25 0 0 0 11.875,16.50A0.25,0.25 0 0 0 11.125,16.50zM12.125,16.50A0.25,0.25 0 0 0 12.875,16.50A0.25,0.25 0 0 0 12.125,16.50zM13.125,16.50A0.25,0.25 0 0 0 13.875,16.50A0.25,0.25 0 0 0 13.125,16.50zM14.125,16.50A0.25,0.25 0 0 0 14.875,16.50A0.25,0.25 0 0 0 14.125,16.50zM16.125,16.50A0.25,0.25 0 0 0 16.875,16.50A0.25,0.25 0 0 0 16.125,16.50zM18.125,16.50A0.25,0.25 0 0 0 18.875,16.50A0.25,0.25 0 0 0 18.125,16.50zM19.125,16.50A0.25,0.25 0 0 0 19.875,16.50A0.25,0.25 0 0 0 19.125,16.50zM21.125,16.50A0.25,0.25 0 0 0 21.875,16.50A0.25,0.25 0 0 0 21.125,16.50zM22.125,16.50A0.25,0.25 0 0 0 22.875,16.50A0.25,0.25 0 0 0 22.125,16.50zM29.125,16.50A0.25,0.25 0 0 0 29.875,16.50A0.25,0.25 0 0 0 29.125,16.50zM30.125,16.50A0.25,0.25 0 0 0 30.875,16.50A0.25,0.25 0 0 0 30.125,16.50zM31.125,16.50A0.25,0.25 0 0 0 31.875,16.50A0.25,0.25 0 0 0 31.125,16.50zM33.125,16.50A0.25,0.25 0 0 0 33.875,16.50A0.25,0.25 0 0 0 33.125,16.50zM35.125,16.50A0.25,0.25 0 0 0 35.875,16.50A0.25,0.25 0 0 0 35.125,16.50zM37.125,16.50A0.25,0.25 0 0 0 37.875,16.50A0.25,0.25 0 0 0 37.125,16.50zM39.125,16.50A0.25,0.25 0 0 0 39.875,16.50A0.25,0.25 0 0 0 39.125,16.50zM40.125,16.50A0.25,0.25 0 0 0 40.875,16.50A0.25,0.25 0 0 0 40.125,16.50zM4.125,17.50A0.25,0.25 0 0 0 4.875,17.50A0.25,0.25 0 0 0 4.125,17.50zM5.125,17.50A0.25,0.25 0 0 0 5.875,17.50A0.25,0.25 0 0 0 5.125,17.50zM6.125,17.50A0.25,0.25 0 0 0 6.875,17.50A0.25,0.25 0 0 0 6.125,17.50zM10.125,17.50A0.25,0.25 0 0 0 10.875,17.50A0.25,0.25 0 0 0 10.125,17.50zM13.125,17.50A0.25,0.25 0 0 0 13.875,17.50A0.25,0.25 0 0 0 13.125,17.50zM14.125,17.50A0.25,0.25 0 0 0 14.875,17.50A0.25,0.25 0 0 0 14.125,17.50zM15.125,17.50A0.25,0.25 0 0 0 15.875,17.50A0.25,0.25 0 0 0 15.125,17.50zM17.125,17.50A0.25,0.25 0 0 0 17.875,17.50A0.25,0.25 0 0 0 17.125,17.50zM19.125,17.50A0.25,0.25 0 0 0 19.875,17.50A0.25,0.25 0 0 0 19.125,17.50zM20.125,17.50A0.25,0.25 0 0 0 20.875,17.50A0.25,0.25 0 0 0 20.125,17.50zM21.125,17.50A0.25,0.25 0 0 0 21.875,17.50A0.25,0.25 0 0 0 21.125,17.50zM22.125,17.50A0.25,0.25 0 0 0 22.875,17.50A0.25,0.25 0 0 0 22.125,17.50zM24.125,17.50A0.25,0.25 0 0 0 24.875,17.50A0.25,0.25 0 0 0 24.125,17.50zM25.125,17.50A0.25,0.25 0 0 0 25.875,17.50A0.25,0.25 0 0 0 25.125,17.50zM28.125,17.50A0.25,0.25 0 0 0 28.875,17.50A0.25,0.25 0 0 0 28.125,17.50zM30.125,17.50A0.25,0.25 0 0 0 30.875,17.50A0.25,0.25 0 0 0 30.125,17.50zM33.125,17.50A0.25,0.25 0 0 0 33.875,17.50A0.25,0.25 0 0 0 33.125,17.50zM35.125,17.50A0.25,0.25 0 0 0 35.875,17.50A0.25,0.25 0 0 0 35.125,17.50zM37.125,17.50A0.25,0.25 0 0 0 37.875,17.50A0.25,0.25 0 0 0 37.125,17.50zM39.125,17.50A0.25,0.25 0 0 0 39.875,17.50A0.25,0.25 0 0 0 39.125,17.50zM40.125,17.50A0.25,0.25 0 0 0 40.875,17.50A0.25,0.25 0 0 0 40.125,17.50zM3.125,18.50A0.25,0.25 0 0 0 3.875,18.50A0.25,0.25 0 0 0 3.125,18.50zM6.125,18.50A0.25,0.25 0 0 0 6.875,18.50A0.25,0.25 0 0 0 6.125,18.50zM8.125,18.50A0.25,0.25 0 0 0 8.875,18.50A0.25,0.25 0 0 0 8.125,18.50zM9.125,18.50A0.25,0.25 0 0 0 9.875,18.50A0.25,0.25 0 0 0 9.125,18.50zM12.125,18.50A0.25,0.25 0 0 0 12.875,18.50A0.25,0.25 0 0 0 12.125,18.50zM13.125,18.50A0.25,0.25 0 0 0 13.875,18.50A0.25,0.25 0 0 0 13.125,18.50zM18.125,18.50A0.25,0.25 0 0 0 18.875,18.50A0.25,0.25 0 0 0 18.125,18.50zM19.125,18.50A0.25,0.25 0 0 0 19.875,18.50A0.25,0.25 0 0 0 19.125,18.50zM20.125,18.50A0.25,0.25 0 0 0 20.875,18.50A0.25,0.25 0 0 0 20.125,18.50zM22.125,18.50A0.25,0.25 0 0 0 22.875,18.50A0.25,0.25 0 0 0 22.125,18.50zM24.125,18.50A0.25,0.25 0 0 0 24.875,18.50A0.25,0.25 0 0 0 24.125,18.50zM27.125,18.50A0.25,0.25 0 0 0 27.875,18.50A0.25,0.25 0 0 0 27.125,18.50zM29.125,18.50A0.25,0.25 0 0 0 29.875,18.50A0.25,0.25 0 0 0 29.125,18.50zM31.125,18.50A0.25,0.25 0 0 0 31.875,18.50A0.25,0.25 0 0 0 31.125,18.50zM33.125,18.50A0.25,0.25 0 0 0 33.875,18.50A0.25,0.25 0 0 0 33.125,18.50zM35.125,18.50A0.25,0.25 0 0 0 35.875,18.50A0.25,0.25 0 0 0 35.125,18.50zM37.125,18.50A0.25,0.25 0 0 0 37.875,18.50A0.25,0.25 0 0 0 37.125,18.50zM40.125,18.50A0.25,0.25 0 0 0 40.875,18.50A0.25,0.25 0 0 0 40.125,18.50zM2.125,19.50A0.25,0.25 0 0 0 2.875,19.50A0.25,0.25 0 0 0 2.125,19.50zM3.125,19.50A0.25,0.25 0 0 0 3.875,19.50A0.25,0.25 0 0 0 3.125,19.50zM4.125,19.50A0.25,0.25 0 0 0 4.875,19.50A0.25,0.25 0 0 0 4.125,19.50zM5.125,19.50A0.25,0.25 0 0 0 5.875,19.50A0.25,0.25 0 0 0 5.125,19.50zM7.125,19.50A0.25,0.25 0 0 0 7.875,19.50A0.25,0.25 0 0 0 7.125,19.50zM10.125,19.50A0.25,0.25 0 0 0 10.875,19.50A0.25,0.25 0 0 0 10.125,19.50zM11.125,19.50A0.25,0.25 0 0 0 11.875,19.50A0.25,0.25 0 0 0 11.125,19.50zM12.125,19.50A0.25,0.25 0 0 0 12.875,19.50A0.25,0.25 0 0 0 12.125,19.50zM13.125,19.50A0.25,0.25 0 0 0 13.875,19.50A0.25,0.25 0 0 0 13.125,19.50zM14.125,19.50A0.25,0.25 0 0 0 14.875,19.50A0.25,0.25 0 0 0 14.125,19.50zM17.125,19.50A0.25,0.25 0 0 0 17.875,19.50A0.25,0.25 0 0 0 17.125,19.50zM19.125,19.50A0.25,0.25 0 0 0 19.875,19.50A0.25,0.25 0 0 0 19.125,19.50zM22.125,19.50A0.25,0.25 0 0 0 22.875,19.50A0.25,0.25 0 0 0 22.125,19.50zM29.125,19.50A0.25,0.25 0 0 0 29.875,19.50A0.25,0.25 0 0 0 29.125,19.50zM31.125,19.50A0.25,0.25 0 0 0 31.875,19.50A0.25,0.25 0 0 0 31.125,19.50zM34.125,19.50A0.25,0.25 0 0 0 34.875,19.50A0.25,0.25 0 0 0 34.125,19.50zM35.125,19.50A0.25,0.25 0 0 0 35.875,19.50A0.25,0.25 0 0 0 35.125,19.50zM36.125,19.50A0.25,0.25 0 0 0 36.875,19.50A0.25,0.25 0 0 0 36.125,19.50zM37.125,19.50A0.25,0.25 0 0 0 37.875,19.50A0.25,0.25 0 0 0 37.125,19.50zM38.125,19.50A0.25,0.25 0 0 0 38.875,19.50A0.25,0.25 0 0 0 38.125,19.50zM39.125,19.50A0.25,0.25 0 0 0 39.875,19.50A0.25,0.25 0 0 0 39.125,19.50zM40.125,19.50A0.25,0.25 0 0 0 40.875,19.50A0.25,0.25 0 0 0 40.125,19.50zM42.125,19.50A0.25,0.25 0 0 0 42.875,19.50A0.25,0.25 0 0 0 42.125,19.50zM4.125,20.50A0.25,0.25 0 0 0 4.875,20.50A0.25,0.25 0 0 0 4.125,20.50zM5.125,20.50A0.25,0.25 0 0 0 5.875,20.50A0.25,0.25 0 0 0 5.125,20.50zM6.125,20.50A0.25,0.25 0 0 0 6.875,20.50A0.25,0.25 0 0 0 6.125,20.50zM7.125,20.50A0.25,0.25 0 0 0 7.875,20.50A0.25,0.25 0 0 0 7.125,20.50zM8.125,20.50A0.25,0.25 0 0 0 8.875,20.50A0.25,0.25 0 0 0 8.125,20.50zM11.125,20.50A0.25,0.25 0 0 0 11.875,20.50A0.25,0.25 0 0 0 11.125,20.50zM15.125,20.50A0.25,0.25 0 0 0 15.875,20.50A0.25,0.25 0 0 0 15.125,20.50zM17.125,20.50A0.25,0.25 0 0 0 17.875,20.50A0.25,0.25 0 0 0 17.125,20.50zM18.125,20.50A0.25,0.25 0 0 0 18.875,20.50A0.25,0.25 0 0 0 18.125,20.50zM20.125,20.50A0.25,0.25 0 0 0 20.875,20.50A0.25,0.25 0 0 0 20.125,20.50zM21.125,20.50A0.25,0.25 0 0 0 21.875,20.50A0.25,0.25 0 0 0 21.125,20.50zM22.125,20.50A0.25,0.25 0 0 0 22.875,20.50A0.25,0.25 0 0 0 22.125,20.50zM23.125,20.50A0.25,0.25 0 0 0 23.875,20.50A0.25,0.25 0 0 0 23.125,20.50zM24.125,20.50A0.25,0.25 0 0 0 24.875,20.50A0.25,0.25 0 0 0 24.125,20.50zM26.125,20.50A0.25,0.25 0 0 0 26.875,20.50A0.25,0.25 0 0 0 26.125,20.50zM27.125,20.50A0.25,0.25 0 0 0 27.875,20.50A0.25,0.25 0 0 0 27.125,20.50zM28.125,20.50A0.25,0.25 0 0 0 28.875,20.50A0.25,0.25 0 0 0 28.125,20.50zM29.125,20.50A0.25,0.25 0 0 0 29.875,20.50A0.25,0.25 0 0 0 29.125,20.50zM30.125,20.50A0.25,0.25 0 0 0 30.875,20.50A0.25,0.25 0 0 0 30.125,20.50zM33.125,20.50A0.25,0.25 0 0 0 33.875,20.50A0.25,0.25 0 0 0 33.125,20.50zM36.125,20.50A0.25,0.25 0 0 0 36.875,20.50A0.25,0.25 0 0 0 36.125,20.50zM37.125,20.50A0.25,0.25 0 0 0 37.875,20.50A0.25,0.25 0 0 0 37.125,20.50zM38.125,20.50A0.25,0.25 0 0 0 38.875,20.50A0.25,0.25 0 0 0 38.125,20.50zM42.125,20.50A0.25,0.25 0 0 0 42.875,20.50A0.25,0.25 0 0 0 42.125,20.50zM5.125,21.50A0.25,0.25 0 0 0 5.875,21.50A0.25,0.25 0 0 0 5.125,21.50zM13.125,21.50A0.25,0.25 0 0 0 13.875,21.50A0.25,0.25 0 0 0 13.125,21.50zM15.125,21.50A0.25,0.25 0 0 0 15.875,21.50A0.25,0.25 0 0 0 15.125,21.50zM16.125,21.50A0.25,0.25 0 0 0 16.875,21.50A0.25,0.25 0 0 0 16.125,21.50zM21.125,21.50A0.25,0.25 0 0 0 21.875,21.50A0.25,0.25 0 0 0 21.125,21.50zM22.125,21.50A0.25,0.25 0 0 0 22.875,21.50A0.25,0.25 0 0 0 22.125,21.50zM23.125,21.50A0.25,0.25 0 0 0 23.875,21.50A0.25,0.25 0 0 0 23.125,21.50zM24.125,21.50A0.25,0.25 0 0 0 24.875,21.50A0.25,0.25 0 0 0 24.125,21.50zM25.125,21.50A0.25,0.25 0 0 0 25.875,21.50A0.25,0.25 0 0 0 25.125,21.50zM27.125,21.50A0.25,0.25 0 0 0 27.875,21.50A0.25,0.25 0 0 0 27.125,21.50zM28.125,21.50A0.25,0.25 0 0 0 28.875,21.50A0.25,0.25 0 0 0 28.125,21.50zM31.125,21.50A0.25,0.25 0 0 0 31.875,21.50A0.25,0.25 0 0 0 31.125,21.50zM32.125,21.50A0.25,0.25 0 0 0 32.875,21.50A0.25,0.25 0 0 0 32.125,21.50zM34.125,21.50A0.25,0.25 0 0 0 34.875,21.50A0.25,0.25 0 0 0 34.125,21.50zM38.125,21.50A0.25,0.25 0 0 0 38.875,21.50A0.25,0.25 0 0 0 38.125,21.50zM39.125,21.50A0.25,0.25 0 0 0 39.875,21.50A0.25,0.25 0 0 0 39.125,21.50zM42.125,21.50A0.25,0.25 0 0 0 42.875,21.50A0.25,0.25 0 0 0 42.125,21.50zM2.125,22.50A0.25,0.25 0 0 0 2.875,22.50A0.25,0.25 0 0 0 2.125,22.50zM7.125,22.50A0.25,0.25 0 0 0 7.875,22.50A0.25,0.25 0 0 0 7.125,22.50zM8.125,22.50A0.25,0.25 0 0 0 8.875,22.50A0.25,0.25 0 0 0 8.125,22.50zM10.125,22.50A0.25,0.25 0 0 0 10.875,22.50A0.25,0.25 0 0 0 10.125,22.50zM15.125,22.50A0.25,0.25 0 0 0 15.875,22.50A0.25,0.25 0 0 0 15.125,22.50zM17.125,22.50A0.25,0.25 0 0 0 17.875,22.50A0.25,0.25 0 0 0 17.125,22.50zM18.125,22.50A0.25,0.25 0 0 0 18.875,22.50A0.25,0.25 0 0 0 18.125,22.50zM20.125,22.50A0.25,0.25 0 0 0 20.875,22.50A0.25,0.25 0 0 0 20.125,22.50zM21.125,22.50A0.25,0.25 0 0 0 21.875,22.50A0.25,0.25 0 0 0 21.125,22.50zM23.125,22.50A0.25,0.25 0 0 0 23.875,22.50A0.25,0.25 0 0 0 23.125,22.50zM26.125,22.50A0.25,0.25 0 0 0 26.875,22.50A0.25,0.25 0 0 0 26.125,22.50zM30.125,22.50A0.25,0.25 0 0 0 30.875,22.50A0.25,0.25 0 0 0 30.125,22.50zM33.125,22.50A0.25,0.25 0 0 0 33.875,22.50A0.25,0.25 0 0 0 33.125,22.50zM37.125,22.50A0.25,0.25 0 0 0 37.875,22.50A0.25,0.25 0 0 0 37.125,22.50zM38.125,22.50A0.25,0.25 0 0 0 38.875,22.50A0.25,0.25 0 0 0 38.125,22.50zM39.125,22.50A0.25,0.25 0 0 0 39.875,22.50A0.25,0.25 0 0 0 39.125,22.50zM40.125,22.50A0.25,0.25 0 0 0 40.875,22.50A0.25,0.25 0 0 0 40.125,22.50zM42.125,22.50A0.25,0.25 0 0 0 42.875,22.50A0.25,0.25 0 0 0 42.125,22.50zM2.125,23.50A0.25,0.25 0 0 0 2.875,23.50A0.25,0.25 0 0 0 2.125,23.50zM3.125,23.50A0.25,0.25 0 0 0 3.875,23.50A0.25,0.25 0 0 0 3.125,23.50zM5.125,23.50A0.25,0.25 0 0 0 5.875,23.50A0.25,0.25 0 0 0 5.125,23.50zM7.125,23.50A0.25,0.25 0 0 0 7.875,23.50A0.25,0.25 0 0 0 7.125,23.50zM10.125,23.50A0.25,0.25 0 0 0 10.875,23.50A0.25,0.25 0 0 0 10.125,23.50zM13.125,23.50A0.25,0.25 0 0 0 13.875,23.50A0.25,0.25 0 0 0 13.125,23.50zM15.125,23.50A0.25,0.25 0 0 0 15.875,23.50A0.25,0.25 0 0 0 15.125,23.50zM16.125,23.50A0.25,0.25 0 0 0 16.875,23.50A0.25,0.25 0 0 0 16.125,23.50zM17.125,23.50A0.25,0.25 0 0 0 17.875,23.50A0.25,0.25 0 0 0 17.125,23.50zM18.125,23.50A0.25,0.25 0 0 0 18.875,23.50A0.25,0.25 0 0 0 18.125,23.50zM19.125,23.50A0.25,0.25 0 0 0 19.875,23.50A0.25,0.25 0 0 0 19.125,23.50zM21.125,23.50A0.25,0.25 0 0 0 21.875,23.50A0.25,0.25 0 0 0 21.125,23.50zM23.125,23.50A0.25,0.25 0 0 0 23.875,23.50A0.25,0.25 0 0 0 23.125,23.50zM26.125,23.50A0.25,0.25 0 0 0 26.875,23.50A0.25,0.25 0 0 0 26.125,23.50zM27.125,23.50A0.25,0.25 0 0 0 27.875,23.50A0.25,0.25 0 0 0 27.125,23.50zM28.125,23.50A0.25,0.25 0 0 0 28.875,23.50A0.25,0.25 0 0 0 28.125,23.50zM29.125,23.50A0.25,0.25 0 0 0 29.875,23.50A0.25,0.25 0 0 0 29.125,23.50zM31.125,23.50A0.25,0.25 0 0 0 31.875,23.50A0.25,0.25 0 0 0 31.125,23.50zM32.125,23.50A0.25,0.25 0 0 0 32.875,23.50A0.25,0.25 0 0 0 32.125,23.50zM33.125,23.50A0.25,0.25 0 0 0 33.875,23.50A0.25,0.25 0 0 0 33.125,23.50zM35.125,23.50A0.25,0.25 0 0 0 35.875,23.50A0.25,0.25 0 0 0 35.125,23.50zM37.125,23.50A0.25,0.25 0 0 0 37.875,23.50A0.25,0.25 0 0 0 37.125,23.50zM38.125,23.50A0.25,0.25 0 0 0 38.875,23.50A0.25,0.25 0 0 0 38.125,23.50zM39.125,23.50A0.25,0.25 0 0 0 39.875,23.50A0.25,0.25 0 0 0 39.125,23.50zM2.125,24.50A0.25,0.25 0 0 0 2.875,24.50A0.25,0.25 0 0 0 2.125,24.50zM3.125,24.50A0.25,0.25 0 0 0 3.875,24.50A0.25,0.25 0 0 0 3.125,24.50zM4.125,24.50A0.25,0.25 0 0 0 4.875,24.50A0.25,0.25 0 0 0 4.125,24.50zM6.125,24.50A0.25,0.25 0 0 0 6.875,24.50A0.25,0.25 0 0 0 6.125,24.50zM8.125,24.50A0.25,0.25 0 0 0 8.875,24.50A0.25,0.25 0 0 0 8.125,24.50zM11.125,24.50A0.25,0.25 0 0 0 11.875,24.50A0.25,0.25 0 0 0 11.125,24.50zM12.125,24.50A0.25,0.25 0 0 0 12.875,24.50A0.25,0.25 0 0 0 12.125,24.50zM14.125,24.50A0.25,0.25 0 0 0 14.875,24.50A0.25,0.25 0 0 0 14.125,24.50zM17.125,24.50A0.25,0.25 0 0 0 17.875,24.50A0.25,0.25 0 0 0 17.125,24.50zM21.125,24.50A0.25,0.25 0 0 0 21.875,24.50A0.25,0.25 0 0 0 21.125,24.50zM23.125,24.50A0.25,0.25 0 0 0 23.875,24.50A0.25,0.25 0 0 0 23.125,24.50zM27.125,24.50A0.25,0.25 0 0 0 27.875,24.50A0.25,0.25 0 0 0 27.125,24.50zM29.125,24.50A0.25,0.25 0 0 0 29.875,24.50A0.25,0.25 0 0 0 29.125,24.50zM32.125,24.50A0.25,0.25 0 0 0 32.875,24.50A0.25,0.25 0 0 0 32.125,24.50zM34.125,24.50A0.25,0.25 0 0 0 34.875,24.50A0.25,0.25 0 0 0 34.125,24.50zM35.125,24.50A0.25,0.25 0 0 0 35.875,24.50A0.25,0.25 0 0 0 35.125,24.50zM36.125,24.50A0.25,0.25 0 0 0 36.875,24.50A0.25,0.25 0 0 0 36.125,24.50zM37.125,24.50A0.25,0.25 0 0 0 37.875,24.50A0.25,0.25 0 0 0 37.125,24.50zM38.125,24.50A0.25,0.25 0 0 0 38.875,24.50A0.25,0.25 0 0 0 38.125,24.50zM40.125,24.50A0.25,0.25 0 0 0 40.875,24.50A0.25,0.25 0 0 0 40.125,24.50zM7.125,25.50A0.25,0.25 0 0 0 7.875,25.50A0.25,0.25 0 0 0 7.125,25.50zM13.125,25.50A0.25,0.25 0 0 0 13.875,25.50A0.25,0.25 0 0 0 13.125,25.50zM15.125,25.50A0.25,0.25 0 0 0 15.875,25.50A0.25,0.25 0 0 0 15.125,25.50zM22.125,25.50A0.25,0.25 0 0 0 22.875,25.50A0.25,0.25 0 0 0 22.125,25.50zM25.125,25.50A0.25,0.25 0 0 0 25.875,25.50A0.25,0.25 0 0 0 25.125,25.50zM27.125,25.50A0.25,0.25 0 0 0 27.875,25.50A0.25,0.25 0 0 0 27.125,25.50zM28.125,25.50A0.25,0.25 0 0 0 28.875,25.50A0.25,0.25 0 0 0 28.125,25.50zM29.125,25.50A0.25,0.25 0 0 0 29.875,25.50A0.25,0.25 0 0 0 29.125,25.50zM37.125,25.50A0.25,0.25 0 0 0 37.875,25.50A0.25,0.25 0 0 0 37.125,25.50zM39.125,25.50A0.25,0.25 0 0 0 39.875,25.50A0.25,0.25 0 0 0 39.125,25.50zM41.125,25.50A0.25,0.25 0 0 0 41.875,25.50A0.25,0.25 0 0 0 41.125,25.50zM42.125,25.50A0.25,0.25 0 0 0 42.875,25.50A0.25,0.25 0 0 0 42.125,25.50zM2.125,26.50A0.25,0.25 0 0 0 2.875,26.50A0.25,0.25 0 0 0 2.125,26.50zM3.125,26.50A0.25,0.25 0 0 0 3.875,26.50A0.25,0.25 0 0 0 3.125,26.50zM5.125,26.50A0.25,0.25 0 0 0 5.875,26.50A0.25,0.25 0 0 0 5.125,26.50zM7.125,26.50A0.25,0.25 0 0 0 7.875,26.50A0.25,0.25 0 0 0 7.125,26.50zM8.125,26.50A0.25,0.25 0 0 0 8.875,26.50A0.25,0.25 0 0 0 8.125,26.50zM9.125,26.50A0.25,0.25 0 0 0 9.875,26.50A0.25,0.25 0 0 0 9.125,26.50zM11.125,26.50A0.25,0.25 0 0 0 11.875,26.50A0.25,0.25 0 0 0 11.125,26.50zM12.125,26.50A0.25,0.25 0 0 0 12.875,26.50A0.25,0.25 0 0 0 12.125,26.50zM15.125,26.50A0.25,0.25 0 0 0 15.875,26.50A0.25,0.25 0 0 0 15.125,26.50zM16.125,26.50A0.25,0.25 0 0 0 16.875,26.50A0.25,0.25 0 0 0 16.125,26.50zM18.125,26.50A0.25,0.25 0 0 0 18.875,26.50A0.25,0.25 0 0 0 18.125,26.50zM21.125,26.50A0.25,0.25 0 0 0 21.875,26.50A0.25,0.25 0 0 0 21.125,26.50zM23.125,26.50A0.25,0.25 0 0 0 23.875,26.50A0.25,0.25 0 0 0 23.125,26.50zM24.125,26.50A0.25,0.25 0 0 0 24.875,26.50A0.25,0.25 0 0 0 24.125,26.50zM27.125,26.50A0.25,0.25 0 0 0 27.875,26.50A0.25,0.25 0 0 0 27.125,26.50zM29.125,26.50A0.25,0.25 0 0 0 29.875,26.50A0.25,0.25 0 0 0 29.125,26.50zM33.125,26.50A0.25,0.25 0 0 0 33.875,26.50A0.25,0.25 0 0 0 33.125,26.50zM34.125,26.50A0.25,0.25 0 0 0 34.875,26.50A0.25,0.25 0 0 0 34.125,26.50zM36.125,26.50A0.25,0.25 0 0 0 36.875,26.50A0.25,0.25 0 0 0 36.125,26.50zM39.125,26.50A0.25,0.25 0 0 0 39.875,26.50A0.25,0.25 0 0 0 39.125,26.50zM41.125,26.50A0.25,0.25 0 0 0 41.875,26.50A0.25,0.25 0 0 0 41.125,26.50zM42.125,26.50A0.25,0.25 0 0 0 42.875,26.50A0.25,0.25 0 0 0 42.125,26.50zM3.125,27.50A0.25,0.25 0 0 0 3.875,27.50A0.25,0.25 0 0 0 3.125,27.50zM4.125,27.50A0.25,0.25 0 0 0 4.875,27.50A0.25,0.25 0 0 0 4.125,27.50zM6.125,27.50A0.25,0.25 0 0 0 6.875,27.50A0.25,0.25 0 0 0 6.125,27.50zM7.125,27.50A0.25,0.25 0 0 0 7.875,27.50A0.25,0.25 0 0 0 7.125,27.50zM10.125,27.50A0.25,0.25 0 0 0 10.875,27.50A0.25,0.25 0 0 0 10.125,27.50zM14.125,27.50A0.25,0.25 0 0 0 14.875,27.50A0.25,0.25 0 0 0 14.125,27.50zM15.125,27.50A0.25,0.25 0 0 0 15.875,27.50A0.25,0.25 0 0 0 15.125,27.50zM17.125,27.50A0.25,0.25 0 0 0 17.875,27.50A0.25,0.25 0 0 0 17.125,27.50zM19.125,27.50A0.25,0.25 0 0 0 19.875,27.50A0.25,0.25 0 0 0 19.125,27.50zM20.125,27.50A0.25,0.25 0 0 0 20.875,27.50A0.25,0.25 0 0 0 20.125,27.50zM21.125,27.50A0.25,0.25 0 0 0 21.875,27.50A0.25,0.25 0 0 0 21.125,27.50zM22.125,27.50A0.25,0.25 0 0 0 22.875,27.50A0.25,0.25 0 0 0 22.125,27.50zM23.125,27.50A0.25,0.25 0 0 0 23.875,27.50A0.25,0.25 0 0 0 23.125,27.50zM27.125,27.50A0.25,0.25 0 0 0 27.875,27.50A0.25,0.25 0 0 0 27.125,27.50zM28.125,27.50A0.25,0.25 0 0 0 28.875,27.50A0.25,0.25 0 0 0 28.125,27.50zM29.125,27.50A0.25,0.25 0 0 0 29.875,27.50A0.25,0.25 0 0 0 29.125,27.50zM30.125,27.50A0.25,0.25 0 0 0 30.875,27.50A0.25,0.25 0 0 0 30.125,27.50zM33.125,27.50A0.25,0.25 0 0 0 33.875,27.50A0.25,0.25 0 0 0 33.125,27.50zM36.125,27.50A0.25,0.25 0 0 0 36.875,27.50A0.25,0.25 0 0 0 36.125,27.50zM37.125,27.50A0.25,0.25 0 0 0 37.875,27.50A0.25,0.25 0 0 0 37.125,27.50zM38.125,27.50A0.25,0.25 0 0 0 38.875,27.50A0.25,0.25 0 0 0 38.125,27.50zM39.125,27.50A0.25,0.25 0 0 0 39.875,27.50A0.25,0.25 0 0 0 39.125,27.50zM42.125,27.50A0.25,0.25 0 0 0 42.875,27.50A0.25,0.25 0 0 0 42.125,27.50zM3.125,28.50A0.25,0.25 0 0 0 3.875,28.50A0.25,0.25 0 0 0 3.125,28.50zM7.125,28.50A0.25,0.25 0 0 0 7.875,28.50A0.25,0.25 0 0 0 7.125,28.50zM8.125,28.50A0.25,0.25 0 0 0 8.875,28.50A0.25,0.25 0 0 0 8.125,28.50zM10.125,28.50A0.25,0.25 0 0 0 10.875,28.50A0.25,0.25 0 0 0 10.125,28.50zM12.125,28.50A0.25,0.25 0 0 0 12.875,28.50A0.25,0.25 0 0 0 12.125,28.50zM14.125,28.50A0.25,0.25 0 0 0 14.875,28.50A0.25,0.25 0 0 0 14.125,28.50zM15.125,28.50A0.25,0.25 0 0 0 15.875,28.50A0.25,0.25 0 0 0 15.125,28.50zM18.125,28.50A0.25,0.25 0 0 0 18.875,28.50A0.25,0.25 0 0 0 18.125,28.50zM20.125,28.50A0.25,0.25 0 0 0 20.875,28.50A0.25,0.25 0 0 0 20.125,28.50zM21.125,28.50A0.25,0.25 0 0 0 21.875,28.50A0.25,0.25 0 0 0 21.125,28.50zM27.125,28.50A0.25,0.25 0 0 0 27.875,28.50A0.25,0.25 0 0 0 27.125,28.50zM28.125,28.50A0.25,0.25 0 0 0 28.875,28.50A0.25,0.25 0 0 0 28.125,28.50zM29.125,28.50A0.25,0.25 0 0 0 29.875,28.50A0.25,0.25 0 0 0 29.125,28.50zM32.125,28.50A0.25,0.25 0 0 0 32.875,28.50A0.25,0.25 0 0 0 32.125,28.50zM34.125,28.50A0.25,0.25 0 0 0 34.875,28.50A0.25,0.25 0 0 0 34.125,28.50zM35.125,28.50A0.25,0.25 0 0 0 35.875,28.50A0.25,0.25 0 0 0 35.125,28.50zM37.125,28.50A0.25,0.25 0 0 0 37.875,28.50A0.25,0.25 0 0 0 37.125,28.50zM38.125,28.50A0.25,0.25 0 0 0 38.875,28.50A0.25,0.25 0 0 0 38.125,28.50zM2.125,29.50A0.25,0.25 0 0 0 2.875,29.50A0.25,0.25 0 0 0 2.125,29.50zM10.125,29.50A0.25,0.25 0 0 0 10.875,29.50A0.25,0.25 0 0 0 10.125,29.50zM11.125,29.50A0.25,0.25 0 0 0 11.875,29.50A0.25,0.25 0 0 0 11.125,29.50zM16.125,29.50A0.25,0.25 0 0 0 16.875,29.50A0.25,0.25 0 0 0 16.125,29.50zM17.125,29.50A0.25,0.25 0 0 0 17.875,29.50A0.25,0.25 0 0 0 17.125,29.50zM18.125,29.50A0.25,0.25 0 0 0 18.875,29.50A0.25,0.25 0 0 0 18.125,29.50zM19.125,29.50A0.25,0.25 0 0 0 19.875,29.50A0.25,0.25 0 0 0 19.125,29.50zM23.125,29.50A0.25,0.25 0 0 0 23.875,29.50A0.25,0.25 0 0 0 23.125,29.50zM24.125,29.50A0.25,0.25 0 0 0 24.875,29.50A0.25,0.25 0 0 0 24.125,29.50zM26.125,29.50A0.25,0.25 0 0 0 26.875,29.50A0.25,0.25 0 0 0 26.125,29.50zM27.125,29.50A0.25,0.25 0 0 0 27.875,29.50A0.25,0.25 0 0 0 27.125,29.50zM28.125,29.50A0.25,0.25 0 0 0 28.875,29.50A0.25,0.25 0 0 0 28.125,29.50zM30.125,29.50A0.25,0.25 0 0 0 30.875,29.50A0.25,0.25 0 0 0 30.125,29.50zM32.125,29.50A0.25,0.25 0 0 0 32.875,29.50A0.25,0.25 0 0 0 32.125,29.50zM33.125,29.50A0.25,0.25 0 0 0 33.875,29.50A0.25,0.25 0 0 0 33.125,29.50zM35.125,29.50A0.25,0.25 0 0 0 35.875,29.50A0.25,0.25 0 0 0 35.125,29.50zM37.125,29.50A0.25,0.25 0 0 0 37.875,29.50A0.25,0.25 0 0 0 37.125,29.50zM39.125,29.50A0.25,0.25 0 0 0 39.875,29.50A0.25,0.25 0 0 0 39.125,29.50zM40.125,29.50A0.25,0.25 0 0 0 40.875,29.50A0.25,0.25 0 0 0 40.125,29.50zM42.125,29.50A0.25,0.25 0 0 0 42.875,29.50A0.25,0.25 0 0 0 42.125,29.50zM2.125,30.50A0.25,0.25 0 0 0 2.875,30.50A0.25,0.25 0 0 0 2.125,30.50zM3.125,30.50A0.25,0.25 0 0 0 3.875,30.50A0.25,0.25 0 0 0 3.125,30.50zM6.125,30.50A0.25,0.25 0 0 0 6.875,30.50A0.25,0.25 0 0 0 6.125,30.50zM7.125,30.50A0.25,0.25 0 0 0 7.875,30.50A0.25,0.25 0 0 0 7.125,30.50zM8.125,30.50A0.25,0.25 0 0 0 8.875,30.50A0.25,0.25 0 0 0 8.125,30.50zM9.125,30.50A0.25,0.25 0 0 0 9.875,30.50A0.25,0.25 0 0 0 9.125,30.50zM11.125,30.50A0.25,0.25 0 0 0 11.875,30.50A0.25,0.25 0 0 0 11.125,30.50zM14.125,30.50A0.25,0.25 0 0 0 14.875,30.50A0.25,0.25 0 0 0 14.125,30.50zM15.125,30.50A0.25,0.25 0 0 0 15.875,30.50A0.25,0.25 0 0 0 15.125,30.50zM16.125,30.50A0.25,0.25 0 0 0 16.875,30.50A0.25,0.25 0 0 0 16.125,30.50zM17.125,30.50A0.25,0.25 0 0 0 17.875,30.50A0.25,0.25 0 0 0 17.125,30.50zM20.125,30.50A0.25,0.25 0 0 0 20.875,30.50A0.25,0.25 0 0 0 20.125,30.50zM24.125,30.50A0.25,0.25 0 0 0 24.875,30.50A0.25,0.25 0 0 0 24.125,30.50zM25.125,30.50A0.25,0.25 0 0 0 25.875,30.50A0.25,0.25 0 0 0 25.125,30.50zM26.125,30.50A0.25,0.25 0 0 0 26.875,30.50A0.25,0.25 0 0 0 26.125,30.50zM28.125,30.50A0.25,0.25 0 0 0 28.875,30.50A0.25,0.25 0 0 0 28.125,30.50zM31.125,30.50A0.25,0.25 0 0 0 31.875,30.50A0.25,0.25 0 0 0 31.125,30.50zM33.125,30.50A0.25,0.25 0 0 0 33.875,30.50A0.25,0.25 0 0 0 33.125,30.50zM39.125,30.50A0.25,0.25 0 0 0 39.875,30.50A0.25,0.25 0 0 0 39.125,30.50zM40.125,30.50A0.25,0.25 0 0 0 40.875,30.50A0.25,0.25 0 0 0 40.125,30.50zM42.125,30.50A0.25,0.25 0 0 0 42.875,30.50A0.25,0.25 0 0 0 42.125,30.50zM2.125,31.50A0.25,0.25 0 0 0 2.875,31.50A0.25,0.25 0 0 0 2.125,31.50zM4.125,31.50A0.25,0.25 0 0 0 4.875,31.50A0.25,0.25 0 0 0 4.125,31.50zM7.125,31.50A0.25,0.25 0 0 0 7.875,31.50A0.25,0.25 0 0 0 7.125,31.50zM10.125,31.50A0.25,0.25 0 0 0 10.875,31.50A0.25,0.25 0 0 0 10.125,31.50zM13.125,31.50A0.25,0.25 0 0 0 13.875,31.50A0.25,0.25 0 0 0 13.125,31.50zM16.125,31.50A0.25,0.25 0 0 0 16.875,31.50A0.25,0.25 0 0 0 16.125,31.50zM23.125,31.50A0.25,0.25 0 0 0 23.875,31.50A0.25,0.25 0 0 0 23.125,31.50zM24.125,31.50A0.25,0.25 0 0 0 24.875,31.50A0.25,0.25 0 0 0 24.125,31.50zM25.125,31.50A0.25,0.25 0 0 0 25.875,31.50A0.25,0.25 0 0 0 25.125,31.50zM26.125,31.50A0.25,0.25 0 0 0 26.875,31.50A0.25,0.25 0 0 0 26.125,31.50zM27.125,31.50A0.25,0.25 0 0 0 27.875,31.50A0.25,0.25 0 0 0 27.125,31.50zM28.125,31.50A0.25,0.25 0 0 0 28.875,31.50A0.25,0.25 0 0 0 28.125,31.50zM30.125,31.50A0.25,0.25 0 0 0 30.875,31.50A0.25,0.25 0 0 0 30.125,31.50zM32.125,31.50A0.25,0.25 0 0 0 32.875,31.50A0.25,0.25 0 0 0 32.125,31.50zM36.125,31.50A0.25,0.25 0 0 0 36.875,31.50A0.25,0.25 0 0 0 36.125,31.50zM38.125,31.50A0.25,0.25 0 0 0 38.875,31.50A0.25,0.25 0 0 0 38.125,31.50zM39.125,31.50A0.25,0.25 0 0 0 39.875,31.50A0.25,0.25 0 0 0 39.125,31.50zM40.125,31.50A0.25,0.25 0 0 0 40.875,31.50A0.25,0.25 0 0 0 40.125,31.50zM42.125,31.50A0.25,0.25 0 0 0 42.875,31.50A0.25,0.25 0 0 0 42.125,31.50zM2.125,32.50A0.25,0.25 0 0 0 2.875,32.50A0.25,0.25 0 0 0 2.125,32.50zM3.125,32.50A0.25,0.25 0 0 0 3.875,32.50A0.25,0.25 0 0 0 3.125,32.50zM4.125,32.50A0.25,0.25 0 0 0 4.875,32.50A0.25,0.25 0 0 0 4.125,32.50zM5.125,32.50A0.25,0.25 0 0 0 5.875,32.50A0.25,0.25 0 0 0 5.125,32.50zM7.125,32.50A0.25,0.25 0 0 0 7.875,32.50A0.25,0.25 0 0 0 7.125,32.50zM8.125,32.50A0.25,0.25 0 0 0 8.875,32.50A0.25,0.25 0 0 0 8.125,32.50zM9.125,32.50A0.25,0.25 0 0 0 9.875,32.50A0.25,0.25 0 0 0 9.125,32.50zM10.125,32.50A0.25,0.25 0 0 0 10.875,32.50A0.25,0.25 0 0 0 10.125,32.50zM11.125,32.50A0.25,0.25 0 0 0 11.875,32.50A0.25,0.25 0 0 0 11.125,32.50zM14.125,32.50A0.25,0.25 0 0 0 14.875,32.50A0.25,0.25 0 0 0 14.125,32.50zM15.125,32.50A0.25,0.25 0 0 0 15.875,32.50A0.25,0.25 0 0 0 15.125,32.50zM16.125,32.50A0.25,0.25 0 0 0 16.875,32.50A0.25,0.25 0 0 0 16.125,32.50zM18.125,32.50A0.25,0.25 0 0 0 18.875,32.50A0.25,0.25 0 0 0 18.125,32.50zM19.125,32.50A0.25,0.25 0 0 0 19.875,32.50A0.25,0.25 0 0 0 19.125,32.50zM20.125,32.50A0.25,0.25 0 0 0 20.875,32.50A0.25,0.25 0 0 0 20.125,32.50zM21.125,32.50A0.25,0.25 0 0 0 21.875,32.50A0.25,0.25 0 0 0 21.125,32.50zM23.125,32.50A0.25,0.25 0 0 0 23.875,32.50A0.25,0.25 0 0 0 23.125,32.50zM25.125,32.50A0.25,0.25 0 0 0 25.875,32.50A0.25,0.25 0 0 0 25.125,32.50zM26.125,32.50A0.25,0.25 0 0 0 26.875,32.50A0.25,0.25 0 0 0 26.125,32.50zM30.125,32.50A0.25,0.25 0 0 0 30.875,32.50A0.25,0.25 0 0 0 30.125,32.50zM32.125,32.50A0.25,0.25 0 0 0 32.875,32.50A0.25,0.25 0 0 0 32.125,32.50zM33.125,32.50A0.25,0.25 0 0 0 33.875,32.50A0.25,0.25 0 0 0 33.125,32.50zM35.125,32.50A0.25,0.25 0 0 0 35.875,32.50A0.25,0.25 0 0 0 35.125,32.50zM38.125,32.50A0.25,0.25 0 0 0 38.875,32.50A0.25,0.25 0 0 0 38.125,32.50zM42.125,32.50A0.25,0.25 0 0 0 42.875,32.50A0.25,0.25 0 0 0 42.125,32.50zM2.125,33.50A0.25,0.25 0 0 0 2.875,33.50A0.25,0.25 0 0 0 2.125,33.50zM5.125,33.50A0.25,0.25 0 0 0 5.875,33.50A0.25,0.25 0 0 0 5.125,33.50zM9.125,33.50A0.25,0.25 0 0 0 9.875,33.50A0.25,0.25 0 0 0 9.125,33.50zM10.125,33.50A0.25,0.25 0 0 0 10.875,33.50A0.25,0.25 0 0 0 10.125,33.50zM12.125,33.50A0.25,0.25 0 0 0 12.875,33.50A0.25,0.25 0 0 0 12.125,33.50zM14.125,33.50A0.25,0.25 0 0 0 14.875,33.50A0.25,0.25 0 0 0 14.125,33.50zM16.125,33.50A0.25,0.25 0 0 0 16.875,33.50A0.25,0.25 0 0 0 16.125,33.50zM19.125,33.50A0.25,0.25 0 0 0 19.875,33.50A0.25,0.25 0 0 0 19.125,33.50zM21.125,33.50A0.25,0.25 0 0 0 21.875,33.50A0.25,0.25 0 0 0 21.125,33.50zM22.125,33.50A0.25,0.25 0 0 0 22.875,33.50A0.25,0.25 0 0 0 22.125,33.50zM25.125,33.50A0.25,0.25 0 0 0 25.875,33.50A0.25,0.25 0 0 0 25.125,33.50zM26.125,33.50A0.25,0.25 0 0 0 26.875,33.50A0.25,0.25 0 0 0 26.125,33.50zM27.125,33.50A0.25,0.25 0 0 0 27.875,33.50A0.25,0.25 0 0 0 27.125,33.50zM28.125,33.50A0.25,0.25 0 0 0 28.875,33.50A0.25,0.25 0 0 0 28.125,33.50zM29.125,33.50A0.25,0.25 0 0 0 29.875,33.50A0.25,0.25 0 0 0 29.125,33.50zM30.125,33.50A0.25,0.25 0 0 0 30.875,33.50A0.25,0.25 0 0 0 30.125,33.50zM32.125,33.50A0.25,0.25 0 0 0 32.875,33.50A0.25,0.25 0 0 0 32.125,33.50zM34.125,33.50A0.25,0.25 0 0 0 34.875,33.50A0.25,0.25 0 0 0 34.125,33.50zM36.125,33.50A0.25,0.25 0 0 0 36.875,33.50A0.25,0.25 0 0 0 36.125,33.50zM37.125,33.50A0.25,0.25 0 0 0 37.875,33.50A0.25,0.25 0 0 0 37.125,33.50zM39.125,33.50A0.25,0.25 0 0 0 39.875,33.50A0.25,0.25 0 0 0 39.125,33.50zM41.125,33.50A0.25,0.25 0 0 0 41.875,33.50A0.25,0.25 0 0 0 41.125,33.50zM2.125,34.50A0.25,0.25 0 0 0 2.875,34.50A0.25,0.25 0 0 0 2.125,34.50zM5.125,34.50A0.25,0.25 0 0 0 5.875,34.50A0.25,0.25 0 0 0 5.125,34.50zM6.125,34.50A0.25,0.25 0 0 0 6.875,34.50A0.25,0.25 0 0 0 6.125,34.50zM8.125,34.50A0.25,0.25 0 0 0 8.875,34.50A0.25,0.25 0 0 0 8.125,34.50zM10.125,34.50A0.25,0.25 0 0 0 10.875,34.50A0.25,0.25 0 0 0 10.125,34.50zM11.125,34.50A0.25,0.25 0 0 0 11.875,34.50A0.25,0.25 0 0 0 11.125,34.50zM12.125,34.50A0.25,0.25 0 0 0 12.875,34.50A0.25,0.25 0 0 0 12.125,34.50zM13.125,34.50A0.25,0.25 0 0 0 13.875,34.50A0.25,0.25 0 0 0 13.125,34.50zM14.125,34.50A0.25,0.25 0 0 0 14.875,34.50A0.25,0.25 0 0 0 14.125,34.50zM17.125,34.50A0.25,0.25 0 0 0 17.875,34.50A0.25,0.25 0 0 0 17.125,34.50zM21.125,34.50A0.25,0.25 0 0 0 21.875,34.50A0.25,0.25 0 0 0 21.125,34.50zM23.125,34.50A0.25,0.25 0 0 0 23.875,34.50A0.25,0.25 0 0 0 23.125,34.50zM24.125,34.50A0.25,0.25 0 0 0 24.875,34.50A0.25,0.25 0 0 0 24.125,34.50zM25.125,34.50A0.25,0.25 0 0 0 25.875,34.50A0.25,0.25 0 0 0 25.125,34.50zM26.125,34.50A0.25,0.25 0 0 0 26.875,34.50A0.25,0.25 0 0 0 26.125,34.50zM31.125,34.50A0.25,0.25 0 0 0 31.875,34.50A0.25,0.25 0 0 0 31.125,34.50zM34.125,34.50A0.25,0.25 0 0 0 34.875,34.50A0.25,0.25 0 0 0 34.125,34.50zM35.125,34.50A0.25,0.25 0 0 0 35.875,34.50A0.25,0.25 0 0 0 35.125,34.50zM36.125,34.50A0.25,0.25 0 0 0 36.875,34.50A0.25,0.25 0 0 0 36.125,34.50zM37.125,34.50A0.25,0.25 0 0 0 37.875,34.50A0.25,0.25 0 0 0 37.125,34.50zM38.125,34.50A0.25,0.25 0 0 0 38.875,34.50A0.25,0.25 0 0 0 38.125,34.50zM40.125,34.50A0.25,0.25 0 0 0 40.875,34.50A0.25,0.25 0 0 0 40.125,34.50zM42.125,34.50A0.25,0.25 0 0 0 42.875,34.50A0.25,0.25 0 0 0 42.125,34.50zM10.125,35.50A0.25,0.25 0 0 0 10.875,35.50A0.25,0.25 0 0 0 10.125,35.50zM12.125,35.50A0.25,0.25 0 0 0 12.875,35.50A0.25,0.25 0 0 0 12.125,35.50zM14.125,35.50A0.25,0.25 0 0 0 14.875,35.50A0.25,0.25 0 0 0 14.125,35.50zM15.125,35.50A0.25,0.25 0 0 0 15.875,35.50A0.25,0.25 0 0 0 15.125,35.50zM17.125,35.50A0.25,0.25 0 0 0 17.875,35.50A0.25,0.25 0 0 0 17.125,35.50zM19.125,35.50A0.25,0.25 0 0 0 19.875,35.50A0.25,0.25 0 0 0 19.125,35.50zM20.125,35.50A0.25,0.25 0 0 0 20.875,35.50A0.25,0.25 0 0 0 20.125,35.50zM21.125,35.50A0.25,0.25 0 0 0 21.875,35.50A0.25,0.25 0 0 0 21.125,35.50zM22.125,35.50A0.25,0.25 0 0 0 22.875,35.50A0.25,0.25 0 0 0 22.125,35.50zM23.125,35.50A0.25,0.25 0 0 0 23.875,35.50A0.25,0.25 0 0 0 23.125,35.50zM26.125,35.50A0.25,0.25 0 0 0 26.875,35.50A0.25,0.25 0 0 0 26.125,35.50zM27.125,35.50A0.25,0.25 0 0 0 27.875,35.50A0.25,0.25 0 0 0 27.125,35.50zM29.125,35.50A0.25,0.25 0 0 0 29.875,35.50A0.25,0.25 0 0 0 29.125,35.50zM34.125,35.50A0.25,0.25 0 0 0 34.875,35.50A0.25,0.25 0 0 0 34.125,35.50zM38.125,35.50A0.25,0.25 0 0 0 38.875,35.50A0.25,0.25 0 0 0 38.125,35.50zM40.125,35.50A0.25,0.25 0 0 0 40.875,35.50A0.25,0.25 0 0 0 40.125,35.50zM2,36H3V37H2zM3,36H4V37H3zM4,36H5V37H4zM5,36H6V37H5zM6,36H7V37H6zM7,36H8V37H7zM8,36H9V37H8zM11.125,36.50A0.25,0.25 0 0 0 11.875,36.50A0.25,0.25 0 0 0 11.125,36.50zM12.125,36.50A0.25,0.25 0 0 0 12.875,36.50A0.25,0.25 0 0 0 12.125,36.50zM19.125,36.50A0.25,0.25 0 0 0 19.875,36.50A0.25,0.25 0 0 0 19.125,36.50zM21.125,36.50A0.25,0.25 0 0 0 21.875,36.50A0.25,0.25 0 0 0 21.125,36.50zM23.125,36.50A0.25,0.25 0 0 0 23.875,36.50A0.25,0.25 0 0 0 23.125,36.50zM25.125,36.50A0.25,0.25 0 0 0 25.875,36.50A0.25,0.25 0 0 0 25.125,36.50zM26.125,36.50A0.25,0.25 0 0 0 26.875,36.50A0.25,0.25 0 0 0 26.125,36.50zM29.125,36.50A0.25,0.25 0 0 0 29.875,36.50A0.25,0.25 0 0 0 29.125,36.50zM32.125,36.50A0.25,0.25 0 0 0 32.875,36.50A0.25,0.25 0 0 0 32.125,36.50zM33.125,36.50A0.25,0.25 0 0 0 33.875,36.50A0.25,0.25 0 0 0 33.125,36.50zM34.125,36.50A0.25,0.25 0 0 0 34.875,36.50A0.25,0.25 0 0 0 34.125,36.50zM36.125,36.50A0.25,0.25 0 0 0 36.875,36.50A0.25,0.25 0 0 0 36.125,36.50zM38.125,36.50A0.25,0.25 0 0 0 38.875,36.50A0.25,0.25 0 0 0 38.125,36.50zM40.125,36.50A0.25,0.25 0 0 0 40.875,36.50A0.25,0.25 0 0 0 40.125,36.50zM41.125,36.50A0.25,0.25 0 0 0 41.875,36.50A0.25,0.25 0 0 0 41.125,36.50zM2,37H3V38H2zM8,37H9V38H8zM10.125,37.50A0.25,0.25 0 0 0 10.875,37.50A0.25,0.25 0 0 0 10.125,37.50zM12.125,37.50A0.25,0.25 0 0 0 12.875,37.50A0.25,0.25 0 0 0 12.125,37.50zM14.125,37.50A0.25,0.25 0 0 0 14.875,37.50A0.25,0.25 0 0 0 14.125,37.50zM16.125,37.50A0.25,0.25 0 0 0 16.875,37.50A0.25,0.25 0 0 0 16.125,37.50zM18.125,37.50A0.25,0.25 0 0 0 18.875,37.50A0.25,0.25 0 0 0 18.125,37.50zM19.125,37.50A0.25,0.25 0 0 0 19.875,37.50A0.25,0.25 0 0 0 19.125,37.50zM22.125,37.50A0.25,0.25 0 0 0 22.875,37.50A0.25,0.25 0 0 0 22.125,37.50zM24.125,37.50A0.25,0.25 0 0 0 24.875,37.50A0.25,0.25 0 0 0 24.125,37.50zM30.125,37.50A0.25,0.25 0 0 0 30.875,37.50A0.25,0.25 0 0 0 30.125,37.50zM34.125,37.50A0.25,0.25 0 0 0 34.875,37.50A0.25,0.25 0 0 0 34.125,37.50zM38.125,37.50A0.25,0.25 0 0 0 38.875,37.50A0.25,0.25 0 0 0 38.125,37.50zM42.125,37.50A0.25,0.25 0 0 0 42.875,37.50A0.25,0.25 0 0 0 42.125,37.50zM2,38H3V39H2zM4,38H5V39H4zM5,38H6V39H5zM6,38H7V39H6zM8,38H9V39H8zM11.125,38.50A0.25,0.25 0 0 0 11.875,38.50A0.25,0.25 0 0 0 11.125,38.50zM13.125,38.50A0.25,0.25 0 0 0 13.875,38.50A0.25,0.25 0 0 0 13.125,38.50zM15.125,38.50A0.25,0.25 0 0 0 15.875,38.50A0.25,0.25 0 0 0 15.125,38.50zM18.125,38.50A0.25,0.25 0 0 0 18.875,38.50A0.25,0.25 0 0 0 18.125,38.50zM19.125,38.50A0.25,0.25 0 0 0 19.875,38.50A0.25,0.25 0 0 0 19.125,38.50zM20.125,38.50A0.25,0.25 0 0 0 20.875,38.50A0.25,0.25 0 0 0 20.125,38.50zM22.125,38.50A0.25,0.25 0 0 0 22.875,38.50A0.25,0.25 0 0 0 22.125,38.50zM25.125,38.50A0.25,0.25 0 0 0 25.875,38.50A0.25,0.25 0 0 0 25.125,38.50zM27.125,38.50A0.25,0.25 0 0 0 27.875,38.50A0.25,0.25 0 0 0 27.125,38.50zM28.125,38.50A0.25,0.25 0 0 0 28.875,38.50A0.25,0.25 0 0 0 28.125,38.50zM29.125,38.50A0.25,0.25 0 0 0 29.875,38.50A0.25,0.25 0 0 0 29.125,38.50zM31.125,38.50A0.25,0.25 0 0 0 31.875,38.50A0.25,0.25 0 0 0 31.125,38.50zM32.125,38.50A0.25,0.25 0 0 0 32.875,38.50A0.25,0.25 0 0 0 32.125,38.50zM33.125,38.50A0.25,0.25 0 0 0 33.875,38.50A0.25,0.25 0 0 0 33.125,38.50zM34.125,38.50A0.25,0.25 0 0 0 34.875,38.50A0.25,0.25 0 0 0 34.125,38.50zM35.125,38.50A0.25,0.25 0 0 0 35.875,38.50A0.25,0.25 0 0 0 35.125,38.50zM36.125,38.50A0.25,0.25 0 0 0 36.875,38.50A0.25,0.25 0 0 0 36.125,38.50zM37.125,38.50A0.25,0.25 0 0 0 37.875,38.50A0.25,0.25 0 0 0 37.125,38.50zM38.125,38.50A0.25,0.25 0 0 0 38.875,38.50A0.25,0.25 0 0 0 38.125,38.50zM39.125,38.50A0.25,0.25 0 0 0 39.875,38.50A0.25,0.25 0 0 0 39.125,38.50zM41.125,38.50A0.25,0.25 0 0 0 41.875,38.50A0.25,0.25 0 0 0 41.125,38.50zM42.125,38.50A0.25,0.25 0 0 0 42.875,38.50A0.25,0.25 0 0 0 42.125,38.50zM2,39H3V40H2zM4,39H5V40H4zM5,39H6V40H5zM6,39H7V40H6zM8,39H9V40H8zM11.125,39.50A0.25,0.25 0 0 0 11.875,39.50A0.25,0.25 0 0 0 11.125,39.50zM12.125,39.50A0.25,0.25 0 0 0 12.875,39.50A0.25,0.25 0 0 0 12.125,39.50zM13.125,39.50A0.25,0.25 0 0 0 13.875,39.50A0.25,0.25 0 0 0 13.125,39.50zM15.125,39.50A0.25,0.25 0 0 0 15.875,39.50A0.25,0.25 0 0 0 15.125,39.50zM17.125,39.50A0.25,0.25 0 0 0 17.875,39.50A0.25,0.25 0 0 0 17.125,39.50zM19.125,39.50A0.25,0.25 0 0 0 19.875,39.50A0.25,0.25 0 0 0 19.125,39.50zM20.125,39.50A0.25,0.25 0 0 0 20.875,39.50A0.25,0.25 0 0 0 20.125,39.50zM21.125,39.50A0.25,0.25 0 0 0 21.875,39.50A0.25,0.25 0 0 0 21.125,39.50zM22.125,39.50A0.25,0.25 0 0 0 22.875,39.50A0.25,0.25 0 0 0 22.125,39.50zM24.125,39.50A0.25,0.25 0 0 0 24.875,39.50A0.25,0.25 0 0 0 24.125,39.50zM29.125,39.50A0.25,0.25 0 0 0 29.875,39.50A0.25,0.25 0 0 0 29.125,39.50zM30.125,39.50A0.25,0.25 0 0 0 30.875,39.50A0.25,0.25 0 0 0 30.125,39.50zM33.125,39.50A0.25,0.25 0 0 0 33.875,39.50A0.25,0.25 0 0 0 33.125,39.50zM37.125,39.50A0.25,0.25 0 0 0 37.875,39.50A0.25,0.25 0 0 0 37.125,39.50zM39.125,39.50A0.25,0.25 0 0 0 39.875,39.50A0.25,0.25 0 0 0 39.125,39.50zM41.125,39.50A0.25,0.25 0 0 0 41.875,39.50A0.25,0.25 0 0 0 41.125,39.50zM42.125,39.50A0.25,0.25 0 0 0 42.875,39.50A0.25,0.25 0 0 0 42.125,39.50zM2,40H3V41H2zM4,40H5V41H4zM5,40H6V41H5zM6,40H7V41H6zM8,40H9V41H8zM11.125,40.50A0.25,0.25 0 0 0 11.875,40.50A0.25,0.25 0 0 0 11.125,40.50zM12.125,40.50A0.25,0.25 0 0 0 12.875,40.50A0.25,0.25 0 0 0 12.125,40.50zM15.125,40.50A0.25,0.25 0 0 0 15.875,40.50A0.25,0.25 0 0 0 15.125,40.50zM16.125,40.50A0.25,0.25 0 0 0 16.875,40.50A0.25,0.25 0 0 0 16.125,40.50zM17.125,40.50A0.25,0.25 0 0 0 17.875,40.50A0.25,0.25 0 0 0 17.125,40.50zM19.125,40.50A0.25,0.25 0 0 0 19.875,40.50A0.25,0.25 0 0 0 19.125,40.50zM20.125,40.50A0.25,0.25 0 0 0 20.875,40.50A0.25,0.25 0 0 0 20.125,40.50zM21.125,40.50A0.25,0.25 0 0 0 21.875,40.50A0.25,0.25 0 0 0 21.125,40.50zM23.125,40.50A0.25,0.25 0 0 0 23.875,40.50A0.25,0.25 0 0 0 23.125,40.50zM27.125,40.50A0.25,0.25 0 0 0 27.875,40.50A0.25,0.25 0 0 0 27.125,40.50zM28.125,40.50A0.25,0.25 0 0 0 28.875,40.50A0.25,0.25 0 0 0 28.125,40.50zM29.125,40.50A0.25,0.25 0 0 0 29.875,40.50A0.25,0.25 0 0 0 29.125,40.50zM30.125,40.50A0.25,0.25 0 0 0 30.875,40.50A0.25,0.25 0 0 0 30.125,40.50zM33.125,40.50A0.25,0.25 0 0 0 33.875,40.50A0.25,0.25 0 0 0 33.125,40.50zM35.125,40.50A0.25,0.25 0 0 0 35.875,40.50A0.25,0.25 0 0 0 35.125,40.50zM36.125,40.50A0.25,0.25 0 0 0 36.875,40.50A0.25,0.25 0 0 0 36.125,40.50zM37.125,40.50A0.25,0.25 0 0 0 37.875,40.50A0.25,0.25 0 0 0 37.125,40.50zM38.125,40.50A0.25,0.25 0 0 0 38.875,40.50A0.25,0.25 0 0 0 38.125,40.50zM41.125,40.50A0.25,0.25 0 0 0 41.875,40.50A0.25,0.25 0 0 0 41.125,40.50zM2,41H3V42H2zM8,41H9V42H8zM13.125,41.50A0.25,0.25 0 0 0 13.875,41.50A0.25,0.25 0 0 0 13.125,41.50zM18.125,41.50A0.25,0.25 0 0 0 18.875,41.50A0.25,0.25 0 0 0 18.125,41.50zM20.125,41.50A0.25,0.25 0 0 0 20.875,41.50A0.25,0.25 0 0 0 20.125,41.50zM21.125,41.50A0.25,0.25 0 0 0 21.875,41.50A0.25,0.25 0 0 0 21.125,41.50zM22.125,41.50A0.25,0.25 0 0 0 22.875,41.50A0.25,0.25 0 0 0 22.125,41.50zM24.125,41.50A0.25,0.25 0 0 0 24.875,41.50A0.25,0.25 0 0 0 24.125,41.50zM25.125,41.50A0.25,0.25 0 0 0 25.875,41.50A0.25,0.25 0 0 0 25.125,41.50zM29.125,41.50A0.25,0.25 0 0 0 29.875,41.50A0.25,0.25 0 0 0 29.125,41.50zM32.125,41.50A0.25,0.25 0 0 0 32.875,41.50A0.25,0.25 0 0 0 32.125,41.50zM36.125,41.50A0.25,0.25 0 0 0 36.875,41.50A0.25,0.25 0 0 0 36.125,41.50zM38.125,41.50A0.25,0.25 0 0 0 38.875,41.50A0.25,0.25 0 0 0 38.125,41.50zM40.125,41.50A0.25,0.25 0 0 0 40.875,41.50A0.25,0.25 0 0 0 40.125,41.50zM42.125,41.50A0.25,0.25 0 0 0 42.875,41.50A0.25,0.25 0 0 0 42.125,41.50zM2,42H3V43H2zM3,42H4V43H3zM4,42H5V43H4zM5,42H6V43H5zM6,42H7V43H6zM7,42H8V43H7zM8,42H9V43H8zM12.125,42.50A0.25,0.25 0 0 0 12.875,42.50A0.25,0.25 0 0 0 12.125,42.50zM17.125,42.50A0.25,0.25 0 0 0 17.875,42.50A0.25,0.25 0 0 0 17.125,42.50zM19.125,42.50A0.25,0.25 0 0 0 19.875,42.50A0.25,0.25 0 0 0 19.125,42.50zM20.125,42.50A0.25,0.25 0 0 0 20.875,42.50A0.25,0.25 0 0 0 20.125,42.50zM21.125,42.50A0.25,0.25 0 0 0 21.875,42.50A0.25,0.25 0 0 0 21.125,42.50zM23.125,42.50A0.25,0.25 0 0 0 23.875,42.50A0.25,0.25 0 0 0 23.125,42.50zM25.125,42.50A0.25,0.25 0 0 0 25.875,42.50A0.25,0.25 0 0 0 25.125,42.50zM27.125,42.50A0.25,0.25 0 0 0 27.875,42.50A0.25,0.25 0 0 0 27.125,42.50zM31.125,42.50A0.25,0.25 0 0 0 31.875,42.50A0.25,0.25 0 0 0 31.125,42.50zM33.125,42.50A0.25,0.25 0 0 0 33.875,42.50A0.25,0.25 0 0 0 33.125,42.50zM35.125,42.50A0.25,0.25 0 0 0 35.875,42.50A0.25,0.25 0 0 0 35.125,42.50zM36.125,42.50A0.25,0.25 0 0 0 36.875,42.50A0.25,0.25 0 0 0 36.125,42.50zM37.125,42.50A0.25,0.25 0 0 0 37.875,42.50A0.25,0.25 0 0 0 37.125,42.50zM38.125,42.50A0.25,0.25 0 0 0 38.875,42.50A0.25,0.25 0 0 0 38.125,42.50zM40.125,42.50A0.25,0.25 0 0 0 40.875,42.50A0.25,0.25 0 0 0 40.125,42.50z" id="qr-path" fill="white" fill-opacity="1" fill-rule="nonzero" stroke="none" /></a></svg>