<svg version="1.1" viewBox="0 0 45 45" xmlns="http://www.w3.org/2000/svg"><a href="https://asongtoruin.github.io/modelling-world-2025/" target="_blank"><rect fill="rgba(255, 255, 255, 0)" x="0" y="0" width="100%" height="100%" /><path d="M2,2H3V3H2zM3,2H4V3H3zM4,2H5V3H4zM5,2H6V3H5zM6,2H7V3H6zM7,2H8V3H7zM8,2H9V3H8zM13.125,2.50A0.25,0.25 0 0 0 13.875,2.50A0.25,0.25 0 0 0 13.125,2.50zM15.125,2.50A0.25,0.25 0 0 0 15.875,2.50A0.25,0.25 0 0 0 15.125,2.50zM17.125,2.50A0.25,0.25 0 0 0 17.875,2.50A0.25,0.25 0 0 0 17.125,2.50zM19.125,2.50A0.25,0.25 0 0 0 19.875,2.50A0.25,0.25 0 0 0 19.125,2.50zM23.125,2.50A0.25,0.25 0 0 0 23.875,2.50A0.25,0.25 0 0 0 23.125,2.50zM25.125,2.50A0.25,0.25 0 0 0 25.875,2.50A0.25,0.25 0 0 0 25.125,2.50zM28.125,2.50A0.25,0.25 0 0 0 28.875,2.50A0.25,0.25 0 0 0 28.125,2.50zM31.125,2.50A0.25,0.25 0 0 0 31.875,2.50A0.25,0.25 0 0 0 31.125,2.50zM32.125,2.50A0.25,0.25 0 0 0 32.875,2.50A0.25,0.25 0 0 0 32.125,2.50zM36,2H37V3H36zM37,2H38V3H37zM38,2H39V3H38zM39,2H40V3H39zM40,2H41V3H40zM41,2H42V3H41zM42,2H43V3H42zM2,3H3V4H2zM8,3H9V4H8zM12.125,3.50A0.25,0.25 0 0 0 12.875,3.50A0.25,0.25 0 0 0 12.125,3.50zM13.125,3.50A0.25,0.25 0 0 0 13.875,3.50A0.25,0.25 0 0 0 13.125,3.50zM15.125,3.50A0.25,0.25 0 0 0 15.875,3.50A0.25,0.25 0 0 0 15.125,3.50zM17.125,3.50A0.25,0.25 0 0 0 17.875,3.50A0.25,0.25 0 0 0 17.125,3.50zM18.125,3.50A0.25,0.25 0 0 0 18.875,3.50A0.25,0.25 0 0 0 18.125,3.50zM19.125,3.50A0.25,0.25 0 0 0 19.875,3.50A0.25,0.25 0 0 0 19.125,3.50zM20.125,3.50A0.25,0.25 0 0 0 20.875,3.50A0.25,0.25 0 0 0 20.125,3.50zM21.125,3.50A0.25,0.25 0 0 0 21.875,3.50A0.25,0.25 0 0 0 21.125,3.50zM25.125,3.50A0.25,0.25 0 0 0 25.875,3.50A0.25,0.25 0 0 0 25.125,3.50zM26.125,3.50A0.25,0.25 0 0 0 26.875,3.50A0.25,0.25 0 0 0 26.125,3.50zM32.125,3.50A0.25,0.25 0 0 0 32.875,3.50A0.25,0.25 0 0 0 32.125,3.50zM33.125,3.50A0.25,0.25 0 0 0 33.875,3.50A0.25,0.25 0 0 0 33.125,3.50zM34.125,3.50A0.25,0.25 0 0 0 34.875,3.50A0.25,0.25 0 0 0 34.125,3.50zM36,3H37V4H36zM42,3H43V4H42zM2,4H3V5H2zM4,4H5V5H4zM5,4H6V5H5zM6,4H7V5H6zM8,4H9V5H8zM10.125,4.50A0.25,0.25 0 0 0 10.875,4.50A0.25,0.25 0 0 0 10.125,4.50zM12.125,4.50A0.25,0.25 0 0 0 12.875,4.50A0.25,0.25 0 0 0 12.125,4.50zM13.125,4.50A0.25,0.25 0 0 0 13.875,4.50A0.25,0.25 0 0 0 13.125,4.50zM20.125,4.50A0.25,0.25 0 0 0 20.875,4.50A0.25,0.25 0 0 0 20.125,4.50zM22.125,4.50A0.25,0.25 0 0 0 22.875,4.50A0.25,0.25 0 0 0 22.125,4.50zM24.125,4.50A0.25,0.25 0 0 0 24.875,4.50A0.25,0.25 0 0 0 24.125,4.50zM25.125,4.50A0.25,0.25 0 0 0 25.875,4.50A0.25,0.25 0 0 0 25.125,4.50zM26.125,4.50A0.25,0.25 0 0 0 26.875,4.50A0.25,0.25 0 0 0 26.125,4.50zM30.125,4.50A0.25,0.25 0 0 0 30.875,4.50A0.25,0.25 0 0 0 30.125,4.50zM34.125,4.50A0.25,0.25 0 0 0 34.875,4.50A0.25,0.25 0 0 0 34.125,4.50zM36,4H37V5H36zM38,4H39V5H38zM39,4H40V5H39zM40,4H41V5H40zM42,4H43V5H42zM2,5H3V6H2zM4,5H5V6H4zM5,5H6V6H5zM6,5H7V6H6zM8,5H9V6H8zM10.125,5.50A0.25,0.25 0 0 0 10.875,5.50A0.25,0.25 0 0 0 10.125,5.50zM12.125,5.50A0.25,0.25 0 0 0 12.875,5.50A0.25,0.25 0 0 0 12.125,5.50zM14.125,5.50A0.25,0.25 0 0 0 14.875,5.50A0.25,0.25 0 0 0 14.125,5.50zM16.125,5.50A0.25,0.25 0 0 0 16.875,5.50A0.25,0.25 0 0 0 16.125,5.50zM17.125,5.50A0.25,0.25 0 0 0 17.875,5.50A0.25,0.25 0 0 0 17.125,5.50zM20.125,5.50A0.25,0.25 0 0 0 20.875,5.50A0.25,0.25 0 0 0 20.125,5.50zM23.125,5.50A0.25,0.25 0 0 0 23.875,5.50A0.25,0.25 0 0 0 23.125,5.50zM24.125,5.50A0.25,0.25 0 0 0 24.875,5.50A0.25,0.25 0 0 0 24.125,5.50zM30.125,5.50A0.25,0.25 0 0 0 30.875,5.50A0.25,0.25 0 0 0 30.125,5.50zM32.125,5.50A0.25,0.25 0 0 0 32.875,5.50A0.25,0.25 0 0 0 32.125,5.50zM33.125,5.50A0.25,0.25 0 0 0 33.875,5.50A0.25,0.25 0 0 0 33.125,5.50zM34.125,5.50A0.25,0.25 0 0 0 34.875,5.50A0.25,0.25 0 0 0 34.125,5.50zM36,5H37V6H36zM38,5H39V6H38zM39,5H40V6H39zM40,5H41V6H40zM42,5H43V6H42zM2,6H3V7H2zM4,6H5V7H4zM5,6H6V7H5zM6,6H7V7H6zM8,6H9V7H8zM11.125,6.50A0.25,0.25 0 0 0 11.875,6.50A0.25,0.25 0 0 0 11.125,6.50zM12.125,6.50A0.25,0.25 0 0 0 12.875,6.50A0.25,0.25 0 0 0 12.125,6.50zM13.125,6.50A0.25,0.25 0 0 0 13.875,6.50A0.25,0.25 0 0 0 13.125,6.50zM16.125,6.50A0.25,0.25 0 0 0 16.875,6.50A0.25,0.25 0 0 0 16.125,6.50zM17.125,6.50A0.25,0.25 0 0 0 17.875,6.50A0.25,0.25 0 0 0 17.125,6.50zM19.125,6.50A0.25,0.25 0 0 0 19.875,6.50A0.25,0.25 0 0 0 19.125,6.50zM20.125,6.50A0.25,0.25 0 0 0 20.875,6.50A0.25,0.25 0 0 0 20.125,6.50zM22.125,6.50A0.25,0.25 0 0 0 22.875,6.50A0.25,0.25 0 0 0 22.125,6.50zM24.125,6.50A0.25,0.25 0 0 0 24.875,6.50A0.25,0.25 0 0 0 24.125,6.50zM26.125,6.50A0.25,0.25 0 0 0 26.875,6.50A0.25,0.25 0 0 0 26.125,6.50zM27.125,6.50A0.25,0.25 0 0 0 27.875,6.50A0.25,0.25 0 0 0 27.125,6.50zM28.125,6.50A0.25,0.25 0 0 0 28.875,6.50A0.25,0.25 0 0 0 28.125,6.50zM30.125,6.50A0.25,0.25 0 0 0 30.875,6.50A0.25,0.25 0 0 0 30.125,6.50zM31.125,6.50A0.25,0.25 0 0 0 31.875,6.50A0.25,0.25 0 0 0 31.125,6.50zM33.125,6.50A0.25,0.25 0 0 0 33.875,6.50A0.25,0.25 0 0 0 33.125,6.50zM36,6H37V7H36zM38,6H39V7H38zM39,6H40V7H39zM40,6H41V7H40zM42,6H43V7H42zM2,7H3V8H2zM8,7H9V8H8zM11.125,7.50A0.25,0.25 0 0 0 11.875,7.50A0.25,0.25 0 0 0 11.125,7.50zM12.125,7.50A0.25,0.25 0 0 0 12.875,7.50A0.25,0.25 0 0 0 12.125,7.50zM13.125,7.50A0.25,0.25 0 0 0 13.875,7.50A0.25,0.25 0 0 0 13.125,7.50zM14.125,7.50A0.25,0.25 0 0 0 14.875,7.50A0.25,0.25 0 0 0 14.125,7.50zM16.125,7.50A0.25,0.25 0 0 0 16.875,7.50A0.25,0.25 0 0 0 16.125,7.50zM17.125,7.50A0.25,0.25 0 0 0 17.875,7.50A0.25,0.25 0 0 0 17.125,7.50zM18.125,7.50A0.25,0.25 0 0 0 18.875,7.50A0.25,0.25 0 0 0 18.125,7.50zM19.125,7.50A0.25,0.25 0 0 0 19.875,7.50A0.25,0.25 0 0 0 19.125,7.50zM20.125,7.50A0.25,0.25 0 0 0 20.875,7.50A0.25,0.25 0 0 0 20.125,7.50zM21.125,7.50A0.25,0.25 0 0 0 21.875,7.50A0.25,0.25 0 0 0 21.125,7.50zM23.125,7.50A0.25,0.25 0 0 0 23.875,7.50A0.25,0.25 0 0 0 23.125,7.50zM27.125,7.50A0.25,0.25 0 0 0 27.875,7.50A0.25,0.25 0 0 0 27.125,7.50zM28.125,7.50A0.25,0.25 0 0 0 28.875,7.50A0.25,0.25 0 0 0 28.125,7.50zM31.125,7.50A0.25,0.25 0 0 0 31.875,7.50A0.25,0.25 0 0 0 31.125,7.50zM32.125,7.50A0.25,0.25 0 0 0 32.875,7.50A0.25,0.25 0 0 0 32.125,7.50zM36,7H37V8H36zM42,7H43V8H42zM2,8H3V9H2zM3,8H4V9H3zM4,8H5V9H4zM5,8H6V9H5zM6,8H7V9H6zM7,8H8V9H7zM8,8H9V9H8zM10.125,8.50A0.25,0.25 0 0 0 10.875,8.50A0.25,0.25 0 0 0 10.125,8.50zM12.125,8.50A0.25,0.25 0 0 0 12.875,8.50A0.25,0.25 0 0 0 12.125,8.50zM14.125,8.50A0.25,0.25 0 0 0 14.875,8.50A0.25,0.25 0 0 0 14.125,8.50zM16.125,8.50A0.25,0.25 0 0 0 16.875,8.50A0.25,0.25 0 0 0 16.125,8.50zM18.125,8.50A0.25,0.25 0 0 0 18.875,8.50A0.25,0.25 0 0 0 18.125,8.50zM20.125,8.50A0.25,0.25 0 0 0 20.875,8.50A0.25,0.25 0 0 0 20.125,8.50zM22.125,8.50A0.25,0.25 0 0 0 22.875,8.50A0.25,0.25 0 0 0 22.125,8.50zM24.125,8.50A0.25,0.25 0 0 0 24.875,8.50A0.25,0.25 0 0 0 24.125,8.50zM26.125,8.50A0.25,0.25 0 0 0 26.875,8.50A0.25,0.25 0 0 0 26.125,8.50zM28.125,8.50A0.25,0.25 0 0 0 28.875,8.50A0.25,0.25 0 0 0 28.125,8.50zM30.125,8.50A0.25,0.25 0 0 0 30.875,8.50A0.25,0.25 0 0 0 30.125,8.50zM32.125,8.50A0.25,0.25 0 0 0 32.875,8.50A0.25,0.25 0 0 0 32.125,8.50zM34.125,8.50A0.25,0.25 0 0 0 34.875,8.50A0.25,0.25 0 0 0 34.125,8.50zM36,8H37V9H36zM37,8H38V9H37zM38,8H39V9H38zM39,8H40V9H39zM40,8H41V9H40zM41,8H42V9H41zM42,8H43V9H42zM11.125,9.50A0.25,0.25 0 0 0 11.875,9.50A0.25,0.25 0 0 0 11.125,9.50zM12.125,9.50A0.25,0.25 0 0 0 12.875,9.50A0.25,0.25 0 0 0 12.125,9.50zM14.125,9.50A0.25,0.25 0 0 0 14.875,9.50A0.25,0.25 0 0 0 14.125,9.50zM15.125,9.50A0.25,0.25 0 0 0 15.875,9.50A0.25,0.25 0 0 0 15.125,9.50zM17.125,9.50A0.25,0.25 0 0 0 17.875,9.50A0.25,0.25 0 0 0 17.125,9.50zM18.125,9.50A0.25,0.25 0 0 0 18.875,9.50A0.25,0.25 0 0 0 18.125,9.50zM20.125,9.50A0.25,0.25 0 0 0 20.875,9.50A0.25,0.25 0 0 0 20.125,9.50zM21.125,9.50A0.25,0.25 0 0 0 21.875,9.50A0.25,0.25 0 0 0 21.125,9.50zM23.125,9.50A0.25,0.25 0 0 0 23.875,9.50A0.25,0.25 0 0 0 23.125,9.50zM25.125,9.50A0.25,0.25 0 0 0 25.875,9.50A0.25,0.25 0 0 0 25.125,9.50zM27.125,9.50A0.25,0.25 0 0 0 27.875,9.50A0.25,0.25 0 0 0 27.125,9.50zM28.125,9.50A0.25,0.25 0 0 0 28.875,9.50A0.25,0.25 0 0 0 28.125,9.50zM33.125,9.50A0.25,0.25 0 0 0 33.875,9.50A0.25,0.25 0 0 0 33.125,9.50zM5.125,10.50A0.25,0.25 0 0 0 5.875,10.50A0.25,0.25 0 0 0 5.125,10.50zM6.125,10.50A0.25,0.25 0 0 0 6.875,10.50A0.25,0.25 0 0 0 6.125,10.50zM8.125,10.50A0.25,0.25 0 0 0 8.875,10.50A0.25,0.25 0 0 0 8.125,10.50zM9.125,10.50A0.25,0.25 0 0 0 9.875,10.50A0.25,0.25 0 0 0 9.125,10.50zM14.125,10.50A0.25,0.25 0 0 0 14.875,10.50A0.25,0.25 0 0 0 14.125,10.50zM15.125,10.50A0.25,0.25 0 0 0 15.875,10.50A0.25,0.25 0 0 0 15.125,10.50zM16.125,10.50A0.25,0.25 0 0 0 16.875,10.50A0.25,0.25 0 0 0 16.125,10.50zM17.125,10.50A0.25,0.25 0 0 0 17.875,10.50A0.25,0.25 0 0 0 17.125,10.50zM19.125,10.50A0.25,0.25 0 0 0 19.875,10.50A0.25,0.25 0 0 0 19.125,10.50zM22.125,10.50A0.25,0.25 0 0 0 22.875,10.50A0.25,0.25 0 0 0 22.125,10.50zM23.125,10.50A0.25,0.25 0 0 0 23.875,10.50A0.25,0.25 0 0 0 23.125,10.50zM24.125,10.50A0.25,0.25 0 0 0 24.875,10.50A0.25,0.25 0 0 0 24.125,10.50zM26.125,10.50A0.25,0.25 0 0 0 26.875,10.50A0.25,0.25 0 0 0 26.125,10.50zM27.125,10.50A0.25,0.25 0 0 0 27.875,10.50A0.25,0.25 0 0 0 27.125,10.50zM31.125,10.50A0.25,0.25 0 0 0 31.875,10.50A0.25,0.25 0 0 0 31.125,10.50zM33.125,10.50A0.25,0.25 0 0 0 33.875,10.50A0.25,0.25 0 0 0 33.125,10.50zM39.125,10.50A0.25,0.25 0 0 0 39.875,10.50A0.25,0.25 0 0 0 39.125,10.50zM40.125,10.50A0.25,0.25 0 0 0 40.875,10.50A0.25,0.25 0 0 0 40.125,10.50zM2.125,11.50A0.25,0.25 0 0 0 2.875,11.50A0.25,0.25 0 0 0 2.125,11.50zM4.125,11.50A0.25,0.25 0 0 0 4.875,11.50A0.25,0.25 0 0 0 4.125,11.50zM5.125,11.50A0.25,0.25 0 0 0 5.875,11.50A0.25,0.25 0 0 0 5.125,11.50zM6.125,11.50A0.25,0.25 0 0 0 6.875,11.50A0.25,0.25 0 0 0 6.125,11.50zM7.125,11.50A0.25,0.25 0 0 0 7.875,11.50A0.25,0.25 0 0 0 7.125,11.50zM11.125,11.50A0.25,0.25 0 0 0 11.875,11.50A0.25,0.25 0 0 0 11.125,11.50zM13.125,11.50A0.25,0.25 0 0 0 13.875,11.50A0.25,0.25 0 0 0 13.125,11.50zM16.125,11.50A0.25,0.25 0 0 0 16.875,11.50A0.25,0.25 0 0 0 16.125,11.50zM17.125,11.50A0.25,0.25 0 0 0 17.875,11.50A0.25,0.25 0 0 0 17.125,11.50zM20.125,11.50A0.25,0.25 0 0 0 20.875,11.50A0.25,0.25 0 0 0 20.125,11.50zM22.125,11.50A0.25,0.25 0 0 0 22.875,11.50A0.25,0.25 0 0 0 22.125,11.50zM24.125,11.50A0.25,0.25 0 0 0 24.875,11.50A0.25,0.25 0 0 0 24.125,11.50zM25.125,11.50A0.25,0.25 0 0 0 25.875,11.50A0.25,0.25 0 0 0 25.125,11.50zM27.125,11.50A0.25,0.25 0 0 0 27.875,11.50A0.25,0.25 0 0 0 27.125,11.50zM28.125,11.50A0.25,0.25 0 0 0 28.875,11.50A0.25,0.25 0 0 0 28.125,11.50zM29.125,11.50A0.25,0.25 0 0 0 29.875,11.50A0.25,0.25 0 0 0 29.125,11.50zM31.125,11.50A0.25,0.25 0 0 0 31.875,11.50A0.25,0.25 0 0 0 31.125,11.50zM33.125,11.50A0.25,0.25 0 0 0 33.875,11.50A0.25,0.25 0 0 0 33.125,11.50zM37.125,11.50A0.25,0.25 0 0 0 37.875,11.50A0.25,0.25 0 0 0 37.125,11.50zM38.125,11.50A0.25,0.25 0 0 0 38.875,11.50A0.25,0.25 0 0 0 38.125,11.50zM5.125,12.50A0.25,0.25 0 0 0 5.875,12.50A0.25,0.25 0 0 0 5.125,12.50zM7.125,12.50A0.25,0.25 0 0 0 7.875,12.50A0.25,0.25 0 0 0 7.125,12.50zM8.125,12.50A0.25,0.25 0 0 0 8.875,12.50A0.25,0.25 0 0 0 8.125,12.50zM10.125,12.50A0.25,0.25 0 0 0 10.875,12.50A0.25,0.25 0 0 0 10.125,12.50zM11.125,12.50A0.25,0.25 0 0 0 11.875,12.50A0.25,0.25 0 0 0 11.125,12.50zM14.125,12.50A0.25,0.25 0 0 0 14.875,12.50A0.25,0.25 0 0 0 14.125,12.50zM17.125,12.50A0.25,0.25 0 0 0 17.875,12.50A0.25,0.25 0 0 0 17.125,12.50zM18.125,12.50A0.25,0.25 0 0 0 18.875,12.50A0.25,0.25 0 0 0 18.125,12.50zM19.125,12.50A0.25,0.25 0 0 0 19.875,12.50A0.25,0.25 0 0 0 19.125,12.50zM23.125,12.50A0.25,0.25 0 0 0 23.875,12.50A0.25,0.25 0 0 0 23.125,12.50zM24.125,12.50A0.25,0.25 0 0 0 24.875,12.50A0.25,0.25 0 0 0 24.125,12.50zM28.125,12.50A0.25,0.25 0 0 0 28.875,12.50A0.25,0.25 0 0 0 28.125,12.50zM29.125,12.50A0.25,0.25 0 0 0 29.875,12.50A0.25,0.25 0 0 0 29.125,12.50zM30.125,12.50A0.25,0.25 0 0 0 30.875,12.50A0.25,0.25 0 0 0 30.125,12.50zM31.125,12.50A0.25,0.25 0 0 0 31.875,12.50A0.25,0.25 0 0 0 31.125,12.50zM32.125,12.50A0.25,0.25 0 0 0 32.875,12.50A0.25,0.25 0 0 0 32.125,12.50zM35.125,12.50A0.25,0.25 0 0 0 35.875,12.50A0.25,0.25 0 0 0 35.125,12.50zM38.125,12.50A0.25,0.25 0 0 0 38.875,12.50A0.25,0.25 0 0 0 38.125,12.50zM40.125,12.50A0.25,0.25 0 0 0 40.875,12.50A0.25,0.25 0 0 0 40.125,12.50zM41.125,12.50A0.25,0.25 0 0 0 41.875,12.50A0.25,0.25 0 0 0 41.125,12.50zM7.125,13.50A0.25,0.25 0 0 0 7.875,13.50A0.25,0.25 0 0 0 7.125,13.50zM11.125,13.50A0.25,0.25 0 0 0 11.875,13.50A0.25,0.25 0 0 0 11.125,13.50zM12.125,13.50A0.25,0.25 0 0 0 12.875,13.50A0.25,0.25 0 0 0 12.125,13.50zM13.125,13.50A0.25,0.25 0 0 0 13.875,13.50A0.25,0.25 0 0 0 13.125,13.50zM15.125,13.50A0.25,0.25 0 0 0 15.875,13.50A0.25,0.25 0 0 0 15.125,13.50zM16.125,13.50A0.25,0.25 0 0 0 16.875,13.50A0.25,0.25 0 0 0 16.125,13.50zM17.125,13.50A0.25,0.25 0 0 0 17.875,13.50A0.25,0.25 0 0 0 17.125,13.50zM18.125,13.50A0.25,0.25 0 0 0 18.875,13.50A0.25,0.25 0 0 0 18.125,13.50zM20.125,13.50A0.25,0.25 0 0 0 20.875,13.50A0.25,0.25 0 0 0 20.125,13.50zM21.125,13.50A0.25,0.25 0 0 0 21.875,13.50A0.25,0.25 0 0 0 21.125,13.50zM23.125,13.50A0.25,0.25 0 0 0 23.875,13.50A0.25,0.25 0 0 0 23.125,13.50zM25.125,13.50A0.25,0.25 0 0 0 25.875,13.50A0.25,0.25 0 0 0 25.125,13.50zM27.125,13.50A0.25,0.25 0 0 0 27.875,13.50A0.25,0.25 0 0 0 27.125,13.50zM28.125,13.50A0.25,0.25 0 0 0 28.875,13.50A0.25,0.25 0 0 0 28.125,13.50zM29.125,13.50A0.25,0.25 0 0 0 29.875,13.50A0.25,0.25 0 0 0 29.125,13.50zM31.125,13.50A0.25,0.25 0 0 0 31.875,13.50A0.25,0.25 0 0 0 31.125,13.50zM32.125,13.50A0.25,0.25 0 0 0 32.875,13.50A0.25,0.25 0 0 0 32.125,13.50zM33.125,13.50A0.25,0.25 0 0 0 33.875,13.50A0.25,0.25 0 0 0 33.125,13.50zM34.125,13.50A0.25,0.25 0 0 0 34.875,13.50A0.25,0.25 0 0 0 34.125,13.50zM38.125,13.50A0.25,0.25 0 0 0 38.875,13.50A0.25,0.25 0 0 0 38.125,13.50zM39.125,13.50A0.25,0.25 0 0 0 39.875,13.50A0.25,0.25 0 0 0 39.125,13.50zM42.125,13.50A0.25,0.25 0 0 0 42.875,13.50A0.25,0.25 0 0 0 42.125,13.50zM2.125,14.50A0.25,0.25 0 0 0 2.875,14.50A0.25,0.25 0 0 0 2.125,14.50zM3.125,14.50A0.25,0.25 0 0 0 3.875,14.50A0.25,0.25 0 0 0 3.125,14.50zM4.125,14.50A0.25,0.25 0 0 0 4.875,14.50A0.25,0.25 0 0 0 4.125,14.50zM5.125,14.50A0.25,0.25 0 0 0 5.875,14.50A0.25,0.25 0 0 0 5.125,14.50zM6.125,14.50A0.25,0.25 0 0 0 6.875,14.50A0.25,0.25 0 0 0 6.125,14.50zM8.125,14.50A0.25,0.25 0 0 0 8.875,14.50A0.25,0.25 0 0 0 8.125,14.50zM9.125,14.50A0.25,0.25 0 0 0 9.875,14.50A0.25,0.25 0 0 0 9.125,14.50zM12.125,14.50A0.25,0.25 0 0 0 12.875,14.50A0.25,0.25 0 0 0 12.125,14.50zM14.125,14.50A0.25,0.25 0 0 0 14.875,14.50A0.25,0.25 0 0 0 14.125,14.50zM15.125,14.50A0.25,0.25 0 0 0 15.875,14.50A0.25,0.25 0 0 0 15.125,14.50zM17.125,14.50A0.25,0.25 0 0 0 17.875,14.50A0.25,0.25 0 0 0 17.125,14.50zM19.125,14.50A0.25,0.25 0 0 0 19.875,14.50A0.25,0.25 0 0 0 19.125,14.50zM20.125,14.50A0.25,0.25 0 0 0 20.875,14.50A0.25,0.25 0 0 0 20.125,14.50zM21.125,14.50A0.25,0.25 0 0 0 21.875,14.50A0.25,0.25 0 0 0 21.125,14.50zM23.125,14.50A0.25,0.25 0 0 0 23.875,14.50A0.25,0.25 0 0 0 23.125,14.50zM24.125,14.50A0.25,0.25 0 0 0 24.875,14.50A0.25,0.25 0 0 0 24.125,14.50zM25.125,14.50A0.25,0.25 0 0 0 25.875,14.50A0.25,0.25 0 0 0 25.125,14.50zM26.125,14.50A0.25,0.25 0 0 0 26.875,14.50A0.25,0.25 0 0 0 26.125,14.50zM28.125,14.50A0.25,0.25 0 0 0 28.875,14.50A0.25,0.25 0 0 0 28.125,14.50zM29.125,14.50A0.25,0.25 0 0 0 29.875,14.50A0.25,0.25 0 0 0 29.125,14.50zM34.125,14.50A0.25,0.25 0 0 0 34.875,14.50A0.25,0.25 0 0 0 34.125,14.50zM35.125,14.50A0.25,0.25 0 0 0 35.875,14.50A0.25,0.25 0 0 0 35.125,14.50zM36.125,14.50A0.25,0.25 0 0 0 36.875,14.50A0.25,0.25 0 0 0 36.125,14.50zM37.125,14.50A0.25,0.25 0 0 0 37.875,14.50A0.25,0.25 0 0 0 37.125,14.50zM42.125,14.50A0.25,0.25 0 0 0 42.875,14.50A0.25,0.25 0 0 0 42.125,14.50zM3.125,15.50A0.25,0.25 0 0 0 3.875,15.50A0.25,0.25 0 0 0 3.125,15.50zM6.125,15.50A0.25,0.25 0 0 0 6.875,15.50A0.25,0.25 0 0 0 6.125,15.50zM12.125,15.50A0.25,0.25 0 0 0 12.875,15.50A0.25,0.25 0 0 0 12.125,15.50zM13.125,15.50A0.25,0.25 0 0 0 13.875,15.50A0.25,0.25 0 0 0 13.125,15.50zM16.125,15.50A0.25,0.25 0 0 0 16.875,15.50A0.25,0.25 0 0 0 16.125,15.50zM17.125,15.50A0.25,0.25 0 0 0 17.875,15.50A0.25,0.25 0 0 0 17.125,15.50zM18.125,15.50A0.25,0.25 0 0 0 18.875,15.50A0.25,0.25 0 0 0 18.125,15.50zM20.125,15.50A0.25,0.25 0 0 0 20.875,15.50A0.25,0.25 0 0 0 20.125,15.50zM21.125,15.50A0.25,0.25 0 0 0 21.875,15.50A0.25,0.25 0 0 0 21.125,15.50zM22.125,15.50A0.25,0.25 0 0 0 22.875,15.50A0.25,0.25 0 0 0 22.125,15.50zM23.125,15.50A0.25,0.25 0 0 0 23.875,15.50A0.25,0.25 0 0 0 23.125,15.50zM25.125,15.50A0.25,0.25 0 0 0 25.875,15.50A0.25,0.25 0 0 0 25.125,15.50zM26.125,15.50A0.25,0.25 0 0 0 26.875,15.50A0.25,0.25 0 0 0 26.125,15.50zM33.125,15.50A0.25,0.25 0 0 0 33.875,15.50A0.25,0.25 0 0 0 33.125,15.50zM35.125,15.50A0.25,0.25 0 0 0 35.875,15.50A0.25,0.25 0 0 0 35.125,15.50zM36.125,15.50A0.25,0.25 0 0 0 36.875,15.50A0.25,0.25 0 0 0 36.125,15.50zM38.125,15.50A0.25,0.25 0 0 0 38.875,15.50A0.25,0.25 0 0 0 38.125,15.50zM39.125,15.50A0.25,0.25 0 0 0 39.875,15.50A0.25,0.25 0 0 0 39.125,15.50zM40.125,15.50A0.25,0.25 0 0 0 40.875,15.50A0.25,0.25 0 0 0 40.125,15.50zM42.125,15.50A0.25,0.25 0 0 0 42.875,15.50A0.25,0.25 0 0 0 42.125,15.50zM2.125,16.50A0.25,0.25 0 0 0 2.875,16.50A0.25,0.25 0 0 0 2.125,16.50zM4.125,16.50A0.25,0.25 0 0 0 4.875,16.50A0.25,0.25 0 0 0 4.125,16.50zM5.125,16.50A0.25,0.25 0 0 0 5.875,16.50A0.25,0.25 0 0 0 5.125,16.50zM7.125,16.50A0.25,0.25 0 0 0 7.875,16.50A0.25,0.25 0 0 0 7.125,16.50zM8.125,16.50A0.25,0.25 0 0 0 8.875,16.50A0.25,0.25 0 0 0 8.125,16.50zM9.125,16.50A0.25,0.25 0 0 0 9.875,16.50A0.25,0.25 0 0 0 9.125,16.50zM10.125,16.50A0.25,0.25 0 0 0 10.875,16.50A0.25,0.25 0 0 0 10.125,16.50zM11.125,16.50A0.25,0.25 0 0 0 11.875,16.50A0.25,0.25 0 0 0 11.125,16.50zM13.125,16.50A0.25,0.25 0 0 0 13.875,16.50A0.25,0.25 0 0 0 13.125,16.50zM17.125,16.50A0.25,0.25 0 0 0 17.875,16.50A0.25,0.25 0 0 0 17.125,16.50zM20.125,16.50A0.25,0.25 0 0 0 20.875,16.50A0.25,0.25 0 0 0 20.125,16.50zM21.125,16.50A0.25,0.25 0 0 0 21.875,16.50A0.25,0.25 0 0 0 21.125,16.50zM23.125,16.50A0.25,0.25 0 0 0 23.875,16.50A0.25,0.25 0 0 0 23.125,16.50zM24.125,16.50A0.25,0.25 0 0 0 24.875,16.50A0.25,0.25 0 0 0 24.125,16.50zM26.125,16.50A0.25,0.25 0 0 0 26.875,16.50A0.25,0.25 0 0 0 26.125,16.50zM27.125,16.50A0.25,0.25 0 0 0 27.875,16.50A0.25,0.25 0 0 0 27.125,16.50zM28.125,16.50A0.25,0.25 0 0 0 28.875,16.50A0.25,0.25 0 0 0 28.125,16.50zM29.125,16.50A0.25,0.25 0 0 0 29.875,16.50A0.25,0.25 0 0 0 29.125,16.50zM31.125,16.50A0.25,0.25 0 0 0 31.875,16.50A0.25,0.25 0 0 0 31.125,16.50zM35.125,16.50A0.25,0.25 0 0 0 35.875,16.50A0.25,0.25 0 0 0 35.125,16.50zM36.125,16.50A0.25,0.25 0 0 0 36.875,16.50A0.25,0.25 0 0 0 36.125,16.50zM39.125,16.50A0.25,0.25 0 0 0 39.875,16.50A0.25,0.25 0 0 0 39.125,16.50zM40.125,16.50A0.25,0.25 0 0 0 40.875,16.50A0.25,0.25 0 0 0 40.125,16.50zM42.125,16.50A0.25,0.25 0 0 0 42.875,16.50A0.25,0.25 0 0 0 42.125,16.50zM4.125,17.50A0.25,0.25 0 0 0 4.875,17.50A0.25,0.25 0 0 0 4.125,17.50zM7.125,17.50A0.25,0.25 0 0 0 7.875,17.50A0.25,0.25 0 0 0 7.125,17.50zM10.125,17.50A0.25,0.25 0 0 0 10.875,17.50A0.25,0.25 0 0 0 10.125,17.50zM11.125,17.50A0.25,0.25 0 0 0 11.875,17.50A0.25,0.25 0 0 0 11.125,17.50zM14.125,17.50A0.25,0.25 0 0 0 14.875,17.50A0.25,0.25 0 0 0 14.125,17.50zM17.125,17.50A0.25,0.25 0 0 0 17.875,17.50A0.25,0.25 0 0 0 17.125,17.50zM19.125,17.50A0.25,0.25 0 0 0 19.875,17.50A0.25,0.25 0 0 0 19.125,17.50zM20.125,17.50A0.25,0.25 0 0 0 20.875,17.50A0.25,0.25 0 0 0 20.125,17.50zM22.125,17.50A0.25,0.25 0 0 0 22.875,17.50A0.25,0.25 0 0 0 22.125,17.50zM24.125,17.50A0.25,0.25 0 0 0 24.875,17.50A0.25,0.25 0 0 0 24.125,17.50zM27.125,17.50A0.25,0.25 0 0 0 27.875,17.50A0.25,0.25 0 0 0 27.125,17.50zM30.125,17.50A0.25,0.25 0 0 0 30.875,17.50A0.25,0.25 0 0 0 30.125,17.50zM33.125,17.50A0.25,0.25 0 0 0 33.875,17.50A0.25,0.25 0 0 0 33.125,17.50zM35.125,17.50A0.25,0.25 0 0 0 35.875,17.50A0.25,0.25 0 0 0 35.125,17.50zM37.125,17.50A0.25,0.25 0 0 0 37.875,17.50A0.25,0.25 0 0 0 37.125,17.50zM39.125,17.50A0.25,0.25 0 0 0 39.875,17.50A0.25,0.25 0 0 0 39.125,17.50zM40.125,17.50A0.25,0.25 0 0 0 40.875,17.50A0.25,0.25 0 0 0 40.125,17.50zM41.125,17.50A0.25,0.25 0 0 0 41.875,17.50A0.25,0.25 0 0 0 41.125,17.50zM2.125,18.50A0.25,0.25 0 0 0 2.875,18.50A0.25,0.25 0 0 0 2.125,18.50zM3.125,18.50A0.25,0.25 0 0 0 3.875,18.50A0.25,0.25 0 0 0 3.125,18.50zM4.125,18.50A0.25,0.25 0 0 0 4.875,18.50A0.25,0.25 0 0 0 4.125,18.50zM7.125,18.50A0.25,0.25 0 0 0 7.875,18.50A0.25,0.25 0 0 0 7.125,18.50zM8.125,18.50A0.25,0.25 0 0 0 8.875,18.50A0.25,0.25 0 0 0 8.125,18.50zM10.125,18.50A0.25,0.25 0 0 0 10.875,18.50A0.25,0.25 0 0 0 10.125,18.50zM11.125,18.50A0.25,0.25 0 0 0 11.875,18.50A0.25,0.25 0 0 0 11.125,18.50zM12.125,18.50A0.25,0.25 0 0 0 12.875,18.50A0.25,0.25 0 0 0 12.125,18.50zM15.125,18.50A0.25,0.25 0 0 0 15.875,18.50A0.25,0.25 0 0 0 15.125,18.50zM19.125,18.50A0.25,0.25 0 0 0 19.875,18.50A0.25,0.25 0 0 0 19.125,18.50zM21.125,18.50A0.25,0.25 0 0 0 21.875,18.50A0.25,0.25 0 0 0 21.125,18.50zM22.125,18.50A0.25,0.25 0 0 0 22.875,18.50A0.25,0.25 0 0 0 22.125,18.50zM23.125,18.50A0.25,0.25 0 0 0 23.875,18.50A0.25,0.25 0 0 0 23.125,18.50zM25.125,18.50A0.25,0.25 0 0 0 25.875,18.50A0.25,0.25 0 0 0 25.125,18.50zM26.125,18.50A0.25,0.25 0 0 0 26.875,18.50A0.25,0.25 0 0 0 26.125,18.50zM27.125,18.50A0.25,0.25 0 0 0 27.875,18.50A0.25,0.25 0 0 0 27.125,18.50zM29.125,18.50A0.25,0.25 0 0 0 29.875,18.50A0.25,0.25 0 0 0 29.125,18.50zM30.125,18.50A0.25,0.25 0 0 0 30.875,18.50A0.25,0.25 0 0 0 30.125,18.50zM32.125,18.50A0.25,0.25 0 0 0 32.875,18.50A0.25,0.25 0 0 0 32.125,18.50zM33.125,18.50A0.25,0.25 0 0 0 33.875,18.50A0.25,0.25 0 0 0 33.125,18.50zM34.125,18.50A0.25,0.25 0 0 0 34.875,18.50A0.25,0.25 0 0 0 34.125,18.50zM35.125,18.50A0.25,0.25 0 0 0 35.875,18.50A0.25,0.25 0 0 0 35.125,18.50zM39.125,18.50A0.25,0.25 0 0 0 39.875,18.50A0.25,0.25 0 0 0 39.125,18.50zM42.125,18.50A0.25,0.25 0 0 0 42.875,18.50A0.25,0.25 0 0 0 42.125,18.50zM3.125,19.50A0.25,0.25 0 0 0 3.875,19.50A0.25,0.25 0 0 0 3.125,19.50zM4.125,19.50A0.25,0.25 0 0 0 4.875,19.50A0.25,0.25 0 0 0 4.125,19.50zM7.125,19.50A0.25,0.25 0 0 0 7.875,19.50A0.25,0.25 0 0 0 7.125,19.50zM13.125,19.50A0.25,0.25 0 0 0 13.875,19.50A0.25,0.25 0 0 0 13.125,19.50zM16.125,19.50A0.25,0.25 0 0 0 16.875,19.50A0.25,0.25 0 0 0 16.125,19.50zM17.125,19.50A0.25,0.25 0 0 0 17.875,19.50A0.25,0.25 0 0 0 17.125,19.50zM18.125,19.50A0.25,0.25 0 0 0 18.875,19.50A0.25,0.25 0 0 0 18.125,19.50zM22.125,19.50A0.25,0.25 0 0 0 22.875,19.50A0.25,0.25 0 0 0 22.125,19.50zM24.125,19.50A0.25,0.25 0 0 0 24.875,19.50A0.25,0.25 0 0 0 24.125,19.50zM25.125,19.50A0.25,0.25 0 0 0 25.875,19.50A0.25,0.25 0 0 0 25.125,19.50zM26.125,19.50A0.25,0.25 0 0 0 26.875,19.50A0.25,0.25 0 0 0 26.125,19.50zM27.125,19.50A0.25,0.25 0 0 0 27.875,19.50A0.25,0.25 0 0 0 27.125,19.50zM28.125,19.50A0.25,0.25 0 0 0 28.875,19.50A0.25,0.25 0 0 0 28.125,19.50zM29.125,19.50A0.25,0.25 0 0 0 29.875,19.50A0.25,0.25 0 0 0 29.125,19.50zM32.125,19.50A0.25,0.25 0 0 0 32.875,19.50A0.25,0.25 0 0 0 32.125,19.50zM33.125,19.50A0.25,0.25 0 0 0 33.875,19.50A0.25,0.25 0 0 0 33.125,19.50zM34.125,19.50A0.25,0.25 0 0 0 34.875,19.50A0.25,0.25 0 0 0 34.125,19.50zM35.125,19.50A0.25,0.25 0 0 0 35.875,19.50A0.25,0.25 0 0 0 35.125,19.50zM38.125,19.50A0.25,0.25 0 0 0 38.875,19.50A0.25,0.25 0 0 0 38.125,19.50zM39.125,19.50A0.25,0.25 0 0 0 39.875,19.50A0.25,0.25 0 0 0 39.125,19.50zM40.125,19.50A0.25,0.25 0 0 0 40.875,19.50A0.25,0.25 0 0 0 40.125,19.50zM41.125,19.50A0.25,0.25 0 0 0 41.875,19.50A0.25,0.25 0 0 0 41.125,19.50zM3.125,20.50A0.25,0.25 0 0 0 3.875,20.50A0.25,0.25 0 0 0 3.125,20.50zM5.125,20.50A0.25,0.25 0 0 0 5.875,20.50A0.25,0.25 0 0 0 5.125,20.50zM6.125,20.50A0.25,0.25 0 0 0 6.875,20.50A0.25,0.25 0 0 0 6.125,20.50zM8.125,20.50A0.25,0.25 0 0 0 8.875,20.50A0.25,0.25 0 0 0 8.125,20.50zM9.125,20.50A0.25,0.25 0 0 0 9.875,20.50A0.25,0.25 0 0 0 9.125,20.50zM10.125,20.50A0.25,0.25 0 0 0 10.875,20.50A0.25,0.25 0 0 0 10.125,20.50zM14.125,20.50A0.25,0.25 0 0 0 14.875,20.50A0.25,0.25 0 0 0 14.125,20.50zM16.125,20.50A0.25,0.25 0 0 0 16.875,20.50A0.25,0.25 0 0 0 16.125,20.50zM17.125,20.50A0.25,0.25 0 0 0 17.875,20.50A0.25,0.25 0 0 0 17.125,20.50zM19.125,20.50A0.25,0.25 0 0 0 19.875,20.50A0.25,0.25 0 0 0 19.125,20.50zM22.125,20.50A0.25,0.25 0 0 0 22.875,20.50A0.25,0.25 0 0 0 22.125,20.50zM24.125,20.50A0.25,0.25 0 0 0 24.875,20.50A0.25,0.25 0 0 0 24.125,20.50zM27.125,20.50A0.25,0.25 0 0 0 27.875,20.50A0.25,0.25 0 0 0 27.125,20.50zM28.125,20.50A0.25,0.25 0 0 0 28.875,20.50A0.25,0.25 0 0 0 28.125,20.50zM29.125,20.50A0.25,0.25 0 0 0 29.875,20.50A0.25,0.25 0 0 0 29.125,20.50zM33.125,20.50A0.25,0.25 0 0 0 33.875,20.50A0.25,0.25 0 0 0 33.125,20.50zM37.125,20.50A0.25,0.25 0 0 0 37.875,20.50A0.25,0.25 0 0 0 37.125,20.50zM38.125,20.50A0.25,0.25 0 0 0 38.875,20.50A0.25,0.25 0 0 0 38.125,20.50zM40.125,20.50A0.25,0.25 0 0 0 40.875,20.50A0.25,0.25 0 0 0 40.125,20.50zM42.125,20.50A0.25,0.25 0 0 0 42.875,20.50A0.25,0.25 0 0 0 42.125,20.50zM2.125,21.50A0.25,0.25 0 0 0 2.875,21.50A0.25,0.25 0 0 0 2.125,21.50zM4.125,21.50A0.25,0.25 0 0 0 4.875,21.50A0.25,0.25 0 0 0 4.125,21.50zM5.125,21.50A0.25,0.25 0 0 0 5.875,21.50A0.25,0.25 0 0 0 5.125,21.50zM6.125,21.50A0.25,0.25 0 0 0 6.875,21.50A0.25,0.25 0 0 0 6.125,21.50zM7.125,21.50A0.25,0.25 0 0 0 7.875,21.50A0.25,0.25 0 0 0 7.125,21.50zM9.125,21.50A0.25,0.25 0 0 0 9.875,21.50A0.25,0.25 0 0 0 9.125,21.50zM12.125,21.50A0.25,0.25 0 0 0 12.875,21.50A0.25,0.25 0 0 0 12.125,21.50zM13.125,21.50A0.25,0.25 0 0 0 13.875,21.50A0.25,0.25 0 0 0 13.125,21.50zM17.125,21.50A0.25,0.25 0 0 0 17.875,21.50A0.25,0.25 0 0 0 17.125,21.50zM20.125,21.50A0.25,0.25 0 0 0 20.875,21.50A0.25,0.25 0 0 0 20.125,21.50zM26.125,21.50A0.25,0.25 0 0 0 26.875,21.50A0.25,0.25 0 0 0 26.125,21.50zM29.125,21.50A0.25,0.25 0 0 0 29.875,21.50A0.25,0.25 0 0 0 29.125,21.50zM30.125,21.50A0.25,0.25 0 0 0 30.875,21.50A0.25,0.25 0 0 0 30.125,21.50zM31.125,21.50A0.25,0.25 0 0 0 31.875,21.50A0.25,0.25 0 0 0 31.125,21.50zM32.125,21.50A0.25,0.25 0 0 0 32.875,21.50A0.25,0.25 0 0 0 32.125,21.50zM33.125,21.50A0.25,0.25 0 0 0 33.875,21.50A0.25,0.25 0 0 0 33.125,21.50zM34.125,21.50A0.25,0.25 0 0 0 34.875,21.50A0.25,0.25 0 0 0 34.125,21.50zM36.125,21.50A0.25,0.25 0 0 0 36.875,21.50A0.25,0.25 0 0 0 36.125,21.50zM38.125,21.50A0.25,0.25 0 0 0 38.875,21.50A0.25,0.25 0 0 0 38.125,21.50zM40.125,21.50A0.25,0.25 0 0 0 40.875,21.50A0.25,0.25 0 0 0 40.125,21.50zM41.125,21.50A0.25,0.25 0 0 0 41.875,21.50A0.25,0.25 0 0 0 41.125,21.50zM42.125,21.50A0.25,0.25 0 0 0 42.875,21.50A0.25,0.25 0 0 0 42.125,21.50zM2.125,22.50A0.25,0.25 0 0 0 2.875,22.50A0.25,0.25 0 0 0 2.125,22.50zM3.125,22.50A0.25,0.25 0 0 0 3.875,22.50A0.25,0.25 0 0 0 3.125,22.50zM5.125,22.50A0.25,0.25 0 0 0 5.875,22.50A0.25,0.25 0 0 0 5.125,22.50zM7.125,22.50A0.25,0.25 0 0 0 7.875,22.50A0.25,0.25 0 0 0 7.125,22.50zM8.125,22.50A0.25,0.25 0 0 0 8.875,22.50A0.25,0.25 0 0 0 8.125,22.50zM12.125,22.50A0.25,0.25 0 0 0 12.875,22.50A0.25,0.25 0 0 0 12.125,22.50zM13.125,22.50A0.25,0.25 0 0 0 13.875,22.50A0.25,0.25 0 0 0 13.125,22.50zM14.125,22.50A0.25,0.25 0 0 0 14.875,22.50A0.25,0.25 0 0 0 14.125,22.50zM16.125,22.50A0.25,0.25 0 0 0 16.875,22.50A0.25,0.25 0 0 0 16.125,22.50zM17.125,22.50A0.25,0.25 0 0 0 17.875,22.50A0.25,0.25 0 0 0 17.125,22.50zM21.125,22.50A0.25,0.25 0 0 0 21.875,22.50A0.25,0.25 0 0 0 21.125,22.50zM22.125,22.50A0.25,0.25 0 0 0 22.875,22.50A0.25,0.25 0 0 0 22.125,22.50zM24.125,22.50A0.25,0.25 0 0 0 24.875,22.50A0.25,0.25 0 0 0 24.125,22.50zM25.125,22.50A0.25,0.25 0 0 0 25.875,22.50A0.25,0.25 0 0 0 25.125,22.50zM27.125,22.50A0.25,0.25 0 0 0 27.875,22.50A0.25,0.25 0 0 0 27.125,22.50zM28.125,22.50A0.25,0.25 0 0 0 28.875,22.50A0.25,0.25 0 0 0 28.125,22.50zM30.125,22.50A0.25,0.25 0 0 0 30.875,22.50A0.25,0.25 0 0 0 30.125,22.50zM34.125,22.50A0.25,0.25 0 0 0 34.875,22.50A0.25,0.25 0 0 0 34.125,22.50zM36.125,22.50A0.25,0.25 0 0 0 36.875,22.50A0.25,0.25 0 0 0 36.125,22.50zM37.125,22.50A0.25,0.25 0 0 0 37.875,22.50A0.25,0.25 0 0 0 37.125,22.50zM39.125,22.50A0.25,0.25 0 0 0 39.875,22.50A0.25,0.25 0 0 0 39.125,22.50zM40.125,22.50A0.25,0.25 0 0 0 40.875,22.50A0.25,0.25 0 0 0 40.125,22.50zM2.125,23.50A0.25,0.25 0 0 0 2.875,23.50A0.25,0.25 0 0 0 2.125,23.50zM3.125,23.50A0.25,0.25 0 0 0 3.875,23.50A0.25,0.25 0 0 0 3.125,23.50zM6.125,23.50A0.25,0.25 0 0 0 6.875,23.50A0.25,0.25 0 0 0 6.125,23.50zM7.125,23.50A0.25,0.25 0 0 0 7.875,23.50A0.25,0.25 0 0 0 7.125,23.50zM9.125,23.50A0.25,0.25 0 0 0 9.875,23.50A0.25,0.25 0 0 0 9.125,23.50zM11.125,23.50A0.25,0.25 0 0 0 11.875,23.50A0.25,0.25 0 0 0 11.125,23.50zM12.125,23.50A0.25,0.25 0 0 0 12.875,23.50A0.25,0.25 0 0 0 12.125,23.50zM13.125,23.50A0.25,0.25 0 0 0 13.875,23.50A0.25,0.25 0 0 0 13.125,23.50zM17.125,23.50A0.25,0.25 0 0 0 17.875,23.50A0.25,0.25 0 0 0 17.125,23.50zM18.125,23.50A0.25,0.25 0 0 0 18.875,23.50A0.25,0.25 0 0 0 18.125,23.50zM19.125,23.50A0.25,0.25 0 0 0 19.875,23.50A0.25,0.25 0 0 0 19.125,23.50zM20.125,23.50A0.25,0.25 0 0 0 20.875,23.50A0.25,0.25 0 0 0 20.125,23.50zM22.125,23.50A0.25,0.25 0 0 0 22.875,23.50A0.25,0.25 0 0 0 22.125,23.50zM23.125,23.50A0.25,0.25 0 0 0 23.875,23.50A0.25,0.25 0 0 0 23.125,23.50zM24.125,23.50A0.25,0.25 0 0 0 24.875,23.50A0.25,0.25 0 0 0 24.125,23.50zM27.125,23.50A0.25,0.25 0 0 0 27.875,23.50A0.25,0.25 0 0 0 27.125,23.50zM28.125,23.50A0.25,0.25 0 0 0 28.875,23.50A0.25,0.25 0 0 0 28.125,23.50zM29.125,23.50A0.25,0.25 0 0 0 29.875,23.50A0.25,0.25 0 0 0 29.125,23.50zM32.125,23.50A0.25,0.25 0 0 0 32.875,23.50A0.25,0.25 0 0 0 32.125,23.50zM33.125,23.50A0.25,0.25 0 0 0 33.875,23.50A0.25,0.25 0 0 0 33.125,23.50zM38.125,23.50A0.25,0.25 0 0 0 38.875,23.50A0.25,0.25 0 0 0 38.125,23.50zM39.125,23.50A0.25,0.25 0 0 0 39.875,23.50A0.25,0.25 0 0 0 39.125,23.50zM2.125,24.50A0.25,0.25 0 0 0 2.875,24.50A0.25,0.25 0 0 0 2.125,24.50zM3.125,24.50A0.25,0.25 0 0 0 3.875,24.50A0.25,0.25 0 0 0 3.125,24.50zM4.125,24.50A0.25,0.25 0 0 0 4.875,24.50A0.25,0.25 0 0 0 4.125,24.50zM5.125,24.50A0.25,0.25 0 0 0 5.875,24.50A0.25,0.25 0 0 0 5.125,24.50zM6.125,24.50A0.25,0.25 0 0 0 6.875,24.50A0.25,0.25 0 0 0 6.125,24.50zM7.125,24.50A0.25,0.25 0 0 0 7.875,24.50A0.25,0.25 0 0 0 7.125,24.50zM8.125,24.50A0.25,0.25 0 0 0 8.875,24.50A0.25,0.25 0 0 0 8.125,24.50zM9.125,24.50A0.25,0.25 0 0 0 9.875,24.50A0.25,0.25 0 0 0 9.125,24.50zM11.125,24.50A0.25,0.25 0 0 0 11.875,24.50A0.25,0.25 0 0 0 11.125,24.50zM13.125,24.50A0.25,0.25 0 0 0 13.875,24.50A0.25,0.25 0 0 0 13.125,24.50zM15.125,24.50A0.25,0.25 0 0 0 15.875,24.50A0.25,0.25 0 0 0 15.125,24.50zM16.125,24.50A0.25,0.25 0 0 0 16.875,24.50A0.25,0.25 0 0 0 16.125,24.50zM18.125,24.50A0.25,0.25 0 0 0 18.875,24.50A0.25,0.25 0 0 0 18.125,24.50zM19.125,24.50A0.25,0.25 0 0 0 19.875,24.50A0.25,0.25 0 0 0 19.125,24.50zM23.125,24.50A0.25,0.25 0 0 0 23.875,24.50A0.25,0.25 0 0 0 23.125,24.50zM24.125,24.50A0.25,0.25 0 0 0 24.875,24.50A0.25,0.25 0 0 0 24.125,24.50zM25.125,24.50A0.25,0.25 0 0 0 25.875,24.50A0.25,0.25 0 0 0 25.125,24.50zM28.125,24.50A0.25,0.25 0 0 0 28.875,24.50A0.25,0.25 0 0 0 28.125,24.50zM29.125,24.50A0.25,0.25 0 0 0 29.875,24.50A0.25,0.25 0 0 0 29.125,24.50zM32.125,24.50A0.25,0.25 0 0 0 32.875,24.50A0.25,0.25 0 0 0 32.125,24.50zM36.125,24.50A0.25,0.25 0 0 0 36.875,24.50A0.25,0.25 0 0 0 36.125,24.50zM37.125,24.50A0.25,0.25 0 0 0 37.875,24.50A0.25,0.25 0 0 0 37.125,24.50zM38.125,24.50A0.25,0.25 0 0 0 38.875,24.50A0.25,0.25 0 0 0 38.125,24.50zM39.125,24.50A0.25,0.25 0 0 0 39.875,24.50A0.25,0.25 0 0 0 39.125,24.50zM40.125,24.50A0.25,0.25 0 0 0 40.875,24.50A0.25,0.25 0 0 0 40.125,24.50zM4.125,25.50A0.25,0.25 0 0 0 4.875,25.50A0.25,0.25 0 0 0 4.125,25.50zM6.125,25.50A0.25,0.25 0 0 0 6.875,25.50A0.25,0.25 0 0 0 6.125,25.50zM7.125,25.50A0.25,0.25 0 0 0 7.875,25.50A0.25,0.25 0 0 0 7.125,25.50zM10.125,25.50A0.25,0.25 0 0 0 10.875,25.50A0.25,0.25 0 0 0 10.125,25.50zM11.125,25.50A0.25,0.25 0 0 0 11.875,25.50A0.25,0.25 0 0 0 11.125,25.50zM17.125,25.50A0.25,0.25 0 0 0 17.875,25.50A0.25,0.25 0 0 0 17.125,25.50zM21.125,25.50A0.25,0.25 0 0 0 21.875,25.50A0.25,0.25 0 0 0 21.125,25.50zM23.125,25.50A0.25,0.25 0 0 0 23.875,25.50A0.25,0.25 0 0 0 23.125,25.50zM24.125,25.50A0.25,0.25 0 0 0 24.875,25.50A0.25,0.25 0 0 0 24.125,25.50zM25.125,25.50A0.25,0.25 0 0 0 25.875,25.50A0.25,0.25 0 0 0 25.125,25.50zM28.125,25.50A0.25,0.25 0 0 0 28.875,25.50A0.25,0.25 0 0 0 28.125,25.50zM29.125,25.50A0.25,0.25 0 0 0 29.875,25.50A0.25,0.25 0 0 0 29.125,25.50zM31.125,25.50A0.25,0.25 0 0 0 31.875,25.50A0.25,0.25 0 0 0 31.125,25.50zM36.125,25.50A0.25,0.25 0 0 0 36.875,25.50A0.25,0.25 0 0 0 36.125,25.50zM37.125,25.50A0.25,0.25 0 0 0 37.875,25.50A0.25,0.25 0 0 0 37.125,25.50zM38.125,25.50A0.25,0.25 0 0 0 38.875,25.50A0.25,0.25 0 0 0 38.125,25.50zM41.125,25.50A0.25,0.25 0 0 0 41.875,25.50A0.25,0.25 0 0 0 41.125,25.50zM2.125,26.50A0.25,0.25 0 0 0 2.875,26.50A0.25,0.25 0 0 0 2.125,26.50zM3.125,26.50A0.25,0.25 0 0 0 3.875,26.50A0.25,0.25 0 0 0 3.125,26.50zM5.125,26.50A0.25,0.25 0 0 0 5.875,26.50A0.25,0.25 0 0 0 5.125,26.50zM7.125,26.50A0.25,0.25 0 0 0 7.875,26.50A0.25,0.25 0 0 0 7.125,26.50zM8.125,26.50A0.25,0.25 0 0 0 8.875,26.50A0.25,0.25 0 0 0 8.125,26.50zM9.125,26.50A0.25,0.25 0 0 0 9.875,26.50A0.25,0.25 0 0 0 9.125,26.50zM10.125,26.50A0.25,0.25 0 0 0 10.875,26.50A0.25,0.25 0 0 0 10.125,26.50zM11.125,26.50A0.25,0.25 0 0 0 11.875,26.50A0.25,0.25 0 0 0 11.125,26.50zM12.125,26.50A0.25,0.25 0 0 0 12.875,26.50A0.25,0.25 0 0 0 12.125,26.50zM13.125,26.50A0.25,0.25 0 0 0 13.875,26.50A0.25,0.25 0 0 0 13.125,26.50zM17.125,26.50A0.25,0.25 0 0 0 17.875,26.50A0.25,0.25 0 0 0 17.125,26.50zM18.125,26.50A0.25,0.25 0 0 0 18.875,26.50A0.25,0.25 0 0 0 18.125,26.50zM21.125,26.50A0.25,0.25 0 0 0 21.875,26.50A0.25,0.25 0 0 0 21.125,26.50zM23.125,26.50A0.25,0.25 0 0 0 23.875,26.50A0.25,0.25 0 0 0 23.125,26.50zM24.125,26.50A0.25,0.25 0 0 0 24.875,26.50A0.25,0.25 0 0 0 24.125,26.50zM28.125,26.50A0.25,0.25 0 0 0 28.875,26.50A0.25,0.25 0 0 0 28.125,26.50zM30.125,26.50A0.25,0.25 0 0 0 30.875,26.50A0.25,0.25 0 0 0 30.125,26.50zM34.125,26.50A0.25,0.25 0 0 0 34.875,26.50A0.25,0.25 0 0 0 34.125,26.50zM36.125,26.50A0.25,0.25 0 0 0 36.875,26.50A0.25,0.25 0 0 0 36.125,26.50zM37.125,26.50A0.25,0.25 0 0 0 37.875,26.50A0.25,0.25 0 0 0 37.125,26.50zM41.125,26.50A0.25,0.25 0 0 0 41.875,26.50A0.25,0.25 0 0 0 41.125,26.50zM42.125,26.50A0.25,0.25 0 0 0 42.875,26.50A0.25,0.25 0 0 0 42.125,26.50zM7.125,27.50A0.25,0.25 0 0 0 7.875,27.50A0.25,0.25 0 0 0 7.125,27.50zM9.125,27.50A0.25,0.25 0 0 0 9.875,27.50A0.25,0.25 0 0 0 9.125,27.50zM10.125,27.50A0.25,0.25 0 0 0 10.875,27.50A0.25,0.25 0 0 0 10.125,27.50zM18.125,27.50A0.25,0.25 0 0 0 18.875,27.50A0.25,0.25 0 0 0 18.125,27.50zM19.125,27.50A0.25,0.25 0 0 0 19.875,27.50A0.25,0.25 0 0 0 19.125,27.50zM20.125,27.50A0.25,0.25 0 0 0 20.875,27.50A0.25,0.25 0 0 0 20.125,27.50zM24.125,27.50A0.25,0.25 0 0 0 24.875,27.50A0.25,0.25 0 0 0 24.125,27.50zM25.125,27.50A0.25,0.25 0 0 0 25.875,27.50A0.25,0.25 0 0 0 25.125,27.50zM26.125,27.50A0.25,0.25 0 0 0 26.875,27.50A0.25,0.25 0 0 0 26.125,27.50zM27.125,27.50A0.25,0.25 0 0 0 27.875,27.50A0.25,0.25 0 0 0 27.125,27.50zM29.125,27.50A0.25,0.25 0 0 0 29.875,27.50A0.25,0.25 0 0 0 29.125,27.50zM30.125,27.50A0.25,0.25 0 0 0 30.875,27.50A0.25,0.25 0 0 0 30.125,27.50zM32.125,27.50A0.25,0.25 0 0 0 32.875,27.50A0.25,0.25 0 0 0 32.125,27.50zM34.125,27.50A0.25,0.25 0 0 0 34.875,27.50A0.25,0.25 0 0 0 34.125,27.50zM36.125,27.50A0.25,0.25 0 0 0 36.875,27.50A0.25,0.25 0 0 0 36.125,27.50zM37.125,27.50A0.25,0.25 0 0 0 37.875,27.50A0.25,0.25 0 0 0 37.125,27.50zM38.125,27.50A0.25,0.25 0 0 0 38.875,27.50A0.25,0.25 0 0 0 38.125,27.50zM40.125,27.50A0.25,0.25 0 0 0 40.875,27.50A0.25,0.25 0 0 0 40.125,27.50zM42.125,27.50A0.25,0.25 0 0 0 42.875,27.50A0.25,0.25 0 0 0 42.125,27.50zM2.125,28.50A0.25,0.25 0 0 0 2.875,28.50A0.25,0.25 0 0 0 2.125,28.50zM3.125,28.50A0.25,0.25 0 0 0 3.875,28.50A0.25,0.25 0 0 0 3.125,28.50zM4.125,28.50A0.25,0.25 0 0 0 4.875,28.50A0.25,0.25 0 0 0 4.125,28.50zM6.125,28.50A0.25,0.25 0 0 0 6.875,28.50A0.25,0.25 0 0 0 6.125,28.50zM7.125,28.50A0.25,0.25 0 0 0 7.875,28.50A0.25,0.25 0 0 0 7.125,28.50zM8.125,28.50A0.25,0.25 0 0 0 8.875,28.50A0.25,0.25 0 0 0 8.125,28.50zM11.125,28.50A0.25,0.25 0 0 0 11.875,28.50A0.25,0.25 0 0 0 11.125,28.50zM12.125,28.50A0.25,0.25 0 0 0 12.875,28.50A0.25,0.25 0 0 0 12.125,28.50zM13.125,28.50A0.25,0.25 0 0 0 13.875,28.50A0.25,0.25 0 0 0 13.125,28.50zM14.125,28.50A0.25,0.25 0 0 0 14.875,28.50A0.25,0.25 0 0 0 14.125,28.50zM17.125,28.50A0.25,0.25 0 0 0 17.875,28.50A0.25,0.25 0 0 0 17.125,28.50zM18.125,28.50A0.25,0.25 0 0 0 18.875,28.50A0.25,0.25 0 0 0 18.125,28.50zM22.125,28.50A0.25,0.25 0 0 0 22.875,28.50A0.25,0.25 0 0 0 22.125,28.50zM23.125,28.50A0.25,0.25 0 0 0 23.875,28.50A0.25,0.25 0 0 0 23.125,28.50zM24.125,28.50A0.25,0.25 0 0 0 24.875,28.50A0.25,0.25 0 0 0 24.125,28.50zM27.125,28.50A0.25,0.25 0 0 0 27.875,28.50A0.25,0.25 0 0 0 27.125,28.50zM28.125,28.50A0.25,0.25 0 0 0 28.875,28.50A0.25,0.25 0 0 0 28.125,28.50zM29.125,28.50A0.25,0.25 0 0 0 29.875,28.50A0.25,0.25 0 0 0 29.125,28.50zM30.125,28.50A0.25,0.25 0 0 0 30.875,28.50A0.25,0.25 0 0 0 30.125,28.50zM33.125,28.50A0.25,0.25 0 0 0 33.875,28.50A0.25,0.25 0 0 0 33.125,28.50zM34.125,28.50A0.25,0.25 0 0 0 34.875,28.50A0.25,0.25 0 0 0 34.125,28.50zM36.125,28.50A0.25,0.25 0 0 0 36.875,28.50A0.25,0.25 0 0 0 36.125,28.50zM38.125,28.50A0.25,0.25 0 0 0 38.875,28.50A0.25,0.25 0 0 0 38.125,28.50zM39.125,28.50A0.25,0.25 0 0 0 39.875,28.50A0.25,0.25 0 0 0 39.125,28.50zM42.125,28.50A0.25,0.25 0 0 0 42.875,28.50A0.25,0.25 0 0 0 42.125,28.50zM3.125,29.50A0.25,0.25 0 0 0 3.875,29.50A0.25,0.25 0 0 0 3.125,29.50zM4.125,29.50A0.25,0.25 0 0 0 4.875,29.50A0.25,0.25 0 0 0 4.125,29.50zM5.125,29.50A0.25,0.25 0 0 0 5.875,29.50A0.25,0.25 0 0 0 5.125,29.50zM6.125,29.50A0.25,0.25 0 0 0 6.875,29.50A0.25,0.25 0 0 0 6.125,29.50zM7.125,29.50A0.25,0.25 0 0 0 7.875,29.50A0.25,0.25 0 0 0 7.125,29.50zM10.125,29.50A0.25,0.25 0 0 0 10.875,29.50A0.25,0.25 0 0 0 10.125,29.50zM14.125,29.50A0.25,0.25 0 0 0 14.875,29.50A0.25,0.25 0 0 0 14.125,29.50zM15.125,29.50A0.25,0.25 0 0 0 15.875,29.50A0.25,0.25 0 0 0 15.125,29.50zM18.125,29.50A0.25,0.25 0 0 0 18.875,29.50A0.25,0.25 0 0 0 18.125,29.50zM22.125,29.50A0.25,0.25 0 0 0 22.875,29.50A0.25,0.25 0 0 0 22.125,29.50zM29.125,29.50A0.25,0.25 0 0 0 29.875,29.50A0.25,0.25 0 0 0 29.125,29.50zM33.125,29.50A0.25,0.25 0 0 0 33.875,29.50A0.25,0.25 0 0 0 33.125,29.50zM35.125,29.50A0.25,0.25 0 0 0 35.875,29.50A0.25,0.25 0 0 0 35.125,29.50zM36.125,29.50A0.25,0.25 0 0 0 36.875,29.50A0.25,0.25 0 0 0 36.125,29.50zM37.125,29.50A0.25,0.25 0 0 0 37.875,29.50A0.25,0.25 0 0 0 37.125,29.50zM38.125,29.50A0.25,0.25 0 0 0 38.875,29.50A0.25,0.25 0 0 0 38.125,29.50zM39.125,29.50A0.25,0.25 0 0 0 39.875,29.50A0.25,0.25 0 0 0 39.125,29.50zM40.125,29.50A0.25,0.25 0 0 0 40.875,29.50A0.25,0.25 0 0 0 40.125,29.50zM42.125,29.50A0.25,0.25 0 0 0 42.875,29.50A0.25,0.25 0 0 0 42.125,29.50zM3.125,30.50A0.25,0.25 0 0 0 3.875,30.50A0.25,0.25 0 0 0 3.125,30.50zM7.125,30.50A0.25,0.25 0 0 0 7.875,30.50A0.25,0.25 0 0 0 7.125,30.50zM8.125,30.50A0.25,0.25 0 0 0 8.875,30.50A0.25,0.25 0 0 0 8.125,30.50zM11.125,30.50A0.25,0.25 0 0 0 11.875,30.50A0.25,0.25 0 0 0 11.125,30.50zM12.125,30.50A0.25,0.25 0 0 0 12.875,30.50A0.25,0.25 0 0 0 12.125,30.50zM14.125,30.50A0.25,0.25 0 0 0 14.875,30.50A0.25,0.25 0 0 0 14.125,30.50zM18.125,30.50A0.25,0.25 0 0 0 18.875,30.50A0.25,0.25 0 0 0 18.125,30.50zM20.125,30.50A0.25,0.25 0 0 0 20.875,30.50A0.25,0.25 0 0 0 20.125,30.50zM21.125,30.50A0.25,0.25 0 0 0 21.875,30.50A0.25,0.25 0 0 0 21.125,30.50zM22.125,30.50A0.25,0.25 0 0 0 22.875,30.50A0.25,0.25 0 0 0 22.125,30.50zM23.125,30.50A0.25,0.25 0 0 0 23.875,30.50A0.25,0.25 0 0 0 23.125,30.50zM24.125,30.50A0.25,0.25 0 0 0 24.875,30.50A0.25,0.25 0 0 0 24.125,30.50zM25.125,30.50A0.25,0.25 0 0 0 25.875,30.50A0.25,0.25 0 0 0 25.125,30.50zM26.125,30.50A0.25,0.25 0 0 0 26.875,30.50A0.25,0.25 0 0 0 26.125,30.50zM33.125,30.50A0.25,0.25 0 0 0 33.875,30.50A0.25,0.25 0 0 0 33.125,30.50zM34.125,30.50A0.25,0.25 0 0 0 34.875,30.50A0.25,0.25 0 0 0 34.125,30.50zM35.125,30.50A0.25,0.25 0 0 0 35.875,30.50A0.25,0.25 0 0 0 35.125,30.50zM37.125,30.50A0.25,0.25 0 0 0 37.875,30.50A0.25,0.25 0 0 0 37.125,30.50zM39.125,30.50A0.25,0.25 0 0 0 39.875,30.50A0.25,0.25 0 0 0 39.125,30.50zM42.125,30.50A0.25,0.25 0 0 0 42.875,30.50A0.25,0.25 0 0 0 42.125,30.50zM2.125,31.50A0.25,0.25 0 0 0 2.875,31.50A0.25,0.25 0 0 0 2.125,31.50zM5.125,31.50A0.25,0.25 0 0 0 5.875,31.50A0.25,0.25 0 0 0 5.125,31.50zM7.125,31.50A0.25,0.25 0 0 0 7.875,31.50A0.25,0.25 0 0 0 7.125,31.50zM10.125,31.50A0.25,0.25 0 0 0 10.875,31.50A0.25,0.25 0 0 0 10.125,31.50zM11.125,31.50A0.25,0.25 0 0 0 11.875,31.50A0.25,0.25 0 0 0 11.125,31.50zM14.125,31.50A0.25,0.25 0 0 0 14.875,31.50A0.25,0.25 0 0 0 14.125,31.50zM16.125,31.50A0.25,0.25 0 0 0 16.875,31.50A0.25,0.25 0 0 0 16.125,31.50zM17.125,31.50A0.25,0.25 0 0 0 17.875,31.50A0.25,0.25 0 0 0 17.125,31.50zM20.125,31.50A0.25,0.25 0 0 0 20.875,31.50A0.25,0.25 0 0 0 20.125,31.50zM21.125,31.50A0.25,0.25 0 0 0 21.875,31.50A0.25,0.25 0 0 0 21.125,31.50zM23.125,31.50A0.25,0.25 0 0 0 23.875,31.50A0.25,0.25 0 0 0 23.125,31.50zM24.125,31.50A0.25,0.25 0 0 0 24.875,31.50A0.25,0.25 0 0 0 24.125,31.50zM26.125,31.50A0.25,0.25 0 0 0 26.875,31.50A0.25,0.25 0 0 0 26.125,31.50zM27.125,31.50A0.25,0.25 0 0 0 27.875,31.50A0.25,0.25 0 0 0 27.125,31.50zM28.125,31.50A0.25,0.25 0 0 0 28.875,31.50A0.25,0.25 0 0 0 28.125,31.50zM32.125,31.50A0.25,0.25 0 0 0 32.875,31.50A0.25,0.25 0 0 0 32.125,31.50zM38.125,31.50A0.25,0.25 0 0 0 38.875,31.50A0.25,0.25 0 0 0 38.125,31.50zM39.125,31.50A0.25,0.25 0 0 0 39.875,31.50A0.25,0.25 0 0 0 39.125,31.50zM2.125,32.50A0.25,0.25 0 0 0 2.875,32.50A0.25,0.25 0 0 0 2.125,32.50zM3.125,32.50A0.25,0.25 0 0 0 3.875,32.50A0.25,0.25 0 0 0 3.125,32.50zM5.125,32.50A0.25,0.25 0 0 0 5.875,32.50A0.25,0.25 0 0 0 5.125,32.50zM7.125,32.50A0.25,0.25 0 0 0 7.875,32.50A0.25,0.25 0 0 0 7.125,32.50zM8.125,32.50A0.25,0.25 0 0 0 8.875,32.50A0.25,0.25 0 0 0 8.125,32.50zM9.125,32.50A0.25,0.25 0 0 0 9.875,32.50A0.25,0.25 0 0 0 9.125,32.50zM11.125,32.50A0.25,0.25 0 0 0 11.875,32.50A0.25,0.25 0 0 0 11.125,32.50zM12.125,32.50A0.25,0.25 0 0 0 12.875,32.50A0.25,0.25 0 0 0 12.125,32.50zM13.125,32.50A0.25,0.25 0 0 0 13.875,32.50A0.25,0.25 0 0 0 13.125,32.50zM16.125,32.50A0.25,0.25 0 0 0 16.875,32.50A0.25,0.25 0 0 0 16.125,32.50zM17.125,32.50A0.25,0.25 0 0 0 17.875,32.50A0.25,0.25 0 0 0 17.125,32.50zM20.125,32.50A0.25,0.25 0 0 0 20.875,32.50A0.25,0.25 0 0 0 20.125,32.50zM21.125,32.50A0.25,0.25 0 0 0 21.875,32.50A0.25,0.25 0 0 0 21.125,32.50zM24.125,32.50A0.25,0.25 0 0 0 24.875,32.50A0.25,0.25 0 0 0 24.125,32.50zM25.125,32.50A0.25,0.25 0 0 0 25.875,32.50A0.25,0.25 0 0 0 25.125,32.50zM27.125,32.50A0.25,0.25 0 0 0 27.875,32.50A0.25,0.25 0 0 0 27.125,32.50zM28.125,32.50A0.25,0.25 0 0 0 28.875,32.50A0.25,0.25 0 0 0 28.125,32.50zM30.125,32.50A0.25,0.25 0 0 0 30.875,32.50A0.25,0.25 0 0 0 30.125,32.50zM31.125,32.50A0.25,0.25 0 0 0 31.875,32.50A0.25,0.25 0 0 0 31.125,32.50zM33.125,32.50A0.25,0.25 0 0 0 33.875,32.50A0.25,0.25 0 0 0 33.125,32.50zM35.125,32.50A0.25,0.25 0 0 0 35.875,32.50A0.25,0.25 0 0 0 35.125,32.50zM38.125,32.50A0.25,0.25 0 0 0 38.875,32.50A0.25,0.25 0 0 0 38.125,32.50zM40.125,32.50A0.25,0.25 0 0 0 40.875,32.50A0.25,0.25 0 0 0 40.125,32.50zM41.125,32.50A0.25,0.25 0 0 0 41.875,32.50A0.25,0.25 0 0 0 41.125,32.50zM42.125,32.50A0.25,0.25 0 0 0 42.875,32.50A0.25,0.25 0 0 0 42.125,32.50zM2.125,33.50A0.25,0.25 0 0 0 2.875,33.50A0.25,0.25 0 0 0 2.125,33.50zM3.125,33.50A0.25,0.25 0 0 0 3.875,33.50A0.25,0.25 0 0 0 3.125,33.50zM5.125,33.50A0.25,0.25 0 0 0 5.875,33.50A0.25,0.25 0 0 0 5.125,33.50zM6.125,33.50A0.25,0.25 0 0 0 6.875,33.50A0.25,0.25 0 0 0 6.125,33.50zM9.125,33.50A0.25,0.25 0 0 0 9.875,33.50A0.25,0.25 0 0 0 9.125,33.50zM10.125,33.50A0.25,0.25 0 0 0 10.875,33.50A0.25,0.25 0 0 0 10.125,33.50zM15.125,33.50A0.25,0.25 0 0 0 15.875,33.50A0.25,0.25 0 0 0 15.125,33.50zM17.125,33.50A0.25,0.25 0 0 0 17.875,33.50A0.25,0.25 0 0 0 17.125,33.50zM19.125,33.50A0.25,0.25 0 0 0 19.875,33.50A0.25,0.25 0 0 0 19.125,33.50zM21.125,33.50A0.25,0.25 0 0 0 21.875,33.50A0.25,0.25 0 0 0 21.125,33.50zM26.125,33.50A0.25,0.25 0 0 0 26.875,33.50A0.25,0.25 0 0 0 26.125,33.50zM27.125,33.50A0.25,0.25 0 0 0 27.875,33.50A0.25,0.25 0 0 0 27.125,33.50zM29.125,33.50A0.25,0.25 0 0 0 29.875,33.50A0.25,0.25 0 0 0 29.125,33.50zM30.125,33.50A0.25,0.25 0 0 0 30.875,33.50A0.25,0.25 0 0 0 30.125,33.50zM36.125,33.50A0.25,0.25 0 0 0 36.875,33.50A0.25,0.25 0 0 0 36.125,33.50zM40.125,33.50A0.25,0.25 0 0 0 40.875,33.50A0.25,0.25 0 0 0 40.125,33.50zM41.125,33.50A0.25,0.25 0 0 0 41.875,33.50A0.25,0.25 0 0 0 41.125,33.50zM42.125,33.50A0.25,0.25 0 0 0 42.875,33.50A0.25,0.25 0 0 0 42.125,33.50zM2.125,34.50A0.25,0.25 0 0 0 2.875,34.50A0.25,0.25 0 0 0 2.125,34.50zM3.125,34.50A0.25,0.25 0 0 0 3.875,34.50A0.25,0.25 0 0 0 3.125,34.50zM4.125,34.50A0.25,0.25 0 0 0 4.875,34.50A0.25,0.25 0 0 0 4.125,34.50zM5.125,34.50A0.25,0.25 0 0 0 5.875,34.50A0.25,0.25 0 0 0 5.125,34.50zM7.125,34.50A0.25,0.25 0 0 0 7.875,34.50A0.25,0.25 0 0 0 7.125,34.50zM8.125,34.50A0.25,0.25 0 0 0 8.875,34.50A0.25,0.25 0 0 0 8.125,34.50zM10.125,34.50A0.25,0.25 0 0 0 10.875,34.50A0.25,0.25 0 0 0 10.125,34.50zM11.125,34.50A0.25,0.25 0 0 0 11.875,34.50A0.25,0.25 0 0 0 11.125,34.50zM13.125,34.50A0.25,0.25 0 0 0 13.875,34.50A0.25,0.25 0 0 0 13.125,34.50zM15.125,34.50A0.25,0.25 0 0 0 15.875,34.50A0.25,0.25 0 0 0 15.125,34.50zM17.125,34.50A0.25,0.25 0 0 0 17.875,34.50A0.25,0.25 0 0 0 17.125,34.50zM18.125,34.50A0.25,0.25 0 0 0 18.875,34.50A0.25,0.25 0 0 0 18.125,34.50zM19.125,34.50A0.25,0.25 0 0 0 19.875,34.50A0.25,0.25 0 0 0 19.125,34.50zM21.125,34.50A0.25,0.25 0 0 0 21.875,34.50A0.25,0.25 0 0 0 21.125,34.50zM23.125,34.50A0.25,0.25 0 0 0 23.875,34.50A0.25,0.25 0 0 0 23.125,34.50zM24.125,34.50A0.25,0.25 0 0 0 24.875,34.50A0.25,0.25 0 0 0 24.125,34.50zM25.125,34.50A0.25,0.25 0 0 0 25.875,34.50A0.25,0.25 0 0 0 25.125,34.50zM26.125,34.50A0.25,0.25 0 0 0 26.875,34.50A0.25,0.25 0 0 0 26.125,34.50zM27.125,34.50A0.25,0.25 0 0 0 27.875,34.50A0.25,0.25 0 0 0 27.125,34.50zM28.125,34.50A0.25,0.25 0 0 0 28.875,34.50A0.25,0.25 0 0 0 28.125,34.50zM30.125,34.50A0.25,0.25 0 0 0 30.875,34.50A0.25,0.25 0 0 0 30.125,34.50zM31.125,34.50A0.25,0.25 0 0 0 31.875,34.50A0.25,0.25 0 0 0 31.125,34.50zM34.125,34.50A0.25,0.25 0 0 0 34.875,34.50A0.25,0.25 0 0 0 34.125,34.50zM35.125,34.50A0.25,0.25 0 0 0 35.875,34.50A0.25,0.25 0 0 0 35.125,34.50zM36.125,34.50A0.25,0.25 0 0 0 36.875,34.50A0.25,0.25 0 0 0 36.125,34.50zM37.125,34.50A0.25,0.25 0 0 0 37.875,34.50A0.25,0.25 0 0 0 37.125,34.50zM38.125,34.50A0.25,0.25 0 0 0 38.875,34.50A0.25,0.25 0 0 0 38.125,34.50zM39.125,34.50A0.25,0.25 0 0 0 39.875,34.50A0.25,0.25 0 0 0 39.125,34.50zM40.125,34.50A0.25,0.25 0 0 0 40.875,34.50A0.25,0.25 0 0 0 40.125,34.50zM10.125,35.50A0.25,0.25 0 0 0 10.875,35.50A0.25,0.25 0 0 0 10.125,35.50zM12.125,35.50A0.25,0.25 0 0 0 12.875,35.50A0.25,0.25 0 0 0 12.125,35.50zM13.125,35.50A0.25,0.25 0 0 0 13.875,35.50A0.25,0.25 0 0 0 13.125,35.50zM14.125,35.50A0.25,0.25 0 0 0 14.875,35.50A0.25,0.25 0 0 0 14.125,35.50zM15.125,35.50A0.25,0.25 0 0 0 15.875,35.50A0.25,0.25 0 0 0 15.125,35.50zM20.125,35.50A0.25,0.25 0 0 0 20.875,35.50A0.25,0.25 0 0 0 20.125,35.50zM21.125,35.50A0.25,0.25 0 0 0 21.875,35.50A0.25,0.25 0 0 0 21.125,35.50zM23.125,35.50A0.25,0.25 0 0 0 23.875,35.50A0.25,0.25 0 0 0 23.125,35.50zM24.125,35.50A0.25,0.25 0 0 0 24.875,35.50A0.25,0.25 0 0 0 24.125,35.50zM26.125,35.50A0.25,0.25 0 0 0 26.875,35.50A0.25,0.25 0 0 0 26.125,35.50zM27.125,35.50A0.25,0.25 0 0 0 27.875,35.50A0.25,0.25 0 0 0 27.125,35.50zM28.125,35.50A0.25,0.25 0 0 0 28.875,35.50A0.25,0.25 0 0 0 28.125,35.50zM29.125,35.50A0.25,0.25 0 0 0 29.875,35.50A0.25,0.25 0 0 0 29.125,35.50zM34.125,35.50A0.25,0.25 0 0 0 34.875,35.50A0.25,0.25 0 0 0 34.125,35.50zM38.125,35.50A0.25,0.25 0 0 0 38.875,35.50A0.25,0.25 0 0 0 38.125,35.50zM39.125,35.50A0.25,0.25 0 0 0 39.875,35.50A0.25,0.25 0 0 0 39.125,35.50zM2,36H3V37H2zM3,36H4V37H3zM4,36H5V37H4zM5,36H6V37H5zM6,36H7V37H6zM7,36H8V37H7zM8,36H9V37H8zM10.125,36.50A0.25,0.25 0 0 0 10.875,36.50A0.25,0.25 0 0 0 10.125,36.50zM11.125,36.50A0.25,0.25 0 0 0 11.875,36.50A0.25,0.25 0 0 0 11.125,36.50zM12.125,36.50A0.25,0.25 0 0 0 12.875,36.50A0.25,0.25 0 0 0 12.125,36.50zM13.125,36.50A0.25,0.25 0 0 0 13.875,36.50A0.25,0.25 0 0 0 13.125,36.50zM14.125,36.50A0.25,0.25 0 0 0 14.875,36.50A0.25,0.25 0 0 0 14.125,36.50zM15.125,36.50A0.25,0.25 0 0 0 15.875,36.50A0.25,0.25 0 0 0 15.125,36.50zM16.125,36.50A0.25,0.25 0 0 0 16.875,36.50A0.25,0.25 0 0 0 16.125,36.50zM17.125,36.50A0.25,0.25 0 0 0 17.875,36.50A0.25,0.25 0 0 0 17.125,36.50zM20.125,36.50A0.25,0.25 0 0 0 20.875,36.50A0.25,0.25 0 0 0 20.125,36.50zM25.125,36.50A0.25,0.25 0 0 0 25.875,36.50A0.25,0.25 0 0 0 25.125,36.50zM28.125,36.50A0.25,0.25 0 0 0 28.875,36.50A0.25,0.25 0 0 0 28.125,36.50zM29.125,36.50A0.25,0.25 0 0 0 29.875,36.50A0.25,0.25 0 0 0 29.125,36.50zM30.125,36.50A0.25,0.25 0 0 0 30.875,36.50A0.25,0.25 0 0 0 30.125,36.50zM31.125,36.50A0.25,0.25 0 0 0 31.875,36.50A0.25,0.25 0 0 0 31.125,36.50zM32.125,36.50A0.25,0.25 0 0 0 32.875,36.50A0.25,0.25 0 0 0 32.125,36.50zM33.125,36.50A0.25,0.25 0 0 0 33.875,36.50A0.25,0.25 0 0 0 33.125,36.50zM34.125,36.50A0.25,0.25 0 0 0 34.875,36.50A0.25,0.25 0 0 0 34.125,36.50zM36.125,36.50A0.25,0.25 0 0 0 36.875,36.50A0.25,0.25 0 0 0 36.125,36.50zM38.125,36.50A0.25,0.25 0 0 0 38.875,36.50A0.25,0.25 0 0 0 38.125,36.50zM39.125,36.50A0.25,0.25 0 0 0 39.875,36.50A0.25,0.25 0 0 0 39.125,36.50zM2,37H3V38H2zM8,37H9V38H8zM13.125,37.50A0.25,0.25 0 0 0 13.875,37.50A0.25,0.25 0 0 0 13.125,37.50zM14.125,37.50A0.25,0.25 0 0 0 14.875,37.50A0.25,0.25 0 0 0 14.125,37.50zM15.125,37.50A0.25,0.25 0 0 0 15.875,37.50A0.25,0.25 0 0 0 15.125,37.50zM16.125,37.50A0.25,0.25 0 0 0 16.875,37.50A0.25,0.25 0 0 0 16.125,37.50zM17.125,37.50A0.25,0.25 0 0 0 17.875,37.50A0.25,0.25 0 0 0 17.125,37.50zM18.125,37.50A0.25,0.25 0 0 0 18.875,37.50A0.25,0.25 0 0 0 18.125,37.50zM20.125,37.50A0.25,0.25 0 0 0 20.875,37.50A0.25,0.25 0 0 0 20.125,37.50zM21.125,37.50A0.25,0.25 0 0 0 21.875,37.50A0.25,0.25 0 0 0 21.125,37.50zM23.125,37.50A0.25,0.25 0 0 0 23.875,37.50A0.25,0.25 0 0 0 23.125,37.50zM25.125,37.50A0.25,0.25 0 0 0 25.875,37.50A0.25,0.25 0 0 0 25.125,37.50zM26.125,37.50A0.25,0.25 0 0 0 26.875,37.50A0.25,0.25 0 0 0 26.125,37.50zM27.125,37.50A0.25,0.25 0 0 0 27.875,37.50A0.25,0.25 0 0 0 27.125,37.50zM28.125,37.50A0.25,0.25 0 0 0 28.875,37.50A0.25,0.25 0 0 0 28.125,37.50zM29.125,37.50A0.25,0.25 0 0 0 29.875,37.50A0.25,0.25 0 0 0 29.125,37.50zM31.125,37.50A0.25,0.25 0 0 0 31.875,37.50A0.25,0.25 0 0 0 31.125,37.50zM33.125,37.50A0.25,0.25 0 0 0 33.875,37.50A0.25,0.25 0 0 0 33.125,37.50zM34.125,37.50A0.25,0.25 0 0 0 34.875,37.50A0.25,0.25 0 0 0 34.125,37.50zM38.125,37.50A0.25,0.25 0 0 0 38.875,37.50A0.25,0.25 0 0 0 38.125,37.50zM39.125,37.50A0.25,0.25 0 0 0 39.875,37.50A0.25,0.25 0 0 0 39.125,37.50zM42.125,37.50A0.25,0.25 0 0 0 42.875,37.50A0.25,0.25 0 0 0 42.125,37.50zM2,38H3V39H2zM4,38H5V39H4zM5,38H6V39H5zM6,38H7V39H6zM8,38H9V39H8zM10.125,38.50A0.25,0.25 0 0 0 10.875,38.50A0.25,0.25 0 0 0 10.125,38.50zM12.125,38.50A0.25,0.25 0 0 0 12.875,38.50A0.25,0.25 0 0 0 12.125,38.50zM17.125,38.50A0.25,0.25 0 0 0 17.875,38.50A0.25,0.25 0 0 0 17.125,38.50zM18.125,38.50A0.25,0.25 0 0 0 18.875,38.50A0.25,0.25 0 0 0 18.125,38.50zM19.125,38.50A0.25,0.25 0 0 0 19.875,38.50A0.25,0.25 0 0 0 19.125,38.50zM22.125,38.50A0.25,0.25 0 0 0 22.875,38.50A0.25,0.25 0 0 0 22.125,38.50zM27.125,38.50A0.25,0.25 0 0 0 27.875,38.50A0.25,0.25 0 0 0 27.125,38.50zM29.125,38.50A0.25,0.25 0 0 0 29.875,38.50A0.25,0.25 0 0 0 29.125,38.50zM30.125,38.50A0.25,0.25 0 0 0 30.875,38.50A0.25,0.25 0 0 0 30.125,38.50zM31.125,38.50A0.25,0.25 0 0 0 31.875,38.50A0.25,0.25 0 0 0 31.125,38.50zM32.125,38.50A0.25,0.25 0 0 0 32.875,38.50A0.25,0.25 0 0 0 32.125,38.50zM33.125,38.50A0.25,0.25 0 0 0 33.875,38.50A0.25,0.25 0 0 0 33.125,38.50zM34.125,38.50A0.25,0.25 0 0 0 34.875,38.50A0.25,0.25 0 0 0 34.125,38.50zM35.125,38.50A0.25,0.25 0 0 0 35.875,38.50A0.25,0.25 0 0 0 35.125,38.50zM36.125,38.50A0.25,0.25 0 0 0 36.875,38.50A0.25,0.25 0 0 0 36.125,38.50zM37.125,38.50A0.25,0.25 0 0 0 37.875,38.50A0.25,0.25 0 0 0 37.125,38.50zM38.125,38.50A0.25,0.25 0 0 0 38.875,38.50A0.25,0.25 0 0 0 38.125,38.50zM39.125,38.50A0.25,0.25 0 0 0 39.875,38.50A0.25,0.25 0 0 0 39.125,38.50zM42.125,38.50A0.25,0.25 0 0 0 42.875,38.50A0.25,0.25 0 0 0 42.125,38.50zM2,39H3V40H2zM4,39H5V40H4zM5,39H6V40H5zM6,39H7V40H6zM8,39H9V40H8zM10.125,39.50A0.25,0.25 0 0 0 10.875,39.50A0.25,0.25 0 0 0 10.125,39.50zM12.125,39.50A0.25,0.25 0 0 0 12.875,39.50A0.25,0.25 0 0 0 12.125,39.50zM14.125,39.50A0.25,0.25 0 0 0 14.875,39.50A0.25,0.25 0 0 0 14.125,39.50zM15.125,39.50A0.25,0.25 0 0 0 15.875,39.50A0.25,0.25 0 0 0 15.125,39.50zM19.125,39.50A0.25,0.25 0 0 0 19.875,39.50A0.25,0.25 0 0 0 19.125,39.50zM20.125,39.50A0.25,0.25 0 0 0 20.875,39.50A0.25,0.25 0 0 0 20.125,39.50zM21.125,39.50A0.25,0.25 0 0 0 21.875,39.50A0.25,0.25 0 0 0 21.125,39.50zM22.125,39.50A0.25,0.25 0 0 0 22.875,39.50A0.25,0.25 0 0 0 22.125,39.50zM23.125,39.50A0.25,0.25 0 0 0 23.875,39.50A0.25,0.25 0 0 0 23.125,39.50zM27.125,39.50A0.25,0.25 0 0 0 27.875,39.50A0.25,0.25 0 0 0 27.125,39.50zM29.125,39.50A0.25,0.25 0 0 0 29.875,39.50A0.25,0.25 0 0 0 29.125,39.50zM31.125,39.50A0.25,0.25 0 0 0 31.875,39.50A0.25,0.25 0 0 0 31.125,39.50zM33.125,39.50A0.25,0.25 0 0 0 33.875,39.50A0.25,0.25 0 0 0 33.125,39.50zM34.125,39.50A0.25,0.25 0 0 0 34.875,39.50A0.25,0.25 0 0 0 34.125,39.50zM37.125,39.50A0.25,0.25 0 0 0 37.875,39.50A0.25,0.25 0 0 0 37.125,39.50zM39.125,39.50A0.25,0.25 0 0 0 39.875,39.50A0.25,0.25 0 0 0 39.125,39.50zM40.125,39.50A0.25,0.25 0 0 0 40.875,39.50A0.25,0.25 0 0 0 40.125,39.50zM41.125,39.50A0.25,0.25 0 0 0 41.875,39.50A0.25,0.25 0 0 0 41.125,39.50zM42.125,39.50A0.25,0.25 0 0 0 42.875,39.50A0.25,0.25 0 0 0 42.125,39.50zM2,40H3V41H2zM4,40H5V41H4zM5,40H6V41H5zM6,40H7V41H6zM8,40H9V41H8zM12.125,40.50A0.25,0.25 0 0 0 12.875,40.50A0.25,0.25 0 0 0 12.125,40.50zM14.125,40.50A0.25,0.25 0 0 0 14.875,40.50A0.25,0.25 0 0 0 14.125,40.50zM15.125,40.50A0.25,0.25 0 0 0 15.875,40.50A0.25,0.25 0 0 0 15.125,40.50zM16.125,40.50A0.25,0.25 0 0 0 16.875,40.50A0.25,0.25 0 0 0 16.125,40.50zM17.125,40.50A0.25,0.25 0 0 0 17.875,40.50A0.25,0.25 0 0 0 17.125,40.50zM19.125,40.50A0.25,0.25 0 0 0 19.875,40.50A0.25,0.25 0 0 0 19.125,40.50zM20.125,40.50A0.25,0.25 0 0 0 20.875,40.50A0.25,0.25 0 0 0 20.125,40.50zM21.125,40.50A0.25,0.25 0 0 0 21.875,40.50A0.25,0.25 0 0 0 21.125,40.50zM22.125,40.50A0.25,0.25 0 0 0 22.875,40.50A0.25,0.25 0 0 0 22.125,40.50zM24.125,40.50A0.25,0.25 0 0 0 24.875,40.50A0.25,0.25 0 0 0 24.125,40.50zM25.125,40.50A0.25,0.25 0 0 0 25.875,40.50A0.25,0.25 0 0 0 25.125,40.50zM26.125,40.50A0.25,0.25 0 0 0 26.875,40.50A0.25,0.25 0 0 0 26.125,40.50zM27.125,40.50A0.25,0.25 0 0 0 27.875,40.50A0.25,0.25 0 0 0 27.125,40.50zM28.125,40.50A0.25,0.25 0 0 0 28.875,40.50A0.25,0.25 0 0 0 28.125,40.50zM29.125,40.50A0.25,0.25 0 0 0 29.875,40.50A0.25,0.25 0 0 0 29.125,40.50zM30.125,40.50A0.25,0.25 0 0 0 30.875,40.50A0.25,0.25 0 0 0 30.125,40.50zM31.125,40.50A0.25,0.25 0 0 0 31.875,40.50A0.25,0.25 0 0 0 31.125,40.50zM34.125,40.50A0.25,0.25 0 0 0 34.875,40.50A0.25,0.25 0 0 0 34.125,40.50zM35.125,40.50A0.25,0.25 0 0 0 35.875,40.50A0.25,0.25 0 0 0 35.125,40.50zM37.125,40.50A0.25,0.25 0 0 0 37.875,40.50A0.25,0.25 0 0 0 37.125,40.50zM38.125,40.50A0.25,0.25 0 0 0 38.875,40.50A0.25,0.25 0 0 0 38.125,40.50zM39.125,40.50A0.25,0.25 0 0 0 39.875,40.50A0.25,0.25 0 0 0 39.125,40.50zM40.125,40.50A0.25,0.25 0 0 0 40.875,40.50A0.25,0.25 0 0 0 40.125,40.50zM41.125,40.50A0.25,0.25 0 0 0 41.875,40.50A0.25,0.25 0 0 0 41.125,40.50zM42.125,40.50A0.25,0.25 0 0 0 42.875,40.50A0.25,0.25 0 0 0 42.125,40.50zM2,41H3V42H2zM8,41H9V42H8zM11.125,41.50A0.25,0.25 0 0 0 11.875,41.50A0.25,0.25 0 0 0 11.125,41.50zM13.125,41.50A0.25,0.25 0 0 0 13.875,41.50A0.25,0.25 0 0 0 13.125,41.50zM14.125,41.50A0.25,0.25 0 0 0 14.875,41.50A0.25,0.25 0 0 0 14.125,41.50zM16.125,41.50A0.25,0.25 0 0 0 16.875,41.50A0.25,0.25 0 0 0 16.125,41.50zM17.125,41.50A0.25,0.25 0 0 0 17.875,41.50A0.25,0.25 0 0 0 17.125,41.50zM18.125,41.50A0.25,0.25 0 0 0 18.875,41.50A0.25,0.25 0 0 0 18.125,41.50zM25.125,41.50A0.25,0.25 0 0 0 25.875,41.50A0.25,0.25 0 0 0 25.125,41.50zM28.125,41.50A0.25,0.25 0 0 0 28.875,41.50A0.25,0.25 0 0 0 28.125,41.50zM29.125,41.50A0.25,0.25 0 0 0 29.875,41.50A0.25,0.25 0 0 0 29.125,41.50zM30.125,41.50A0.25,0.25 0 0 0 30.875,41.50A0.25,0.25 0 0 0 30.125,41.50zM35.125,41.50A0.25,0.25 0 0 0 35.875,41.50A0.25,0.25 0 0 0 35.125,41.50zM36.125,41.50A0.25,0.25 0 0 0 36.875,41.50A0.25,0.25 0 0 0 36.125,41.50zM38.125,41.50A0.25,0.25 0 0 0 38.875,41.50A0.25,0.25 0 0 0 38.125,41.50zM40.125,41.50A0.25,0.25 0 0 0 40.875,41.50A0.25,0.25 0 0 0 40.125,41.50zM42.125,41.50A0.25,0.25 0 0 0 42.875,41.50A0.25,0.25 0 0 0 42.125,41.50zM2,42H3V43H2zM3,42H4V43H3zM4,42H5V43H4zM5,42H6V43H5zM6,42H7V43H6zM7,42H8V43H7zM8,42H9V43H8zM11.125,42.50A0.25,0.25 0 0 0 11.875,42.50A0.25,0.25 0 0 0 11.125,42.50zM12.125,42.50A0.25,0.25 0 0 0 12.875,42.50A0.25,0.25 0 0 0 12.125,42.50zM14.125,42.50A0.25,0.25 0 0 0 14.875,42.50A0.25,0.25 0 0 0 14.125,42.50zM15.125,42.50A0.25,0.25 0 0 0 15.875,42.50A0.25,0.25 0 0 0 15.125,42.50zM16.125,42.50A0.25,0.25 0 0 0 16.875,42.50A0.25,0.25 0 0 0 16.125,42.50zM17.125,42.50A0.25,0.25 0 0 0 17.875,42.50A0.25,0.25 0 0 0 17.125,42.50zM23.125,42.50A0.25,0.25 0 0 0 23.875,42.50A0.25,0.25 0 0 0 23.125,42.50zM24.125,42.50A0.25,0.25 0 0 0 24.875,42.50A0.25,0.25 0 0 0 24.125,42.50zM27.125,42.50A0.25,0.25 0 0 0 27.875,42.50A0.25,0.25 0 0 0 27.125,42.50zM29.125,42.50A0.25,0.25 0 0 0 29.875,42.50A0.25,0.25 0 0 0 29.125,42.50zM33.125,42.50A0.25,0.25 0 0 0 33.875,42.50A0.25,0.25 0 0 0 33.125,42.50zM34.125,42.50A0.25,0.25 0 0 0 34.875,42.50A0.25,0.25 0 0 0 34.125,42.50zM36.125,42.50A0.25,0.25 0 0 0 36.875,42.50A0.25,0.25 0 0 0 36.125,42.50zM38.125,42.50A0.25,0.25 0 0 0 38.875,42.50A0.25,0.25 0 0 0 38.125,42.50zM39.125,42.50A0.25,0.25 0 0 0 39.875,42.50A0.25,0.25 0 0 0 39.125,42.50z" id="qr-path" fill="black" fill-opacity="1" fill-rule="nonzero" stroke="none" /></a></svg>