<svg href="https://asongtoruin.github.io/modelling-world-2025/" version="1.1" viewBox="0 0 49 49" xmlns="http://www.w3.org/2000/svg"><path d="M4,4H5V5H4zM5,4H6V5H5zM6,4H7V5H6zM7,4H8V5H7zM8,4H9V5H8zM9,4H10V5H9zM10,4H11V5H10zM15.125,4.50A0.25,0.25 0 0 0 15.875,4.50A0.25,0.25 0 0 0 15.125,4.50zM17.125,4.50A0.25,0.25 0 0 0 17.875,4.50A0.25,0.25 0 0 0 17.125,4.50zM19.125,4.50A0.25,0.25 0 0 0 19.875,4.50A0.25,0.25 0 0 0 19.125,4.50zM21.125,4.50A0.25,0.25 0 0 0 21.875,4.50A0.25,0.25 0 0 0 21.125,4.50zM25.125,4.50A0.25,0.25 0 0 0 25.875,4.50A0.25,0.25 0 0 0 25.125,4.50zM27.125,4.50A0.25,0.25 0 0 0 27.875,4.50A0.25,0.25 0 0 0 27.125,4.50zM30.125,4.50A0.25,0.25 0 0 0 30.875,4.50A0.25,0.25 0 0 0 30.125,4.50zM33.125,4.50A0.25,0.25 0 0 0 33.875,4.50A0.25,0.25 0 0 0 33.125,4.50zM34.125,4.50A0.25,0.25 0 0 0 34.875,4.50A0.25,0.25 0 0 0 34.125,4.50zM38,4H39V5H38zM39,4H40V5H39zM40,4H41V5H40zM41,4H42V5H41zM42,4H43V5H42zM43,4H44V5H43zM44,4H45V5H44zM4,5H5V6H4zM10,5H11V6H10zM14.125,5.50A0.25,0.25 0 0 0 14.875,5.50A0.25,0.25 0 0 0 14.125,5.50zM15.125,5.50A0.25,0.25 0 0 0 15.875,5.50A0.25,0.25 0 0 0 15.125,5.50zM17.125,5.50A0.25,0.25 0 0 0 17.875,5.50A0.25,0.25 0 0 0 17.125,5.50zM19.125,5.50A0.25,0.25 0 0 0 19.875,5.50A0.25,0.25 0 0 0 19.125,5.50zM20.125,5.50A0.25,0.25 0 0 0 20.875,5.50A0.25,0.25 0 0 0 20.125,5.50zM21.125,5.50A0.25,0.25 0 0 0 21.875,5.50A0.25,0.25 0 0 0 21.125,5.50zM22.125,5.50A0.25,0.25 0 0 0 22.875,5.50A0.25,0.25 0 0 0 22.125,5.50zM23.125,5.50A0.25,0.25 0 0 0 23.875,5.50A0.25,0.25 0 0 0 23.125,5.50zM27.125,5.50A0.25,0.25 0 0 0 27.875,5.50A0.25,0.25 0 0 0 27.125,5.50zM28.125,5.50A0.25,0.25 0 0 0 28.875,5.50A0.25,0.25 0 0 0 28.125,5.50zM34.125,5.50A0.25,0.25 0 0 0 34.875,5.50A0.25,0.25 0 0 0 34.125,5.50zM35.125,5.50A0.25,0.25 0 0 0 35.875,5.50A0.25,0.25 0 0 0 35.125,5.50zM36.125,5.50A0.25,0.25 0 0 0 36.875,5.50A0.25,0.25 0 0 0 36.125,5.50zM38,5H39V6H38zM44,5H45V6H44zM4,6H5V7H4zM6,6H7V7H6zM7,6H8V7H7zM8,6H9V7H8zM10,6H11V7H10zM12.125,6.50A0.25,0.25 0 0 0 12.875,6.50A0.25,0.25 0 0 0 12.125,6.50zM14.125,6.50A0.25,0.25 0 0 0 14.875,6.50A0.25,0.25 0 0 0 14.125,6.50zM15.125,6.50A0.25,0.25 0 0 0 15.875,6.50A0.25,0.25 0 0 0 15.125,6.50zM22.125,6.50A0.25,0.25 0 0 0 22.875,6.50A0.25,0.25 0 0 0 22.125,6.50zM24.125,6.50A0.25,0.25 0 0 0 24.875,6.50A0.25,0.25 0 0 0 24.125,6.50zM26.125,6.50A0.25,0.25 0 0 0 26.875,6.50A0.25,0.25 0 0 0 26.125,6.50zM27.125,6.50A0.25,0.25 0 0 0 27.875,6.50A0.25,0.25 0 0 0 27.125,6.50zM28.125,6.50A0.25,0.25 0 0 0 28.875,6.50A0.25,0.25 0 0 0 28.125,6.50zM32.125,6.50A0.25,0.25 0 0 0 32.875,6.50A0.25,0.25 0 0 0 32.125,6.50zM36.125,6.50A0.25,0.25 0 0 0 36.875,6.50A0.25,0.25 0 0 0 36.125,6.50zM38,6H39V7H38zM40,6H41V7H40zM41,6H42V7H41zM42,6H43V7H42zM44,6H45V7H44zM4,7H5V8H4zM6,7H7V8H6zM7,7H8V8H7zM8,7H9V8H8zM10,7H11V8H10zM12.125,7.50A0.25,0.25 0 0 0 12.875,7.50A0.25,0.25 0 0 0 12.125,7.50zM14.125,7.50A0.25,0.25 0 0 0 14.875,7.50A0.25,0.25 0 0 0 14.125,7.50zM16.125,7.50A0.25,0.25 0 0 0 16.875,7.50A0.25,0.25 0 0 0 16.125,7.50zM18.125,7.50A0.25,0.25 0 0 0 18.875,7.50A0.25,0.25 0 0 0 18.125,7.50zM19.125,7.50A0.25,0.25 0 0 0 19.875,7.50A0.25,0.25 0 0 0 19.125,7.50zM22.125,7.50A0.25,0.25 0 0 0 22.875,7.50A0.25,0.25 0 0 0 22.125,7.50zM25.125,7.50A0.25,0.25 0 0 0 25.875,7.50A0.25,0.25 0 0 0 25.125,7.50zM26.125,7.50A0.25,0.25 0 0 0 26.875,7.50A0.25,0.25 0 0 0 26.125,7.50zM32.125,7.50A0.25,0.25 0 0 0 32.875,7.50A0.25,0.25 0 0 0 32.125,7.50zM34.125,7.50A0.25,0.25 0 0 0 34.875,7.50A0.25,0.25 0 0 0 34.125,7.50zM35.125,7.50A0.25,0.25 0 0 0 35.875,7.50A0.25,0.25 0 0 0 35.125,7.50zM36.125,7.50A0.25,0.25 0 0 0 36.875,7.50A0.25,0.25 0 0 0 36.125,7.50zM38,7H39V8H38zM40,7H41V8H40zM41,7H42V8H41zM42,7H43V8H42zM44,7H45V8H44zM4,8H5V9H4zM6,8H7V9H6zM7,8H8V9H7zM8,8H9V9H8zM10,8H11V9H10zM13.125,8.50A0.25,0.25 0 0 0 13.875,8.50A0.25,0.25 0 0 0 13.125,8.50zM14.125,8.50A0.25,0.25 0 0 0 14.875,8.50A0.25,0.25 0 0 0 14.125,8.50zM15.125,8.50A0.25,0.25 0 0 0 15.875,8.50A0.25,0.25 0 0 0 15.125,8.50zM18.125,8.50A0.25,0.25 0 0 0 18.875,8.50A0.25,0.25 0 0 0 18.125,8.50zM19.125,8.50A0.25,0.25 0 0 0 19.875,8.50A0.25,0.25 0 0 0 19.125,8.50zM21.125,8.50A0.25,0.25 0 0 0 21.875,8.50A0.25,0.25 0 0 0 21.125,8.50zM22.125,8.50A0.25,0.25 0 0 0 22.875,8.50A0.25,0.25 0 0 0 22.125,8.50zM24.125,8.50A0.25,0.25 0 0 0 24.875,8.50A0.25,0.25 0 0 0 24.125,8.50zM26.125,8.50A0.25,0.25 0 0 0 26.875,8.50A0.25,0.25 0 0 0 26.125,8.50zM28.125,8.50A0.25,0.25 0 0 0 28.875,8.50A0.25,0.25 0 0 0 28.125,8.50zM29.125,8.50A0.25,0.25 0 0 0 29.875,8.50A0.25,0.25 0 0 0 29.125,8.50zM30.125,8.50A0.25,0.25 0 0 0 30.875,8.50A0.25,0.25 0 0 0 30.125,8.50zM32.125,8.50A0.25,0.25 0 0 0 32.875,8.50A0.25,0.25 0 0 0 32.125,8.50zM33.125,8.50A0.25,0.25 0 0 0 33.875,8.50A0.25,0.25 0 0 0 33.125,8.50zM35.125,8.50A0.25,0.25 0 0 0 35.875,8.50A0.25,0.25 0 0 0 35.125,8.50zM38,8H39V9H38zM40,8H41V9H40zM41,8H42V9H41zM42,8H43V9H42zM44,8H45V9H44zM4,9H5V10H4zM10,9H11V10H10zM13.125,9.50A0.25,0.25 0 0 0 13.875,9.50A0.25,0.25 0 0 0 13.125,9.50zM14.125,9.50A0.25,0.25 0 0 0 14.875,9.50A0.25,0.25 0 0 0 14.125,9.50zM15.125,9.50A0.25,0.25 0 0 0 15.875,9.50A0.25,0.25 0 0 0 15.125,9.50zM16.125,9.50A0.25,0.25 0 0 0 16.875,9.50A0.25,0.25 0 0 0 16.125,9.50zM18.125,9.50A0.25,0.25 0 0 0 18.875,9.50A0.25,0.25 0 0 0 18.125,9.50zM19.125,9.50A0.25,0.25 0 0 0 19.875,9.50A0.25,0.25 0 0 0 19.125,9.50zM20.125,9.50A0.25,0.25 0 0 0 20.875,9.50A0.25,0.25 0 0 0 20.125,9.50zM21.125,9.50A0.25,0.25 0 0 0 21.875,9.50A0.25,0.25 0 0 0 21.125,9.50zM22.125,9.50A0.25,0.25 0 0 0 22.875,9.50A0.25,0.25 0 0 0 22.125,9.50zM23.125,9.50A0.25,0.25 0 0 0 23.875,9.50A0.25,0.25 0 0 0 23.125,9.50zM25.125,9.50A0.25,0.25 0 0 0 25.875,9.50A0.25,0.25 0 0 0 25.125,9.50zM29.125,9.50A0.25,0.25 0 0 0 29.875,9.50A0.25,0.25 0 0 0 29.125,9.50zM30.125,9.50A0.25,0.25 0 0 0 30.875,9.50A0.25,0.25 0 0 0 30.125,9.50zM33.125,9.50A0.25,0.25 0 0 0 33.875,9.50A0.25,0.25 0 0 0 33.125,9.50zM34.125,9.50A0.25,0.25 0 0 0 34.875,9.50A0.25,0.25 0 0 0 34.125,9.50zM38,9H39V10H38zM44,9H45V10H44zM4,10H5V11H4zM5,10H6V11H5zM6,10H7V11H6zM7,10H8V11H7zM8,10H9V11H8zM9,10H10V11H9zM10,10H11V11H10zM12.125,10.50A0.25,0.25 0 0 0 12.875,10.50A0.25,0.25 0 0 0 12.125,10.50zM14.125,10.50A0.25,0.25 0 0 0 14.875,10.50A0.25,0.25 0 0 0 14.125,10.50zM16.125,10.50A0.25,0.25 0 0 0 16.875,10.50A0.25,0.25 0 0 0 16.125,10.50zM18.125,10.50A0.25,0.25 0 0 0 18.875,10.50A0.25,0.25 0 0 0 18.125,10.50zM20.125,10.50A0.25,0.25 0 0 0 20.875,10.50A0.25,0.25 0 0 0 20.125,10.50zM22.125,10.50A0.25,0.25 0 0 0 22.875,10.50A0.25,0.25 0 0 0 22.125,10.50zM24.125,10.50A0.25,0.25 0 0 0 24.875,10.50A0.25,0.25 0 0 0 24.125,10.50zM26.125,10.50A0.25,0.25 0 0 0 26.875,10.50A0.25,0.25 0 0 0 26.125,10.50zM28.125,10.50A0.25,0.25 0 0 0 28.875,10.50A0.25,0.25 0 0 0 28.125,10.50zM30.125,10.50A0.25,0.25 0 0 0 30.875,10.50A0.25,0.25 0 0 0 30.125,10.50zM32.125,10.50A0.25,0.25 0 0 0 32.875,10.50A0.25,0.25 0 0 0 32.125,10.50zM34.125,10.50A0.25,0.25 0 0 0 34.875,10.50A0.25,0.25 0 0 0 34.125,10.50zM36.125,10.50A0.25,0.25 0 0 0 36.875,10.50A0.25,0.25 0 0 0 36.125,10.50zM38,10H39V11H38zM39,10H40V11H39zM40,10H41V11H40zM41,10H42V11H41zM42,10H43V11H42zM43,10H44V11H43zM44,10H45V11H44zM13.125,11.50A0.25,0.25 0 0 0 13.875,11.50A0.25,0.25 0 0 0 13.125,11.50zM14.125,11.50A0.25,0.25 0 0 0 14.875,11.50A0.25,0.25 0 0 0 14.125,11.50zM16.125,11.50A0.25,0.25 0 0 0 16.875,11.50A0.25,0.25 0 0 0 16.125,11.50zM17.125,11.50A0.25,0.25 0 0 0 17.875,11.50A0.25,0.25 0 0 0 17.125,11.50zM19.125,11.50A0.25,0.25 0 0 0 19.875,11.50A0.25,0.25 0 0 0 19.125,11.50zM20.125,11.50A0.25,0.25 0 0 0 20.875,11.50A0.25,0.25 0 0 0 20.125,11.50zM22.125,11.50A0.25,0.25 0 0 0 22.875,11.50A0.25,0.25 0 0 0 22.125,11.50zM23.125,11.50A0.25,0.25 0 0 0 23.875,11.50A0.25,0.25 0 0 0 23.125,11.50zM25.125,11.50A0.25,0.25 0 0 0 25.875,11.50A0.25,0.25 0 0 0 25.125,11.50zM27.125,11.50A0.25,0.25 0 0 0 27.875,11.50A0.25,0.25 0 0 0 27.125,11.50zM29.125,11.50A0.25,0.25 0 0 0 29.875,11.50A0.25,0.25 0 0 0 29.125,11.50zM30.125,11.50A0.25,0.25 0 0 0 30.875,11.50A0.25,0.25 0 0 0 30.125,11.50zM35.125,11.50A0.25,0.25 0 0 0 35.875,11.50A0.25,0.25 0 0 0 35.125,11.50zM7.125,12.50A0.25,0.25 0 0 0 7.875,12.50A0.25,0.25 0 0 0 7.125,12.50zM8.125,12.50A0.25,0.25 0 0 0 8.875,12.50A0.25,0.25 0 0 0 8.125,12.50zM10.125,12.50A0.25,0.25 0 0 0 10.875,12.50A0.25,0.25 0 0 0 10.125,12.50zM11.125,12.50A0.25,0.25 0 0 0 11.875,12.50A0.25,0.25 0 0 0 11.125,12.50zM16.125,12.50A0.25,0.25 0 0 0 16.875,12.50A0.25,0.25 0 0 0 16.125,12.50zM17.125,12.50A0.25,0.25 0 0 0 17.875,12.50A0.25,0.25 0 0 0 17.125,12.50zM18.125,12.50A0.25,0.25 0 0 0 18.875,12.50A0.25,0.25 0 0 0 18.125,12.50zM19.125,12.50A0.25,0.25 0 0 0 19.875,12.50A0.25,0.25 0 0 0 19.125,12.50zM21.125,12.50A0.25,0.25 0 0 0 21.875,12.50A0.25,0.25 0 0 0 21.125,12.50zM24.125,12.50A0.25,0.25 0 0 0 24.875,12.50A0.25,0.25 0 0 0 24.125,12.50zM25.125,12.50A0.25,0.25 0 0 0 25.875,12.50A0.25,0.25 0 0 0 25.125,12.50zM26.125,12.50A0.25,0.25 0 0 0 26.875,12.50A0.25,0.25 0 0 0 26.125,12.50zM28.125,12.50A0.25,0.25 0 0 0 28.875,12.50A0.25,0.25 0 0 0 28.125,12.50zM29.125,12.50A0.25,0.25 0 0 0 29.875,12.50A0.25,0.25 0 0 0 29.125,12.50zM33.125,12.50A0.25,0.25 0 0 0 33.875,12.50A0.25,0.25 0 0 0 33.125,12.50zM35.125,12.50A0.25,0.25 0 0 0 35.875,12.50A0.25,0.25 0 0 0 35.125,12.50zM41.125,12.50A0.25,0.25 0 0 0 41.875,12.50A0.25,0.25 0 0 0 41.125,12.50zM42.125,12.50A0.25,0.25 0 0 0 42.875,12.50A0.25,0.25 0 0 0 42.125,12.50zM4.125,13.50A0.25,0.25 0 0 0 4.875,13.50A0.25,0.25 0 0 0 4.125,13.50zM6.125,13.50A0.25,0.25 0 0 0 6.875,13.50A0.25,0.25 0 0 0 6.125,13.50zM7.125,13.50A0.25,0.25 0 0 0 7.875,13.50A0.25,0.25 0 0 0 7.125,13.50zM8.125,13.50A0.25,0.25 0 0 0 8.875,13.50A0.25,0.25 0 0 0 8.125,13.50zM9.125,13.50A0.25,0.25 0 0 0 9.875,13.50A0.25,0.25 0 0 0 9.125,13.50zM13.125,13.50A0.25,0.25 0 0 0 13.875,13.50A0.25,0.25 0 0 0 13.125,13.50zM15.125,13.50A0.25,0.25 0 0 0 15.875,13.50A0.25,0.25 0 0 0 15.125,13.50zM18.125,13.50A0.25,0.25 0 0 0 18.875,13.50A0.25,0.25 0 0 0 18.125,13.50zM19.125,13.50A0.25,0.25 0 0 0 19.875,13.50A0.25,0.25 0 0 0 19.125,13.50zM22.125,13.50A0.25,0.25 0 0 0 22.875,13.50A0.25,0.25 0 0 0 22.125,13.50zM24.125,13.50A0.25,0.25 0 0 0 24.875,13.50A0.25,0.25 0 0 0 24.125,13.50zM26.125,13.50A0.25,0.25 0 0 0 26.875,13.50A0.25,0.25 0 0 0 26.125,13.50zM27.125,13.50A0.25,0.25 0 0 0 27.875,13.50A0.25,0.25 0 0 0 27.125,13.50zM29.125,13.50A0.25,0.25 0 0 0 29.875,13.50A0.25,0.25 0 0 0 29.125,13.50zM30.125,13.50A0.25,0.25 0 0 0 30.875,13.50A0.25,0.25 0 0 0 30.125,13.50zM31.125,13.50A0.25,0.25 0 0 0 31.875,13.50A0.25,0.25 0 0 0 31.125,13.50zM33.125,13.50A0.25,0.25 0 0 0 33.875,13.50A0.25,0.25 0 0 0 33.125,13.50zM35.125,13.50A0.25,0.25 0 0 0 35.875,13.50A0.25,0.25 0 0 0 35.125,13.50zM39.125,13.50A0.25,0.25 0 0 0 39.875,13.50A0.25,0.25 0 0 0 39.125,13.50zM40.125,13.50A0.25,0.25 0 0 0 40.875,13.50A0.25,0.25 0 0 0 40.125,13.50zM7.125,14.50A0.25,0.25 0 0 0 7.875,14.50A0.25,0.25 0 0 0 7.125,14.50zM9.125,14.50A0.25,0.25 0 0 0 9.875,14.50A0.25,0.25 0 0 0 9.125,14.50zM10.125,14.50A0.25,0.25 0 0 0 10.875,14.50A0.25,0.25 0 0 0 10.125,14.50zM12.125,14.50A0.25,0.25 0 0 0 12.875,14.50A0.25,0.25 0 0 0 12.125,14.50zM13.125,14.50A0.25,0.25 0 0 0 13.875,14.50A0.25,0.25 0 0 0 13.125,14.50zM16.125,14.50A0.25,0.25 0 0 0 16.875,14.50A0.25,0.25 0 0 0 16.125,14.50zM19.125,14.50A0.25,0.25 0 0 0 19.875,14.50A0.25,0.25 0 0 0 19.125,14.50zM20.125,14.50A0.25,0.25 0 0 0 20.875,14.50A0.25,0.25 0 0 0 20.125,14.50zM21.125,14.50A0.25,0.25 0 0 0 21.875,14.50A0.25,0.25 0 0 0 21.125,14.50zM25.125,14.50A0.25,0.25 0 0 0 25.875,14.50A0.25,0.25 0 0 0 25.125,14.50zM26.125,14.50A0.25,0.25 0 0 0 26.875,14.50A0.25,0.25 0 0 0 26.125,14.50zM30.125,14.50A0.25,0.25 0 0 0 30.875,14.50A0.25,0.25 0 0 0 30.125,14.50zM31.125,14.50A0.25,0.25 0 0 0 31.875,14.50A0.25,0.25 0 0 0 31.125,14.50zM32.125,14.50A0.25,0.25 0 0 0 32.875,14.50A0.25,0.25 0 0 0 32.125,14.50zM33.125,14.50A0.25,0.25 0 0 0 33.875,14.50A0.25,0.25 0 0 0 33.125,14.50zM34.125,14.50A0.25,0.25 0 0 0 34.875,14.50A0.25,0.25 0 0 0 34.125,14.50zM37.125,14.50A0.25,0.25 0 0 0 37.875,14.50A0.25,0.25 0 0 0 37.125,14.50zM40.125,14.50A0.25,0.25 0 0 0 40.875,14.50A0.25,0.25 0 0 0 40.125,14.50zM42.125,14.50A0.25,0.25 0 0 0 42.875,14.50A0.25,0.25 0 0 0 42.125,14.50zM43.125,14.50A0.25,0.25 0 0 0 43.875,14.50A0.25,0.25 0 0 0 43.125,14.50zM9.125,15.50A0.25,0.25 0 0 0 9.875,15.50A0.25,0.25 0 0 0 9.125,15.50zM13.125,15.50A0.25,0.25 0 0 0 13.875,15.50A0.25,0.25 0 0 0 13.125,15.50zM14.125,15.50A0.25,0.25 0 0 0 14.875,15.50A0.25,0.25 0 0 0 14.125,15.50zM15.125,15.50A0.25,0.25 0 0 0 15.875,15.50A0.25,0.25 0 0 0 15.125,15.50zM17.125,15.50A0.25,0.25 0 0 0 17.875,15.50A0.25,0.25 0 0 0 17.125,15.50zM18.125,15.50A0.25,0.25 0 0 0 18.875,15.50A0.25,0.25 0 0 0 18.125,15.50zM19.125,15.50A0.25,0.25 0 0 0 19.875,15.50A0.25,0.25 0 0 0 19.125,15.50zM20.125,15.50A0.25,0.25 0 0 0 20.875,15.50A0.25,0.25 0 0 0 20.125,15.50zM22.125,15.50A0.25,0.25 0 0 0 22.875,15.50A0.25,0.25 0 0 0 22.125,15.50zM23.125,15.50A0.25,0.25 0 0 0 23.875,15.50A0.25,0.25 0 0 0 23.125,15.50zM25.125,15.50A0.25,0.25 0 0 0 25.875,15.50A0.25,0.25 0 0 0 25.125,15.50zM27.125,15.50A0.25,0.25 0 0 0 27.875,15.50A0.25,0.25 0 0 0 27.125,15.50zM29.125,15.50A0.25,0.25 0 0 0 29.875,15.50A0.25,0.25 0 0 0 29.125,15.50zM30.125,15.50A0.25,0.25 0 0 0 30.875,15.50A0.25,0.25 0 0 0 30.125,15.50zM31.125,15.50A0.25,0.25 0 0 0 31.875,15.50A0.25,0.25 0 0 0 31.125,15.50zM33.125,15.50A0.25,0.25 0 0 0 33.875,15.50A0.25,0.25 0 0 0 33.125,15.50zM34.125,15.50A0.25,0.25 0 0 0 34.875,15.50A0.25,0.25 0 0 0 34.125,15.50zM35.125,15.50A0.25,0.25 0 0 0 35.875,15.50A0.25,0.25 0 0 0 35.125,15.50zM36.125,15.50A0.25,0.25 0 0 0 36.875,15.50A0.25,0.25 0 0 0 36.125,15.50zM40.125,15.50A0.25,0.25 0 0 0 40.875,15.50A0.25,0.25 0 0 0 40.125,15.50zM41.125,15.50A0.25,0.25 0 0 0 41.875,15.50A0.25,0.25 0 0 0 41.125,15.50zM44.125,15.50A0.25,0.25 0 0 0 44.875,15.50A0.25,0.25 0 0 0 44.125,15.50zM4.125,16.50A0.25,0.25 0 0 0 4.875,16.50A0.25,0.25 0 0 0 4.125,16.50zM5.125,16.50A0.25,0.25 0 0 0 5.875,16.50A0.25,0.25 0 0 0 5.125,16.50zM6.125,16.50A0.25,0.25 0 0 0 6.875,16.50A0.25,0.25 0 0 0 6.125,16.50zM7.125,16.50A0.25,0.25 0 0 0 7.875,16.50A0.25,0.25 0 0 0 7.125,16.50zM8.125,16.50A0.25,0.25 0 0 0 8.875,16.50A0.25,0.25 0 0 0 8.125,16.50zM10.125,16.50A0.25,0.25 0 0 0 10.875,16.50A0.25,0.25 0 0 0 10.125,16.50zM11.125,16.50A0.25,0.25 0 0 0 11.875,16.50A0.25,0.25 0 0 0 11.125,16.50zM14.125,16.50A0.25,0.25 0 0 0 14.875,16.50A0.25,0.25 0 0 0 14.125,16.50zM16.125,16.50A0.25,0.25 0 0 0 16.875,16.50A0.25,0.25 0 0 0 16.125,16.50zM17.125,16.50A0.25,0.25 0 0 0 17.875,16.50A0.25,0.25 0 0 0 17.125,16.50zM19.125,16.50A0.25,0.25 0 0 0 19.875,16.50A0.25,0.25 0 0 0 19.125,16.50zM21.125,16.50A0.25,0.25 0 0 0 21.875,16.50A0.25,0.25 0 0 0 21.125,16.50zM22.125,16.50A0.25,0.25 0 0 0 22.875,16.50A0.25,0.25 0 0 0 22.125,16.50zM23.125,16.50A0.25,0.25 0 0 0 23.875,16.50A0.25,0.25 0 0 0 23.125,16.50zM25.125,16.50A0.25,0.25 0 0 0 25.875,16.50A0.25,0.25 0 0 0 25.125,16.50zM26.125,16.50A0.25,0.25 0 0 0 26.875,16.50A0.25,0.25 0 0 0 26.125,16.50zM27.125,16.50A0.25,0.25 0 0 0 27.875,16.50A0.25,0.25 0 0 0 27.125,16.50zM28.125,16.50A0.25,0.25 0 0 0 28.875,16.50A0.25,0.25 0 0 0 28.125,16.50zM30.125,16.50A0.25,0.25 0 0 0 30.875,16.50A0.25,0.25 0 0 0 30.125,16.50zM31.125,16.50A0.25,0.25 0 0 0 31.875,16.50A0.25,0.25 0 0 0 31.125,16.50zM36.125,16.50A0.25,0.25 0 0 0 36.875,16.50A0.25,0.25 0 0 0 36.125,16.50zM37.125,16.50A0.25,0.25 0 0 0 37.875,16.50A0.25,0.25 0 0 0 37.125,16.50zM38.125,16.50A0.25,0.25 0 0 0 38.875,16.50A0.25,0.25 0 0 0 38.125,16.50zM39.125,16.50A0.25,0.25 0 0 0 39.875,16.50A0.25,0.25 0 0 0 39.125,16.50zM44.125,16.50A0.25,0.25 0 0 0 44.875,16.50A0.25,0.25 0 0 0 44.125,16.50zM5.125,17.50A0.25,0.25 0 0 0 5.875,17.50A0.25,0.25 0 0 0 5.125,17.50zM8.125,17.50A0.25,0.25 0 0 0 8.875,17.50A0.25,0.25 0 0 0 8.125,17.50zM14.125,17.50A0.25,0.25 0 0 0 14.875,17.50A0.25,0.25 0 0 0 14.125,17.50zM15.125,17.50A0.25,0.25 0 0 0 15.875,17.50A0.25,0.25 0 0 0 15.125,17.50zM18.125,17.50A0.25,0.25 0 0 0 18.875,17.50A0.25,0.25 0 0 0 18.125,17.50zM19.125,17.50A0.25,0.25 0 0 0 19.875,17.50A0.25,0.25 0 0 0 19.125,17.50zM20.125,17.50A0.25,0.25 0 0 0 20.875,17.50A0.25,0.25 0 0 0 20.125,17.50zM22.125,17.50A0.25,0.25 0 0 0 22.875,17.50A0.25,0.25 0 0 0 22.125,17.50zM23.125,17.50A0.25,0.25 0 0 0 23.875,17.50A0.25,0.25 0 0 0 23.125,17.50zM24.125,17.50A0.25,0.25 0 0 0 24.875,17.50A0.25,0.25 0 0 0 24.125,17.50zM25.125,17.50A0.25,0.25 0 0 0 25.875,17.50A0.25,0.25 0 0 0 25.125,17.50zM27.125,17.50A0.25,0.25 0 0 0 27.875,17.50A0.25,0.25 0 0 0 27.125,17.50zM28.125,17.50A0.25,0.25 0 0 0 28.875,17.50A0.25,0.25 0 0 0 28.125,17.50zM35.125,17.50A0.25,0.25 0 0 0 35.875,17.50A0.25,0.25 0 0 0 35.125,17.50zM37.125,17.50A0.25,0.25 0 0 0 37.875,17.50A0.25,0.25 0 0 0 37.125,17.50zM38.125,17.50A0.25,0.25 0 0 0 38.875,17.50A0.25,0.25 0 0 0 38.125,17.50zM40.125,17.50A0.25,0.25 0 0 0 40.875,17.50A0.25,0.25 0 0 0 40.125,17.50zM41.125,17.50A0.25,0.25 0 0 0 41.875,17.50A0.25,0.25 0 0 0 41.125,17.50zM42.125,17.50A0.25,0.25 0 0 0 42.875,17.50A0.25,0.25 0 0 0 42.125,17.50zM44.125,17.50A0.25,0.25 0 0 0 44.875,17.50A0.25,0.25 0 0 0 44.125,17.50zM4.125,18.50A0.25,0.25 0 0 0 4.875,18.50A0.25,0.25 0 0 0 4.125,18.50zM6.125,18.50A0.25,0.25 0 0 0 6.875,18.50A0.25,0.25 0 0 0 6.125,18.50zM7.125,18.50A0.25,0.25 0 0 0 7.875,18.50A0.25,0.25 0 0 0 7.125,18.50zM9.125,18.50A0.25,0.25 0 0 0 9.875,18.50A0.25,0.25 0 0 0 9.125,18.50zM10.125,18.50A0.25,0.25 0 0 0 10.875,18.50A0.25,0.25 0 0 0 10.125,18.50zM11.125,18.50A0.25,0.25 0 0 0 11.875,18.50A0.25,0.25 0 0 0 11.125,18.50zM12.125,18.50A0.25,0.25 0 0 0 12.875,18.50A0.25,0.25 0 0 0 12.125,18.50zM13.125,18.50A0.25,0.25 0 0 0 13.875,18.50A0.25,0.25 0 0 0 13.125,18.50zM15.125,18.50A0.25,0.25 0 0 0 15.875,18.50A0.25,0.25 0 0 0 15.125,18.50zM19.125,18.50A0.25,0.25 0 0 0 19.875,18.50A0.25,0.25 0 0 0 19.125,18.50zM22.125,18.50A0.25,0.25 0 0 0 22.875,18.50A0.25,0.25 0 0 0 22.125,18.50zM23.125,18.50A0.25,0.25 0 0 0 23.875,18.50A0.25,0.25 0 0 0 23.125,18.50zM25.125,18.50A0.25,0.25 0 0 0 25.875,18.50A0.25,0.25 0 0 0 25.125,18.50zM26.125,18.50A0.25,0.25 0 0 0 26.875,18.50A0.25,0.25 0 0 0 26.125,18.50zM28.125,18.50A0.25,0.25 0 0 0 28.875,18.50A0.25,0.25 0 0 0 28.125,18.50zM29.125,18.50A0.25,0.25 0 0 0 29.875,18.50A0.25,0.25 0 0 0 29.125,18.50zM30.125,18.50A0.25,0.25 0 0 0 30.875,18.50A0.25,0.25 0 0 0 30.125,18.50zM31.125,18.50A0.25,0.25 0 0 0 31.875,18.50A0.25,0.25 0 0 0 31.125,18.50zM33.125,18.50A0.25,0.25 0 0 0 33.875,18.50A0.25,0.25 0 0 0 33.125,18.50zM37.125,18.50A0.25,0.25 0 0 0 37.875,18.50A0.25,0.25 0 0 0 37.125,18.50zM38.125,18.50A0.25,0.25 0 0 0 38.875,18.50A0.25,0.25 0 0 0 38.125,18.50zM41.125,18.50A0.25,0.25 0 0 0 41.875,18.50A0.25,0.25 0 0 0 41.125,18.50zM42.125,18.50A0.25,0.25 0 0 0 42.875,18.50A0.25,0.25 0 0 0 42.125,18.50zM44.125,18.50A0.25,0.25 0 0 0 44.875,18.50A0.25,0.25 0 0 0 44.125,18.50zM6.125,19.50A0.25,0.25 0 0 0 6.875,19.50A0.25,0.25 0 0 0 6.125,19.50zM9.125,19.50A0.25,0.25 0 0 0 9.875,19.50A0.25,0.25 0 0 0 9.125,19.50zM12.125,19.50A0.25,0.25 0 0 0 12.875,19.50A0.25,0.25 0 0 0 12.125,19.50zM13.125,19.50A0.25,0.25 0 0 0 13.875,19.50A0.25,0.25 0 0 0 13.125,19.50zM16.125,19.50A0.25,0.25 0 0 0 16.875,19.50A0.25,0.25 0 0 0 16.125,19.50zM19.125,19.50A0.25,0.25 0 0 0 19.875,19.50A0.25,0.25 0 0 0 19.125,19.50zM21.125,19.50A0.25,0.25 0 0 0 21.875,19.50A0.25,0.25 0 0 0 21.125,19.50zM22.125,19.50A0.25,0.25 0 0 0 22.875,19.50A0.25,0.25 0 0 0 22.125,19.50zM24.125,19.50A0.25,0.25 0 0 0 24.875,19.50A0.25,0.25 0 0 0 24.125,19.50zM26.125,19.50A0.25,0.25 0 0 0 26.875,19.50A0.25,0.25 0 0 0 26.125,19.50zM29.125,19.50A0.25,0.25 0 0 0 29.875,19.50A0.25,0.25 0 0 0 29.125,19.50zM32.125,19.50A0.25,0.25 0 0 0 32.875,19.50A0.25,0.25 0 0 0 32.125,19.50zM35.125,19.50A0.25,0.25 0 0 0 35.875,19.50A0.25,0.25 0 0 0 35.125,19.50zM37.125,19.50A0.25,0.25 0 0 0 37.875,19.50A0.25,0.25 0 0 0 37.125,19.50zM39.125,19.50A0.25,0.25 0 0 0 39.875,19.50A0.25,0.25 0 0 0 39.125,19.50zM41.125,19.50A0.25,0.25 0 0 0 41.875,19.50A0.25,0.25 0 0 0 41.125,19.50zM42.125,19.50A0.25,0.25 0 0 0 42.875,19.50A0.25,0.25 0 0 0 42.125,19.50zM43.125,19.50A0.25,0.25 0 0 0 43.875,19.50A0.25,0.25 0 0 0 43.125,19.50zM4.125,20.50A0.25,0.25 0 0 0 4.875,20.50A0.25,0.25 0 0 0 4.125,20.50zM5.125,20.50A0.25,0.25 0 0 0 5.875,20.50A0.25,0.25 0 0 0 5.125,20.50zM6.125,20.50A0.25,0.25 0 0 0 6.875,20.50A0.25,0.25 0 0 0 6.125,20.50zM9.125,20.50A0.25,0.25 0 0 0 9.875,20.50A0.25,0.25 0 0 0 9.125,20.50zM10.125,20.50A0.25,0.25 0 0 0 10.875,20.50A0.25,0.25 0 0 0 10.125,20.50zM12.125,20.50A0.25,0.25 0 0 0 12.875,20.50A0.25,0.25 0 0 0 12.125,20.50zM13.125,20.50A0.25,0.25 0 0 0 13.875,20.50A0.25,0.25 0 0 0 13.125,20.50zM14.125,20.50A0.25,0.25 0 0 0 14.875,20.50A0.25,0.25 0 0 0 14.125,20.50zM17.125,20.50A0.25,0.25 0 0 0 17.875,20.50A0.25,0.25 0 0 0 17.125,20.50zM21.125,20.50A0.25,0.25 0 0 0 21.875,20.50A0.25,0.25 0 0 0 21.125,20.50zM23.125,20.50A0.25,0.25 0 0 0 23.875,20.50A0.25,0.25 0 0 0 23.125,20.50zM24.125,20.50A0.25,0.25 0 0 0 24.875,20.50A0.25,0.25 0 0 0 24.125,20.50zM25.125,20.50A0.25,0.25 0 0 0 25.875,20.50A0.25,0.25 0 0 0 25.125,20.50zM27.125,20.50A0.25,0.25 0 0 0 27.875,20.50A0.25,0.25 0 0 0 27.125,20.50zM28.125,20.50A0.25,0.25 0 0 0 28.875,20.50A0.25,0.25 0 0 0 28.125,20.50zM29.125,20.50A0.25,0.25 0 0 0 29.875,20.50A0.25,0.25 0 0 0 29.125,20.50zM31.125,20.50A0.25,0.25 0 0 0 31.875,20.50A0.25,0.25 0 0 0 31.125,20.50zM32.125,20.50A0.25,0.25 0 0 0 32.875,20.50A0.25,0.25 0 0 0 32.125,20.50zM34.125,20.50A0.25,0.25 0 0 0 34.875,20.50A0.25,0.25 0 0 0 34.125,20.50zM35.125,20.50A0.25,0.25 0 0 0 35.875,20.50A0.25,0.25 0 0 0 35.125,20.50zM36.125,20.50A0.25,0.25 0 0 0 36.875,20.50A0.25,0.25 0 0 0 36.125,20.50zM37.125,20.50A0.25,0.25 0 0 0 37.875,20.50A0.25,0.25 0 0 0 37.125,20.50zM41.125,20.50A0.25,0.25 0 0 0 41.875,20.50A0.25,0.25 0 0 0 41.125,20.50zM44.125,20.50A0.25,0.25 0 0 0 44.875,20.50A0.25,0.25 0 0 0 44.125,20.50zM5.125,21.50A0.25,0.25 0 0 0 5.875,21.50A0.25,0.25 0 0 0 5.125,21.50zM6.125,21.50A0.25,0.25 0 0 0 6.875,21.50A0.25,0.25 0 0 0 6.125,21.50zM9.125,21.50A0.25,0.25 0 0 0 9.875,21.50A0.25,0.25 0 0 0 9.125,21.50zM15.125,21.50A0.25,0.25 0 0 0 15.875,21.50A0.25,0.25 0 0 0 15.125,21.50zM18.125,21.50A0.25,0.25 0 0 0 18.875,21.50A0.25,0.25 0 0 0 18.125,21.50zM19.125,21.50A0.25,0.25 0 0 0 19.875,21.50A0.25,0.25 0 0 0 19.125,21.50zM20.125,21.50A0.25,0.25 0 0 0 20.875,21.50A0.25,0.25 0 0 0 20.125,21.50zM24.125,21.50A0.25,0.25 0 0 0 24.875,21.50A0.25,0.25 0 0 0 24.125,21.50zM26.125,21.50A0.25,0.25 0 0 0 26.875,21.50A0.25,0.25 0 0 0 26.125,21.50zM27.125,21.50A0.25,0.25 0 0 0 27.875,21.50A0.25,0.25 0 0 0 27.125,21.50zM28.125,21.50A0.25,0.25 0 0 0 28.875,21.50A0.25,0.25 0 0 0 28.125,21.50zM29.125,21.50A0.25,0.25 0 0 0 29.875,21.50A0.25,0.25 0 0 0 29.125,21.50zM30.125,21.50A0.25,0.25 0 0 0 30.875,21.50A0.25,0.25 0 0 0 30.125,21.50zM31.125,21.50A0.25,0.25 0 0 0 31.875,21.50A0.25,0.25 0 0 0 31.125,21.50zM34.125,21.50A0.25,0.25 0 0 0 34.875,21.50A0.25,0.25 0 0 0 34.125,21.50zM35.125,21.50A0.25,0.25 0 0 0 35.875,21.50A0.25,0.25 0 0 0 35.125,21.50zM36.125,21.50A0.25,0.25 0 0 0 36.875,21.50A0.25,0.25 0 0 0 36.125,21.50zM37.125,21.50A0.25,0.25 0 0 0 37.875,21.50A0.25,0.25 0 0 0 37.125,21.50zM40.125,21.50A0.25,0.25 0 0 0 40.875,21.50A0.25,0.25 0 0 0 40.125,21.50zM41.125,21.50A0.25,0.25 0 0 0 41.875,21.50A0.25,0.25 0 0 0 41.125,21.50zM42.125,21.50A0.25,0.25 0 0 0 42.875,21.50A0.25,0.25 0 0 0 42.125,21.50zM43.125,21.50A0.25,0.25 0 0 0 43.875,21.50A0.25,0.25 0 0 0 43.125,21.50zM5.125,22.50A0.25,0.25 0 0 0 5.875,22.50A0.25,0.25 0 0 0 5.125,22.50zM7.125,22.50A0.25,0.25 0 0 0 7.875,22.50A0.25,0.25 0 0 0 7.125,22.50zM8.125,22.50A0.25,0.25 0 0 0 8.875,22.50A0.25,0.25 0 0 0 8.125,22.50zM10.125,22.50A0.25,0.25 0 0 0 10.875,22.50A0.25,0.25 0 0 0 10.125,22.50zM11.125,22.50A0.25,0.25 0 0 0 11.875,22.50A0.25,0.25 0 0 0 11.125,22.50zM12.125,22.50A0.25,0.25 0 0 0 12.875,22.50A0.25,0.25 0 0 0 12.125,22.50zM16.125,22.50A0.25,0.25 0 0 0 16.875,22.50A0.25,0.25 0 0 0 16.125,22.50zM18.125,22.50A0.25,0.25 0 0 0 18.875,22.50A0.25,0.25 0 0 0 18.125,22.50zM19.125,22.50A0.25,0.25 0 0 0 19.875,22.50A0.25,0.25 0 0 0 19.125,22.50zM21.125,22.50A0.25,0.25 0 0 0 21.875,22.50A0.25,0.25 0 0 0 21.125,22.50zM24.125,22.50A0.25,0.25 0 0 0 24.875,22.50A0.25,0.25 0 0 0 24.125,22.50zM26.125,22.50A0.25,0.25 0 0 0 26.875,22.50A0.25,0.25 0 0 0 26.125,22.50zM29.125,22.50A0.25,0.25 0 0 0 29.875,22.50A0.25,0.25 0 0 0 29.125,22.50zM30.125,22.50A0.25,0.25 0 0 0 30.875,22.50A0.25,0.25 0 0 0 30.125,22.50zM31.125,22.50A0.25,0.25 0 0 0 31.875,22.50A0.25,0.25 0 0 0 31.125,22.50zM35.125,22.50A0.25,0.25 0 0 0 35.875,22.50A0.25,0.25 0 0 0 35.125,22.50zM39.125,22.50A0.25,0.25 0 0 0 39.875,22.50A0.25,0.25 0 0 0 39.125,22.50zM40.125,22.50A0.25,0.25 0 0 0 40.875,22.50A0.25,0.25 0 0 0 40.125,22.50zM42.125,22.50A0.25,0.25 0 0 0 42.875,22.50A0.25,0.25 0 0 0 42.125,22.50zM44.125,22.50A0.25,0.25 0 0 0 44.875,22.50A0.25,0.25 0 0 0 44.125,22.50zM4.125,23.50A0.25,0.25 0 0 0 4.875,23.50A0.25,0.25 0 0 0 4.125,23.50zM6.125,23.50A0.25,0.25 0 0 0 6.875,23.50A0.25,0.25 0 0 0 6.125,23.50zM7.125,23.50A0.25,0.25 0 0 0 7.875,23.50A0.25,0.25 0 0 0 7.125,23.50zM8.125,23.50A0.25,0.25 0 0 0 8.875,23.50A0.25,0.25 0 0 0 8.125,23.50zM9.125,23.50A0.25,0.25 0 0 0 9.875,23.50A0.25,0.25 0 0 0 9.125,23.50zM11.125,23.50A0.25,0.25 0 0 0 11.875,23.50A0.25,0.25 0 0 0 11.125,23.50zM14.125,23.50A0.25,0.25 0 0 0 14.875,23.50A0.25,0.25 0 0 0 14.125,23.50zM15.125,23.50A0.25,0.25 0 0 0 15.875,23.50A0.25,0.25 0 0 0 15.125,23.50zM19.125,23.50A0.25,0.25 0 0 0 19.875,23.50A0.25,0.25 0 0 0 19.125,23.50zM22.125,23.50A0.25,0.25 0 0 0 22.875,23.50A0.25,0.25 0 0 0 22.125,23.50zM28.125,23.50A0.25,0.25 0 0 0 28.875,23.50A0.25,0.25 0 0 0 28.125,23.50zM31.125,23.50A0.25,0.25 0 0 0 31.875,23.50A0.25,0.25 0 0 0 31.125,23.50zM32.125,23.50A0.25,0.25 0 0 0 32.875,23.50A0.25,0.25 0 0 0 32.125,23.50zM33.125,23.50A0.25,0.25 0 0 0 33.875,23.50A0.25,0.25 0 0 0 33.125,23.50zM34.125,23.50A0.25,0.25 0 0 0 34.875,23.50A0.25,0.25 0 0 0 34.125,23.50zM35.125,23.50A0.25,0.25 0 0 0 35.875,23.50A0.25,0.25 0 0 0 35.125,23.50zM36.125,23.50A0.25,0.25 0 0 0 36.875,23.50A0.25,0.25 0 0 0 36.125,23.50zM38.125,23.50A0.25,0.25 0 0 0 38.875,23.50A0.25,0.25 0 0 0 38.125,23.50zM40.125,23.50A0.25,0.25 0 0 0 40.875,23.50A0.25,0.25 0 0 0 40.125,23.50zM42.125,23.50A0.25,0.25 0 0 0 42.875,23.50A0.25,0.25 0 0 0 42.125,23.50zM43.125,23.50A0.25,0.25 0 0 0 43.875,23.50A0.25,0.25 0 0 0 43.125,23.50zM44.125,23.50A0.25,0.25 0 0 0 44.875,23.50A0.25,0.25 0 0 0 44.125,23.50zM4.125,24.50A0.25,0.25 0 0 0 4.875,24.50A0.25,0.25 0 0 0 4.125,24.50zM5.125,24.50A0.25,0.25 0 0 0 5.875,24.50A0.25,0.25 0 0 0 5.125,24.50zM7.125,24.50A0.25,0.25 0 0 0 7.875,24.50A0.25,0.25 0 0 0 7.125,24.50zM9.125,24.50A0.25,0.25 0 0 0 9.875,24.50A0.25,0.25 0 0 0 9.125,24.50zM10.125,24.50A0.25,0.25 0 0 0 10.875,24.50A0.25,0.25 0 0 0 10.125,24.50zM14.125,24.50A0.25,0.25 0 0 0 14.875,24.50A0.25,0.25 0 0 0 14.125,24.50zM15.125,24.50A0.25,0.25 0 0 0 15.875,24.50A0.25,0.25 0 0 0 15.125,24.50zM16.125,24.50A0.25,0.25 0 0 0 16.875,24.50A0.25,0.25 0 0 0 16.125,24.50zM18.125,24.50A0.25,0.25 0 0 0 18.875,24.50A0.25,0.25 0 0 0 18.125,24.50zM19.125,24.50A0.25,0.25 0 0 0 19.875,24.50A0.25,0.25 0 0 0 19.125,24.50zM23.125,24.50A0.25,0.25 0 0 0 23.875,24.50A0.25,0.25 0 0 0 23.125,24.50zM24.125,24.50A0.25,0.25 0 0 0 24.875,24.50A0.25,0.25 0 0 0 24.125,24.50zM26.125,24.50A0.25,0.25 0 0 0 26.875,24.50A0.25,0.25 0 0 0 26.125,24.50zM27.125,24.50A0.25,0.25 0 0 0 27.875,24.50A0.25,0.25 0 0 0 27.125,24.50zM29.125,24.50A0.25,0.25 0 0 0 29.875,24.50A0.25,0.25 0 0 0 29.125,24.50zM30.125,24.50A0.25,0.25 0 0 0 30.875,24.50A0.25,0.25 0 0 0 30.125,24.50zM32.125,24.50A0.25,0.25 0 0 0 32.875,24.50A0.25,0.25 0 0 0 32.125,24.50zM36.125,24.50A0.25,0.25 0 0 0 36.875,24.50A0.25,0.25 0 0 0 36.125,24.50zM38.125,24.50A0.25,0.25 0 0 0 38.875,24.50A0.25,0.25 0 0 0 38.125,24.50zM39.125,24.50A0.25,0.25 0 0 0 39.875,24.50A0.25,0.25 0 0 0 39.125,24.50zM41.125,24.50A0.25,0.25 0 0 0 41.875,24.50A0.25,0.25 0 0 0 41.125,24.50zM42.125,24.50A0.25,0.25 0 0 0 42.875,24.50A0.25,0.25 0 0 0 42.125,24.50zM4.125,25.50A0.25,0.25 0 0 0 4.875,25.50A0.25,0.25 0 0 0 4.125,25.50zM5.125,25.50A0.25,0.25 0 0 0 5.875,25.50A0.25,0.25 0 0 0 5.125,25.50zM8.125,25.50A0.25,0.25 0 0 0 8.875,25.50A0.25,0.25 0 0 0 8.125,25.50zM9.125,25.50A0.25,0.25 0 0 0 9.875,25.50A0.25,0.25 0 0 0 9.125,25.50zM11.125,25.50A0.25,0.25 0 0 0 11.875,25.50A0.25,0.25 0 0 0 11.125,25.50zM13.125,25.50A0.25,0.25 0 0 0 13.875,25.50A0.25,0.25 0 0 0 13.125,25.50zM14.125,25.50A0.25,0.25 0 0 0 14.875,25.50A0.25,0.25 0 0 0 14.125,25.50zM15.125,25.50A0.25,0.25 0 0 0 15.875,25.50A0.25,0.25 0 0 0 15.125,25.50zM19.125,25.50A0.25,0.25 0 0 0 19.875,25.50A0.25,0.25 0 0 0 19.125,25.50zM20.125,25.50A0.25,0.25 0 0 0 20.875,25.50A0.25,0.25 0 0 0 20.125,25.50zM21.125,25.50A0.25,0.25 0 0 0 21.875,25.50A0.25,0.25 0 0 0 21.125,25.50zM22.125,25.50A0.25,0.25 0 0 0 22.875,25.50A0.25,0.25 0 0 0 22.125,25.50zM24.125,25.50A0.25,0.25 0 0 0 24.875,25.50A0.25,0.25 0 0 0 24.125,25.50zM25.125,25.50A0.25,0.25 0 0 0 25.875,25.50A0.25,0.25 0 0 0 25.125,25.50zM26.125,25.50A0.25,0.25 0 0 0 26.875,25.50A0.25,0.25 0 0 0 26.125,25.50zM29.125,25.50A0.25,0.25 0 0 0 29.875,25.50A0.25,0.25 0 0 0 29.125,25.50zM30.125,25.50A0.25,0.25 0 0 0 30.875,25.50A0.25,0.25 0 0 0 30.125,25.50zM31.125,25.50A0.25,0.25 0 0 0 31.875,25.50A0.25,0.25 0 0 0 31.125,25.50zM34.125,25.50A0.25,0.25 0 0 0 34.875,25.50A0.25,0.25 0 0 0 34.125,25.50zM35.125,25.50A0.25,0.25 0 0 0 35.875,25.50A0.25,0.25 0 0 0 35.125,25.50zM40.125,25.50A0.25,0.25 0 0 0 40.875,25.50A0.25,0.25 0 0 0 40.125,25.50zM41.125,25.50A0.25,0.25 0 0 0 41.875,25.50A0.25,0.25 0 0 0 41.125,25.50zM4.125,26.50A0.25,0.25 0 0 0 4.875,26.50A0.25,0.25 0 0 0 4.125,26.50zM5.125,26.50A0.25,0.25 0 0 0 5.875,26.50A0.25,0.25 0 0 0 5.125,26.50zM6.125,26.50A0.25,0.25 0 0 0 6.875,26.50A0.25,0.25 0 0 0 6.125,26.50zM7.125,26.50A0.25,0.25 0 0 0 7.875,26.50A0.25,0.25 0 0 0 7.125,26.50zM8.125,26.50A0.25,0.25 0 0 0 8.875,26.50A0.25,0.25 0 0 0 8.125,26.50zM9.125,26.50A0.25,0.25 0 0 0 9.875,26.50A0.25,0.25 0 0 0 9.125,26.50zM10.125,26.50A0.25,0.25 0 0 0 10.875,26.50A0.25,0.25 0 0 0 10.125,26.50zM11.125,26.50A0.25,0.25 0 0 0 11.875,26.50A0.25,0.25 0 0 0 11.125,26.50zM13.125,26.50A0.25,0.25 0 0 0 13.875,26.50A0.25,0.25 0 0 0 13.125,26.50zM15.125,26.50A0.25,0.25 0 0 0 15.875,26.50A0.25,0.25 0 0 0 15.125,26.50zM17.125,26.50A0.25,0.25 0 0 0 17.875,26.50A0.25,0.25 0 0 0 17.125,26.50zM18.125,26.50A0.25,0.25 0 0 0 18.875,26.50A0.25,0.25 0 0 0 18.125,26.50zM20.125,26.50A0.25,0.25 0 0 0 20.875,26.50A0.25,0.25 0 0 0 20.125,26.50zM21.125,26.50A0.25,0.25 0 0 0 21.875,26.50A0.25,0.25 0 0 0 21.125,26.50zM25.125,26.50A0.25,0.25 0 0 0 25.875,26.50A0.25,0.25 0 0 0 25.125,26.50zM26.125,26.50A0.25,0.25 0 0 0 26.875,26.50A0.25,0.25 0 0 0 26.125,26.50zM27.125,26.50A0.25,0.25 0 0 0 27.875,26.50A0.25,0.25 0 0 0 27.125,26.50zM30.125,26.50A0.25,0.25 0 0 0 30.875,26.50A0.25,0.25 0 0 0 30.125,26.50zM31.125,26.50A0.25,0.25 0 0 0 31.875,26.50A0.25,0.25 0 0 0 31.125,26.50zM34.125,26.50A0.25,0.25 0 0 0 34.875,26.50A0.25,0.25 0 0 0 34.125,26.50zM38.125,26.50A0.25,0.25 0 0 0 38.875,26.50A0.25,0.25 0 0 0 38.125,26.50zM39.125,26.50A0.25,0.25 0 0 0 39.875,26.50A0.25,0.25 0 0 0 39.125,26.50zM40.125,26.50A0.25,0.25 0 0 0 40.875,26.50A0.25,0.25 0 0 0 40.125,26.50zM41.125,26.50A0.25,0.25 0 0 0 41.875,26.50A0.25,0.25 0 0 0 41.125,26.50zM42.125,26.50A0.25,0.25 0 0 0 42.875,26.50A0.25,0.25 0 0 0 42.125,26.50zM6.125,27.50A0.25,0.25 0 0 0 6.875,27.50A0.25,0.25 0 0 0 6.125,27.50zM8.125,27.50A0.25,0.25 0 0 0 8.875,27.50A0.25,0.25 0 0 0 8.125,27.50zM9.125,27.50A0.25,0.25 0 0 0 9.875,27.50A0.25,0.25 0 0 0 9.125,27.50zM12.125,27.50A0.25,0.25 0 0 0 12.875,27.50A0.25,0.25 0 0 0 12.125,27.50zM13.125,27.50A0.25,0.25 0 0 0 13.875,27.50A0.25,0.25 0 0 0 13.125,27.50zM19.125,27.50A0.25,0.25 0 0 0 19.875,27.50A0.25,0.25 0 0 0 19.125,27.50zM23.125,27.50A0.25,0.25 0 0 0 23.875,27.50A0.25,0.25 0 0 0 23.125,27.50zM25.125,27.50A0.25,0.25 0 0 0 25.875,27.50A0.25,0.25 0 0 0 25.125,27.50zM26.125,27.50A0.25,0.25 0 0 0 26.875,27.50A0.25,0.25 0 0 0 26.125,27.50zM27.125,27.50A0.25,0.25 0 0 0 27.875,27.50A0.25,0.25 0 0 0 27.125,27.50zM30.125,27.50A0.25,0.25 0 0 0 30.875,27.50A0.25,0.25 0 0 0 30.125,27.50zM31.125,27.50A0.25,0.25 0 0 0 31.875,27.50A0.25,0.25 0 0 0 31.125,27.50zM33.125,27.50A0.25,0.25 0 0 0 33.875,27.50A0.25,0.25 0 0 0 33.125,27.50zM38.125,27.50A0.25,0.25 0 0 0 38.875,27.50A0.25,0.25 0 0 0 38.125,27.50zM39.125,27.50A0.25,0.25 0 0 0 39.875,27.50A0.25,0.25 0 0 0 39.125,27.50zM40.125,27.50A0.25,0.25 0 0 0 40.875,27.50A0.25,0.25 0 0 0 40.125,27.50zM43.125,27.50A0.25,0.25 0 0 0 43.875,27.50A0.25,0.25 0 0 0 43.125,27.50zM4.125,28.50A0.25,0.25 0 0 0 4.875,28.50A0.25,0.25 0 0 0 4.125,28.50zM5.125,28.50A0.25,0.25 0 0 0 5.875,28.50A0.25,0.25 0 0 0 5.125,28.50zM7.125,28.50A0.25,0.25 0 0 0 7.875,28.50A0.25,0.25 0 0 0 7.125,28.50zM9.125,28.50A0.25,0.25 0 0 0 9.875,28.50A0.25,0.25 0 0 0 9.125,28.50zM10.125,28.50A0.25,0.25 0 0 0 10.875,28.50A0.25,0.25 0 0 0 10.125,28.50zM11.125,28.50A0.25,0.25 0 0 0 11.875,28.50A0.25,0.25 0 0 0 11.125,28.50zM12.125,28.50A0.25,0.25 0 0 0 12.875,28.50A0.25,0.25 0 0 0 12.125,28.50zM13.125,28.50A0.25,0.25 0 0 0 13.875,28.50A0.25,0.25 0 0 0 13.125,28.50zM14.125,28.50A0.25,0.25 0 0 0 14.875,28.50A0.25,0.25 0 0 0 14.125,28.50zM15.125,28.50A0.25,0.25 0 0 0 15.875,28.50A0.25,0.25 0 0 0 15.125,28.50zM19.125,28.50A0.25,0.25 0 0 0 19.875,28.50A0.25,0.25 0 0 0 19.125,28.50zM20.125,28.50A0.25,0.25 0 0 0 20.875,28.50A0.25,0.25 0 0 0 20.125,28.50zM23.125,28.50A0.25,0.25 0 0 0 23.875,28.50A0.25,0.25 0 0 0 23.125,28.50zM25.125,28.50A0.25,0.25 0 0 0 25.875,28.50A0.25,0.25 0 0 0 25.125,28.50zM26.125,28.50A0.25,0.25 0 0 0 26.875,28.50A0.25,0.25 0 0 0 26.125,28.50zM30.125,28.50A0.25,0.25 0 0 0 30.875,28.50A0.25,0.25 0 0 0 30.125,28.50zM32.125,28.50A0.25,0.25 0 0 0 32.875,28.50A0.25,0.25 0 0 0 32.125,28.50zM36.125,28.50A0.25,0.25 0 0 0 36.875,28.50A0.25,0.25 0 0 0 36.125,28.50zM38.125,28.50A0.25,0.25 0 0 0 38.875,28.50A0.25,0.25 0 0 0 38.125,28.50zM39.125,28.50A0.25,0.25 0 0 0 39.875,28.50A0.25,0.25 0 0 0 39.125,28.50zM43.125,28.50A0.25,0.25 0 0 0 43.875,28.50A0.25,0.25 0 0 0 43.125,28.50zM44.125,28.50A0.25,0.25 0 0 0 44.875,28.50A0.25,0.25 0 0 0 44.125,28.50zM9.125,29.50A0.25,0.25 0 0 0 9.875,29.50A0.25,0.25 0 0 0 9.125,29.50zM11.125,29.50A0.25,0.25 0 0 0 11.875,29.50A0.25,0.25 0 0 0 11.125,29.50zM12.125,29.50A0.25,0.25 0 0 0 12.875,29.50A0.25,0.25 0 0 0 12.125,29.50zM20.125,29.50A0.25,0.25 0 0 0 20.875,29.50A0.25,0.25 0 0 0 20.125,29.50zM21.125,29.50A0.25,0.25 0 0 0 21.875,29.50A0.25,0.25 0 0 0 21.125,29.50zM22.125,29.50A0.25,0.25 0 0 0 22.875,29.50A0.25,0.25 0 0 0 22.125,29.50zM26.125,29.50A0.25,0.25 0 0 0 26.875,29.50A0.25,0.25 0 0 0 26.125,29.50zM27.125,29.50A0.25,0.25 0 0 0 27.875,29.50A0.25,0.25 0 0 0 27.125,29.50zM28.125,29.50A0.25,0.25 0 0 0 28.875,29.50A0.25,0.25 0 0 0 28.125,29.50zM29.125,29.50A0.25,0.25 0 0 0 29.875,29.50A0.25,0.25 0 0 0 29.125,29.50zM31.125,29.50A0.25,0.25 0 0 0 31.875,29.50A0.25,0.25 0 0 0 31.125,29.50zM32.125,29.50A0.25,0.25 0 0 0 32.875,29.50A0.25,0.25 0 0 0 32.125,29.50zM34.125,29.50A0.25,0.25 0 0 0 34.875,29.50A0.25,0.25 0 0 0 34.125,29.50zM36.125,29.50A0.25,0.25 0 0 0 36.875,29.50A0.25,0.25 0 0 0 36.125,29.50zM38.125,29.50A0.25,0.25 0 0 0 38.875,29.50A0.25,0.25 0 0 0 38.125,29.50zM39.125,29.50A0.25,0.25 0 0 0 39.875,29.50A0.25,0.25 0 0 0 39.125,29.50zM40.125,29.50A0.25,0.25 0 0 0 40.875,29.50A0.25,0.25 0 0 0 40.125,29.50zM42.125,29.50A0.25,0.25 0 0 0 42.875,29.50A0.25,0.25 0 0 0 42.125,29.50zM44.125,29.50A0.25,0.25 0 0 0 44.875,29.50A0.25,0.25 0 0 0 44.125,29.50zM4.125,30.50A0.25,0.25 0 0 0 4.875,30.50A0.25,0.25 0 0 0 4.125,30.50zM5.125,30.50A0.25,0.25 0 0 0 5.875,30.50A0.25,0.25 0 0 0 5.125,30.50zM6.125,30.50A0.25,0.25 0 0 0 6.875,30.50A0.25,0.25 0 0 0 6.125,30.50zM8.125,30.50A0.25,0.25 0 0 0 8.875,30.50A0.25,0.25 0 0 0 8.125,30.50zM9.125,30.50A0.25,0.25 0 0 0 9.875,30.50A0.25,0.25 0 0 0 9.125,30.50zM10.125,30.50A0.25,0.25 0 0 0 10.875,30.50A0.25,0.25 0 0 0 10.125,30.50zM13.125,30.50A0.25,0.25 0 0 0 13.875,30.50A0.25,0.25 0 0 0 13.125,30.50zM14.125,30.50A0.25,0.25 0 0 0 14.875,30.50A0.25,0.25 0 0 0 14.125,30.50zM15.125,30.50A0.25,0.25 0 0 0 15.875,30.50A0.25,0.25 0 0 0 15.125,30.50zM16.125,30.50A0.25,0.25 0 0 0 16.875,30.50A0.25,0.25 0 0 0 16.125,30.50zM19.125,30.50A0.25,0.25 0 0 0 19.875,30.50A0.25,0.25 0 0 0 19.125,30.50zM20.125,30.50A0.25,0.25 0 0 0 20.875,30.50A0.25,0.25 0 0 0 20.125,30.50zM24.125,30.50A0.25,0.25 0 0 0 24.875,30.50A0.25,0.25 0 0 0 24.125,30.50zM25.125,30.50A0.25,0.25 0 0 0 25.875,30.50A0.25,0.25 0 0 0 25.125,30.50zM26.125,30.50A0.25,0.25 0 0 0 26.875,30.50A0.25,0.25 0 0 0 26.125,30.50zM29.125,30.50A0.25,0.25 0 0 0 29.875,30.50A0.25,0.25 0 0 0 29.125,30.50zM30.125,30.50A0.25,0.25 0 0 0 30.875,30.50A0.25,0.25 0 0 0 30.125,30.50zM31.125,30.50A0.25,0.25 0 0 0 31.875,30.50A0.25,0.25 0 0 0 31.125,30.50zM32.125,30.50A0.25,0.25 0 0 0 32.875,30.50A0.25,0.25 0 0 0 32.125,30.50zM35.125,30.50A0.25,0.25 0 0 0 35.875,30.50A0.25,0.25 0 0 0 35.125,30.50zM36.125,30.50A0.25,0.25 0 0 0 36.875,30.50A0.25,0.25 0 0 0 36.125,30.50zM38.125,30.50A0.25,0.25 0 0 0 38.875,30.50A0.25,0.25 0 0 0 38.125,30.50zM40.125,30.50A0.25,0.25 0 0 0 40.875,30.50A0.25,0.25 0 0 0 40.125,30.50zM41.125,30.50A0.25,0.25 0 0 0 41.875,30.50A0.25,0.25 0 0 0 41.125,30.50zM44.125,30.50A0.25,0.25 0 0 0 44.875,30.50A0.25,0.25 0 0 0 44.125,30.50zM5.125,31.50A0.25,0.25 0 0 0 5.875,31.50A0.25,0.25 0 0 0 5.125,31.50zM6.125,31.50A0.25,0.25 0 0 0 6.875,31.50A0.25,0.25 0 0 0 6.125,31.50zM7.125,31.50A0.25,0.25 0 0 0 7.875,31.50A0.25,0.25 0 0 0 7.125,31.50zM8.125,31.50A0.25,0.25 0 0 0 8.875,31.50A0.25,0.25 0 0 0 8.125,31.50zM9.125,31.50A0.25,0.25 0 0 0 9.875,31.50A0.25,0.25 0 0 0 9.125,31.50zM12.125,31.50A0.25,0.25 0 0 0 12.875,31.50A0.25,0.25 0 0 0 12.125,31.50zM16.125,31.50A0.25,0.25 0 0 0 16.875,31.50A0.25,0.25 0 0 0 16.125,31.50zM17.125,31.50A0.25,0.25 0 0 0 17.875,31.50A0.25,0.25 0 0 0 17.125,31.50zM20.125,31.50A0.25,0.25 0 0 0 20.875,31.50A0.25,0.25 0 0 0 20.125,31.50zM24.125,31.50A0.25,0.25 0 0 0 24.875,31.50A0.25,0.25 0 0 0 24.125,31.50zM31.125,31.50A0.25,0.25 0 0 0 31.875,31.50A0.25,0.25 0 0 0 31.125,31.50zM35.125,31.50A0.25,0.25 0 0 0 35.875,31.50A0.25,0.25 0 0 0 35.125,31.50zM37.125,31.50A0.25,0.25 0 0 0 37.875,31.50A0.25,0.25 0 0 0 37.125,31.50zM38.125,31.50A0.25,0.25 0 0 0 38.875,31.50A0.25,0.25 0 0 0 38.125,31.50zM39.125,31.50A0.25,0.25 0 0 0 39.875,31.50A0.25,0.25 0 0 0 39.125,31.50zM40.125,31.50A0.25,0.25 0 0 0 40.875,31.50A0.25,0.25 0 0 0 40.125,31.50zM41.125,31.50A0.25,0.25 0 0 0 41.875,31.50A0.25,0.25 0 0 0 41.125,31.50zM42.125,31.50A0.25,0.25 0 0 0 42.875,31.50A0.25,0.25 0 0 0 42.125,31.50zM44.125,31.50A0.25,0.25 0 0 0 44.875,31.50A0.25,0.25 0 0 0 44.125,31.50zM5.125,32.50A0.25,0.25 0 0 0 5.875,32.50A0.25,0.25 0 0 0 5.125,32.50zM9.125,32.50A0.25,0.25 0 0 0 9.875,32.50A0.25,0.25 0 0 0 9.125,32.50zM10.125,32.50A0.25,0.25 0 0 0 10.875,32.50A0.25,0.25 0 0 0 10.125,32.50zM13.125,32.50A0.25,0.25 0 0 0 13.875,32.50A0.25,0.25 0 0 0 13.125,32.50zM14.125,32.50A0.25,0.25 0 0 0 14.875,32.50A0.25,0.25 0 0 0 14.125,32.50zM16.125,32.50A0.25,0.25 0 0 0 16.875,32.50A0.25,0.25 0 0 0 16.125,32.50zM20.125,32.50A0.25,0.25 0 0 0 20.875,32.50A0.25,0.25 0 0 0 20.125,32.50zM22.125,32.50A0.25,0.25 0 0 0 22.875,32.50A0.25,0.25 0 0 0 22.125,32.50zM23.125,32.50A0.25,0.25 0 0 0 23.875,32.50A0.25,0.25 0 0 0 23.125,32.50zM24.125,32.50A0.25,0.25 0 0 0 24.875,32.50A0.25,0.25 0 0 0 24.125,32.50zM25.125,32.50A0.25,0.25 0 0 0 25.875,32.50A0.25,0.25 0 0 0 25.125,32.50zM26.125,32.50A0.25,0.25 0 0 0 26.875,32.50A0.25,0.25 0 0 0 26.125,32.50zM27.125,32.50A0.25,0.25 0 0 0 27.875,32.50A0.25,0.25 0 0 0 27.125,32.50zM28.125,32.50A0.25,0.25 0 0 0 28.875,32.50A0.25,0.25 0 0 0 28.125,32.50zM35.125,32.50A0.25,0.25 0 0 0 35.875,32.50A0.25,0.25 0 0 0 35.125,32.50zM36.125,32.50A0.25,0.25 0 0 0 36.875,32.50A0.25,0.25 0 0 0 36.125,32.50zM37.125,32.50A0.25,0.25 0 0 0 37.875,32.50A0.25,0.25 0 0 0 37.125,32.50zM39.125,32.50A0.25,0.25 0 0 0 39.875,32.50A0.25,0.25 0 0 0 39.125,32.50zM41.125,32.50A0.25,0.25 0 0 0 41.875,32.50A0.25,0.25 0 0 0 41.125,32.50zM44.125,32.50A0.25,0.25 0 0 0 44.875,32.50A0.25,0.25 0 0 0 44.125,32.50zM4.125,33.50A0.25,0.25 0 0 0 4.875,33.50A0.25,0.25 0 0 0 4.125,33.50zM7.125,33.50A0.25,0.25 0 0 0 7.875,33.50A0.25,0.25 0 0 0 7.125,33.50zM9.125,33.50A0.25,0.25 0 0 0 9.875,33.50A0.25,0.25 0 0 0 9.125,33.50zM12.125,33.50A0.25,0.25 0 0 0 12.875,33.50A0.25,0.25 0 0 0 12.125,33.50zM13.125,33.50A0.25,0.25 0 0 0 13.875,33.50A0.25,0.25 0 0 0 13.125,33.50zM16.125,33.50A0.25,0.25 0 0 0 16.875,33.50A0.25,0.25 0 0 0 16.125,33.50zM18.125,33.50A0.25,0.25 0 0 0 18.875,33.50A0.25,0.25 0 0 0 18.125,33.50zM19.125,33.50A0.25,0.25 0 0 0 19.875,33.50A0.25,0.25 0 0 0 19.125,33.50zM22.125,33.50A0.25,0.25 0 0 0 22.875,33.50A0.25,0.25 0 0 0 22.125,33.50zM23.125,33.50A0.25,0.25 0 0 0 23.875,33.50A0.25,0.25 0 0 0 23.125,33.50zM25.125,33.50A0.25,0.25 0 0 0 25.875,33.50A0.25,0.25 0 0 0 25.125,33.50zM26.125,33.50A0.25,0.25 0 0 0 26.875,33.50A0.25,0.25 0 0 0 26.125,33.50zM28.125,33.50A0.25,0.25 0 0 0 28.875,33.50A0.25,0.25 0 0 0 28.125,33.50zM29.125,33.50A0.25,0.25 0 0 0 29.875,33.50A0.25,0.25 0 0 0 29.125,33.50zM30.125,33.50A0.25,0.25 0 0 0 30.875,33.50A0.25,0.25 0 0 0 30.125,33.50zM34.125,33.50A0.25,0.25 0 0 0 34.875,33.50A0.25,0.25 0 0 0 34.125,33.50zM40.125,33.50A0.25,0.25 0 0 0 40.875,33.50A0.25,0.25 0 0 0 40.125,33.50zM41.125,33.50A0.25,0.25 0 0 0 41.875,33.50A0.25,0.25 0 0 0 41.125,33.50zM4.125,34.50A0.25,0.25 0 0 0 4.875,34.50A0.25,0.25 0 0 0 4.125,34.50zM5.125,34.50A0.25,0.25 0 0 0 5.875,34.50A0.25,0.25 0 0 0 5.125,34.50zM7.125,34.50A0.25,0.25 0 0 0 7.875,34.50A0.25,0.25 0 0 0 7.125,34.50zM9.125,34.50A0.25,0.25 0 0 0 9.875,34.50A0.25,0.25 0 0 0 9.125,34.50zM10.125,34.50A0.25,0.25 0 0 0 10.875,34.50A0.25,0.25 0 0 0 10.125,34.50zM11.125,34.50A0.25,0.25 0 0 0 11.875,34.50A0.25,0.25 0 0 0 11.125,34.50zM13.125,34.50A0.25,0.25 0 0 0 13.875,34.50A0.25,0.25 0 0 0 13.125,34.50zM14.125,34.50A0.25,0.25 0 0 0 14.875,34.50A0.25,0.25 0 0 0 14.125,34.50zM15.125,34.50A0.25,0.25 0 0 0 15.875,34.50A0.25,0.25 0 0 0 15.125,34.50zM18.125,34.50A0.25,0.25 0 0 0 18.875,34.50A0.25,0.25 0 0 0 18.125,34.50zM19.125,34.50A0.25,0.25 0 0 0 19.875,34.50A0.25,0.25 0 0 0 19.125,34.50zM22.125,34.50A0.25,0.25 0 0 0 22.875,34.50A0.25,0.25 0 0 0 22.125,34.50zM23.125,34.50A0.25,0.25 0 0 0 23.875,34.50A0.25,0.25 0 0 0 23.125,34.50zM26.125,34.50A0.25,0.25 0 0 0 26.875,34.50A0.25,0.25 0 0 0 26.125,34.50zM27.125,34.50A0.25,0.25 0 0 0 27.875,34.50A0.25,0.25 0 0 0 27.125,34.50zM29.125,34.50A0.25,0.25 0 0 0 29.875,34.50A0.25,0.25 0 0 0 29.125,34.50zM30.125,34.50A0.25,0.25 0 0 0 30.875,34.50A0.25,0.25 0 0 0 30.125,34.50zM32.125,34.50A0.25,0.25 0 0 0 32.875,34.50A0.25,0.25 0 0 0 32.125,34.50zM33.125,34.50A0.25,0.25 0 0 0 33.875,34.50A0.25,0.25 0 0 0 33.125,34.50zM35.125,34.50A0.25,0.25 0 0 0 35.875,34.50A0.25,0.25 0 0 0 35.125,34.50zM37.125,34.50A0.25,0.25 0 0 0 37.875,34.50A0.25,0.25 0 0 0 37.125,34.50zM40.125,34.50A0.25,0.25 0 0 0 40.875,34.50A0.25,0.25 0 0 0 40.125,34.50zM42.125,34.50A0.25,0.25 0 0 0 42.875,34.50A0.25,0.25 0 0 0 42.125,34.50zM43.125,34.50A0.25,0.25 0 0 0 43.875,34.50A0.25,0.25 0 0 0 43.125,34.50zM44.125,34.50A0.25,0.25 0 0 0 44.875,34.50A0.25,0.25 0 0 0 44.125,34.50zM4.125,35.50A0.25,0.25 0 0 0 4.875,35.50A0.25,0.25 0 0 0 4.125,35.50zM5.125,35.50A0.25,0.25 0 0 0 5.875,35.50A0.25,0.25 0 0 0 5.125,35.50zM7.125,35.50A0.25,0.25 0 0 0 7.875,35.50A0.25,0.25 0 0 0 7.125,35.50zM8.125,35.50A0.25,0.25 0 0 0 8.875,35.50A0.25,0.25 0 0 0 8.125,35.50zM11.125,35.50A0.25,0.25 0 0 0 11.875,35.50A0.25,0.25 0 0 0 11.125,35.50zM12.125,35.50A0.25,0.25 0 0 0 12.875,35.50A0.25,0.25 0 0 0 12.125,35.50zM17.125,35.50A0.25,0.25 0 0 0 17.875,35.50A0.25,0.25 0 0 0 17.125,35.50zM19.125,35.50A0.25,0.25 0 0 0 19.875,35.50A0.25,0.25 0 0 0 19.125,35.50zM21.125,35.50A0.25,0.25 0 0 0 21.875,35.50A0.25,0.25 0 0 0 21.125,35.50zM23.125,35.50A0.25,0.25 0 0 0 23.875,35.50A0.25,0.25 0 0 0 23.125,35.50zM28.125,35.50A0.25,0.25 0 0 0 28.875,35.50A0.25,0.25 0 0 0 28.125,35.50zM29.125,35.50A0.25,0.25 0 0 0 29.875,35.50A0.25,0.25 0 0 0 29.125,35.50zM31.125,35.50A0.25,0.25 0 0 0 31.875,35.50A0.25,0.25 0 0 0 31.125,35.50zM32.125,35.50A0.25,0.25 0 0 0 32.875,35.50A0.25,0.25 0 0 0 32.125,35.50zM38.125,35.50A0.25,0.25 0 0 0 38.875,35.50A0.25,0.25 0 0 0 38.125,35.50zM42.125,35.50A0.25,0.25 0 0 0 42.875,35.50A0.25,0.25 0 0 0 42.125,35.50zM43.125,35.50A0.25,0.25 0 0 0 43.875,35.50A0.25,0.25 0 0 0 43.125,35.50zM44.125,35.50A0.25,0.25 0 0 0 44.875,35.50A0.25,0.25 0 0 0 44.125,35.50zM4.125,36.50A0.25,0.25 0 0 0 4.875,36.50A0.25,0.25 0 0 0 4.125,36.50zM5.125,36.50A0.25,0.25 0 0 0 5.875,36.50A0.25,0.25 0 0 0 5.125,36.50zM6.125,36.50A0.25,0.25 0 0 0 6.875,36.50A0.25,0.25 0 0 0 6.125,36.50zM7.125,36.50A0.25,0.25 0 0 0 7.875,36.50A0.25,0.25 0 0 0 7.125,36.50zM9.125,36.50A0.25,0.25 0 0 0 9.875,36.50A0.25,0.25 0 0 0 9.125,36.50zM10.125,36.50A0.25,0.25 0 0 0 10.875,36.50A0.25,0.25 0 0 0 10.125,36.50zM12.125,36.50A0.25,0.25 0 0 0 12.875,36.50A0.25,0.25 0 0 0 12.125,36.50zM13.125,36.50A0.25,0.25 0 0 0 13.875,36.50A0.25,0.25 0 0 0 13.125,36.50zM15.125,36.50A0.25,0.25 0 0 0 15.875,36.50A0.25,0.25 0 0 0 15.125,36.50zM17.125,36.50A0.25,0.25 0 0 0 17.875,36.50A0.25,0.25 0 0 0 17.125,36.50zM19.125,36.50A0.25,0.25 0 0 0 19.875,36.50A0.25,0.25 0 0 0 19.125,36.50zM20.125,36.50A0.25,0.25 0 0 0 20.875,36.50A0.25,0.25 0 0 0 20.125,36.50zM21.125,36.50A0.25,0.25 0 0 0 21.875,36.50A0.25,0.25 0 0 0 21.125,36.50zM23.125,36.50A0.25,0.25 0 0 0 23.875,36.50A0.25,0.25 0 0 0 23.125,36.50zM25.125,36.50A0.25,0.25 0 0 0 25.875,36.50A0.25,0.25 0 0 0 25.125,36.50zM26.125,36.50A0.25,0.25 0 0 0 26.875,36.50A0.25,0.25 0 0 0 26.125,36.50zM27.125,36.50A0.25,0.25 0 0 0 27.875,36.50A0.25,0.25 0 0 0 27.125,36.50zM28.125,36.50A0.25,0.25 0 0 0 28.875,36.50A0.25,0.25 0 0 0 28.125,36.50zM29.125,36.50A0.25,0.25 0 0 0 29.875,36.50A0.25,0.25 0 0 0 29.125,36.50zM30.125,36.50A0.25,0.25 0 0 0 30.875,36.50A0.25,0.25 0 0 0 30.125,36.50zM32.125,36.50A0.25,0.25 0 0 0 32.875,36.50A0.25,0.25 0 0 0 32.125,36.50zM33.125,36.50A0.25,0.25 0 0 0 33.875,36.50A0.25,0.25 0 0 0 33.125,36.50zM36.125,36.50A0.25,0.25 0 0 0 36.875,36.50A0.25,0.25 0 0 0 36.125,36.50zM37.125,36.50A0.25,0.25 0 0 0 37.875,36.50A0.25,0.25 0 0 0 37.125,36.50zM38.125,36.50A0.25,0.25 0 0 0 38.875,36.50A0.25,0.25 0 0 0 38.125,36.50zM39.125,36.50A0.25,0.25 0 0 0 39.875,36.50A0.25,0.25 0 0 0 39.125,36.50zM40.125,36.50A0.25,0.25 0 0 0 40.875,36.50A0.25,0.25 0 0 0 40.125,36.50zM41.125,36.50A0.25,0.25 0 0 0 41.875,36.50A0.25,0.25 0 0 0 41.125,36.50zM42.125,36.50A0.25,0.25 0 0 0 42.875,36.50A0.25,0.25 0 0 0 42.125,36.50zM12.125,37.50A0.25,0.25 0 0 0 12.875,37.50A0.25,0.25 0 0 0 12.125,37.50zM14.125,37.50A0.25,0.25 0 0 0 14.875,37.50A0.25,0.25 0 0 0 14.125,37.50zM15.125,37.50A0.25,0.25 0 0 0 15.875,37.50A0.25,0.25 0 0 0 15.125,37.50zM16.125,37.50A0.25,0.25 0 0 0 16.875,37.50A0.25,0.25 0 0 0 16.125,37.50zM17.125,37.50A0.25,0.25 0 0 0 17.875,37.50A0.25,0.25 0 0 0 17.125,37.50zM22.125,37.50A0.25,0.25 0 0 0 22.875,37.50A0.25,0.25 0 0 0 22.125,37.50zM23.125,37.50A0.25,0.25 0 0 0 23.875,37.50A0.25,0.25 0 0 0 23.125,37.50zM25.125,37.50A0.25,0.25 0 0 0 25.875,37.50A0.25,0.25 0 0 0 25.125,37.50zM26.125,37.50A0.25,0.25 0 0 0 26.875,37.50A0.25,0.25 0 0 0 26.125,37.50zM28.125,37.50A0.25,0.25 0 0 0 28.875,37.50A0.25,0.25 0 0 0 28.125,37.50zM29.125,37.50A0.25,0.25 0 0 0 29.875,37.50A0.25,0.25 0 0 0 29.125,37.50zM30.125,37.50A0.25,0.25 0 0 0 30.875,37.50A0.25,0.25 0 0 0 30.125,37.50zM31.125,37.50A0.25,0.25 0 0 0 31.875,37.50A0.25,0.25 0 0 0 31.125,37.50zM36.125,37.50A0.25,0.25 0 0 0 36.875,37.50A0.25,0.25 0 0 0 36.125,37.50zM40.125,37.50A0.25,0.25 0 0 0 40.875,37.50A0.25,0.25 0 0 0 40.125,37.50zM41.125,37.50A0.25,0.25 0 0 0 41.875,37.50A0.25,0.25 0 0 0 41.125,37.50zM4,38H5V39H4zM5,38H6V39H5zM6,38H7V39H6zM7,38H8V39H7zM8,38H9V39H8zM9,38H10V39H9zM10,38H11V39H10zM12.125,38.50A0.25,0.25 0 0 0 12.875,38.50A0.25,0.25 0 0 0 12.125,38.50zM13.125,38.50A0.25,0.25 0 0 0 13.875,38.50A0.25,0.25 0 0 0 13.125,38.50zM14.125,38.50A0.25,0.25 0 0 0 14.875,38.50A0.25,0.25 0 0 0 14.125,38.50zM15.125,38.50A0.25,0.25 0 0 0 15.875,38.50A0.25,0.25 0 0 0 15.125,38.50zM16.125,38.50A0.25,0.25 0 0 0 16.875,38.50A0.25,0.25 0 0 0 16.125,38.50zM17.125,38.50A0.25,0.25 0 0 0 17.875,38.50A0.25,0.25 0 0 0 17.125,38.50zM18.125,38.50A0.25,0.25 0 0 0 18.875,38.50A0.25,0.25 0 0 0 18.125,38.50zM19.125,38.50A0.25,0.25 0 0 0 19.875,38.50A0.25,0.25 0 0 0 19.125,38.50zM22.125,38.50A0.25,0.25 0 0 0 22.875,38.50A0.25,0.25 0 0 0 22.125,38.50zM27.125,38.50A0.25,0.25 0 0 0 27.875,38.50A0.25,0.25 0 0 0 27.125,38.50zM30.125,38.50A0.25,0.25 0 0 0 30.875,38.50A0.25,0.25 0 0 0 30.125,38.50zM31.125,38.50A0.25,0.25 0 0 0 31.875,38.50A0.25,0.25 0 0 0 31.125,38.50zM32.125,38.50A0.25,0.25 0 0 0 32.875,38.50A0.25,0.25 0 0 0 32.125,38.50zM33.125,38.50A0.25,0.25 0 0 0 33.875,38.50A0.25,0.25 0 0 0 33.125,38.50zM34.125,38.50A0.25,0.25 0 0 0 34.875,38.50A0.25,0.25 0 0 0 34.125,38.50zM35.125,38.50A0.25,0.25 0 0 0 35.875,38.50A0.25,0.25 0 0 0 35.125,38.50zM36.125,38.50A0.25,0.25 0 0 0 36.875,38.50A0.25,0.25 0 0 0 36.125,38.50zM38.125,38.50A0.25,0.25 0 0 0 38.875,38.50A0.25,0.25 0 0 0 38.125,38.50zM40.125,38.50A0.25,0.25 0 0 0 40.875,38.50A0.25,0.25 0 0 0 40.125,38.50zM41.125,38.50A0.25,0.25 0 0 0 41.875,38.50A0.25,0.25 0 0 0 41.125,38.50zM4,39H5V40H4zM10,39H11V40H10zM15.125,39.50A0.25,0.25 0 0 0 15.875,39.50A0.25,0.25 0 0 0 15.125,39.50zM16.125,39.50A0.25,0.25 0 0 0 16.875,39.50A0.25,0.25 0 0 0 16.125,39.50zM17.125,39.50A0.25,0.25 0 0 0 17.875,39.50A0.25,0.25 0 0 0 17.125,39.50zM18.125,39.50A0.25,0.25 0 0 0 18.875,39.50A0.25,0.25 0 0 0 18.125,39.50zM19.125,39.50A0.25,0.25 0 0 0 19.875,39.50A0.25,0.25 0 0 0 19.125,39.50zM20.125,39.50A0.25,0.25 0 0 0 20.875,39.50A0.25,0.25 0 0 0 20.125,39.50zM22.125,39.50A0.25,0.25 0 0 0 22.875,39.50A0.25,0.25 0 0 0 22.125,39.50zM23.125,39.50A0.25,0.25 0 0 0 23.875,39.50A0.25,0.25 0 0 0 23.125,39.50zM25.125,39.50A0.25,0.25 0 0 0 25.875,39.50A0.25,0.25 0 0 0 25.125,39.50zM27.125,39.50A0.25,0.25 0 0 0 27.875,39.50A0.25,0.25 0 0 0 27.125,39.50zM28.125,39.50A0.25,0.25 0 0 0 28.875,39.50A0.25,0.25 0 0 0 28.125,39.50zM29.125,39.50A0.25,0.25 0 0 0 29.875,39.50A0.25,0.25 0 0 0 29.125,39.50zM30.125,39.50A0.25,0.25 0 0 0 30.875,39.50A0.25,0.25 0 0 0 30.125,39.50zM31.125,39.50A0.25,0.25 0 0 0 31.875,39.50A0.25,0.25 0 0 0 31.125,39.50zM33.125,39.50A0.25,0.25 0 0 0 33.875,39.50A0.25,0.25 0 0 0 33.125,39.50zM35.125,39.50A0.25,0.25 0 0 0 35.875,39.50A0.25,0.25 0 0 0 35.125,39.50zM36.125,39.50A0.25,0.25 0 0 0 36.875,39.50A0.25,0.25 0 0 0 36.125,39.50zM40.125,39.50A0.25,0.25 0 0 0 40.875,39.50A0.25,0.25 0 0 0 40.125,39.50zM41.125,39.50A0.25,0.25 0 0 0 41.875,39.50A0.25,0.25 0 0 0 41.125,39.50zM44.125,39.50A0.25,0.25 0 0 0 44.875,39.50A0.25,0.25 0 0 0 44.125,39.50zM4,40H5V41H4zM6,40H7V41H6zM7,40H8V41H7zM8,40H9V41H8zM10,40H11V41H10zM12.125,40.50A0.25,0.25 0 0 0 12.875,40.50A0.25,0.25 0 0 0 12.125,40.50zM14.125,40.50A0.25,0.25 0 0 0 14.875,40.50A0.25,0.25 0 0 0 14.125,40.50zM19.125,40.50A0.25,0.25 0 0 0 19.875,40.50A0.25,0.25 0 0 0 19.125,40.50zM20.125,40.50A0.25,0.25 0 0 0 20.875,40.50A0.25,0.25 0 0 0 20.125,40.50zM21.125,40.50A0.25,0.25 0 0 0 21.875,40.50A0.25,0.25 0 0 0 21.125,40.50zM24.125,40.50A0.25,0.25 0 0 0 24.875,40.50A0.25,0.25 0 0 0 24.125,40.50zM29.125,40.50A0.25,0.25 0 0 0 29.875,40.50A0.25,0.25 0 0 0 29.125,40.50zM31.125,40.50A0.25,0.25 0 0 0 31.875,40.50A0.25,0.25 0 0 0 31.125,40.50zM32.125,40.50A0.25,0.25 0 0 0 32.875,40.50A0.25,0.25 0 0 0 32.125,40.50zM33.125,40.50A0.25,0.25 0 0 0 33.875,40.50A0.25,0.25 0 0 0 33.125,40.50zM34.125,40.50A0.25,0.25 0 0 0 34.875,40.50A0.25,0.25 0 0 0 34.125,40.50zM35.125,40.50A0.25,0.25 0 0 0 35.875,40.50A0.25,0.25 0 0 0 35.125,40.50zM36.125,40.50A0.25,0.25 0 0 0 36.875,40.50A0.25,0.25 0 0 0 36.125,40.50zM37.125,40.50A0.25,0.25 0 0 0 37.875,40.50A0.25,0.25 0 0 0 37.125,40.50zM38.125,40.50A0.25,0.25 0 0 0 38.875,40.50A0.25,0.25 0 0 0 38.125,40.50zM39.125,40.50A0.25,0.25 0 0 0 39.875,40.50A0.25,0.25 0 0 0 39.125,40.50zM40.125,40.50A0.25,0.25 0 0 0 40.875,40.50A0.25,0.25 0 0 0 40.125,40.50zM41.125,40.50A0.25,0.25 0 0 0 41.875,40.50A0.25,0.25 0 0 0 41.125,40.50zM44.125,40.50A0.25,0.25 0 0 0 44.875,40.50A0.25,0.25 0 0 0 44.125,40.50zM4,41H5V42H4zM6,41H7V42H6zM7,41H8V42H7zM8,41H9V42H8zM10,41H11V42H10zM12.125,41.50A0.25,0.25 0 0 0 12.875,41.50A0.25,0.25 0 0 0 12.125,41.50zM14.125,41.50A0.25,0.25 0 0 0 14.875,41.50A0.25,0.25 0 0 0 14.125,41.50zM16.125,41.50A0.25,0.25 0 0 0 16.875,41.50A0.25,0.25 0 0 0 16.125,41.50zM17.125,41.50A0.25,0.25 0 0 0 17.875,41.50A0.25,0.25 0 0 0 17.125,41.50zM21.125,41.50A0.25,0.25 0 0 0 21.875,41.50A0.25,0.25 0 0 0 21.125,41.50zM22.125,41.50A0.25,0.25 0 0 0 22.875,41.50A0.25,0.25 0 0 0 22.125,41.50zM23.125,41.50A0.25,0.25 0 0 0 23.875,41.50A0.25,0.25 0 0 0 23.125,41.50zM24.125,41.50A0.25,0.25 0 0 0 24.875,41.50A0.25,0.25 0 0 0 24.125,41.50zM25.125,41.50A0.25,0.25 0 0 0 25.875,41.50A0.25,0.25 0 0 0 25.125,41.50zM29.125,41.50A0.25,0.25 0 0 0 29.875,41.50A0.25,0.25 0 0 0 29.125,41.50zM31.125,41.50A0.25,0.25 0 0 0 31.875,41.50A0.25,0.25 0 0 0 31.125,41.50zM33.125,41.50A0.25,0.25 0 0 0 33.875,41.50A0.25,0.25 0 0 0 33.125,41.50zM35.125,41.50A0.25,0.25 0 0 0 35.875,41.50A0.25,0.25 0 0 0 35.125,41.50zM36.125,41.50A0.25,0.25 0 0 0 36.875,41.50A0.25,0.25 0 0 0 36.125,41.50zM39.125,41.50A0.25,0.25 0 0 0 39.875,41.50A0.25,0.25 0 0 0 39.125,41.50zM41.125,41.50A0.25,0.25 0 0 0 41.875,41.50A0.25,0.25 0 0 0 41.125,41.50zM42.125,41.50A0.25,0.25 0 0 0 42.875,41.50A0.25,0.25 0 0 0 42.125,41.50zM43.125,41.50A0.25,0.25 0 0 0 43.875,41.50A0.25,0.25 0 0 0 43.125,41.50zM44.125,41.50A0.25,0.25 0 0 0 44.875,41.50A0.25,0.25 0 0 0 44.125,41.50zM4,42H5V43H4zM6,42H7V43H6zM7,42H8V43H7zM8,42H9V43H8zM10,42H11V43H10zM14.125,42.50A0.25,0.25 0 0 0 14.875,42.50A0.25,0.25 0 0 0 14.125,42.50zM16.125,42.50A0.25,0.25 0 0 0 16.875,42.50A0.25,0.25 0 0 0 16.125,42.50zM17.125,42.50A0.25,0.25 0 0 0 17.875,42.50A0.25,0.25 0 0 0 17.125,42.50zM18.125,42.50A0.25,0.25 0 0 0 18.875,42.50A0.25,0.25 0 0 0 18.125,42.50zM19.125,42.50A0.25,0.25 0 0 0 19.875,42.50A0.25,0.25 0 0 0 19.125,42.50zM21.125,42.50A0.25,0.25 0 0 0 21.875,42.50A0.25,0.25 0 0 0 21.125,42.50zM22.125,42.50A0.25,0.25 0 0 0 22.875,42.50A0.25,0.25 0 0 0 22.125,42.50zM23.125,42.50A0.25,0.25 0 0 0 23.875,42.50A0.25,0.25 0 0 0 23.125,42.50zM24.125,42.50A0.25,0.25 0 0 0 24.875,42.50A0.25,0.25 0 0 0 24.125,42.50zM26.125,42.50A0.25,0.25 0 0 0 26.875,42.50A0.25,0.25 0 0 0 26.125,42.50zM27.125,42.50A0.25,0.25 0 0 0 27.875,42.50A0.25,0.25 0 0 0 27.125,42.50zM28.125,42.50A0.25,0.25 0 0 0 28.875,42.50A0.25,0.25 0 0 0 28.125,42.50zM29.125,42.50A0.25,0.25 0 0 0 29.875,42.50A0.25,0.25 0 0 0 29.125,42.50zM30.125,42.50A0.25,0.25 0 0 0 30.875,42.50A0.25,0.25 0 0 0 30.125,42.50zM31.125,42.50A0.25,0.25 0 0 0 31.875,42.50A0.25,0.25 0 0 0 31.125,42.50zM32.125,42.50A0.25,0.25 0 0 0 32.875,42.50A0.25,0.25 0 0 0 32.125,42.50zM33.125,42.50A0.25,0.25 0 0 0 33.875,42.50A0.25,0.25 0 0 0 33.125,42.50zM36.125,42.50A0.25,0.25 0 0 0 36.875,42.50A0.25,0.25 0 0 0 36.125,42.50zM37.125,42.50A0.25,0.25 0 0 0 37.875,42.50A0.25,0.25 0 0 0 37.125,42.50zM39.125,42.50A0.25,0.25 0 0 0 39.875,42.50A0.25,0.25 0 0 0 39.125,42.50zM40.125,42.50A0.25,0.25 0 0 0 40.875,42.50A0.25,0.25 0 0 0 40.125,42.50zM41.125,42.50A0.25,0.25 0 0 0 41.875,42.50A0.25,0.25 0 0 0 41.125,42.50zM42.125,42.50A0.25,0.25 0 0 0 42.875,42.50A0.25,0.25 0 0 0 42.125,42.50zM43.125,42.50A0.25,0.25 0 0 0 43.875,42.50A0.25,0.25 0 0 0 43.125,42.50zM44.125,42.50A0.25,0.25 0 0 0 44.875,42.50A0.25,0.25 0 0 0 44.125,42.50zM4,43H5V44H4zM10,43H11V44H10zM13.125,43.50A0.25,0.25 0 0 0 13.875,43.50A0.25,0.25 0 0 0 13.125,43.50zM15.125,43.50A0.25,0.25 0 0 0 15.875,43.50A0.25,0.25 0 0 0 15.125,43.50zM16.125,43.50A0.25,0.25 0 0 0 16.875,43.50A0.25,0.25 0 0 0 16.125,43.50zM18.125,43.50A0.25,0.25 0 0 0 18.875,43.50A0.25,0.25 0 0 0 18.125,43.50zM19.125,43.50A0.25,0.25 0 0 0 19.875,43.50A0.25,0.25 0 0 0 19.125,43.50zM20.125,43.50A0.25,0.25 0 0 0 20.875,43.50A0.25,0.25 0 0 0 20.125,43.50zM27.125,43.50A0.25,0.25 0 0 0 27.875,43.50A0.25,0.25 0 0 0 27.125,43.50zM30.125,43.50A0.25,0.25 0 0 0 30.875,43.50A0.25,0.25 0 0 0 30.125,43.50zM31.125,43.50A0.25,0.25 0 0 0 31.875,43.50A0.25,0.25 0 0 0 31.125,43.50zM32.125,43.50A0.25,0.25 0 0 0 32.875,43.50A0.25,0.25 0 0 0 32.125,43.50zM37.125,43.50A0.25,0.25 0 0 0 37.875,43.50A0.25,0.25 0 0 0 37.125,43.50zM38.125,43.50A0.25,0.25 0 0 0 38.875,43.50A0.25,0.25 0 0 0 38.125,43.50zM40.125,43.50A0.25,0.25 0 0 0 40.875,43.50A0.25,0.25 0 0 0 40.125,43.50zM42.125,43.50A0.25,0.25 0 0 0 42.875,43.50A0.25,0.25 0 0 0 42.125,43.50zM44.125,43.50A0.25,0.25 0 0 0 44.875,43.50A0.25,0.25 0 0 0 44.125,43.50zM4,44H5V45H4zM5,44H6V45H5zM6,44H7V45H6zM7,44H8V45H7zM8,44H9V45H8zM9,44H10V45H9zM10,44H11V45H10zM13.125,44.50A0.25,0.25 0 0 0 13.875,44.50A0.25,0.25 0 0 0 13.125,44.50zM14.125,44.50A0.25,0.25 0 0 0 14.875,44.50A0.25,0.25 0 0 0 14.125,44.50zM16.125,44.50A0.25,0.25 0 0 0 16.875,44.50A0.25,0.25 0 0 0 16.125,44.50zM17.125,44.50A0.25,0.25 0 0 0 17.875,44.50A0.25,0.25 0 0 0 17.125,44.50zM18.125,44.50A0.25,0.25 0 0 0 18.875,44.50A0.25,0.25 0 0 0 18.125,44.50zM19.125,44.50A0.25,0.25 0 0 0 19.875,44.50A0.25,0.25 0 0 0 19.125,44.50zM25.125,44.50A0.25,0.25 0 0 0 25.875,44.50A0.25,0.25 0 0 0 25.125,44.50zM26.125,44.50A0.25,0.25 0 0 0 26.875,44.50A0.25,0.25 0 0 0 26.125,44.50zM29.125,44.50A0.25,0.25 0 0 0 29.875,44.50A0.25,0.25 0 0 0 29.125,44.50zM31.125,44.50A0.25,0.25 0 0 0 31.875,44.50A0.25,0.25 0 0 0 31.125,44.50zM35.125,44.50A0.25,0.25 0 0 0 35.875,44.50A0.25,0.25 0 0 0 35.125,44.50zM36.125,44.50A0.25,0.25 0 0 0 36.875,44.50A0.25,0.25 0 0 0 36.125,44.50zM38.125,44.50A0.25,0.25 0 0 0 38.875,44.50A0.25,0.25 0 0 0 38.125,44.50zM40.125,44.50A0.25,0.25 0 0 0 40.875,44.50A0.25,0.25 0 0 0 40.125,44.50zM41.125,44.50A0.25,0.25 0 0 0 41.875,44.50A0.25,0.25 0 0 0 41.125,44.50z" id="qr-path" fill="#ffffff" fill-opacity="1" fill-rule="nonzero" stroke="none" /></svg>